%TF.GenerationSoftware,KiCad,Pcbnew,(6.0.2)*%
%TF.CreationDate,2022-03-25T17:55:46+07:00*%
%TF.ProjectId,Driver_motor_V02,44726976-6572-45f6-9d6f-746f725f5630,rev?*%
%TF.SameCoordinates,Original*%
%TF.FileFunction,Copper,L2,Bot*%
%TF.FilePolarity,Positive*%
%FSLAX46Y46*%
G04 Gerber Fmt 4.6, Leading zero omitted, Abs format (unit mm)*
G04 Created by KiCad (PCBNEW (6.0.2)) date 2022-03-25 17:55:46*
%MOMM*%
%LPD*%
G01*
G04 APERTURE LIST*
G04 Aperture macros list*
%AMRoundRect*
0 Rectangle with rounded corners*
0 $1 Rounding radius*
0 $2 $3 $4 $5 $6 $7 $8 $9 X,Y pos of 4 corners*
0 Add a 4 corners polygon primitive as box body*
4,1,4,$2,$3,$4,$5,$6,$7,$8,$9,$2,$3,0*
0 Add four circle primitives for the rounded corners*
1,1,$1+$1,$2,$3*
1,1,$1+$1,$4,$5*
1,1,$1+$1,$6,$7*
1,1,$1+$1,$8,$9*
0 Add four rect primitives between the rounded corners*
20,1,$1+$1,$2,$3,$4,$5,0*
20,1,$1+$1,$4,$5,$6,$7,0*
20,1,$1+$1,$6,$7,$8,$9,0*
20,1,$1+$1,$8,$9,$2,$3,0*%
G04 Aperture macros list end*
%TA.AperFunction,ComponentPad*%
%ADD10RoundRect,0.250000X0.725000X-0.600000X0.725000X0.600000X-0.725000X0.600000X-0.725000X-0.600000X0*%
%TD*%
%TA.AperFunction,ComponentPad*%
%ADD11O,1.950000X1.700000*%
%TD*%
%TA.AperFunction,ComponentPad*%
%ADD12R,2.000000X2.000000*%
%TD*%
%TA.AperFunction,ComponentPad*%
%ADD13C,2.000000*%
%TD*%
%TA.AperFunction,ComponentPad*%
%ADD14C,4.700000*%
%TD*%
%TA.AperFunction,ComponentPad*%
%ADD15R,2.400000X1.600000*%
%TD*%
%TA.AperFunction,ComponentPad*%
%ADD16O,2.400000X1.600000*%
%TD*%
%TA.AperFunction,ComponentPad*%
%ADD17C,5.000000*%
%TD*%
%TA.AperFunction,ComponentPad*%
%ADD18R,1.600000X1.600000*%
%TD*%
%TA.AperFunction,ComponentPad*%
%ADD19C,1.600000*%
%TD*%
%TA.AperFunction,ComponentPad*%
%ADD20RoundRect,0.875000X0.875000X-0.875000X0.875000X0.875000X-0.875000X0.875000X-0.875000X-0.875000X0*%
%TD*%
%TA.AperFunction,ComponentPad*%
%ADD21C,3.500000*%
%TD*%
%TA.AperFunction,ComponentPad*%
%ADD22C,3.000000*%
%TD*%
%TA.AperFunction,SMDPad,CuDef*%
%ADD23RoundRect,0.250000X0.262500X0.450000X-0.262500X0.450000X-0.262500X-0.450000X0.262500X-0.450000X0*%
%TD*%
%TA.AperFunction,SMDPad,CuDef*%
%ADD24RoundRect,0.250000X-0.475000X0.250000X-0.475000X-0.250000X0.475000X-0.250000X0.475000X0.250000X0*%
%TD*%
%TA.AperFunction,SMDPad,CuDef*%
%ADD25RoundRect,0.250000X0.475000X-0.250000X0.475000X0.250000X-0.475000X0.250000X-0.475000X-0.250000X0*%
%TD*%
%TA.AperFunction,ViaPad*%
%ADD26C,1.000000*%
%TD*%
%TA.AperFunction,ViaPad*%
%ADD27C,1.016000*%
%TD*%
%TA.AperFunction,Conductor*%
%ADD28C,1.016000*%
%TD*%
%TA.AperFunction,Conductor*%
%ADD29C,0.762000*%
%TD*%
G04 APERTURE END LIST*
D10*
%TO.P,J2,1,Pin_1*%
%TO.N,/PWM*%
X115225000Y-95750000D03*
D11*
%TO.P,J2,2,Pin_2*%
%TO.N,/DIR*%
X115225000Y-93250000D03*
%TO.P,J2,3,Pin_3*%
%TO.N,/GND1*%
X115225000Y-90750000D03*
%TD*%
D12*
%TO.P,C1,1*%
%TO.N,VCC*%
X129500000Y-117367677D03*
D13*
%TO.P,C1,2*%
%TO.N,GND*%
X129500000Y-112367677D03*
%TD*%
D14*
%TO.P,REF\u002A\u002A,*%
%TO.N,*%
X108500000Y-89750000D03*
%TD*%
D15*
%TO.P,U3,1,A1*%
%TO.N,Net-(R10-Pad2)*%
X113975000Y-101075000D03*
D16*
%TO.P,U3,2,C1*%
%TO.N,/GND1*%
X113975000Y-103615000D03*
%TO.P,U3,3,C2*%
X113975000Y-106155000D03*
%TO.P,U3,4,A2*%
%TO.N,Net-(R11-Pad2)*%
X113975000Y-108695000D03*
%TO.P,U3,5,GND*%
%TO.N,GND*%
X121595000Y-108695000D03*
%TO.P,U3,6,VO2*%
%TO.N,/B*%
X121595000Y-106155000D03*
%TO.P,U3,7,VO1*%
%TO.N,/A*%
X121595000Y-103615000D03*
%TO.P,U3,8,VCC*%
%TO.N,+5V*%
X121595000Y-101075000D03*
%TD*%
D17*
%TO.P,REF\u002A\u002A,*%
%TO.N,*%
X108500000Y-128750000D03*
%TD*%
D18*
%TO.P,C2,1*%
%TO.N,VCC*%
X151750000Y-99747349D03*
D19*
%TO.P,C2,2*%
%TO.N,GND*%
X151750000Y-103547349D03*
%TD*%
D20*
%TO.P,J1,1,Pin_1*%
%TO.N,/M+*%
X161125000Y-120680000D03*
D21*
%TO.P,J1,2,Pin_2*%
%TO.N,/M-*%
X161125000Y-113060000D03*
%TO.P,J1,3,Pin_3*%
%TO.N,GND*%
X161125000Y-105440000D03*
%TO.P,J1,4,Pin_4*%
%TO.N,Net-(F1-Pad1)*%
X161125000Y-97820000D03*
%TD*%
D17*
%TO.P,REF\u002A\u002A,*%
%TO.N,*%
X168500000Y-128750000D03*
%TD*%
D12*
%TO.P,C5,1*%
%TO.N,VCC*%
X129500000Y-128250000D03*
D13*
%TO.P,C5,2*%
%TO.N,GND*%
X129500000Y-123250000D03*
%TD*%
D22*
%TO.P,F1,1*%
%TO.N,Net-(F1-Pad1)*%
X154500000Y-91750000D03*
%TO.P,F1,2*%
%TO.N,VCC*%
X132000000Y-91750000D03*
%TD*%
D14*
%TO.P,REF\u002A\u002A,*%
%TO.N,*%
X168500000Y-89750000D03*
%TD*%
D15*
%TO.P,U2,1*%
%TO.N,Net-(U2-Pad1)*%
X121550000Y-127830000D03*
D16*
%TO.P,U2,2*%
%TO.N,/B*%
X121550000Y-125290000D03*
%TO.P,U2,3*%
X121550000Y-122750000D03*
%TO.P,U2,4*%
%TO.N,/IN1*%
X121550000Y-120210000D03*
%TO.P,U2,5*%
%TO.N,Net-(U2-Pad1)*%
X121550000Y-117670000D03*
%TO.P,U2,6*%
%TO.N,/A*%
X121550000Y-115130000D03*
%TO.P,U2,7,GND*%
%TO.N,GND*%
X121550000Y-112590000D03*
%TO.P,U2,8*%
%TO.N,/A*%
X113930000Y-112590000D03*
%TO.P,U2,9*%
%TO.N,/B*%
X113930000Y-115130000D03*
%TO.P,U2,10*%
%TO.N,/IN2*%
X113930000Y-117670000D03*
%TO.P,U2,11*%
%TO.N,N/C*%
X113930000Y-120210000D03*
%TO.P,U2,12*%
X113930000Y-122750000D03*
%TO.P,U2,13*%
X113930000Y-125290000D03*
%TO.P,U2,14,VCC*%
%TO.N,+5V*%
X113930000Y-127830000D03*
%TD*%
D23*
%TO.P,R13,1*%
%TO.N,/B*%
X118662500Y-107750000D03*
%TO.P,R13,2*%
%TO.N,+5V*%
X116837500Y-107750000D03*
%TD*%
%TO.P,R12,1*%
%TO.N,/A*%
X118662500Y-105500000D03*
%TO.P,R12,2*%
%TO.N,+5V*%
X116837500Y-105500000D03*
%TD*%
D24*
%TO.P,C7,1*%
%TO.N,GND*%
X124500000Y-99300000D03*
%TO.P,C7,2*%
%TO.N,+5V*%
X124500000Y-101200000D03*
%TD*%
D25*
%TO.P,C6,1*%
%TO.N,+5V*%
X117250000Y-127250000D03*
%TO.P,C6,2*%
%TO.N,GND*%
X117250000Y-125350000D03*
%TD*%
D26*
%TO.N,GND*%
X141250000Y-107000000D03*
X142125000Y-119250000D03*
X142750000Y-120400000D03*
X129900000Y-97000000D03*
X117600000Y-123000000D03*
X116400000Y-124250000D03*
X141700000Y-100600000D03*
X145000000Y-98000000D03*
X145200000Y-100600000D03*
X135500000Y-113000000D03*
X116400000Y-123000000D03*
X145200000Y-102350000D03*
X139750000Y-107000000D03*
X144000000Y-120400000D03*
X129875581Y-99500000D03*
X143375000Y-119250000D03*
X145200000Y-104100000D03*
X143300000Y-102500000D03*
X144250000Y-107000000D03*
X141700000Y-104100000D03*
X143500000Y-98000000D03*
X140250000Y-120400000D03*
X135500000Y-115000000D03*
X117600000Y-124250000D03*
X143450000Y-100600000D03*
X129882558Y-98250000D03*
X142000000Y-98000000D03*
X142750000Y-107000000D03*
X143450000Y-104100000D03*
X141700000Y-102350000D03*
X140875000Y-119250000D03*
X140500000Y-98000000D03*
X141500000Y-120400000D03*
%TO.N,+5V*%
X135500000Y-124250000D03*
X135500000Y-111000000D03*
X124125000Y-90675000D03*
D27*
X127750000Y-100000000D03*
%TO.N,/M+*%
X150499596Y-123250000D03*
X154499596Y-123250000D03*
X154499596Y-129250000D03*
X148499596Y-123250000D03*
X148499596Y-129250000D03*
X152499596Y-127250000D03*
X154499596Y-127250000D03*
X150499596Y-125250000D03*
X148499596Y-125250000D03*
X154499596Y-125250000D03*
X152499596Y-123250000D03*
X150499596Y-129250000D03*
X152499596Y-129250000D03*
X150499596Y-127250000D03*
X148499596Y-127250000D03*
X152499596Y-125250000D03*
%TO.N,/M-*%
X152500000Y-114250000D03*
X150500000Y-114250000D03*
X148500000Y-110250000D03*
X154500000Y-114250000D03*
X150500000Y-112250000D03*
X154500000Y-112250000D03*
X148500000Y-112250000D03*
X152500000Y-112250000D03*
X150500000Y-108250000D03*
X150500000Y-110250000D03*
X152500000Y-110250000D03*
X148500000Y-108250000D03*
X152500000Y-108250000D03*
X154500000Y-110250000D03*
X148500000Y-114250000D03*
X154500000Y-108250000D03*
D26*
%TO.N,/IN1*%
X135500000Y-122250000D03*
%TO.N,/IN2*%
X135500000Y-109000000D03*
X119125000Y-112500000D03*
%TD*%
D28*
%TO.N,+5V*%
X137250000Y-122500000D02*
X137250000Y-123500000D01*
X119375000Y-102125000D02*
X121595000Y-99905000D01*
X121595000Y-101075000D02*
X121595000Y-99345000D01*
X113930000Y-127830000D02*
X115830000Y-127830000D01*
X124975000Y-101075000D02*
X125000000Y-101050000D01*
X125000000Y-101050000D02*
X126950000Y-101050000D01*
X137250000Y-112250000D02*
X137250000Y-122500000D01*
X116837500Y-105500000D02*
X116837500Y-104662500D01*
X121595000Y-93205000D02*
X124125000Y-90675000D01*
X128550000Y-101050000D02*
X134050000Y-101050000D01*
X121620000Y-101050000D02*
X121595000Y-101075000D01*
X137250000Y-112250000D02*
X137250000Y-111750000D01*
X137250000Y-128207680D02*
X134957680Y-130500000D01*
X116837500Y-104662500D02*
X119375000Y-102125000D01*
X137250000Y-125250000D02*
X137250000Y-125000000D01*
X137250000Y-123500000D02*
X136500000Y-124250000D01*
X135500000Y-111000000D02*
X136500000Y-111000000D01*
X128550000Y-101050000D02*
X127750000Y-100250000D01*
X121595000Y-99345000D02*
X121595000Y-93205000D01*
X134957680Y-130500000D02*
X118500000Y-130500000D01*
X120425000Y-101075000D02*
X121595000Y-101075000D01*
X116800000Y-127750000D02*
X114010000Y-127750000D01*
X137000000Y-124250000D02*
X137250000Y-124500000D01*
X127750000Y-100250000D02*
X126950000Y-101050000D01*
X114010000Y-127750000D02*
X113930000Y-127830000D01*
X136500000Y-111000000D02*
X137000000Y-111000000D01*
X137000000Y-111000000D02*
X137250000Y-111250000D01*
X137250000Y-110250000D02*
X136500000Y-111000000D01*
X137250000Y-124500000D02*
X137250000Y-125250000D01*
X115910000Y-127750000D02*
X115830000Y-127830000D01*
X135500000Y-124250000D02*
X136500000Y-124250000D01*
X137250000Y-110000000D02*
X137250000Y-110250000D01*
X115830000Y-127830000D02*
X116800000Y-128800000D01*
X127800000Y-101050000D02*
X128550000Y-101050000D01*
X121595000Y-101075000D02*
X124975000Y-101075000D01*
X127750000Y-100000000D02*
X127750000Y-100250000D01*
X137250000Y-123500000D02*
X137250000Y-124500000D01*
X119375000Y-102125000D02*
X120425000Y-101075000D01*
X137250000Y-125250000D02*
X137250000Y-128207680D01*
X118500000Y-130500000D02*
X116800000Y-128800000D01*
X116837500Y-107750000D02*
X116837500Y-105500000D01*
X127750000Y-100000000D02*
X127750000Y-101000000D01*
X127750000Y-101000000D02*
X127800000Y-101050000D01*
X116800000Y-127750000D02*
X116800000Y-128800000D01*
X137250000Y-111750000D02*
X136500000Y-111000000D01*
X137250000Y-104250000D02*
X137250000Y-110250000D01*
X137250000Y-110000000D02*
X137250000Y-111250000D01*
X137250000Y-111250000D02*
X137250000Y-112250000D01*
X136500000Y-124250000D02*
X137000000Y-124250000D01*
X121595000Y-99905000D02*
X121595000Y-99345000D01*
X116800000Y-127750000D02*
X115910000Y-127750000D01*
X134050000Y-101050000D02*
X137250000Y-104250000D01*
X126950000Y-101050000D02*
X127800000Y-101050000D01*
X137250000Y-125000000D02*
X136500000Y-124250000D01*
%TO.N,/GND1*%
X113975000Y-103615000D02*
X115135000Y-103615000D01*
X115135000Y-103615000D02*
X116000000Y-102750000D01*
X113975000Y-104775000D02*
X113975000Y-104975000D01*
X117500000Y-92750000D02*
X115500000Y-90750000D01*
X115500000Y-90750000D02*
X115225000Y-90750000D01*
X117500000Y-101250000D02*
X117500000Y-92750000D01*
X113975000Y-104975000D02*
X113975000Y-103615000D01*
X116000000Y-102750000D02*
X117500000Y-101250000D01*
X116000000Y-102750000D02*
X113975000Y-104775000D01*
X113975000Y-106155000D02*
X113975000Y-104975000D01*
D29*
%TO.N,/IN1*%
X121550000Y-120210000D02*
X133460000Y-120210000D01*
X133460000Y-120210000D02*
X135500000Y-122250000D01*
%TO.N,/IN2*%
X120850000Y-110750000D02*
X122500000Y-110750000D01*
X122500000Y-110750000D02*
X124250000Y-109000000D01*
X124250000Y-109000000D02*
X135500000Y-109000000D01*
X119125000Y-112475000D02*
X120850000Y-110750000D01*
X119125000Y-112500000D02*
X119125000Y-112475000D01*
%TO.N,/A*%
X121585000Y-103625000D02*
X121595000Y-103615000D01*
X120547500Y-103615000D02*
X118662500Y-105500000D01*
X121595000Y-103615000D02*
X120547500Y-103615000D01*
X116840000Y-112590000D02*
X119380000Y-115130000D01*
X119380000Y-115130000D02*
X121550000Y-115130000D01*
X113930000Y-112590000D02*
X116840000Y-112590000D01*
%TO.N,/B*%
X115630000Y-115130000D02*
X118500000Y-118000000D01*
X118500000Y-118000000D02*
X118500000Y-120250000D01*
X118662500Y-107750000D02*
X118750000Y-107750000D01*
X118500000Y-120250000D02*
X121000000Y-122750000D01*
X120345000Y-106155000D02*
X121595000Y-106155000D01*
X113930000Y-115130000D02*
X115630000Y-115130000D01*
X121000000Y-122750000D02*
X121550000Y-122750000D01*
X118750000Y-107750000D02*
X120345000Y-106155000D01*
X121550000Y-122750000D02*
X121550000Y-125290000D01*
X121590000Y-106150000D02*
X121595000Y-106155000D01*
%TD*%
%TA.AperFunction,Conductor*%
%TO.N,/M-*%
G36*
X156042121Y-106680002D02*
G01*
X156088614Y-106733658D01*
X156100000Y-106786000D01*
X156100000Y-115584000D01*
X156079998Y-115652121D01*
X156026342Y-115698614D01*
X155974000Y-115710000D01*
X146826000Y-115710000D01*
X146757879Y-115689998D01*
X146711386Y-115636342D01*
X146700000Y-115584000D01*
X146700000Y-106786000D01*
X146720002Y-106717879D01*
X146773658Y-106671386D01*
X146826000Y-106660000D01*
X155974000Y-106660000D01*
X156042121Y-106680002D01*
G37*
%TD.AperFunction*%
%TD*%
%TA.AperFunction,Conductor*%
%TO.N,/M+*%
G36*
X156041717Y-121680002D02*
G01*
X156088210Y-121733658D01*
X156099596Y-121786000D01*
X156099596Y-130584000D01*
X156079594Y-130652121D01*
X156025938Y-130698614D01*
X155973596Y-130710000D01*
X146825596Y-130710000D01*
X146757475Y-130689998D01*
X146710982Y-130636342D01*
X146699596Y-130584000D01*
X146699596Y-121786000D01*
X146719598Y-121717879D01*
X146773254Y-121671386D01*
X146825596Y-121660000D01*
X155973596Y-121660000D01*
X156041717Y-121680002D01*
G37*
%TD.AperFunction*%
%TD*%
%TA.AperFunction,Conductor*%
%TO.N,GND*%
G36*
X131015931Y-110020002D02*
G01*
X131036905Y-110036905D01*
X132213095Y-111213095D01*
X132247121Y-111275407D01*
X132250000Y-111302190D01*
X132250000Y-113947810D01*
X132229998Y-114015931D01*
X132213095Y-114036905D01*
X131036905Y-115213095D01*
X130974593Y-115247121D01*
X130947810Y-115250000D01*
X124802190Y-115250000D01*
X124734069Y-115229998D01*
X124713095Y-115213095D01*
X123000000Y-113500000D01*
X121052190Y-113500000D01*
X120984069Y-113479998D01*
X120963095Y-113463095D01*
X120536905Y-113036905D01*
X120502879Y-112974593D01*
X120500000Y-112947810D01*
X120500000Y-112410133D01*
X120520002Y-112342012D01*
X120536905Y-112321038D01*
X121071038Y-111786905D01*
X121133350Y-111752879D01*
X121160133Y-111750000D01*
X123000000Y-111750000D01*
X124713095Y-110036905D01*
X124775407Y-110002879D01*
X124802190Y-110000000D01*
X130947810Y-110000000D01*
X131015931Y-110020002D01*
G37*
%TD.AperFunction*%
%TD*%
%TA.AperFunction,Conductor*%
%TO.N,GND*%
G36*
X166747872Y-87278002D02*
G01*
X166794365Y-87331658D01*
X166804469Y-87401932D01*
X166774975Y-87466512D01*
X166758531Y-87482334D01*
X166725177Y-87509056D01*
X166584049Y-87622121D01*
X166352174Y-87856437D01*
X166148767Y-88115851D01*
X165976525Y-88396925D01*
X165837730Y-88695933D01*
X165734222Y-89008912D01*
X165667373Y-89331714D01*
X165638069Y-89660060D01*
X165638164Y-89663690D01*
X165638164Y-89663691D01*
X165640183Y-89740780D01*
X165646698Y-89989598D01*
X165647208Y-89993183D01*
X165647209Y-89993192D01*
X165662346Y-90099550D01*
X165693146Y-90315961D01*
X165694065Y-90319464D01*
X165694066Y-90319469D01*
X165775879Y-90631319D01*
X165776798Y-90634822D01*
X165896544Y-90941955D01*
X165952995Y-91048571D01*
X166037732Y-91208612D01*
X166050798Y-91233290D01*
X166052850Y-91236275D01*
X166052855Y-91236284D01*
X166235457Y-91501972D01*
X166235463Y-91501979D01*
X166237514Y-91504964D01*
X166454219Y-91753377D01*
X166698039Y-91975236D01*
X166700987Y-91977354D01*
X166700989Y-91977356D01*
X166962793Y-92165481D01*
X166962799Y-92165485D01*
X166965744Y-92167601D01*
X167253784Y-92327922D01*
X167558342Y-92454074D01*
X167561836Y-92455069D01*
X167561838Y-92455070D01*
X167871880Y-92543388D01*
X167871885Y-92543389D01*
X167875381Y-92544385D01*
X168061993Y-92574944D01*
X168197118Y-92597072D01*
X168197125Y-92597073D01*
X168200699Y-92597658D01*
X168365342Y-92605423D01*
X168526357Y-92613016D01*
X168526358Y-92613016D01*
X168529984Y-92613187D01*
X168541877Y-92612376D01*
X168855241Y-92591014D01*
X168855249Y-92591013D01*
X168858872Y-92590766D01*
X168862448Y-92590103D01*
X168862450Y-92590103D01*
X169179438Y-92531353D01*
X169179442Y-92531352D01*
X169183003Y-92530692D01*
X169498082Y-92433761D01*
X169638406Y-92372163D01*
X169796604Y-92302719D01*
X169796612Y-92302715D01*
X169799931Y-92301258D01*
X170084550Y-92134940D01*
X170255572Y-92006533D01*
X170345260Y-91939194D01*
X170345264Y-91939191D01*
X170348167Y-91937011D01*
X170587288Y-91710094D01*
X170769337Y-91492366D01*
X170828378Y-91452937D01*
X170899364Y-91451686D01*
X170959757Y-91489012D01*
X170990382Y-91553064D01*
X170992000Y-91573189D01*
X170992000Y-126691293D01*
X170971998Y-126759414D01*
X170918342Y-126805907D01*
X170848068Y-126816011D01*
X170783488Y-126786517D01*
X170773713Y-126777077D01*
X170585842Y-126574904D01*
X170322019Y-126349578D01*
X170034047Y-126156069D01*
X169991871Y-126134300D01*
X169728961Y-125998602D01*
X169725741Y-125996940D01*
X169401189Y-125874302D01*
X169397668Y-125873418D01*
X169397663Y-125873416D01*
X169236378Y-125832904D01*
X169064692Y-125789780D01*
X169042476Y-125786855D01*
X168724315Y-125744968D01*
X168724307Y-125744967D01*
X168720711Y-125744494D01*
X168576045Y-125742221D01*
X168377446Y-125739101D01*
X168377442Y-125739101D01*
X168373804Y-125739044D01*
X168370190Y-125739405D01*
X168370184Y-125739405D01*
X168126843Y-125763694D01*
X168028569Y-125773503D01*
X167689583Y-125847414D01*
X167686156Y-125848587D01*
X167686150Y-125848589D01*
X167607296Y-125875587D01*
X167361339Y-125959797D01*
X167048188Y-126109163D01*
X166754279Y-126293532D01*
X166751443Y-126295804D01*
X166751436Y-126295809D01*
X166587030Y-126427523D01*
X166483509Y-126510459D01*
X166239466Y-126757071D01*
X166237225Y-126759929D01*
X166063205Y-126981866D01*
X166025386Y-127030098D01*
X165844105Y-127325921D01*
X165698027Y-127640620D01*
X165589087Y-127970023D01*
X165588351Y-127973578D01*
X165588350Y-127973581D01*
X165549892Y-128159289D01*
X165518730Y-128309764D01*
X165487888Y-128655341D01*
X165487983Y-128658971D01*
X165487983Y-128658972D01*
X165496737Y-128993261D01*
X165496970Y-129002171D01*
X165545856Y-129345660D01*
X165633897Y-129681253D01*
X165759927Y-130004503D01*
X165922275Y-130311126D01*
X165924325Y-130314109D01*
X165924327Y-130314112D01*
X166116733Y-130594064D01*
X166116739Y-130594071D01*
X166118790Y-130597056D01*
X166121178Y-130599793D01*
X166342939Y-130854003D01*
X166346866Y-130858505D01*
X166464153Y-130965228D01*
X166527431Y-131022806D01*
X166564354Y-131083447D01*
X166562631Y-131154422D01*
X166522809Y-131213199D01*
X166457531Y-131241116D01*
X166442632Y-131242000D01*
X156509700Y-131242000D01*
X156441579Y-131221998D01*
X156395086Y-131168342D01*
X156384982Y-131098068D01*
X156414476Y-131033487D01*
X156473623Y-130965228D01*
X156506951Y-130926766D01*
X156567017Y-130795240D01*
X156587019Y-130727119D01*
X156587660Y-130722664D01*
X156606957Y-130588448D01*
X156606958Y-130588441D01*
X156607596Y-130584000D01*
X156607596Y-121786000D01*
X156595987Y-121678020D01*
X156589318Y-121647364D01*
X158866500Y-121647364D01*
X158866591Y-121649037D01*
X158866591Y-121649052D01*
X158869309Y-121699227D01*
X158869619Y-121704957D01*
X158914620Y-121935393D01*
X158997804Y-122154952D01*
X159116791Y-122357356D01*
X159268181Y-122536819D01*
X159447644Y-122688209D01*
X159650048Y-122807196D01*
X159869607Y-122890380D01*
X160100043Y-122935381D01*
X160104401Y-122935617D01*
X160155948Y-122938409D01*
X160155963Y-122938409D01*
X160157636Y-122938500D01*
X162092364Y-122938500D01*
X162094037Y-122938409D01*
X162094052Y-122938409D01*
X162145599Y-122935617D01*
X162149957Y-122935381D01*
X162380393Y-122890380D01*
X162599952Y-122807196D01*
X162802356Y-122688209D01*
X162981819Y-122536819D01*
X163133209Y-122357356D01*
X163252196Y-122154952D01*
X163335380Y-121935393D01*
X163380381Y-121704957D01*
X163380691Y-121699227D01*
X163383409Y-121649052D01*
X163383409Y-121649037D01*
X163383500Y-121647364D01*
X163383500Y-119712636D01*
X163380381Y-119655043D01*
X163335380Y-119424607D01*
X163252196Y-119205048D01*
X163133209Y-119002644D01*
X162981819Y-118823181D01*
X162802356Y-118671791D01*
X162599952Y-118552804D01*
X162380393Y-118469620D01*
X162149957Y-118424619D01*
X162144227Y-118424309D01*
X162094052Y-118421591D01*
X162094037Y-118421591D01*
X162092364Y-118421500D01*
X160157636Y-118421500D01*
X160155963Y-118421591D01*
X160155948Y-118421591D01*
X160105773Y-118424309D01*
X160100043Y-118424619D01*
X159869607Y-118469620D01*
X159650048Y-118552804D01*
X159447644Y-118671791D01*
X159268181Y-118823181D01*
X159116791Y-119002644D01*
X158997804Y-119205048D01*
X158914620Y-119424607D01*
X158869619Y-119655043D01*
X158866500Y-119712636D01*
X158866500Y-121647364D01*
X156589318Y-121647364D01*
X156584601Y-121625678D01*
X156550303Y-121522628D01*
X156472131Y-121400990D01*
X156425638Y-121347334D01*
X156406809Y-121331018D01*
X156389248Y-121315802D01*
X156316362Y-121252645D01*
X156184836Y-121192579D01*
X156161082Y-121185604D01*
X156121038Y-121173846D01*
X156121034Y-121173845D01*
X156116715Y-121172577D01*
X156112267Y-121171937D01*
X156112260Y-121171936D01*
X155978044Y-121152639D01*
X155978037Y-121152638D01*
X155973596Y-121152000D01*
X146825596Y-121152000D01*
X146717616Y-121163609D01*
X146714332Y-121164323D01*
X146714328Y-121164324D01*
X146689257Y-121169778D01*
X146665274Y-121174995D01*
X146562224Y-121209293D01*
X146440586Y-121287465D01*
X146386930Y-121333958D01*
X146383989Y-121337352D01*
X146375176Y-121347523D01*
X146292241Y-121443234D01*
X146288497Y-121451431D01*
X146288497Y-121451432D01*
X146273407Y-121484475D01*
X146232175Y-121574760D01*
X146212173Y-121642881D01*
X146211533Y-121647329D01*
X146211532Y-121647336D01*
X146192235Y-121781552D01*
X146192234Y-121781559D01*
X146191596Y-121786000D01*
X146191596Y-130584000D01*
X146203205Y-130691980D01*
X146214591Y-130744322D01*
X146248889Y-130847372D01*
X146327061Y-130969010D01*
X146373554Y-131022666D01*
X146376948Y-131025607D01*
X146378246Y-131026905D01*
X146412272Y-131089217D01*
X146407207Y-131160032D01*
X146364660Y-131216868D01*
X146298140Y-131241679D01*
X146289151Y-131242000D01*
X135957418Y-131242000D01*
X135889297Y-131221998D01*
X135842804Y-131168342D01*
X135832700Y-131098068D01*
X135862194Y-131033488D01*
X135868323Y-131026905D01*
X137924733Y-128970495D01*
X137934876Y-128961393D01*
X137959849Y-128941314D01*
X137964649Y-128937455D01*
X137997187Y-128898678D01*
X138000351Y-128895051D01*
X138002046Y-128893182D01*
X138004240Y-128890988D01*
X138031812Y-128857422D01*
X138032518Y-128856572D01*
X138088824Y-128789469D01*
X138088825Y-128789468D01*
X138092786Y-128784747D01*
X138095373Y-128780041D01*
X138098782Y-128775891D01*
X138101690Y-128770467D01*
X138101697Y-128770457D01*
X138143061Y-128693312D01*
X138143690Y-128692152D01*
X138185852Y-128615459D01*
X138188821Y-128610059D01*
X138190445Y-128604939D01*
X138192983Y-128600206D01*
X138220352Y-128510687D01*
X138220744Y-128509428D01*
X138247235Y-128425919D01*
X138247236Y-128425915D01*
X138249098Y-128420045D01*
X138249697Y-128414707D01*
X138251267Y-128409571D01*
X138260739Y-128316312D01*
X138260861Y-128315172D01*
X138266500Y-128264896D01*
X138266500Y-128261390D01*
X138266563Y-128260264D01*
X138267011Y-128254570D01*
X138270789Y-128217375D01*
X138270789Y-128217369D01*
X138271411Y-128211245D01*
X138267059Y-128165203D01*
X138266500Y-128153346D01*
X138266500Y-125062276D01*
X138267237Y-125048668D01*
X138270697Y-125016821D01*
X138270697Y-125016817D01*
X138271362Y-125010696D01*
X138266979Y-124960597D01*
X138266500Y-124949616D01*
X138266500Y-124562273D01*
X138267237Y-124548665D01*
X138270696Y-124516821D01*
X138271362Y-124510695D01*
X138266980Y-124460611D01*
X138266500Y-124449629D01*
X138266500Y-123558298D01*
X138267145Y-123545566D01*
X138270789Y-123509693D01*
X138270789Y-123509689D01*
X138271411Y-123503565D01*
X138267059Y-123457523D01*
X138266500Y-123445666D01*
X138266500Y-115584000D01*
X146192000Y-115584000D01*
X146203609Y-115691980D01*
X146214995Y-115744322D01*
X146249293Y-115847372D01*
X146327465Y-115969010D01*
X146330407Y-115972405D01*
X146330409Y-115972408D01*
X146358144Y-116004416D01*
X146373958Y-116022666D01*
X146377352Y-116025607D01*
X146400786Y-116045913D01*
X146483234Y-116117355D01*
X146614760Y-116177421D01*
X146638514Y-116184396D01*
X146678558Y-116196154D01*
X146678562Y-116196155D01*
X146682881Y-116197423D01*
X146687329Y-116198063D01*
X146687336Y-116198064D01*
X146821552Y-116217361D01*
X146821559Y-116217362D01*
X146826000Y-116218000D01*
X155974000Y-116218000D01*
X156081980Y-116206391D01*
X156085264Y-116205677D01*
X156085268Y-116205676D01*
X156110339Y-116200222D01*
X156134322Y-116195005D01*
X156237372Y-116160707D01*
X156359010Y-116082535D01*
X156412666Y-116036042D01*
X156424257Y-116022666D01*
X156501453Y-115933577D01*
X156507355Y-115926766D01*
X156567421Y-115795240D01*
X156587423Y-115727119D01*
X156588064Y-115722664D01*
X156607361Y-115588448D01*
X156607362Y-115588441D01*
X156608000Y-115584000D01*
X156608000Y-113060000D01*
X158861654Y-113060000D01*
X158881017Y-113355426D01*
X158938776Y-113645797D01*
X159033941Y-113926145D01*
X159164885Y-114191673D01*
X159329367Y-114437838D01*
X159332081Y-114440932D01*
X159332085Y-114440938D01*
X159360423Y-114473251D01*
X159524573Y-114660427D01*
X159527662Y-114663136D01*
X159744062Y-114852915D01*
X159744068Y-114852919D01*
X159747162Y-114855633D01*
X159750588Y-114857922D01*
X159750593Y-114857926D01*
X159816425Y-114901913D01*
X159993327Y-115020115D01*
X159997026Y-115021939D01*
X159997031Y-115021942D01*
X160133313Y-115089148D01*
X160258855Y-115151059D01*
X160262760Y-115152384D01*
X160262761Y-115152385D01*
X160535290Y-115244896D01*
X160535294Y-115244897D01*
X160539203Y-115246224D01*
X160543247Y-115247028D01*
X160543253Y-115247030D01*
X160825535Y-115303180D01*
X160825541Y-115303181D01*
X160829574Y-115303983D01*
X160833679Y-115304252D01*
X160833686Y-115304253D01*
X161120881Y-115323076D01*
X161125000Y-115323346D01*
X161129119Y-115323076D01*
X161416314Y-115304253D01*
X161416321Y-115304252D01*
X161420426Y-115303983D01*
X161424459Y-115303181D01*
X161424465Y-115303180D01*
X161706747Y-115247030D01*
X161706753Y-115247028D01*
X161710797Y-115246224D01*
X161714706Y-115244897D01*
X161714710Y-115244896D01*
X161987239Y-115152385D01*
X161987240Y-115152384D01*
X161991145Y-115151059D01*
X162116687Y-115089148D01*
X162252969Y-115021942D01*
X162252974Y-115021939D01*
X162256673Y-115020115D01*
X162433575Y-114901913D01*
X162499407Y-114857926D01*
X162499412Y-114857922D01*
X162502838Y-114855633D01*
X162505932Y-114852919D01*
X162505938Y-114852915D01*
X162722338Y-114663136D01*
X162725427Y-114660427D01*
X162889577Y-114473251D01*
X162917915Y-114440938D01*
X162917919Y-114440932D01*
X162920633Y-114437838D01*
X163085115Y-114191673D01*
X163216059Y-113926145D01*
X163311224Y-113645797D01*
X163368983Y-113355426D01*
X163388346Y-113060000D01*
X163368983Y-112764574D01*
X163311224Y-112474203D01*
X163216059Y-112193855D01*
X163128597Y-112016500D01*
X163086942Y-111932031D01*
X163086939Y-111932026D01*
X163085115Y-111928327D01*
X162998480Y-111798668D01*
X162922926Y-111685593D01*
X162922922Y-111685588D01*
X162920633Y-111682162D01*
X162917919Y-111679068D01*
X162917915Y-111679062D01*
X162728136Y-111462662D01*
X162725427Y-111459573D01*
X162722338Y-111456864D01*
X162505938Y-111267085D01*
X162505932Y-111267081D01*
X162502838Y-111264367D01*
X162499412Y-111262078D01*
X162499407Y-111262074D01*
X162260106Y-111102179D01*
X162256673Y-111099885D01*
X162252974Y-111098061D01*
X162252969Y-111098058D01*
X162039666Y-110992869D01*
X161991145Y-110968941D01*
X161987239Y-110967615D01*
X161714710Y-110875104D01*
X161714706Y-110875103D01*
X161710797Y-110873776D01*
X161706753Y-110872972D01*
X161706747Y-110872970D01*
X161424465Y-110816820D01*
X161424459Y-110816819D01*
X161420426Y-110816017D01*
X161416321Y-110815748D01*
X161416314Y-110815747D01*
X161129119Y-110796924D01*
X161125000Y-110796654D01*
X161120881Y-110796924D01*
X160833686Y-110815747D01*
X160833679Y-110815748D01*
X160829574Y-110816017D01*
X160825541Y-110816819D01*
X160825535Y-110816820D01*
X160543253Y-110872970D01*
X160543247Y-110872972D01*
X160539203Y-110873776D01*
X160535294Y-110875103D01*
X160535290Y-110875104D01*
X160262761Y-110967615D01*
X160258855Y-110968941D01*
X160210334Y-110992869D01*
X159997031Y-111098058D01*
X159997026Y-111098061D01*
X159993327Y-111099885D01*
X159989894Y-111102179D01*
X159750593Y-111262074D01*
X159750588Y-111262078D01*
X159747162Y-111264367D01*
X159744068Y-111267081D01*
X159744062Y-111267085D01*
X159527662Y-111456864D01*
X159524573Y-111459573D01*
X159521864Y-111462662D01*
X159332085Y-111679062D01*
X159332081Y-111679068D01*
X159329367Y-111682162D01*
X159327078Y-111685588D01*
X159327074Y-111685593D01*
X159251520Y-111798668D01*
X159164885Y-111928327D01*
X159163061Y-111932026D01*
X159163058Y-111932031D01*
X159121403Y-112016500D01*
X159033941Y-112193855D01*
X158938776Y-112474203D01*
X158881017Y-112764574D01*
X158861654Y-113060000D01*
X156608000Y-113060000D01*
X156608000Y-106786000D01*
X156596391Y-106678020D01*
X156585005Y-106625678D01*
X156550707Y-106522628D01*
X156472535Y-106400990D01*
X156426042Y-106347334D01*
X156407213Y-106331018D01*
X156399214Y-106324087D01*
X156316766Y-106252645D01*
X156185240Y-106192579D01*
X156161486Y-106185604D01*
X156121442Y-106173846D01*
X156121438Y-106173845D01*
X156117119Y-106172577D01*
X156112671Y-106171937D01*
X156112664Y-106171936D01*
X155978448Y-106152639D01*
X155978441Y-106152638D01*
X155974000Y-106152000D01*
X146826000Y-106152000D01*
X146718020Y-106163609D01*
X146714736Y-106164323D01*
X146714732Y-106164324D01*
X146689661Y-106169778D01*
X146665678Y-106174995D01*
X146562628Y-106209293D01*
X146440990Y-106287465D01*
X146387334Y-106333958D01*
X146384393Y-106337352D01*
X146372803Y-106350727D01*
X146292645Y-106443234D01*
X146232579Y-106574760D01*
X146212577Y-106642881D01*
X146211937Y-106647329D01*
X146211936Y-106647336D01*
X146192639Y-106781552D01*
X146192638Y-106781559D01*
X146192000Y-106786000D01*
X146192000Y-115584000D01*
X138266500Y-115584000D01*
X138266500Y-111812276D01*
X138267237Y-111798668D01*
X138270697Y-111766821D01*
X138270697Y-111766817D01*
X138271362Y-111760696D01*
X138266979Y-111710597D01*
X138266500Y-111699616D01*
X138266500Y-111312273D01*
X138267237Y-111298665D01*
X138271362Y-111260695D01*
X138266980Y-111210611D01*
X138266500Y-111199629D01*
X138266500Y-110308298D01*
X138267145Y-110295566D01*
X138270789Y-110259693D01*
X138270789Y-110259689D01*
X138271411Y-110253565D01*
X138267059Y-110207523D01*
X138266500Y-110195666D01*
X138266500Y-104312273D01*
X138267237Y-104298665D01*
X138270696Y-104266821D01*
X138271362Y-104260695D01*
X138266955Y-104210322D01*
X138266626Y-104205507D01*
X138266500Y-104202931D01*
X138266500Y-104199843D01*
X138262267Y-104156665D01*
X138262146Y-104155354D01*
X138254524Y-104068245D01*
X138253987Y-104062108D01*
X138252489Y-104056953D01*
X138251965Y-104051606D01*
X138224842Y-103961771D01*
X138224500Y-103960615D01*
X138200091Y-103876596D01*
X138200089Y-103876590D01*
X138198371Y-103870678D01*
X138195902Y-103865914D01*
X138194348Y-103860768D01*
X138150310Y-103777944D01*
X138149763Y-103776902D01*
X138109471Y-103699170D01*
X138109471Y-103699169D01*
X138106633Y-103693695D01*
X138103282Y-103689497D01*
X138100761Y-103684756D01*
X138041613Y-103612233D01*
X138040785Y-103611208D01*
X138011428Y-103574434D01*
X138009232Y-103571683D01*
X138006736Y-103569187D01*
X138006017Y-103568383D01*
X138002297Y-103564028D01*
X137978663Y-103535049D01*
X137978660Y-103535046D01*
X137974768Y-103530274D01*
X137939133Y-103500794D01*
X137930354Y-103492805D01*
X135033031Y-100595483D01*
X150441500Y-100595483D01*
X150448255Y-100657665D01*
X150499385Y-100794054D01*
X150586739Y-100910610D01*
X150703295Y-100997964D01*
X150839684Y-101049094D01*
X150901866Y-101055849D01*
X152598134Y-101055849D01*
X152660316Y-101049094D01*
X152796705Y-100997964D01*
X152913261Y-100910610D01*
X153000615Y-100794054D01*
X153051745Y-100657665D01*
X153058500Y-100595483D01*
X153058500Y-98899215D01*
X153051745Y-98837033D01*
X153000615Y-98700644D01*
X152913261Y-98584088D01*
X152796705Y-98496734D01*
X152660316Y-98445604D01*
X152598134Y-98438849D01*
X150901866Y-98438849D01*
X150839684Y-98445604D01*
X150703295Y-98496734D01*
X150586739Y-98584088D01*
X150499385Y-98700644D01*
X150448255Y-98837033D01*
X150441500Y-98899215D01*
X150441500Y-100595483D01*
X135033031Y-100595483D01*
X134812815Y-100375267D01*
X134803713Y-100365124D01*
X134783634Y-100340151D01*
X134779775Y-100335351D01*
X134740998Y-100302813D01*
X134737371Y-100299649D01*
X134735502Y-100297954D01*
X134733308Y-100295760D01*
X134699742Y-100268188D01*
X134698945Y-100267526D01*
X134627067Y-100207214D01*
X134622361Y-100204627D01*
X134618211Y-100201218D01*
X134612787Y-100198310D01*
X134612777Y-100198303D01*
X134535632Y-100156939D01*
X134534472Y-100156310D01*
X134516972Y-100146689D01*
X134452379Y-100111179D01*
X134447259Y-100109555D01*
X134442526Y-100107017D01*
X134353007Y-100079648D01*
X134351748Y-100079256D01*
X134268239Y-100052765D01*
X134268235Y-100052764D01*
X134262365Y-100050902D01*
X134257027Y-100050303D01*
X134251891Y-100048733D01*
X134245760Y-100048110D01*
X134245759Y-100048110D01*
X134225113Y-100046013D01*
X134158569Y-100039254D01*
X134157449Y-100039134D01*
X134107216Y-100033500D01*
X134103711Y-100033500D01*
X134102603Y-100033438D01*
X134096908Y-100032990D01*
X134059695Y-100029210D01*
X134059688Y-100029210D01*
X134053565Y-100028588D01*
X134009398Y-100032763D01*
X134007515Y-100032941D01*
X133995657Y-100033500D01*
X129023238Y-100033500D01*
X128955117Y-100013498D01*
X128934143Y-99996595D01*
X128779885Y-99842337D01*
X128748358Y-99789660D01*
X128745882Y-99781457D01*
X128694348Y-99610768D01*
X128600761Y-99434756D01*
X128596871Y-99429986D01*
X128596868Y-99429982D01*
X128478663Y-99285049D01*
X128478660Y-99285046D01*
X128474768Y-99280274D01*
X128321170Y-99153206D01*
X128145815Y-99058392D01*
X127955385Y-98999444D01*
X127949260Y-98998800D01*
X127949259Y-98998800D01*
X127763260Y-98979251D01*
X127763258Y-98979251D01*
X127757131Y-98978607D01*
X127634252Y-98989790D01*
X127564746Y-98996115D01*
X127564745Y-98996115D01*
X127558605Y-98996674D01*
X127552691Y-98998415D01*
X127552689Y-98998415D01*
X127422539Y-99036721D01*
X127367370Y-99052958D01*
X127190709Y-99145314D01*
X127185909Y-99149174D01*
X127185908Y-99149174D01*
X127180893Y-99153206D01*
X127035351Y-99270225D01*
X126907214Y-99422933D01*
X126811179Y-99597621D01*
X126750902Y-99787635D01*
X126749478Y-99787183D01*
X126718835Y-99843617D01*
X126565857Y-99996595D01*
X126503545Y-100030621D01*
X126476762Y-100033500D01*
X125062273Y-100033500D01*
X125048665Y-100032763D01*
X125010695Y-100028638D01*
X125004557Y-100029175D01*
X125004555Y-100029175D01*
X124988472Y-100030582D01*
X124960322Y-100033045D01*
X124955507Y-100033374D01*
X124952931Y-100033500D01*
X124949843Y-100033500D01*
X124930931Y-100035354D01*
X124906665Y-100037733D01*
X124905354Y-100037854D01*
X124818245Y-100045476D01*
X124812108Y-100046013D01*
X124806953Y-100047511D01*
X124801606Y-100048035D01*
X124795701Y-100049818D01*
X124795700Y-100049818D01*
X124784757Y-100053122D01*
X124748339Y-100058500D01*
X123876000Y-100058500D01*
X123807879Y-100038498D01*
X123761386Y-99984842D01*
X123750000Y-99932500D01*
X123750000Y-99750000D01*
X123302190Y-99750000D01*
X123234069Y-99729998D01*
X123213095Y-99713095D01*
X122786905Y-99286905D01*
X122752879Y-99224593D01*
X122750000Y-99197810D01*
X122750000Y-97820000D01*
X158861654Y-97820000D01*
X158881017Y-98115426D01*
X158938776Y-98405797D01*
X158940103Y-98409706D01*
X158940104Y-98409710D01*
X158953230Y-98448378D01*
X159033941Y-98686145D01*
X159095852Y-98811687D01*
X159140701Y-98902632D01*
X159164885Y-98951673D01*
X159167179Y-98955106D01*
X159296851Y-99149174D01*
X159329367Y-99197838D01*
X159332081Y-99200932D01*
X159332085Y-99200938D01*
X159405849Y-99285049D01*
X159524573Y-99420427D01*
X159527662Y-99423136D01*
X159744062Y-99612915D01*
X159744068Y-99612919D01*
X159747162Y-99615633D01*
X159750588Y-99617922D01*
X159750593Y-99617926D01*
X159934405Y-99740744D01*
X159993327Y-99780115D01*
X159997026Y-99781939D01*
X159997031Y-99781942D01*
X160119501Y-99842337D01*
X160258855Y-99911059D01*
X160262760Y-99912384D01*
X160262761Y-99912385D01*
X160535290Y-100004896D01*
X160535294Y-100004897D01*
X160539203Y-100006224D01*
X160543247Y-100007028D01*
X160543253Y-100007030D01*
X160825535Y-100063180D01*
X160825541Y-100063181D01*
X160829574Y-100063983D01*
X160833679Y-100064252D01*
X160833686Y-100064253D01*
X161120881Y-100083076D01*
X161125000Y-100083346D01*
X161129119Y-100083076D01*
X161416314Y-100064253D01*
X161416321Y-100064252D01*
X161420426Y-100063983D01*
X161424459Y-100063181D01*
X161424465Y-100063180D01*
X161706747Y-100007030D01*
X161706753Y-100007028D01*
X161710797Y-100006224D01*
X161714706Y-100004897D01*
X161714710Y-100004896D01*
X161987239Y-99912385D01*
X161987240Y-99912384D01*
X161991145Y-99911059D01*
X162130499Y-99842337D01*
X162252969Y-99781942D01*
X162252974Y-99781939D01*
X162256673Y-99780115D01*
X162315595Y-99740744D01*
X162499407Y-99617926D01*
X162499412Y-99617922D01*
X162502838Y-99615633D01*
X162505932Y-99612919D01*
X162505938Y-99612915D01*
X162722338Y-99423136D01*
X162725427Y-99420427D01*
X162844151Y-99285049D01*
X162917915Y-99200938D01*
X162917919Y-99200932D01*
X162920633Y-99197838D01*
X162953150Y-99149174D01*
X163082821Y-98955106D01*
X163085115Y-98951673D01*
X163109300Y-98902632D01*
X163154148Y-98811687D01*
X163216059Y-98686145D01*
X163296770Y-98448378D01*
X163309896Y-98409710D01*
X163309897Y-98409706D01*
X163311224Y-98405797D01*
X163368983Y-98115426D01*
X163388346Y-97820000D01*
X163368983Y-97524574D01*
X163311224Y-97234203D01*
X163216059Y-96953855D01*
X163085115Y-96688327D01*
X162920633Y-96442162D01*
X162917919Y-96439068D01*
X162917915Y-96439062D01*
X162728136Y-96222662D01*
X162725427Y-96219573D01*
X162722338Y-96216864D01*
X162505938Y-96027085D01*
X162505932Y-96027081D01*
X162502838Y-96024367D01*
X162499412Y-96022078D01*
X162499407Y-96022074D01*
X162260106Y-95862179D01*
X162256673Y-95859885D01*
X162252974Y-95858061D01*
X162252969Y-95858058D01*
X162116687Y-95790852D01*
X161991145Y-95728941D01*
X161987239Y-95727615D01*
X161714710Y-95635104D01*
X161714706Y-95635103D01*
X161710797Y-95633776D01*
X161706753Y-95632972D01*
X161706747Y-95632970D01*
X161424465Y-95576820D01*
X161424459Y-95576819D01*
X161420426Y-95576017D01*
X161416321Y-95575748D01*
X161416314Y-95575747D01*
X161129119Y-95556924D01*
X161125000Y-95556654D01*
X161120881Y-95556924D01*
X160833686Y-95575747D01*
X160833679Y-95575748D01*
X160829574Y-95576017D01*
X160825541Y-95576819D01*
X160825535Y-95576820D01*
X160543253Y-95632970D01*
X160543247Y-95632972D01*
X160539203Y-95633776D01*
X160535294Y-95635103D01*
X160535290Y-95635104D01*
X160262761Y-95727615D01*
X160258855Y-95728941D01*
X160133313Y-95790852D01*
X159997031Y-95858058D01*
X159997026Y-95858061D01*
X159993327Y-95859885D01*
X159989894Y-95862179D01*
X159750593Y-96022074D01*
X159750588Y-96022078D01*
X159747162Y-96024367D01*
X159744068Y-96027081D01*
X159744062Y-96027085D01*
X159527662Y-96216864D01*
X159524573Y-96219573D01*
X159521864Y-96222662D01*
X159332085Y-96439062D01*
X159332081Y-96439068D01*
X159329367Y-96442162D01*
X159164885Y-96688327D01*
X159033941Y-96953855D01*
X158938776Y-97234203D01*
X158881017Y-97524574D01*
X158861654Y-97820000D01*
X122750000Y-97820000D01*
X122750000Y-93552190D01*
X122770002Y-93484069D01*
X122786905Y-93463095D01*
X124521082Y-91728918D01*
X129986917Y-91728918D01*
X130002682Y-92002320D01*
X130003507Y-92006525D01*
X130003508Y-92006533D01*
X130014127Y-92060657D01*
X130055405Y-92271053D01*
X130056792Y-92275103D01*
X130056793Y-92275108D01*
X130111479Y-92434831D01*
X130144112Y-92530144D01*
X130267160Y-92774799D01*
X130269586Y-92778328D01*
X130269589Y-92778334D01*
X130419843Y-92996953D01*
X130422274Y-93000490D01*
X130606582Y-93203043D01*
X130816675Y-93378707D01*
X130820316Y-93380991D01*
X131045024Y-93521951D01*
X131045028Y-93521953D01*
X131048664Y-93524234D01*
X131116544Y-93554883D01*
X131294345Y-93635164D01*
X131294349Y-93635166D01*
X131298257Y-93636930D01*
X131302377Y-93638150D01*
X131302376Y-93638150D01*
X131556723Y-93713491D01*
X131556727Y-93713492D01*
X131560836Y-93714709D01*
X131565070Y-93715357D01*
X131565075Y-93715358D01*
X131827298Y-93755483D01*
X131827300Y-93755483D01*
X131831540Y-93756132D01*
X131970912Y-93758322D01*
X132101071Y-93760367D01*
X132101077Y-93760367D01*
X132105362Y-93760434D01*
X132377235Y-93727534D01*
X132642127Y-93658041D01*
X132646087Y-93656401D01*
X132646092Y-93656399D01*
X132804137Y-93590934D01*
X132895136Y-93553241D01*
X133131582Y-93415073D01*
X133347089Y-93246094D01*
X133388809Y-93203043D01*
X133534686Y-93052509D01*
X133537669Y-93049431D01*
X133540202Y-93045983D01*
X133540206Y-93045978D01*
X133697257Y-92832178D01*
X133699795Y-92828723D01*
X133727154Y-92778334D01*
X133828418Y-92591830D01*
X133828419Y-92591828D01*
X133830468Y-92588054D01*
X133927269Y-92331877D01*
X133965379Y-92165481D01*
X133987449Y-92069117D01*
X133987450Y-92069113D01*
X133988407Y-92064933D01*
X134012751Y-91792161D01*
X134013193Y-91750000D01*
X134011756Y-91728918D01*
X152486917Y-91728918D01*
X152502682Y-92002320D01*
X152503507Y-92006525D01*
X152503508Y-92006533D01*
X152514127Y-92060657D01*
X152555405Y-92271053D01*
X152556792Y-92275103D01*
X152556793Y-92275108D01*
X152611479Y-92434831D01*
X152644112Y-92530144D01*
X152767160Y-92774799D01*
X152769586Y-92778328D01*
X152769589Y-92778334D01*
X152919843Y-92996953D01*
X152922274Y-93000490D01*
X153106582Y-93203043D01*
X153316675Y-93378707D01*
X153320316Y-93380991D01*
X153545024Y-93521951D01*
X153545028Y-93521953D01*
X153548664Y-93524234D01*
X153616544Y-93554883D01*
X153794345Y-93635164D01*
X153794349Y-93635166D01*
X153798257Y-93636930D01*
X153802377Y-93638150D01*
X153802376Y-93638150D01*
X154056723Y-93713491D01*
X154056727Y-93713492D01*
X154060836Y-93714709D01*
X154065070Y-93715357D01*
X154065075Y-93715358D01*
X154327298Y-93755483D01*
X154327300Y-93755483D01*
X154331540Y-93756132D01*
X154470912Y-93758322D01*
X154601071Y-93760367D01*
X154601077Y-93760367D01*
X154605362Y-93760434D01*
X154877235Y-93727534D01*
X155142127Y-93658041D01*
X155146087Y-93656401D01*
X155146092Y-93656399D01*
X155304137Y-93590934D01*
X155395136Y-93553241D01*
X155631582Y-93415073D01*
X155847089Y-93246094D01*
X155888809Y-93203043D01*
X156034686Y-93052509D01*
X156037669Y-93049431D01*
X156040202Y-93045983D01*
X156040206Y-93045978D01*
X156197257Y-92832178D01*
X156199795Y-92828723D01*
X156227154Y-92778334D01*
X156328418Y-92591830D01*
X156328419Y-92591828D01*
X156330468Y-92588054D01*
X156427269Y-92331877D01*
X156465379Y-92165481D01*
X156487449Y-92069117D01*
X156487450Y-92069113D01*
X156488407Y-92064933D01*
X156512751Y-91792161D01*
X156513193Y-91750000D01*
X156510473Y-91710094D01*
X156494859Y-91481055D01*
X156494858Y-91481049D01*
X156494567Y-91476778D01*
X156439032Y-91208612D01*
X156347617Y-90950465D01*
X156222013Y-90707112D01*
X156212040Y-90692921D01*
X156067008Y-90486562D01*
X156064545Y-90483057D01*
X155878125Y-90282445D01*
X155874810Y-90279731D01*
X155874806Y-90279728D01*
X155669523Y-90111706D01*
X155666205Y-90108990D01*
X155432704Y-89965901D01*
X155428768Y-89964173D01*
X155185873Y-89857549D01*
X155185869Y-89857548D01*
X155181945Y-89855825D01*
X154918566Y-89780800D01*
X154914324Y-89780196D01*
X154914318Y-89780195D01*
X154713834Y-89751662D01*
X154647443Y-89742213D01*
X154503589Y-89741460D01*
X154377877Y-89740802D01*
X154377871Y-89740802D01*
X154373591Y-89740780D01*
X154369347Y-89741339D01*
X154369343Y-89741339D01*
X154250302Y-89757011D01*
X154102078Y-89776525D01*
X154097938Y-89777658D01*
X154097936Y-89777658D01*
X154025008Y-89797609D01*
X153837928Y-89848788D01*
X153833980Y-89850472D01*
X153589982Y-89954546D01*
X153589978Y-89954548D01*
X153586030Y-89956232D01*
X153524274Y-89993192D01*
X153354725Y-90094664D01*
X153354721Y-90094667D01*
X153351043Y-90096868D01*
X153137318Y-90268094D01*
X152948808Y-90466742D01*
X152789002Y-90689136D01*
X152660857Y-90931161D01*
X152659385Y-90935184D01*
X152659383Y-90935188D01*
X152569182Y-91181672D01*
X152566743Y-91188337D01*
X152508404Y-91455907D01*
X152508068Y-91460177D01*
X152488399Y-91710094D01*
X152486917Y-91728918D01*
X134011756Y-91728918D01*
X134010473Y-91710094D01*
X133994859Y-91481055D01*
X133994858Y-91481049D01*
X133994567Y-91476778D01*
X133939032Y-91208612D01*
X133847617Y-90950465D01*
X133722013Y-90707112D01*
X133712040Y-90692921D01*
X133567008Y-90486562D01*
X133564545Y-90483057D01*
X133378125Y-90282445D01*
X133374810Y-90279731D01*
X133374806Y-90279728D01*
X133169523Y-90111706D01*
X133166205Y-90108990D01*
X132932704Y-89965901D01*
X132928768Y-89964173D01*
X132685873Y-89857549D01*
X132685869Y-89857548D01*
X132681945Y-89855825D01*
X132418566Y-89780800D01*
X132414324Y-89780196D01*
X132414318Y-89780195D01*
X132213834Y-89751662D01*
X132147443Y-89742213D01*
X132003589Y-89741460D01*
X131877877Y-89740802D01*
X131877871Y-89740802D01*
X131873591Y-89740780D01*
X131869347Y-89741339D01*
X131869343Y-89741339D01*
X131750302Y-89757011D01*
X131602078Y-89776525D01*
X131597938Y-89777658D01*
X131597936Y-89777658D01*
X131525008Y-89797609D01*
X131337928Y-89848788D01*
X131333980Y-89850472D01*
X131089982Y-89954546D01*
X131089978Y-89954548D01*
X131086030Y-89956232D01*
X131024274Y-89993192D01*
X130854725Y-90094664D01*
X130854721Y-90094667D01*
X130851043Y-90096868D01*
X130637318Y-90268094D01*
X130448808Y-90466742D01*
X130289002Y-90689136D01*
X130160857Y-90931161D01*
X130159385Y-90935184D01*
X130159383Y-90935188D01*
X130069182Y-91181672D01*
X130066743Y-91188337D01*
X130008404Y-91455907D01*
X130008068Y-91460177D01*
X129988399Y-91710094D01*
X129986917Y-91728918D01*
X124521082Y-91728918D01*
X128955095Y-87294905D01*
X129017407Y-87260879D01*
X129044190Y-87258000D01*
X166679751Y-87258000D01*
X166747872Y-87278002D01*
G37*
%TD.AperFunction*%
%TD*%
%TA.AperFunction,Conductor*%
%TO.N,GND*%
G36*
X118015931Y-122270002D02*
G01*
X118036905Y-122286905D01*
X118213095Y-122463095D01*
X118247121Y-122525407D01*
X118250000Y-122552190D01*
X118250000Y-125447810D01*
X118229998Y-125515931D01*
X118213095Y-125536905D01*
X118036905Y-125713095D01*
X117974593Y-125747121D01*
X117947810Y-125750000D01*
X116052190Y-125750000D01*
X115984069Y-125729998D01*
X115963095Y-125713095D01*
X115786905Y-125536905D01*
X115752879Y-125474593D01*
X115750000Y-125447810D01*
X115750000Y-122552190D01*
X115770002Y-122484069D01*
X115786905Y-122463095D01*
X115963095Y-122286905D01*
X116025407Y-122252879D01*
X116052190Y-122250000D01*
X117947810Y-122250000D01*
X118015931Y-122270002D01*
G37*
%TD.AperFunction*%
%TD*%
M02*
