%TF.GenerationSoftware,KiCad,Pcbnew,(6.0.2)*%
%TF.CreationDate,2022-03-25T17:55:46+07:00*%
%TF.ProjectId,Driver_motor_V02,44726976-6572-45f6-9d6f-746f725f5630,rev?*%
%TF.SameCoordinates,Original*%
%TF.FileFunction,Legend,Bot*%
%TF.FilePolarity,Positive*%
%FSLAX46Y46*%
G04 Gerber Fmt 4.6, Leading zero omitted, Abs format (unit mm)*
G04 Created by KiCad (PCBNEW (6.0.2)) date 2022-03-25 17:55:46*
%MOMM*%
%LPD*%
G01*
G04 APERTURE LIST*
%ADD10C,0.150000*%
%ADD11C,0.300000*%
%ADD12C,0.200000*%
%ADD13C,0.500000*%
%ADD14C,0.120000*%
%ADD15C,0.010000*%
G04 APERTURE END LIST*
D10*
X168000000Y-111250000D02*
X170000000Y-111250000D01*
X151750000Y-102150000D02*
X151750000Y-102450000D01*
X129500000Y-114250000D02*
X129500000Y-113650000D01*
X164750000Y-122500000D02*
X164750000Y-111250000D01*
X130750000Y-125600000D02*
X128350000Y-125600000D01*
X128350000Y-125600000D02*
X128350000Y-125200000D01*
X128350000Y-125200000D02*
X130750000Y-125200000D01*
X130750000Y-125200000D02*
X130750000Y-125600000D01*
G36*
X130750000Y-125600000D02*
G01*
X128350000Y-125600000D01*
X128350000Y-125200000D01*
X130750000Y-125200000D01*
X130750000Y-125600000D01*
G37*
X164750000Y-111250000D02*
X168000000Y-111250000D01*
X113500000Y-97000000D02*
X113500000Y-89500000D01*
X120000000Y-89500000D02*
X120000000Y-97000000D01*
X168000000Y-96000000D02*
X170000000Y-96000000D01*
X151750000Y-101050000D02*
X151750000Y-100750000D01*
X139225000Y-90275000D02*
X147225000Y-90275000D01*
X147225000Y-90275000D02*
X147225000Y-93275000D01*
X147225000Y-93275000D02*
X139225000Y-93275000D01*
X139225000Y-93275000D02*
X139225000Y-90275000D01*
X113500000Y-92000000D02*
X120000000Y-92000000D01*
X130700000Y-114650000D02*
X128300000Y-114650000D01*
X128300000Y-114650000D02*
X128300000Y-114250000D01*
X128300000Y-114250000D02*
X130700000Y-114250000D01*
X130700000Y-114250000D02*
X130700000Y-114650000D01*
G36*
X130700000Y-114650000D02*
G01*
X128300000Y-114650000D01*
X128300000Y-114250000D01*
X130700000Y-114250000D01*
X130700000Y-114650000D01*
G37*
X134600000Y-125750000D02*
G75*
G03*
X134600000Y-125750000I-5100000J0D01*
G01*
X170000000Y-107500000D02*
X168000000Y-107500000D01*
X168000000Y-107500000D02*
X165000000Y-107500000D01*
X165000000Y-96000000D02*
X168000000Y-96000000D01*
X134591169Y-114850000D02*
G75*
G03*
X134591169Y-114850000I-5091169J0D01*
G01*
X165000000Y-101750000D02*
X168000000Y-101750000D01*
X150750000Y-101750000D02*
X152750000Y-101750000D01*
X152750000Y-101750000D02*
X152750000Y-102150000D01*
X152750000Y-102150000D02*
X150750000Y-102150000D01*
X150750000Y-102150000D02*
X150750000Y-101750000D01*
G36*
X150750000Y-101750000D02*
G01*
X152750000Y-101750000D01*
X152750000Y-102150000D01*
X150750000Y-102150000D01*
X150750000Y-101750000D01*
G37*
X120000000Y-97000000D02*
X113500000Y-97000000D01*
X170000000Y-111250000D02*
X170000000Y-122500000D01*
X164750000Y-116875000D02*
X168000000Y-116875000D01*
X168000000Y-96000000D02*
X168000000Y-107500000D01*
X129550000Y-125200000D02*
X129550000Y-124600000D01*
X168000000Y-111250000D02*
X168000000Y-122500000D01*
X170000000Y-122500000D02*
X168000000Y-122500000D01*
X165000000Y-107500000D02*
X165000000Y-96000000D01*
X151725000Y-91775000D02*
X134725000Y-91775000D01*
X130750000Y-126300000D02*
X128350000Y-126300000D01*
X128350000Y-126300000D02*
X128350000Y-125900000D01*
X128350000Y-125900000D02*
X130750000Y-125900000D01*
X130750000Y-125900000D02*
X130750000Y-126300000D01*
X150750000Y-101050000D02*
X152750000Y-101050000D01*
X152750000Y-101050000D02*
X152750000Y-101450000D01*
X152750000Y-101450000D02*
X150750000Y-101450000D01*
X150750000Y-101450000D02*
X150750000Y-101050000D01*
X129500000Y-115350000D02*
X129500000Y-116050000D01*
X155850000Y-101650000D02*
G75*
G03*
X155850000Y-101650000I-4100000J0D01*
G01*
X170000000Y-96000000D02*
X170000000Y-107500000D01*
X120000000Y-92000000D02*
X120000000Y-94500000D01*
X120000000Y-94500000D02*
X113500000Y-94500000D01*
X130700000Y-115350000D02*
X128300000Y-115350000D01*
X128300000Y-115350000D02*
X128300000Y-114950000D01*
X128300000Y-114950000D02*
X130700000Y-114950000D01*
X130700000Y-114950000D02*
X130700000Y-115350000D01*
X113500000Y-89500000D02*
X120000000Y-89500000D01*
X129550000Y-126300000D02*
X129550000Y-127000000D01*
X168000000Y-122500000D02*
X164750000Y-122500000D01*
X119500000Y-93702380D02*
X119500000Y-92702380D01*
X119261904Y-92702380D01*
X119119047Y-92750000D01*
X119023809Y-92845238D01*
X118976190Y-92940476D01*
X118928571Y-93130952D01*
X118928571Y-93273809D01*
X118976190Y-93464285D01*
X119023809Y-93559523D01*
X119119047Y-93654761D01*
X119261904Y-93702380D01*
X119500000Y-93702380D01*
X118500000Y-93702380D02*
X118500000Y-92702380D01*
X117452380Y-93702380D02*
X117785714Y-93226190D01*
X118023809Y-93702380D02*
X118023809Y-92702380D01*
X117642857Y-92702380D01*
X117547619Y-92750000D01*
X117500000Y-92797619D01*
X117452380Y-92892857D01*
X117452380Y-93035714D01*
X117500000Y-93130952D01*
X117547619Y-93178571D01*
X117642857Y-93226190D01*
X118023809Y-93226190D01*
X123428571Y-125178571D02*
X123285714Y-125226190D01*
X123238095Y-125273809D01*
X123190476Y-125369047D01*
X123190476Y-125511904D01*
X123238095Y-125607142D01*
X123285714Y-125654761D01*
X123380952Y-125702380D01*
X123761904Y-125702380D01*
X123761904Y-124702380D01*
X123428571Y-124702380D01*
X123333333Y-124750000D01*
X123285714Y-124797619D01*
X123238095Y-124892857D01*
X123238095Y-124988095D01*
X123285714Y-125083333D01*
X123333333Y-125130952D01*
X123428571Y-125178571D01*
X123761904Y-125178571D01*
X134167243Y-119071428D02*
X133405338Y-119071428D01*
X133786291Y-119452380D02*
X133786291Y-118690476D01*
X119636212Y-96202380D02*
X119636212Y-95202380D01*
X119255260Y-95202380D01*
X119160022Y-95250000D01*
X119112403Y-95297619D01*
X119064784Y-95392857D01*
X119064784Y-95535714D01*
X119112403Y-95630952D01*
X119160022Y-95678571D01*
X119255260Y-95726190D01*
X119636212Y-95726190D01*
X118731451Y-95202380D02*
X118493355Y-96202380D01*
X118302879Y-95488095D01*
X118112403Y-96202380D01*
X117874308Y-95202380D01*
X117493355Y-96202380D02*
X117493355Y-95202380D01*
X117160022Y-95916666D01*
X116826689Y-95202380D01*
X116826689Y-96202380D01*
X123428571Y-122678571D02*
X123285714Y-122726190D01*
X123238095Y-122773809D01*
X123190476Y-122869047D01*
X123190476Y-123011904D01*
X123238095Y-123107142D01*
X123285714Y-123154761D01*
X123380952Y-123202380D01*
X123761904Y-123202380D01*
X123761904Y-122202380D01*
X123428571Y-122202380D01*
X123333333Y-122250000D01*
X123285714Y-122297619D01*
X123238095Y-122392857D01*
X123238095Y-122488095D01*
X123285714Y-122583333D01*
X123333333Y-122630952D01*
X123428571Y-122678571D01*
X123761904Y-122678571D01*
X115928571Y-115178571D02*
X115785714Y-115226190D01*
X115738095Y-115273809D01*
X115690476Y-115369047D01*
X115690476Y-115511904D01*
X115738095Y-115607142D01*
X115785714Y-115654761D01*
X115880952Y-115702380D01*
X116261904Y-115702380D01*
X116261904Y-114702380D01*
X115928571Y-114702380D01*
X115833333Y-114750000D01*
X115785714Y-114797619D01*
X115738095Y-114892857D01*
X115738095Y-114988095D01*
X115785714Y-115083333D01*
X115833333Y-115130952D01*
X115928571Y-115178571D01*
X116261904Y-115178571D01*
X119035714Y-91107142D02*
X119083333Y-91154761D01*
X119226190Y-91202380D01*
X119321428Y-91202380D01*
X119464285Y-91154761D01*
X119559523Y-91059523D01*
X119607142Y-90964285D01*
X119654761Y-90773809D01*
X119654761Y-90630952D01*
X119607142Y-90440476D01*
X119559523Y-90345238D01*
X119464285Y-90250000D01*
X119321428Y-90202380D01*
X119226190Y-90202380D01*
X119083333Y-90250000D01*
X119035714Y-90297619D01*
X118416666Y-90202380D02*
X118226190Y-90202380D01*
X118130952Y-90250000D01*
X118035714Y-90345238D01*
X117988095Y-90535714D01*
X117988095Y-90869047D01*
X118035714Y-91059523D01*
X118130952Y-91154761D01*
X118226190Y-91202380D01*
X118416666Y-91202380D01*
X118511904Y-91154761D01*
X118607142Y-91059523D01*
X118654761Y-90869047D01*
X118654761Y-90535714D01*
X118607142Y-90345238D01*
X118511904Y-90250000D01*
X118416666Y-90202380D01*
X117559523Y-91202380D02*
X117559523Y-90202380D01*
X117226190Y-90916666D01*
X116892857Y-90202380D01*
X116892857Y-91202380D01*
X123238095Y-112250000D02*
X123333333Y-112202380D01*
X123476190Y-112202380D01*
X123619047Y-112250000D01*
X123714285Y-112345238D01*
X123761904Y-112440476D01*
X123809523Y-112630952D01*
X123809523Y-112773809D01*
X123761904Y-112964285D01*
X123714285Y-113059523D01*
X123619047Y-113154761D01*
X123476190Y-113202380D01*
X123380952Y-113202380D01*
X123238095Y-113154761D01*
X123190476Y-113107142D01*
X123190476Y-112773809D01*
X123380952Y-112773809D01*
D11*
X167392857Y-120042857D02*
X167392857Y-118842857D01*
X166992857Y-119700000D01*
X166592857Y-118842857D01*
X166592857Y-120042857D01*
X166021428Y-119585714D02*
X165107142Y-119585714D01*
X165564285Y-120042857D02*
X165564285Y-119128571D01*
D12*
X169502380Y-99821428D02*
X168502380Y-99821428D01*
X169502380Y-100297619D02*
X168502380Y-100297619D01*
X169502380Y-100869047D01*
X168502380Y-100869047D01*
X169502380Y-101345238D02*
X168502380Y-101345238D01*
X168502380Y-101726190D01*
X168550000Y-101821428D01*
X168597619Y-101869047D01*
X168692857Y-101916666D01*
X168835714Y-101916666D01*
X168930952Y-101869047D01*
X168978571Y-101821428D01*
X169026190Y-101726190D01*
X169026190Y-101345238D01*
X168502380Y-102345238D02*
X169311904Y-102345238D01*
X169407142Y-102392857D01*
X169454761Y-102440476D01*
X169502380Y-102535714D01*
X169502380Y-102726190D01*
X169454761Y-102821428D01*
X169407142Y-102869047D01*
X169311904Y-102916666D01*
X168502380Y-102916666D01*
X168502380Y-103250000D02*
X168502380Y-103821428D01*
X169502380Y-103535714D02*
X168502380Y-103535714D01*
X169502380Y-114238095D02*
X168502380Y-114238095D01*
X169216666Y-114571428D01*
X168502380Y-114904761D01*
X169502380Y-114904761D01*
X168502380Y-115571428D02*
X168502380Y-115761904D01*
X168550000Y-115857142D01*
X168645238Y-115952380D01*
X168835714Y-116000000D01*
X169169047Y-116000000D01*
X169359523Y-115952380D01*
X169454761Y-115857142D01*
X169502380Y-115761904D01*
X169502380Y-115571428D01*
X169454761Y-115476190D01*
X169359523Y-115380952D01*
X169169047Y-115333333D01*
X168835714Y-115333333D01*
X168645238Y-115380952D01*
X168550000Y-115476190D01*
X168502380Y-115571428D01*
X168502380Y-116285714D02*
X168502380Y-116857142D01*
X169502380Y-116571428D02*
X168502380Y-116571428D01*
X168502380Y-117380952D02*
X168502380Y-117571428D01*
X168550000Y-117666666D01*
X168645238Y-117761904D01*
X168835714Y-117809523D01*
X169169047Y-117809523D01*
X169359523Y-117761904D01*
X169454761Y-117666666D01*
X169502380Y-117571428D01*
X169502380Y-117380952D01*
X169454761Y-117285714D01*
X169359523Y-117190476D01*
X169169047Y-117142857D01*
X168835714Y-117142857D01*
X168645238Y-117190476D01*
X168550000Y-117285714D01*
X168502380Y-117380952D01*
X169502380Y-118809523D02*
X169026190Y-118476190D01*
X169502380Y-118238095D02*
X168502380Y-118238095D01*
X168502380Y-118619047D01*
X168550000Y-118714285D01*
X168597619Y-118761904D01*
X168692857Y-118809523D01*
X168835714Y-118809523D01*
X168930952Y-118761904D01*
X168978571Y-118714285D01*
X169026190Y-118619047D01*
X169026190Y-118238095D01*
D10*
X156330952Y-98721428D02*
X155569047Y-98721428D01*
X155950000Y-99102380D02*
X155950000Y-98340476D01*
X134155952Y-130071428D02*
X133394047Y-130071428D01*
X133775000Y-130452380D02*
X133775000Y-129690476D01*
X123738095Y-115416666D02*
X123261904Y-115416666D01*
X123833333Y-115702380D02*
X123500000Y-114702380D01*
X123166666Y-115702380D01*
X117750000Y-118202380D02*
X117750000Y-117202380D01*
X117273809Y-118202380D02*
X117273809Y-117202380D01*
X116702380Y-118202380D01*
X116702380Y-117202380D01*
X116273809Y-117297619D02*
X116226190Y-117250000D01*
X116130952Y-117202380D01*
X115892857Y-117202380D01*
X115797619Y-117250000D01*
X115750000Y-117297619D01*
X115702380Y-117392857D01*
X115702380Y-117488095D01*
X115750000Y-117630952D01*
X116321428Y-118202380D01*
X115702380Y-118202380D01*
D11*
X167392857Y-114792857D02*
X167392857Y-113592857D01*
X166992857Y-114450000D01*
X166592857Y-113592857D01*
X166592857Y-114792857D01*
X166021428Y-114335714D02*
X165107142Y-114335714D01*
D10*
X125250000Y-120702380D02*
X125250000Y-119702380D01*
X124773809Y-120702380D02*
X124773809Y-119702380D01*
X124202380Y-120702380D01*
X124202380Y-119702380D01*
X123202380Y-120702380D02*
X123773809Y-120702380D01*
X123488095Y-120702380D02*
X123488095Y-119702380D01*
X123583333Y-119845238D01*
X123678571Y-119940476D01*
X123773809Y-119988095D01*
D13*
X167261904Y-99142857D02*
X165738095Y-99142857D01*
X166500000Y-99904761D02*
X166500000Y-98380952D01*
D10*
X116238095Y-112916666D02*
X115761904Y-112916666D01*
X116333333Y-113202380D02*
X116000000Y-112202380D01*
X115666666Y-113202380D01*
%TO.C,R13*%
X118392857Y-104202380D02*
X118726190Y-103726190D01*
X118964285Y-104202380D02*
X118964285Y-103202380D01*
X118583333Y-103202380D01*
X118488095Y-103250000D01*
X118440476Y-103297619D01*
X118392857Y-103392857D01*
X118392857Y-103535714D01*
X118440476Y-103630952D01*
X118488095Y-103678571D01*
X118583333Y-103726190D01*
X118964285Y-103726190D01*
X117440476Y-104202380D02*
X118011904Y-104202380D01*
X117726190Y-104202380D02*
X117726190Y-103202380D01*
X117821428Y-103345238D01*
X117916666Y-103440476D01*
X118011904Y-103488095D01*
X117107142Y-103202380D02*
X116488095Y-103202380D01*
X116821428Y-103583333D01*
X116678571Y-103583333D01*
X116583333Y-103630952D01*
X116535714Y-103678571D01*
X116488095Y-103773809D01*
X116488095Y-104011904D01*
X116535714Y-104107142D01*
X116583333Y-104154761D01*
X116678571Y-104202380D01*
X116964285Y-104202380D01*
X117059523Y-104154761D01*
X117107142Y-104107142D01*
%TO.C,R12*%
X118392857Y-102452380D02*
X118726190Y-101976190D01*
X118964285Y-102452380D02*
X118964285Y-101452380D01*
X118583333Y-101452380D01*
X118488095Y-101500000D01*
X118440476Y-101547619D01*
X118392857Y-101642857D01*
X118392857Y-101785714D01*
X118440476Y-101880952D01*
X118488095Y-101928571D01*
X118583333Y-101976190D01*
X118964285Y-101976190D01*
X117440476Y-102452380D02*
X118011904Y-102452380D01*
X117726190Y-102452380D02*
X117726190Y-101452380D01*
X117821428Y-101595238D01*
X117916666Y-101690476D01*
X118011904Y-101738095D01*
X117059523Y-101547619D02*
X117011904Y-101500000D01*
X116916666Y-101452380D01*
X116678571Y-101452380D01*
X116583333Y-101500000D01*
X116535714Y-101547619D01*
X116488095Y-101642857D01*
X116488095Y-101738095D01*
X116535714Y-101880952D01*
X117107142Y-102452380D01*
X116488095Y-102452380D01*
%TO.C,C7*%
X124666666Y-98107142D02*
X124714285Y-98154761D01*
X124857142Y-98202380D01*
X124952380Y-98202380D01*
X125095238Y-98154761D01*
X125190476Y-98059523D01*
X125238095Y-97964285D01*
X125285714Y-97773809D01*
X125285714Y-97630952D01*
X125238095Y-97440476D01*
X125190476Y-97345238D01*
X125095238Y-97250000D01*
X124952380Y-97202380D01*
X124857142Y-97202380D01*
X124714285Y-97250000D01*
X124666666Y-97297619D01*
X124333333Y-97202380D02*
X123666666Y-97202380D01*
X124095238Y-98202380D01*
%TO.C,C6*%
X117416666Y-129357142D02*
X117464285Y-129404761D01*
X117607142Y-129452380D01*
X117702380Y-129452380D01*
X117845238Y-129404761D01*
X117940476Y-129309523D01*
X117988095Y-129214285D01*
X118035714Y-129023809D01*
X118035714Y-128880952D01*
X117988095Y-128690476D01*
X117940476Y-128595238D01*
X117845238Y-128500000D01*
X117702380Y-128452380D01*
X117607142Y-128452380D01*
X117464285Y-128500000D01*
X117416666Y-128547619D01*
X116559523Y-128452380D02*
X116750000Y-128452380D01*
X116845238Y-128500000D01*
X116892857Y-128547619D01*
X116988095Y-128690476D01*
X117035714Y-128880952D01*
X117035714Y-129261904D01*
X116988095Y-129357142D01*
X116940476Y-129404761D01*
X116845238Y-129452380D01*
X116654761Y-129452380D01*
X116559523Y-129404761D01*
X116511904Y-129357142D01*
X116464285Y-129261904D01*
X116464285Y-129023809D01*
X116511904Y-128928571D01*
X116559523Y-128880952D01*
X116654761Y-128833333D01*
X116845238Y-128833333D01*
X116940476Y-128880952D01*
X116988095Y-128928571D01*
X117035714Y-129023809D01*
D14*
%TO.C,R13*%
X117977064Y-108485000D02*
X117522936Y-108485000D01*
X117977064Y-107015000D02*
X117522936Y-107015000D01*
%TO.C,G\u002A\u002A\u002A*%
G36*
X159289745Y-87751672D02*
G01*
X159196412Y-87845213D01*
X158584382Y-87845213D01*
X158491048Y-87751672D01*
X158397715Y-87658131D01*
X159383079Y-87658131D01*
X159289745Y-87751672D01*
G37*
G36*
X156918839Y-88639771D02*
G01*
X156918839Y-89381238D01*
X156825298Y-89287904D01*
X156731757Y-89194571D01*
X156731757Y-88683147D01*
X156846781Y-88568797D01*
X156918839Y-88639771D01*
G37*
G36*
X164492068Y-89320284D02*
G01*
X164585402Y-89413825D01*
X163600038Y-89413825D01*
X163693371Y-89320284D01*
X163786705Y-89226743D01*
X164398735Y-89226743D01*
X164492068Y-89320284D01*
G37*
G36*
X159845384Y-88631098D02*
G01*
X159904958Y-88690363D01*
X159904958Y-89184678D01*
X159813215Y-89281351D01*
X159721473Y-89378025D01*
X159717743Y-88640941D01*
X159751777Y-88606388D01*
X159785810Y-88571834D01*
X159845384Y-88631098D01*
G37*
G36*
X152734674Y-87751672D02*
G01*
X152641341Y-87845213D01*
X152029311Y-87845213D01*
X151935977Y-87751672D01*
X151842644Y-87658131D01*
X152828008Y-87658131D01*
X152734674Y-87751672D01*
G37*
G36*
X160768414Y-88431149D02*
G01*
X160734446Y-88465635D01*
X160700479Y-88500121D01*
X160640905Y-88440857D01*
X160581332Y-88381593D01*
X160581332Y-87877385D01*
X160674873Y-87784051D01*
X160768414Y-87690718D01*
X160768414Y-88431149D01*
G37*
G36*
X158492051Y-88630516D02*
G01*
X158552210Y-88690363D01*
X158552210Y-89184678D01*
X158460550Y-89281263D01*
X158431720Y-89311541D01*
X158406243Y-89338106D01*
X158385913Y-89359098D01*
X158372309Y-89372889D01*
X158367009Y-89377847D01*
X158366891Y-89377127D01*
X158366539Y-89365863D01*
X158366218Y-89341981D01*
X158365934Y-89306828D01*
X158365694Y-89261748D01*
X158365504Y-89208088D01*
X158365370Y-89147192D01*
X158365298Y-89080408D01*
X158365294Y-89009080D01*
X158365461Y-88640312D01*
X158398677Y-88605491D01*
X158431892Y-88570670D01*
X158492051Y-88630516D01*
G37*
G36*
X158012550Y-88489207D02*
G01*
X158058905Y-88535978D01*
X158012550Y-88582748D01*
X157966195Y-88629519D01*
X157305528Y-88629519D01*
X157259367Y-88583358D01*
X157213206Y-88537196D01*
X157257527Y-88489816D01*
X157301848Y-88442437D01*
X157966195Y-88442437D01*
X158012550Y-88489207D01*
G37*
G36*
X159289745Y-89320284D02*
G01*
X159383079Y-89413825D01*
X158397715Y-89413825D01*
X158491048Y-89320284D01*
X158584382Y-89226743D01*
X159196412Y-89226743D01*
X159289745Y-89320284D01*
G37*
G36*
X155961842Y-87784051D02*
G01*
X156055383Y-87877385D01*
X156055383Y-88380975D01*
X155996223Y-88440444D01*
X155937062Y-88499913D01*
X155868300Y-88432185D01*
X155868300Y-87690718D01*
X155961842Y-87784051D01*
G37*
G36*
X154643061Y-88631098D02*
G01*
X154702635Y-88690363D01*
X154702635Y-89184678D01*
X154610892Y-89281351D01*
X154519150Y-89378025D01*
X154515420Y-88640941D01*
X154549454Y-88606388D01*
X154583487Y-88571834D01*
X154643061Y-88631098D01*
G37*
G36*
X155566091Y-88431149D02*
G01*
X155532123Y-88465635D01*
X155498156Y-88500121D01*
X155438582Y-88440857D01*
X155379009Y-88381593D01*
X155379009Y-87877385D01*
X155472550Y-87784051D01*
X155566091Y-87690718D01*
X155566091Y-88431149D01*
G37*
G36*
X154213343Y-88639771D02*
G01*
X154213343Y-89381238D01*
X154119802Y-89287904D01*
X154026261Y-89194571D01*
X154026261Y-88683147D01*
X154141285Y-88568797D01*
X154213343Y-88639771D01*
G37*
G36*
X153256346Y-87784051D02*
G01*
X153349887Y-87877385D01*
X153349887Y-88380975D01*
X153231567Y-88499913D01*
X153162805Y-88432185D01*
X153162805Y-87690718D01*
X153256346Y-87784051D01*
G37*
G36*
X159811417Y-87784051D02*
G01*
X159904958Y-87877385D01*
X159904958Y-88380975D01*
X159786638Y-88499913D01*
X159752257Y-88466049D01*
X159717875Y-88432185D01*
X159717875Y-87690718D01*
X159811417Y-87784051D01*
G37*
G36*
X161869320Y-88489207D02*
G01*
X161915675Y-88535978D01*
X161869320Y-88582748D01*
X161822965Y-88629519D01*
X161162299Y-88629519D01*
X161069976Y-88537196D01*
X161114298Y-88489816D01*
X161158619Y-88442437D01*
X161822965Y-88442437D01*
X161869320Y-88489207D01*
G37*
G36*
X158458669Y-87784051D02*
G01*
X158552210Y-87877385D01*
X158552210Y-88380975D01*
X158433890Y-88499913D01*
X158365128Y-88432185D01*
X158365128Y-87690718D01*
X158458669Y-87784051D01*
G37*
G36*
X156886251Y-89413825D02*
G01*
X155900888Y-89413825D01*
X155994221Y-89320284D01*
X156087555Y-89226743D01*
X156699585Y-89226743D01*
X156886251Y-89413825D01*
G37*
G36*
X154087422Y-87751672D02*
G01*
X153994089Y-87845213D01*
X153382059Y-87845213D01*
X153288725Y-87751672D01*
X153195392Y-87658131D01*
X154180756Y-87658131D01*
X154087422Y-87751672D01*
G37*
G36*
X154062238Y-88489207D02*
G01*
X154108593Y-88535978D01*
X154062238Y-88582748D01*
X154015883Y-88629519D01*
X153360264Y-88629519D01*
X153313909Y-88582748D01*
X153267555Y-88535978D01*
X153313909Y-88489207D01*
X153360264Y-88442437D01*
X154015883Y-88442437D01*
X154062238Y-88489207D01*
G37*
G36*
X154609094Y-87784051D02*
G01*
X154702635Y-87877385D01*
X154702635Y-88380975D01*
X154584315Y-88499913D01*
X154515553Y-88432185D01*
X154515553Y-87690718D01*
X154609094Y-87784051D01*
G37*
G36*
X154087422Y-89320284D02*
G01*
X154180756Y-89413825D01*
X153195392Y-89413825D01*
X153288725Y-89320284D01*
X153382059Y-89226743D01*
X153994089Y-89226743D01*
X154087422Y-89320284D01*
G37*
G36*
X164492068Y-87751672D02*
G01*
X164398735Y-87845213D01*
X163786705Y-87845213D01*
X163693371Y-87751672D01*
X163600038Y-87658131D01*
X164585402Y-87658131D01*
X164492068Y-87751672D01*
G37*
G36*
X162308244Y-87784051D02*
G01*
X162401785Y-87877385D01*
X162401785Y-88380975D01*
X162283465Y-88499913D01*
X162214703Y-88432185D01*
X162214703Y-87690718D01*
X162308244Y-87784051D01*
G37*
G36*
X164466884Y-88489207D02*
G01*
X164513239Y-88535978D01*
X164466884Y-88582748D01*
X164420529Y-88629519D01*
X163764910Y-88629519D01*
X163718555Y-88582748D01*
X163672201Y-88535978D01*
X163718555Y-88489207D01*
X163764910Y-88442437D01*
X164420529Y-88442437D01*
X164466884Y-88489207D01*
G37*
G36*
X160642493Y-87751672D02*
G01*
X160549160Y-87845213D01*
X159937130Y-87845213D01*
X159843796Y-87751672D01*
X159750463Y-87658131D01*
X160735827Y-87658131D01*
X160642493Y-87751672D01*
G37*
G36*
X152709490Y-88489207D02*
G01*
X152755845Y-88535978D01*
X152709490Y-88582748D01*
X152663135Y-88629519D01*
X152007516Y-88629519D01*
X151961162Y-88582748D01*
X151914807Y-88535978D01*
X151961162Y-88489207D01*
X152007516Y-88442437D01*
X152663135Y-88442437D01*
X152709490Y-88489207D01*
G37*
G36*
X156767734Y-88489207D02*
G01*
X156814089Y-88535978D01*
X156767734Y-88582748D01*
X156721379Y-88629519D01*
X156065760Y-88629519D01*
X156019405Y-88582748D01*
X155973050Y-88535978D01*
X156019405Y-88489207D01*
X156065760Y-88442437D01*
X156721379Y-88442437D01*
X156767734Y-88489207D01*
G37*
G36*
X151903598Y-87784051D02*
G01*
X151997139Y-87877385D01*
X151997139Y-88380975D01*
X151878819Y-88499913D01*
X151810057Y-88432185D01*
X151810057Y-87690718D01*
X151903598Y-87784051D01*
G37*
G36*
X159264561Y-88489207D02*
G01*
X159310916Y-88535978D01*
X159264561Y-88582748D01*
X159218206Y-88629519D01*
X158562587Y-88629519D01*
X158516232Y-88582748D01*
X158469878Y-88535978D01*
X158516232Y-88489207D01*
X158562587Y-88442437D01*
X159218206Y-88442437D01*
X159264561Y-88489207D01*
G37*
G36*
X155440170Y-87751672D02*
G01*
X155346837Y-87845213D01*
X154734807Y-87845213D01*
X154641473Y-87751672D01*
X154548140Y-87658131D01*
X155533504Y-87658131D01*
X155440170Y-87751672D01*
G37*
G36*
X163660992Y-87784051D02*
G01*
X163754533Y-87877385D01*
X163754533Y-88380975D01*
X163636213Y-88499913D01*
X163567451Y-88432185D01*
X163567451Y-87690718D01*
X163660992Y-87784051D01*
G37*
G36*
X152734674Y-89320284D02*
G01*
X152828008Y-89413825D01*
X151842644Y-89413825D01*
X151935977Y-89320284D01*
X152029311Y-89226743D01*
X152641341Y-89226743D01*
X152734674Y-89320284D01*
G37*
G36*
X162341626Y-88630516D02*
G01*
X162401785Y-88690363D01*
X162401785Y-89191217D01*
X162310802Y-89284532D01*
X162283383Y-89312532D01*
X162257544Y-89338665D01*
X162236822Y-89359348D01*
X162222850Y-89372951D01*
X162217260Y-89377847D01*
X162217101Y-89377127D01*
X162216620Y-89365863D01*
X162216180Y-89341981D01*
X162215788Y-89306828D01*
X162215454Y-89261748D01*
X162215187Y-89208088D01*
X162214994Y-89147192D01*
X162214886Y-89080408D01*
X162214869Y-89009080D01*
X162215036Y-88640312D01*
X162248252Y-88605491D01*
X162281467Y-88570670D01*
X162341626Y-88630516D01*
G37*
G36*
X152824566Y-88604284D02*
G01*
X152860595Y-88639771D01*
X152860595Y-89381238D01*
X152767054Y-89287904D01*
X152673513Y-89194571D01*
X152673513Y-88683147D01*
X152731025Y-88625972D01*
X152788538Y-88568797D01*
X152824566Y-88604284D01*
G37*
G36*
X160642493Y-89320284D02*
G01*
X160735827Y-89413825D01*
X159750463Y-89413825D01*
X159843796Y-89320284D01*
X159937130Y-89226743D01*
X160549160Y-89226743D01*
X160642493Y-89320284D01*
G37*
G36*
X155440170Y-89320284D02*
G01*
X155533504Y-89413825D01*
X154548140Y-89413825D01*
X154641473Y-89320284D01*
X154734807Y-89226743D01*
X155346837Y-89226743D01*
X155440170Y-89320284D01*
G37*
G36*
X160768414Y-88639771D02*
G01*
X160768414Y-89381238D01*
X160674873Y-89287904D01*
X160581332Y-89194571D01*
X160581332Y-88683147D01*
X160696356Y-88568797D01*
X160768414Y-88639771D01*
G37*
G36*
X164617989Y-88639771D02*
G01*
X164617989Y-89381238D01*
X164524448Y-89287904D01*
X164430907Y-89194571D01*
X164430907Y-88683147D01*
X164545931Y-88568797D01*
X164617989Y-88639771D01*
G37*
G36*
X163265241Y-88431149D02*
G01*
X163231273Y-88465635D01*
X163197306Y-88500121D01*
X163137732Y-88440857D01*
X163078159Y-88381593D01*
X163078159Y-87877385D01*
X163171700Y-87784051D01*
X163265241Y-87690718D01*
X163265241Y-88431149D01*
G37*
G36*
X156699585Y-87845213D02*
G01*
X156087555Y-87845213D01*
X155994221Y-87751672D01*
X155900888Y-87658131D01*
X156886251Y-87658131D01*
X156699585Y-87845213D01*
G37*
G36*
X163114136Y-88489207D02*
G01*
X163160491Y-88535978D01*
X163114136Y-88582748D01*
X163067781Y-88629519D01*
X162412939Y-88629519D01*
X162365354Y-88582299D01*
X162317770Y-88535079D01*
X162413730Y-88442437D01*
X163067781Y-88442437D01*
X163114136Y-88489207D01*
G37*
G36*
X155566091Y-88639771D02*
G01*
X155566091Y-89381238D01*
X155472550Y-89287904D01*
X155379009Y-89194571D01*
X155379009Y-88683147D01*
X155494033Y-88568797D01*
X155566091Y-88639771D01*
G37*
D15*
%TO.C,REF\u002A\u002A*%
X160875570Y-125314848D02*
X160876189Y-125401931D01*
X160876189Y-125401931D02*
X161327914Y-125860891D01*
X161327914Y-125860891D02*
X161779639Y-126319852D01*
X161779639Y-126319852D02*
X161779968Y-126530471D01*
X161779968Y-126530471D02*
X161780297Y-126741089D01*
X161780297Y-126741089D02*
X162055390Y-126741089D01*
X162055390Y-126741089D02*
X162062478Y-126794530D01*
X162062478Y-126794530D02*
X162065162Y-126818888D01*
X162065162Y-126818888D02*
X162069687Y-126864759D01*
X162069687Y-126864759D02*
X162075809Y-126929405D01*
X162075809Y-126929405D02*
X162083288Y-127010091D01*
X162083288Y-127010091D02*
X162091881Y-127104081D01*
X162091881Y-127104081D02*
X162101346Y-127208637D01*
X162101346Y-127208637D02*
X162111442Y-127321025D01*
X162111442Y-127321025D02*
X162121926Y-127438507D01*
X162121926Y-127438507D02*
X162132556Y-127558348D01*
X162132556Y-127558348D02*
X162143091Y-127677811D01*
X162143091Y-127677811D02*
X162153287Y-127794159D01*
X162153287Y-127794159D02*
X162162905Y-127904657D01*
X162162905Y-127904657D02*
X162171700Y-128006569D01*
X162171700Y-128006569D02*
X162179432Y-128097158D01*
X162179432Y-128097158D02*
X162185858Y-128173687D01*
X162185858Y-128173687D02*
X162190737Y-128233421D01*
X162190737Y-128233421D02*
X162193825Y-128273624D01*
X162193825Y-128273624D02*
X162194883Y-128291559D01*
X162194883Y-128291559D02*
X162194882Y-128291644D01*
X162194882Y-128291644D02*
X162187173Y-128306035D01*
X162187173Y-128306035D02*
X162164019Y-128335748D01*
X162164019Y-128335748D02*
X162125105Y-128381131D01*
X162125105Y-128381131D02*
X162070116Y-128442529D01*
X162070116Y-128442529D02*
X161998736Y-128520288D01*
X161998736Y-128520288D02*
X161910651Y-128614754D01*
X161910651Y-128614754D02*
X161805546Y-128726272D01*
X161805546Y-128726272D02*
X161683105Y-128855188D01*
X161683105Y-128855188D02*
X161648690Y-128891287D01*
X161648690Y-128891287D02*
X161102863Y-129463416D01*
X161102863Y-129463416D02*
X161191119Y-129551436D01*
X161191119Y-129551436D02*
X161262515Y-129473758D01*
X161262515Y-129473758D02*
X161288634Y-129445686D01*
X161288634Y-129445686D02*
X161329434Y-129402274D01*
X161329434Y-129402274D02*
X161382223Y-129346366D01*
X161382223Y-129346366D02*
X161444309Y-129280808D01*
X161444309Y-129280808D02*
X161513000Y-129208441D01*
X161513000Y-129208441D02*
X161585604Y-129132112D01*
X161585604Y-129132112D02*
X161629040Y-129086524D01*
X161629040Y-129086524D02*
X161710584Y-129001119D01*
X161710584Y-129001119D02*
X161776496Y-128932710D01*
X161776496Y-128932710D02*
X161828456Y-128880053D01*
X161828456Y-128880053D02*
X161868145Y-128841905D01*
X161868145Y-128841905D02*
X161897243Y-128817020D01*
X161897243Y-128817020D02*
X161917431Y-128804156D01*
X161917431Y-128804156D02*
X161930390Y-128802068D01*
X161930390Y-128802068D02*
X161937800Y-128809513D01*
X161937800Y-128809513D02*
X161941342Y-128825246D01*
X161941342Y-128825246D02*
X161942697Y-128848023D01*
X161942697Y-128848023D02*
X161942879Y-128854239D01*
X161942879Y-128854239D02*
X161952297Y-128897061D01*
X161952297Y-128897061D02*
X161975503Y-128948819D01*
X161975503Y-128948819D02*
X162007864Y-129001328D01*
X162007864Y-129001328D02*
X162044748Y-129046403D01*
X162044748Y-129046403D02*
X162059507Y-129060328D01*
X162059507Y-129060328D02*
X162135233Y-129109047D01*
X162135233Y-129109047D02*
X162223692Y-129136306D01*
X162223692Y-129136306D02*
X162301900Y-129142773D01*
X162301900Y-129142773D02*
X162390532Y-129130576D01*
X162390532Y-129130576D02*
X162472388Y-129094813D01*
X162472388Y-129094813D02*
X162544836Y-129036722D01*
X162544836Y-129036722D02*
X162558203Y-129022262D01*
X162558203Y-129022262D02*
X162607082Y-128966733D01*
X162607082Y-128966733D02*
X163452674Y-128966733D01*
X163452674Y-128966733D02*
X163452674Y-129142773D01*
X163452674Y-129142773D02*
X163679010Y-129142773D01*
X163679010Y-129142773D02*
X163679010Y-129060531D01*
X163679010Y-129060531D02*
X163681850Y-129004386D01*
X163681850Y-129004386D02*
X163691393Y-128965416D01*
X163691393Y-128965416D02*
X163702991Y-128944219D01*
X163702991Y-128944219D02*
X163711277Y-128929052D01*
X163711277Y-128929052D02*
X163718373Y-128907062D01*
X163718373Y-128907062D02*
X163724748Y-128874987D01*
X163724748Y-128874987D02*
X163730872Y-128829569D01*
X163730872Y-128829569D02*
X163737216Y-128767548D01*
X163737216Y-128767548D02*
X163744250Y-128685662D01*
X163744250Y-128685662D02*
X163749066Y-128624746D01*
X163749066Y-128624746D02*
X163771161Y-128339343D01*
X163771161Y-128339343D02*
X164313565Y-128888805D01*
X164313565Y-128888805D02*
X164411637Y-128988228D01*
X164411637Y-128988228D02*
X164505784Y-129083815D01*
X164505784Y-129083815D02*
X164594285Y-129173810D01*
X164594285Y-129173810D02*
X164675420Y-129256457D01*
X164675420Y-129256457D02*
X164747469Y-129330001D01*
X164747469Y-129330001D02*
X164808712Y-129392684D01*
X164808712Y-129392684D02*
X164857427Y-129442752D01*
X164857427Y-129442752D02*
X164891896Y-129478448D01*
X164891896Y-129478448D02*
X164910379Y-129497995D01*
X164910379Y-129497995D02*
X164940743Y-129528944D01*
X164940743Y-129528944D02*
X164966071Y-129550530D01*
X164966071Y-129550530D02*
X164979695Y-129557723D01*
X164979695Y-129557723D02*
X164997095Y-129549297D01*
X164997095Y-129549297D02*
X165022460Y-129528245D01*
X165022460Y-129528245D02*
X165031058Y-129519671D01*
X165031058Y-129519671D02*
X165067514Y-129481620D01*
X165067514Y-129481620D02*
X164866802Y-129277658D01*
X164866802Y-129277658D02*
X164815596Y-129225699D01*
X164815596Y-129225699D02*
X164749569Y-129158820D01*
X164749569Y-129158820D02*
X164671618Y-129079950D01*
X164671618Y-129079950D02*
X164584638Y-128992014D01*
X164584638Y-128992014D02*
X164491526Y-128897941D01*
X164491526Y-128897941D02*
X164395179Y-128800658D01*
X164395179Y-128800658D02*
X164298492Y-128703093D01*
X164298492Y-128703093D02*
X164229134Y-128633145D01*
X164229134Y-128633145D02*
X164123703Y-128526550D01*
X164123703Y-128526550D02*
X164035129Y-128436307D01*
X164035129Y-128436307D02*
X163962281Y-128361192D01*
X163962281Y-128361192D02*
X163904023Y-128299986D01*
X163904023Y-128299986D02*
X163859225Y-128251466D01*
X163859225Y-128251466D02*
X163837021Y-128226129D01*
X163837021Y-128226129D02*
X163658724Y-128226129D01*
X163658724Y-128226129D02*
X163636401Y-128511555D01*
X163636401Y-128511555D02*
X163629669Y-128595219D01*
X163629669Y-128595219D02*
X163623157Y-128671727D01*
X163623157Y-128671727D02*
X163617234Y-128737081D01*
X163617234Y-128737081D02*
X163612268Y-128787281D01*
X163612268Y-128787281D02*
X163608629Y-128818329D01*
X163608629Y-128818329D02*
X163607458Y-128825273D01*
X163607458Y-128825273D02*
X163600838Y-128853565D01*
X163600838Y-128853565D02*
X162651364Y-128853565D01*
X162651364Y-128853565D02*
X162645026Y-128774606D01*
X162645026Y-128774606D02*
X162625890Y-128681315D01*
X162625890Y-128681315D02*
X162585846Y-128598791D01*
X162585846Y-128598791D02*
X162527418Y-128530038D01*
X162527418Y-128530038D02*
X162453129Y-128478063D01*
X162453129Y-128478063D02*
X162369748Y-128446863D01*
X162369748Y-128446863D02*
X162342698Y-128432228D01*
X162342698Y-128432228D02*
X162329156Y-128400819D01*
X162329156Y-128400819D02*
X162328872Y-128399434D01*
X162328872Y-128399434D02*
X162327247Y-128386174D01*
X162327247Y-128386174D02*
X162329256Y-128372595D01*
X162329256Y-128372595D02*
X162336858Y-128356181D01*
X162336858Y-128356181D02*
X162352016Y-128334411D01*
X162352016Y-128334411D02*
X162376688Y-128304767D01*
X162376688Y-128304767D02*
X162412836Y-128264732D01*
X162412836Y-128264732D02*
X162462420Y-128211785D01*
X162462420Y-128211785D02*
X162527401Y-128143409D01*
X162527401Y-128143409D02*
X162531599Y-128139005D01*
X162531599Y-128139005D02*
X162601493Y-128065611D01*
X162601493Y-128065611D02*
X162675800Y-127987437D01*
X162675800Y-127987437D02*
X162749414Y-127909864D01*
X162749414Y-127909864D02*
X162817229Y-127838275D01*
X162817229Y-127838275D02*
X162874140Y-127778051D01*
X162874140Y-127778051D02*
X162886832Y-127764587D01*
X162886832Y-127764587D02*
X162935487Y-127713820D01*
X162935487Y-127713820D02*
X162978709Y-127670375D01*
X162978709Y-127670375D02*
X163013395Y-127637241D01*
X163013395Y-127637241D02*
X163036444Y-127617405D01*
X163036444Y-127617405D02*
X163044182Y-127613046D01*
X163044182Y-127613046D02*
X163055722Y-127622170D01*
X163055722Y-127622170D02*
X163082710Y-127647200D01*
X163082710Y-127647200D02*
X163123021Y-127686052D01*
X163123021Y-127686052D02*
X163174529Y-127736643D01*
X163174529Y-127736643D02*
X163235109Y-127796888D01*
X163235109Y-127796888D02*
X163302636Y-127864704D01*
X163302636Y-127864704D02*
X163357826Y-127920565D01*
X163357826Y-127920565D02*
X163658724Y-128226129D01*
X163658724Y-128226129D02*
X163837021Y-128226129D01*
X163837021Y-128226129D02*
X163826751Y-128214411D01*
X163826751Y-128214411D02*
X163805471Y-128187599D01*
X163805471Y-128187599D02*
X163794251Y-128169808D01*
X163794251Y-128169808D02*
X163791754Y-128161570D01*
X163791754Y-128161570D02*
X163792700Y-128143590D01*
X163792700Y-128143590D02*
X163795573Y-128102892D01*
X163795573Y-128102892D02*
X163800187Y-128041819D01*
X163800187Y-128041819D02*
X163806358Y-127962713D01*
X163806358Y-127962713D02*
X163813898Y-127867914D01*
X163813898Y-127867914D02*
X163822621Y-127759767D01*
X163822621Y-127759767D02*
X163832343Y-127640612D01*
X163832343Y-127640612D02*
X163842876Y-127512791D01*
X163842876Y-127512791D02*
X163851365Y-127410635D01*
X163851365Y-127410635D02*
X163899396Y-126834674D01*
X163899396Y-126834674D02*
X163775805Y-126834674D01*
X163775805Y-126834674D02*
X163775273Y-126847104D01*
X163775273Y-126847104D02*
X163772769Y-126882110D01*
X163772769Y-126882110D02*
X163768496Y-126937215D01*
X163768496Y-126937215D02*
X163762653Y-127009943D01*
X163762653Y-127009943D02*
X163755443Y-127097814D01*
X163755443Y-127097814D02*
X163747066Y-127198351D01*
X163747066Y-127198351D02*
X163737723Y-127309077D01*
X163737723Y-127309077D02*
X163728758Y-127414205D01*
X163728758Y-127414205D02*
X163718602Y-127533483D01*
X163718602Y-127533483D02*
X163709142Y-127646080D01*
X163709142Y-127646080D02*
X163700596Y-127749305D01*
X163700596Y-127749305D02*
X163693179Y-127840473D01*
X163693179Y-127840473D02*
X163687108Y-127916895D01*
X163687108Y-127916895D02*
X163682601Y-127975883D01*
X163682601Y-127975883D02*
X163679873Y-128014749D01*
X163679873Y-128014749D02*
X163679116Y-128029844D01*
X163679116Y-128029844D02*
X163677935Y-128039238D01*
X163677935Y-128039238D02*
X163673256Y-128042966D01*
X163673256Y-128042966D02*
X163663276Y-128039471D01*
X163663276Y-128039471D02*
X163646190Y-128027199D01*
X163646190Y-128027199D02*
X163620196Y-128004594D01*
X163620196Y-128004594D02*
X163583490Y-127970100D01*
X163583490Y-127970100D02*
X163534267Y-127922162D01*
X163534267Y-127922162D02*
X163470726Y-127859224D01*
X163470726Y-127859224D02*
X163403305Y-127791968D01*
X163403305Y-127791968D02*
X163127601Y-127516477D01*
X163127601Y-127516477D02*
X163129533Y-127514406D01*
X163129533Y-127514406D02*
X162947290Y-127514406D01*
X162947290Y-127514406D02*
X162938984Y-127525780D01*
X162938984Y-127525780D02*
X162915733Y-127552563D01*
X162915733Y-127552563D02*
X162879865Y-127592292D01*
X162879865Y-127592292D02*
X162833713Y-127642507D01*
X162833713Y-127642507D02*
X162779606Y-127700746D01*
X162779606Y-127700746D02*
X162719874Y-127764547D01*
X162719874Y-127764547D02*
X162656848Y-127831449D01*
X162656848Y-127831449D02*
X162592858Y-127898990D01*
X162592858Y-127898990D02*
X162530236Y-127964710D01*
X162530236Y-127964710D02*
X162471310Y-128026146D01*
X162471310Y-128026146D02*
X162418412Y-128080837D01*
X162418412Y-128080837D02*
X162373872Y-128126322D01*
X162373872Y-128126322D02*
X162340020Y-128160138D01*
X162340020Y-128160138D02*
X162319188Y-128179826D01*
X162319188Y-128179826D02*
X162313506Y-128183837D01*
X162313506Y-128183837D02*
X162311634Y-128170891D01*
X162311634Y-128170891D02*
X162307746Y-128135134D01*
X162307746Y-128135134D02*
X162302057Y-128078804D01*
X162302057Y-128078804D02*
X162294781Y-128004140D01*
X162294781Y-128004140D02*
X162286131Y-127913380D01*
X162286131Y-127913380D02*
X162276322Y-127808762D01*
X162276322Y-127808762D02*
X162265566Y-127692526D01*
X162265566Y-127692526D02*
X162254079Y-127566908D01*
X162254079Y-127566908D02*
X162244907Y-127465618D01*
X162244907Y-127465618D02*
X162233174Y-127334279D01*
X162233174Y-127334279D02*
X162222335Y-127210552D01*
X162222335Y-127210552D02*
X162212570Y-127096681D01*
X162212570Y-127096681D02*
X162204063Y-126994911D01*
X162204063Y-126994911D02*
X162196995Y-126907487D01*
X162196995Y-126907487D02*
X162191549Y-126836653D01*
X162191549Y-126836653D02*
X162187908Y-126784653D01*
X162187908Y-126784653D02*
X162186253Y-126753732D01*
X162186253Y-126753732D02*
X162186442Y-126745703D01*
X162186442Y-126745703D02*
X162196334Y-126752854D01*
X162196334Y-126752854D02*
X162221524Y-126775841D01*
X162221524Y-126775841D02*
X162259810Y-126812439D01*
X162259810Y-126812439D02*
X162308989Y-126860422D01*
X162308989Y-126860422D02*
X162366861Y-126917566D01*
X162366861Y-126917566D02*
X162431222Y-126981647D01*
X162431222Y-126981647D02*
X162499871Y-127050438D01*
X162499871Y-127050438D02*
X162570605Y-127121716D01*
X162570605Y-127121716D02*
X162641222Y-127193255D01*
X162641222Y-127193255D02*
X162709520Y-127262830D01*
X162709520Y-127262830D02*
X162773296Y-127328217D01*
X162773296Y-127328217D02*
X162830350Y-127387191D01*
X162830350Y-127387191D02*
X162878478Y-127437527D01*
X162878478Y-127437527D02*
X162915478Y-127476999D01*
X162915478Y-127476999D02*
X162939148Y-127503383D01*
X162939148Y-127503383D02*
X162947290Y-127514406D01*
X162947290Y-127514406D02*
X163129533Y-127514406D01*
X163129533Y-127514406D02*
X163230409Y-127406295D01*
X163230409Y-127406295D02*
X163282768Y-127350377D01*
X163282768Y-127350377D02*
X163341535Y-127287948D01*
X163341535Y-127287948D02*
X163404385Y-127221443D01*
X163404385Y-127221443D02*
X163468995Y-127153298D01*
X163468995Y-127153298D02*
X163533042Y-127085948D01*
X163533042Y-127085948D02*
X163594203Y-127021828D01*
X163594203Y-127021828D02*
X163650153Y-126963372D01*
X163650153Y-126963372D02*
X163698570Y-126913018D01*
X163698570Y-126913018D02*
X163737130Y-126873198D01*
X163737130Y-126873198D02*
X163763509Y-126846350D01*
X163763509Y-126846350D02*
X163775384Y-126834908D01*
X163775384Y-126834908D02*
X163775805Y-126834674D01*
X163775805Y-126834674D02*
X163899396Y-126834674D01*
X163899396Y-126834674D02*
X163911401Y-126690726D01*
X163911401Y-126690726D02*
X164511938Y-126059158D01*
X164511938Y-126059158D02*
X165112475Y-125427589D01*
X165112475Y-125427589D02*
X165112034Y-125339315D01*
X165112034Y-125339315D02*
X165111592Y-125251040D01*
X165111592Y-125251040D02*
X165014583Y-125354666D01*
X165014583Y-125354666D02*
X164960291Y-125412463D01*
X164960291Y-125412463D02*
X164896192Y-125480368D01*
X164896192Y-125480368D02*
X164824016Y-125556572D01*
X164824016Y-125556572D02*
X164745492Y-125639269D01*
X164745492Y-125639269D02*
X164662349Y-125726653D01*
X164662349Y-125726653D02*
X164576319Y-125816915D01*
X164576319Y-125816915D02*
X164489130Y-125908250D01*
X164489130Y-125908250D02*
X164402513Y-125998849D01*
X164402513Y-125998849D02*
X164318197Y-126086907D01*
X164318197Y-126086907D02*
X164237912Y-126170615D01*
X164237912Y-126170615D02*
X164163387Y-126248167D01*
X164163387Y-126248167D02*
X164096354Y-126317757D01*
X164096354Y-126317757D02*
X164038541Y-126377576D01*
X164038541Y-126377576D02*
X163991679Y-126425818D01*
X163991679Y-126425818D02*
X163957496Y-126460676D01*
X163957496Y-126460676D02*
X163937724Y-126480343D01*
X163937724Y-126480343D02*
X163933390Y-126484116D01*
X163933390Y-126484116D02*
X163933092Y-126470992D01*
X163933092Y-126470992D02*
X163934731Y-126437389D01*
X163934731Y-126437389D02*
X163938023Y-126387880D01*
X163938023Y-126387880D02*
X163942682Y-126327037D01*
X163942682Y-126327037D02*
X163944682Y-126302732D01*
X163944682Y-126302732D02*
X163959577Y-126124951D01*
X163959577Y-126124951D02*
X163842955Y-126124951D01*
X163842955Y-126124951D02*
X163836934Y-126153243D01*
X163836934Y-126153243D02*
X163833863Y-126175618D01*
X163833863Y-126175618D02*
X163829548Y-126217717D01*
X163829548Y-126217717D02*
X163824488Y-126274178D01*
X163824488Y-126274178D02*
X163819181Y-126339635D01*
X163819181Y-126339635D02*
X163817344Y-126363862D01*
X163817344Y-126363862D02*
X163811927Y-126433421D01*
X163811927Y-126433421D02*
X163806459Y-126498018D01*
X163806459Y-126498018D02*
X163801488Y-126551548D01*
X163801488Y-126551548D02*
X163797561Y-126587910D01*
X163797561Y-126587910D02*
X163796675Y-126594509D01*
X163796675Y-126594509D02*
X163793334Y-126608056D01*
X163793334Y-126608056D02*
X163786101Y-126623914D01*
X163786101Y-126623914D02*
X163773440Y-126643861D01*
X163773440Y-126643861D02*
X163753811Y-126669673D01*
X163753811Y-126669673D02*
X163725678Y-126703129D01*
X163725678Y-126703129D02*
X163687502Y-126746007D01*
X163687502Y-126746007D02*
X163637746Y-126800083D01*
X163637746Y-126800083D02*
X163574871Y-126867136D01*
X163574871Y-126867136D02*
X163497341Y-126948943D01*
X163497341Y-126948943D02*
X163418251Y-127031950D01*
X163418251Y-127031950D02*
X163339564Y-127114094D01*
X163339564Y-127114094D02*
X163266112Y-127190169D01*
X163266112Y-127190169D02*
X163199724Y-127258325D01*
X163199724Y-127258325D02*
X163142227Y-127316712D01*
X163142227Y-127316712D02*
X163095451Y-127363481D01*
X163095451Y-127363481D02*
X163061224Y-127396782D01*
X163061224Y-127396782D02*
X163041373Y-127414767D01*
X163041373Y-127414767D02*
X163037140Y-127417442D01*
X163037140Y-127417442D02*
X163026003Y-127407741D01*
X163026003Y-127407741D02*
X162999971Y-127382441D01*
X162999971Y-127382441D02*
X162961570Y-127344082D01*
X162961570Y-127344082D02*
X162913328Y-127295200D01*
X162913328Y-127295200D02*
X162857770Y-127238334D01*
X162857770Y-127238334D02*
X162817592Y-127196906D01*
X162817592Y-127196906D02*
X162607831Y-126980000D01*
X162607831Y-126980000D02*
X163226337Y-126980000D01*
X163226337Y-126980000D02*
X163226337Y-126741089D01*
X163226337Y-126741089D02*
X162471881Y-126741089D01*
X162471881Y-126741089D02*
X162471881Y-126847542D01*
X162471881Y-126847542D02*
X162333565Y-126709654D01*
X162333565Y-126709654D02*
X162235447Y-126611840D01*
X162235447Y-126611840D02*
X162044357Y-126611840D01*
X162044357Y-126611840D02*
X162042529Y-126627270D01*
X162042529Y-126627270D02*
X162033277Y-126635867D01*
X162033277Y-126635867D02*
X162010950Y-126639613D01*
X162010950Y-126639613D02*
X161969895Y-126640489D01*
X161969895Y-126640489D02*
X161962624Y-126640495D01*
X161962624Y-126640495D02*
X161880891Y-126640495D01*
X161880891Y-126640495D02*
X161880891Y-126421172D01*
X161880891Y-126421172D02*
X161962624Y-126502179D01*
X161962624Y-126502179D02*
X162008730Y-126551428D01*
X162008730Y-126551428D02*
X162036306Y-126589159D01*
X162036306Y-126589159D02*
X162044357Y-126611840D01*
X162044357Y-126611840D02*
X162235447Y-126611840D01*
X162235447Y-126611840D02*
X162195248Y-126571766D01*
X162195248Y-126571766D02*
X162195248Y-126448952D01*
X162195248Y-126448952D02*
X162194863Y-126392450D01*
X162194863Y-126392450D02*
X162193100Y-126356505D01*
X162193100Y-126356505D02*
X162189050Y-126336530D01*
X162189050Y-126336530D02*
X162181801Y-126327937D01*
X162181801Y-126327937D02*
X162170870Y-126326139D01*
X162170870Y-126326139D02*
X162158712Y-126323498D01*
X162158712Y-126323498D02*
X162149727Y-126312912D01*
X162149727Y-126312912D02*
X162142826Y-126290381D01*
X162142826Y-126290381D02*
X162136924Y-126251909D01*
X162136924Y-126251909D02*
X162130935Y-126193498D01*
X162130935Y-126193498D02*
X162129013Y-126172104D01*
X162129013Y-126172104D02*
X162124852Y-126124951D01*
X162124852Y-126124951D02*
X163842955Y-126124951D01*
X163842955Y-126124951D02*
X163959577Y-126124951D01*
X163959577Y-126124951D02*
X164119109Y-126124951D01*
X164119109Y-126124951D02*
X164119109Y-126011782D01*
X164119109Y-126011782D02*
X164051314Y-126011782D01*
X164051314Y-126011782D02*
X164011662Y-126010696D01*
X164011662Y-126010696D02*
X163990116Y-126005454D01*
X163990116Y-126005454D02*
X163987480Y-126002334D01*
X163987480Y-126002334D02*
X163848616Y-126002334D01*
X163848616Y-126002334D02*
X163841308Y-126009462D01*
X163841308Y-126009462D02*
X163815993Y-126011662D01*
X163815993Y-126011662D02*
X163798908Y-126011782D01*
X163798908Y-126011782D02*
X163741881Y-126011782D01*
X163741881Y-126011782D02*
X163529221Y-126011782D01*
X163529221Y-126011782D02*
X162114698Y-126011782D01*
X162114698Y-126011782D02*
X162162542Y-125962786D01*
X162162542Y-125962786D02*
X162236850Y-125902324D01*
X162236850Y-125902324D02*
X162328816Y-125855691D01*
X162328816Y-125855691D02*
X162439998Y-125822249D01*
X162439998Y-125822249D02*
X162550471Y-125803753D01*
X162550471Y-125803753D02*
X162622773Y-125795122D01*
X162622773Y-125795122D02*
X162622773Y-125886040D01*
X162622773Y-125886040D02*
X163201188Y-125886040D01*
X163201188Y-125886040D02*
X163201188Y-125782893D01*
X163201188Y-125782893D02*
X163286065Y-125791496D01*
X163286065Y-125791496D02*
X163345368Y-125798756D01*
X163345368Y-125798756D02*
X163408551Y-125808379D01*
X163408551Y-125808379D02*
X163446386Y-125815252D01*
X163446386Y-125815252D02*
X163521832Y-125830407D01*
X163521832Y-125830407D02*
X163525526Y-125921095D01*
X163525526Y-125921095D02*
X163529221Y-126011782D01*
X163529221Y-126011782D02*
X163741881Y-126011782D01*
X163741881Y-126011782D02*
X163741881Y-125961485D01*
X163741881Y-125961485D02*
X163743544Y-125929976D01*
X163743544Y-125929976D02*
X163747697Y-125912463D01*
X163747697Y-125912463D02*
X163749371Y-125911188D01*
X163749371Y-125911188D02*
X163767987Y-125919254D01*
X163767987Y-125919254D02*
X163795183Y-125938820D01*
X163795183Y-125938820D02*
X163822448Y-125962944D01*
X163822448Y-125962944D02*
X163841267Y-125984682D01*
X163841267Y-125984682D02*
X163842943Y-125987508D01*
X163842943Y-125987508D02*
X163848616Y-126002334D01*
X163848616Y-126002334D02*
X163987480Y-126002334D01*
X163987480Y-126002334D02*
X163979662Y-125993081D01*
X163979662Y-125993081D02*
X163975442Y-125979604D01*
X163975442Y-125979604D02*
X163958219Y-125944627D01*
X163958219Y-125944627D02*
X163925138Y-125902579D01*
X163925138Y-125902579D02*
X163881893Y-125859356D01*
X163881893Y-125859356D02*
X163834174Y-125820854D01*
X163834174Y-125820854D02*
X163802830Y-125800801D01*
X163802830Y-125800801D02*
X163767123Y-125778851D01*
X163767123Y-125778851D02*
X163748819Y-125760411D01*
X163748819Y-125760411D02*
X163742388Y-125738668D01*
X163742388Y-125738668D02*
X163741894Y-125725718D01*
X163741894Y-125725718D02*
X163741894Y-125722575D01*
X163741894Y-125722575D02*
X163100594Y-125722575D01*
X163100594Y-125722575D02*
X163100594Y-125785446D01*
X163100594Y-125785446D02*
X162723367Y-125785446D01*
X162723367Y-125785446D02*
X162723367Y-125722575D01*
X162723367Y-125722575D02*
X163100594Y-125722575D01*
X163100594Y-125722575D02*
X163741894Y-125722575D01*
X163741894Y-125722575D02*
X163741881Y-125684852D01*
X163741881Y-125684852D02*
X163636048Y-125684852D01*
X163636048Y-125684852D02*
X163587355Y-125686029D01*
X163587355Y-125686029D02*
X163549405Y-125689165D01*
X163549405Y-125689165D02*
X163528308Y-125693671D01*
X163528308Y-125693671D02*
X163526023Y-125695495D01*
X163526023Y-125695495D02*
X163512641Y-125698295D01*
X163512641Y-125698295D02*
X163480074Y-125697148D01*
X163480074Y-125697148D02*
X163433916Y-125692393D01*
X163433916Y-125692393D02*
X163402376Y-125688003D01*
X163402376Y-125688003D02*
X163345188Y-125679378D01*
X163345188Y-125679378D02*
X163292886Y-125671591D01*
X163292886Y-125671591D02*
X163253582Y-125665847D01*
X163253582Y-125665847D02*
X163242055Y-125664215D01*
X163242055Y-125664215D02*
X163211937Y-125654888D01*
X163211937Y-125654888D02*
X163201188Y-125640272D01*
X163201188Y-125640272D02*
X163197920Y-125634320D01*
X163197920Y-125634320D02*
X163186230Y-125629778D01*
X163186230Y-125629778D02*
X163163288Y-125626470D01*
X163163288Y-125626470D02*
X163126265Y-125624215D01*
X163126265Y-125624215D02*
X163072332Y-125622834D01*
X163072332Y-125622834D02*
X162998660Y-125622150D01*
X162998660Y-125622150D02*
X162911980Y-125621980D01*
X162911980Y-125621980D02*
X162819471Y-125622077D01*
X162819471Y-125622077D02*
X162749094Y-125622530D01*
X162749094Y-125622530D02*
X162697836Y-125623590D01*
X162697836Y-125623590D02*
X162662680Y-125625503D01*
X162662680Y-125625503D02*
X162640611Y-125628519D01*
X162640611Y-125628519D02*
X162628615Y-125632885D01*
X162628615Y-125632885D02*
X162623676Y-125638849D01*
X162623676Y-125638849D02*
X162622773Y-125645784D01*
X162622773Y-125645784D02*
X162615079Y-125667795D01*
X162615079Y-125667795D02*
X162589879Y-125680321D01*
X162589879Y-125680321D02*
X162543991Y-125684788D01*
X162543991Y-125684788D02*
X162535736Y-125684852D01*
X162535736Y-125684852D02*
X162458027Y-125692868D01*
X162458027Y-125692868D02*
X162369767Y-125714936D01*
X162369767Y-125714936D02*
X162278915Y-125748084D01*
X162278915Y-125748084D02*
X162193430Y-125789339D01*
X162193430Y-125789339D02*
X162121274Y-125835731D01*
X162121274Y-125835731D02*
X162111928Y-125843082D01*
X162111928Y-125843082D02*
X162081467Y-125866998D01*
X162081467Y-125866998D02*
X162063428Y-125876576D01*
X162063428Y-125876576D02*
X162050831Y-125873480D01*
X162050831Y-125873480D02*
X162037900Y-125860704D01*
X162037900Y-125860704D02*
X161999707Y-125835678D01*
X161999707Y-125835678D02*
X161950002Y-125826071D01*
X161950002Y-125826071D02*
X161896476Y-125831067D01*
X161896476Y-125831067D02*
X161846822Y-125849851D01*
X161846822Y-125849851D02*
X161808733Y-125881606D01*
X161808733Y-125881606D02*
X161805975Y-125885297D01*
X161805975Y-125885297D02*
X161777474Y-125944575D01*
X161777474Y-125944575D02*
X161772172Y-126005934D01*
X161772172Y-126005934D02*
X161789482Y-126064427D01*
X161789482Y-126064427D02*
X161828820Y-126115104D01*
X161828820Y-126115104D02*
X161833630Y-126119289D01*
X161833630Y-126119289D02*
X161861560Y-126139167D01*
X161861560Y-126139167D02*
X161889898Y-126147921D01*
X161889898Y-126147921D02*
X161929737Y-126148553D01*
X161929737Y-126148553D02*
X161939689Y-126147992D01*
X161939689Y-126147992D02*
X161978668Y-126146562D01*
X161978668Y-126146562D02*
X161998746Y-126149839D01*
X161998746Y-126149839D02*
X162006015Y-126159728D01*
X162006015Y-126159728D02*
X162006760Y-126168961D01*
X162006760Y-126168961D02*
X162008284Y-126195744D01*
X162008284Y-126195744D02*
X162012065Y-126236025D01*
X162012065Y-126236025D02*
X162014782Y-126260124D01*
X162014782Y-126260124D02*
X162018723Y-126298401D01*
X162018723Y-126298401D02*
X162017084Y-126317996D01*
X162017084Y-126317996D02*
X162007579Y-126325158D01*
X162007579Y-126325158D02*
X161990649Y-126326139D01*
X161990649Y-126326139D02*
X161980608Y-126322901D01*
X161980608Y-126322901D02*
X161964410Y-126312420D01*
X161964410Y-126312420D02*
X161940855Y-126293548D01*
X161940855Y-126293548D02*
X161908743Y-126265135D01*
X161908743Y-126265135D02*
X161866872Y-126226035D01*
X161866872Y-126226035D02*
X161814043Y-126175097D01*
X161814043Y-126175097D02*
X161749055Y-126111173D01*
X161749055Y-126111173D02*
X161670709Y-126033114D01*
X161670709Y-126033114D02*
X161577803Y-125939772D01*
X161577803Y-125939772D02*
X161469137Y-125829998D01*
X161469137Y-125829998D02*
X161416769Y-125776952D01*
X161416769Y-125776952D02*
X160874951Y-125227767D01*
X160874951Y-125227767D02*
X160875570Y-125314848D01*
X160875570Y-125314848D02*
X160875570Y-125314848D01*
G36*
X164011662Y-126010696D02*
G01*
X164051314Y-126011782D01*
X164119109Y-126011782D01*
X164119109Y-126124951D01*
X163959577Y-126124951D01*
X163944682Y-126302732D01*
X163942682Y-126327037D01*
X163938023Y-126387880D01*
X163934731Y-126437389D01*
X163933092Y-126470992D01*
X163933390Y-126484116D01*
X163937724Y-126480343D01*
X163957496Y-126460676D01*
X163991679Y-126425818D01*
X164038541Y-126377576D01*
X164096354Y-126317757D01*
X164163387Y-126248167D01*
X164237912Y-126170615D01*
X164318197Y-126086907D01*
X164402513Y-125998849D01*
X164489130Y-125908250D01*
X164576319Y-125816915D01*
X164662349Y-125726653D01*
X164745492Y-125639269D01*
X164824016Y-125556572D01*
X164896192Y-125480368D01*
X164960291Y-125412463D01*
X165014583Y-125354666D01*
X165111592Y-125251040D01*
X165112034Y-125339315D01*
X165112475Y-125427589D01*
X164511938Y-126059158D01*
X163911401Y-126690726D01*
X163899396Y-126834674D01*
X163851365Y-127410635D01*
X163842876Y-127512791D01*
X163832343Y-127640612D01*
X163822621Y-127759767D01*
X163813898Y-127867914D01*
X163806358Y-127962713D01*
X163800187Y-128041819D01*
X163795573Y-128102892D01*
X163792700Y-128143590D01*
X163791754Y-128161570D01*
X163794251Y-128169808D01*
X163805471Y-128187599D01*
X163826751Y-128214411D01*
X163837021Y-128226129D01*
X163859225Y-128251466D01*
X163904023Y-128299986D01*
X163962281Y-128361192D01*
X164035129Y-128436307D01*
X164123703Y-128526550D01*
X164229134Y-128633145D01*
X164298492Y-128703093D01*
X164395179Y-128800658D01*
X164491526Y-128897941D01*
X164584638Y-128992014D01*
X164671618Y-129079950D01*
X164749569Y-129158820D01*
X164815596Y-129225699D01*
X164866802Y-129277658D01*
X165067514Y-129481620D01*
X165031058Y-129519671D01*
X165022460Y-129528245D01*
X164997095Y-129549297D01*
X164979695Y-129557723D01*
X164966071Y-129550530D01*
X164940743Y-129528944D01*
X164910379Y-129497995D01*
X164891896Y-129478448D01*
X164857427Y-129442752D01*
X164808712Y-129392684D01*
X164747469Y-129330001D01*
X164675420Y-129256457D01*
X164594285Y-129173810D01*
X164505784Y-129083815D01*
X164411637Y-128988228D01*
X164313565Y-128888805D01*
X163771161Y-128339343D01*
X163749066Y-128624746D01*
X163744250Y-128685662D01*
X163737216Y-128767548D01*
X163730872Y-128829569D01*
X163724748Y-128874987D01*
X163718373Y-128907062D01*
X163711277Y-128929052D01*
X163702991Y-128944219D01*
X163691393Y-128965416D01*
X163681850Y-129004386D01*
X163679010Y-129060531D01*
X163679010Y-129142773D01*
X163452674Y-129142773D01*
X163452674Y-128966733D01*
X162607082Y-128966733D01*
X162558203Y-129022262D01*
X162544836Y-129036722D01*
X162472388Y-129094813D01*
X162390532Y-129130576D01*
X162301900Y-129142773D01*
X162223692Y-129136306D01*
X162135233Y-129109047D01*
X162059507Y-129060328D01*
X162044748Y-129046403D01*
X162007864Y-129001328D01*
X161975503Y-128948819D01*
X161952297Y-128897061D01*
X161942879Y-128854239D01*
X161942697Y-128848023D01*
X161941342Y-128825246D01*
X161937800Y-128809513D01*
X161930390Y-128802068D01*
X161917431Y-128804156D01*
X161897243Y-128817020D01*
X161868145Y-128841905D01*
X161828456Y-128880053D01*
X161776496Y-128932710D01*
X161710584Y-129001119D01*
X161629040Y-129086524D01*
X161585604Y-129132112D01*
X161513000Y-129208441D01*
X161444309Y-129280808D01*
X161382223Y-129346366D01*
X161329434Y-129402274D01*
X161288634Y-129445686D01*
X161262515Y-129473758D01*
X161191119Y-129551436D01*
X161102863Y-129463416D01*
X161648690Y-128891287D01*
X161683105Y-128855188D01*
X161805546Y-128726272D01*
X161910651Y-128614754D01*
X161998736Y-128520288D01*
X162070116Y-128442529D01*
X162120588Y-128386174D01*
X162327247Y-128386174D01*
X162328872Y-128399434D01*
X162329156Y-128400819D01*
X162342698Y-128432228D01*
X162369748Y-128446863D01*
X162453129Y-128478063D01*
X162527418Y-128530038D01*
X162585846Y-128598791D01*
X162625890Y-128681315D01*
X162645026Y-128774606D01*
X162651364Y-128853565D01*
X163600838Y-128853565D01*
X163607458Y-128825273D01*
X163608629Y-128818329D01*
X163612268Y-128787281D01*
X163617234Y-128737081D01*
X163623157Y-128671727D01*
X163629669Y-128595219D01*
X163636401Y-128511555D01*
X163658724Y-128226129D01*
X163357826Y-127920565D01*
X163302636Y-127864704D01*
X163235109Y-127796888D01*
X163174529Y-127736643D01*
X163123021Y-127686052D01*
X163082710Y-127647200D01*
X163055722Y-127622170D01*
X163044182Y-127613046D01*
X163036444Y-127617405D01*
X163013395Y-127637241D01*
X162978709Y-127670375D01*
X162935487Y-127713820D01*
X162886832Y-127764587D01*
X162874140Y-127778051D01*
X162817229Y-127838275D01*
X162749414Y-127909864D01*
X162675800Y-127987437D01*
X162601493Y-128065611D01*
X162531599Y-128139005D01*
X162527401Y-128143409D01*
X162462420Y-128211785D01*
X162412836Y-128264732D01*
X162376688Y-128304767D01*
X162352016Y-128334411D01*
X162336858Y-128356181D01*
X162329256Y-128372595D01*
X162327247Y-128386174D01*
X162120588Y-128386174D01*
X162125105Y-128381131D01*
X162164019Y-128335748D01*
X162187173Y-128306035D01*
X162194882Y-128291644D01*
X162194883Y-128291559D01*
X162193825Y-128273624D01*
X162190737Y-128233421D01*
X162185858Y-128173687D01*
X162179432Y-128097158D01*
X162171700Y-128006569D01*
X162162905Y-127904657D01*
X162153287Y-127794159D01*
X162143091Y-127677811D01*
X162132556Y-127558348D01*
X162121926Y-127438507D01*
X162111442Y-127321025D01*
X162101346Y-127208637D01*
X162091881Y-127104081D01*
X162083288Y-127010091D01*
X162075809Y-126929405D01*
X162069687Y-126864759D01*
X162065162Y-126818888D01*
X162062478Y-126794530D01*
X162057067Y-126753732D01*
X162186253Y-126753732D01*
X162187908Y-126784653D01*
X162191549Y-126836653D01*
X162196995Y-126907487D01*
X162204063Y-126994911D01*
X162212570Y-127096681D01*
X162222335Y-127210552D01*
X162233174Y-127334279D01*
X162244907Y-127465618D01*
X162254079Y-127566908D01*
X162265566Y-127692526D01*
X162276322Y-127808762D01*
X162286131Y-127913380D01*
X162294781Y-128004140D01*
X162302057Y-128078804D01*
X162307746Y-128135134D01*
X162311634Y-128170891D01*
X162313506Y-128183837D01*
X162319188Y-128179826D01*
X162340020Y-128160138D01*
X162373872Y-128126322D01*
X162418412Y-128080837D01*
X162471310Y-128026146D01*
X162530236Y-127964710D01*
X162592858Y-127898990D01*
X162656848Y-127831449D01*
X162719874Y-127764547D01*
X162779606Y-127700746D01*
X162833713Y-127642507D01*
X162879865Y-127592292D01*
X162915733Y-127552563D01*
X162938984Y-127525780D01*
X162945778Y-127516477D01*
X163127601Y-127516477D01*
X163403305Y-127791968D01*
X163470726Y-127859224D01*
X163534267Y-127922162D01*
X163583490Y-127970100D01*
X163620196Y-128004594D01*
X163646190Y-128027199D01*
X163663276Y-128039471D01*
X163673256Y-128042966D01*
X163677935Y-128039238D01*
X163679116Y-128029844D01*
X163679873Y-128014749D01*
X163682601Y-127975883D01*
X163687108Y-127916895D01*
X163693179Y-127840473D01*
X163700596Y-127749305D01*
X163709142Y-127646080D01*
X163718602Y-127533483D01*
X163728758Y-127414205D01*
X163737723Y-127309077D01*
X163747066Y-127198351D01*
X163755443Y-127097814D01*
X163762653Y-127009943D01*
X163768496Y-126937215D01*
X163772769Y-126882110D01*
X163775273Y-126847104D01*
X163775805Y-126834674D01*
X163775384Y-126834908D01*
X163763509Y-126846350D01*
X163737130Y-126873198D01*
X163698570Y-126913018D01*
X163650153Y-126963372D01*
X163594203Y-127021828D01*
X163533042Y-127085948D01*
X163468995Y-127153298D01*
X163404385Y-127221443D01*
X163341535Y-127287948D01*
X163282768Y-127350377D01*
X163230409Y-127406295D01*
X163129533Y-127514406D01*
X163127601Y-127516477D01*
X162945778Y-127516477D01*
X162947290Y-127514406D01*
X162939148Y-127503383D01*
X162915478Y-127476999D01*
X162878478Y-127437527D01*
X162830350Y-127387191D01*
X162773296Y-127328217D01*
X162709520Y-127262830D01*
X162641222Y-127193255D01*
X162570605Y-127121716D01*
X162499871Y-127050438D01*
X162431222Y-126981647D01*
X162366861Y-126917566D01*
X162308989Y-126860422D01*
X162259810Y-126812439D01*
X162221524Y-126775841D01*
X162196334Y-126752854D01*
X162186442Y-126745703D01*
X162186253Y-126753732D01*
X162057067Y-126753732D01*
X162055390Y-126741089D01*
X161780297Y-126741089D01*
X161780140Y-126640495D01*
X161880891Y-126640495D01*
X161962624Y-126640495D01*
X161969895Y-126640489D01*
X162010950Y-126639613D01*
X162033277Y-126635867D01*
X162042529Y-126627270D01*
X162044357Y-126611840D01*
X162036306Y-126589159D01*
X162008730Y-126551428D01*
X161962624Y-126502179D01*
X161880891Y-126421172D01*
X161880891Y-126640495D01*
X161780140Y-126640495D01*
X161779968Y-126530471D01*
X161779639Y-126319852D01*
X161327914Y-125860891D01*
X160876189Y-125401931D01*
X160875570Y-125314848D01*
X160874951Y-125227767D01*
X161416769Y-125776952D01*
X161469137Y-125829998D01*
X161577803Y-125939772D01*
X161670709Y-126033114D01*
X161749055Y-126111173D01*
X161814043Y-126175097D01*
X161866872Y-126226035D01*
X161908743Y-126265135D01*
X161940855Y-126293548D01*
X161964410Y-126312420D01*
X161980608Y-126322901D01*
X161990649Y-126326139D01*
X162007579Y-126325158D01*
X162017084Y-126317996D01*
X162018723Y-126298401D01*
X162014782Y-126260124D01*
X162012065Y-126236025D01*
X162008284Y-126195744D01*
X162006760Y-126168961D01*
X162006015Y-126159728D01*
X161998746Y-126149839D01*
X161978668Y-126146562D01*
X161939689Y-126147992D01*
X161929737Y-126148553D01*
X161889898Y-126147921D01*
X161861560Y-126139167D01*
X161841586Y-126124951D01*
X162124852Y-126124951D01*
X162129013Y-126172104D01*
X162130935Y-126193498D01*
X162136924Y-126251909D01*
X162142826Y-126290381D01*
X162149727Y-126312912D01*
X162158712Y-126323498D01*
X162170870Y-126326139D01*
X162181801Y-126327937D01*
X162189050Y-126336530D01*
X162193100Y-126356505D01*
X162194863Y-126392450D01*
X162195248Y-126448952D01*
X162195248Y-126571766D01*
X162235447Y-126611840D01*
X162333565Y-126709654D01*
X162471881Y-126847542D01*
X162471881Y-126741089D01*
X163226337Y-126741089D01*
X163226337Y-126980000D01*
X162607831Y-126980000D01*
X162817592Y-127196906D01*
X162857770Y-127238334D01*
X162913328Y-127295200D01*
X162961570Y-127344082D01*
X162999971Y-127382441D01*
X163026003Y-127407741D01*
X163037140Y-127417442D01*
X163041373Y-127414767D01*
X163061224Y-127396782D01*
X163095451Y-127363481D01*
X163142227Y-127316712D01*
X163199724Y-127258325D01*
X163266112Y-127190169D01*
X163339564Y-127114094D01*
X163418251Y-127031950D01*
X163497341Y-126948943D01*
X163574871Y-126867136D01*
X163637746Y-126800083D01*
X163687502Y-126746007D01*
X163725678Y-126703129D01*
X163753811Y-126669673D01*
X163773440Y-126643861D01*
X163786101Y-126623914D01*
X163793334Y-126608056D01*
X163796675Y-126594509D01*
X163797561Y-126587910D01*
X163801488Y-126551548D01*
X163806459Y-126498018D01*
X163811927Y-126433421D01*
X163817344Y-126363862D01*
X163819181Y-126339635D01*
X163824488Y-126274178D01*
X163829548Y-126217717D01*
X163833863Y-126175618D01*
X163836934Y-126153243D01*
X163842955Y-126124951D01*
X162124852Y-126124951D01*
X161841586Y-126124951D01*
X161833630Y-126119289D01*
X161828820Y-126115104D01*
X161789482Y-126064427D01*
X161773903Y-126011782D01*
X162114698Y-126011782D01*
X163529221Y-126011782D01*
X163741881Y-126011782D01*
X163798908Y-126011782D01*
X163815993Y-126011662D01*
X163841308Y-126009462D01*
X163848616Y-126002334D01*
X163842943Y-125987508D01*
X163841267Y-125984682D01*
X163822448Y-125962944D01*
X163795183Y-125938820D01*
X163767987Y-125919254D01*
X163749371Y-125911188D01*
X163747697Y-125912463D01*
X163743544Y-125929976D01*
X163741881Y-125961485D01*
X163741881Y-126011782D01*
X163529221Y-126011782D01*
X163525526Y-125921095D01*
X163521832Y-125830407D01*
X163446386Y-125815252D01*
X163408551Y-125808379D01*
X163345368Y-125798756D01*
X163286065Y-125791496D01*
X163201188Y-125782893D01*
X163201188Y-125886040D01*
X162622773Y-125886040D01*
X162622773Y-125795122D01*
X162550471Y-125803753D01*
X162439998Y-125822249D01*
X162328816Y-125855691D01*
X162236850Y-125902324D01*
X162162542Y-125962786D01*
X162114698Y-126011782D01*
X161773903Y-126011782D01*
X161772172Y-126005934D01*
X161777474Y-125944575D01*
X161805975Y-125885297D01*
X161808733Y-125881606D01*
X161846822Y-125849851D01*
X161896476Y-125831067D01*
X161950002Y-125826071D01*
X161999707Y-125835678D01*
X162037900Y-125860704D01*
X162050831Y-125873480D01*
X162063428Y-125876576D01*
X162081467Y-125866998D01*
X162111928Y-125843082D01*
X162121274Y-125835731D01*
X162193430Y-125789339D01*
X162278915Y-125748084D01*
X162348830Y-125722575D01*
X162723367Y-125722575D01*
X162723367Y-125785446D01*
X163100594Y-125785446D01*
X163100594Y-125722575D01*
X162723367Y-125722575D01*
X162348830Y-125722575D01*
X162369767Y-125714936D01*
X162458027Y-125692868D01*
X162535736Y-125684852D01*
X162543991Y-125684788D01*
X162589879Y-125680321D01*
X162615079Y-125667795D01*
X162622773Y-125645784D01*
X162623676Y-125638849D01*
X162628615Y-125632885D01*
X162640611Y-125628519D01*
X162662680Y-125625503D01*
X162697836Y-125623590D01*
X162749094Y-125622530D01*
X162819471Y-125622077D01*
X162911980Y-125621980D01*
X162998660Y-125622150D01*
X163072332Y-125622834D01*
X163126265Y-125624215D01*
X163163288Y-125626470D01*
X163186230Y-125629778D01*
X163197920Y-125634320D01*
X163201188Y-125640272D01*
X163211937Y-125654888D01*
X163242055Y-125664215D01*
X163253582Y-125665847D01*
X163292886Y-125671591D01*
X163345188Y-125679378D01*
X163402376Y-125688003D01*
X163433916Y-125692393D01*
X163480074Y-125697148D01*
X163512641Y-125698295D01*
X163526023Y-125695495D01*
X163528308Y-125693671D01*
X163549405Y-125689165D01*
X163587355Y-125686029D01*
X163636048Y-125684852D01*
X163741881Y-125684852D01*
X163741894Y-125722575D01*
X163741894Y-125725718D01*
X163742388Y-125738668D01*
X163748819Y-125760411D01*
X163767123Y-125778851D01*
X163802830Y-125800801D01*
X163834174Y-125820854D01*
X163881893Y-125859356D01*
X163925138Y-125902579D01*
X163958219Y-125944627D01*
X163975442Y-125979604D01*
X163979662Y-125993081D01*
X163987480Y-126002334D01*
X163990116Y-126005454D01*
X164011662Y-126010696D01*
G37*
X164011662Y-126010696D02*
X164051314Y-126011782D01*
X164119109Y-126011782D01*
X164119109Y-126124951D01*
X163959577Y-126124951D01*
X163944682Y-126302732D01*
X163942682Y-126327037D01*
X163938023Y-126387880D01*
X163934731Y-126437389D01*
X163933092Y-126470992D01*
X163933390Y-126484116D01*
X163937724Y-126480343D01*
X163957496Y-126460676D01*
X163991679Y-126425818D01*
X164038541Y-126377576D01*
X164096354Y-126317757D01*
X164163387Y-126248167D01*
X164237912Y-126170615D01*
X164318197Y-126086907D01*
X164402513Y-125998849D01*
X164489130Y-125908250D01*
X164576319Y-125816915D01*
X164662349Y-125726653D01*
X164745492Y-125639269D01*
X164824016Y-125556572D01*
X164896192Y-125480368D01*
X164960291Y-125412463D01*
X165014583Y-125354666D01*
X165111592Y-125251040D01*
X165112034Y-125339315D01*
X165112475Y-125427589D01*
X164511938Y-126059158D01*
X163911401Y-126690726D01*
X163899396Y-126834674D01*
X163851365Y-127410635D01*
X163842876Y-127512791D01*
X163832343Y-127640612D01*
X163822621Y-127759767D01*
X163813898Y-127867914D01*
X163806358Y-127962713D01*
X163800187Y-128041819D01*
X163795573Y-128102892D01*
X163792700Y-128143590D01*
X163791754Y-128161570D01*
X163794251Y-128169808D01*
X163805471Y-128187599D01*
X163826751Y-128214411D01*
X163837021Y-128226129D01*
X163859225Y-128251466D01*
X163904023Y-128299986D01*
X163962281Y-128361192D01*
X164035129Y-128436307D01*
X164123703Y-128526550D01*
X164229134Y-128633145D01*
X164298492Y-128703093D01*
X164395179Y-128800658D01*
X164491526Y-128897941D01*
X164584638Y-128992014D01*
X164671618Y-129079950D01*
X164749569Y-129158820D01*
X164815596Y-129225699D01*
X164866802Y-129277658D01*
X165067514Y-129481620D01*
X165031058Y-129519671D01*
X165022460Y-129528245D01*
X164997095Y-129549297D01*
X164979695Y-129557723D01*
X164966071Y-129550530D01*
X164940743Y-129528944D01*
X164910379Y-129497995D01*
X164891896Y-129478448D01*
X164857427Y-129442752D01*
X164808712Y-129392684D01*
X164747469Y-129330001D01*
X164675420Y-129256457D01*
X164594285Y-129173810D01*
X164505784Y-129083815D01*
X164411637Y-128988228D01*
X164313565Y-128888805D01*
X163771161Y-128339343D01*
X163749066Y-128624746D01*
X163744250Y-128685662D01*
X163737216Y-128767548D01*
X163730872Y-128829569D01*
X163724748Y-128874987D01*
X163718373Y-128907062D01*
X163711277Y-128929052D01*
X163702991Y-128944219D01*
X163691393Y-128965416D01*
X163681850Y-129004386D01*
X163679010Y-129060531D01*
X163679010Y-129142773D01*
X163452674Y-129142773D01*
X163452674Y-128966733D01*
X162607082Y-128966733D01*
X162558203Y-129022262D01*
X162544836Y-129036722D01*
X162472388Y-129094813D01*
X162390532Y-129130576D01*
X162301900Y-129142773D01*
X162223692Y-129136306D01*
X162135233Y-129109047D01*
X162059507Y-129060328D01*
X162044748Y-129046403D01*
X162007864Y-129001328D01*
X161975503Y-128948819D01*
X161952297Y-128897061D01*
X161942879Y-128854239D01*
X161942697Y-128848023D01*
X161941342Y-128825246D01*
X161937800Y-128809513D01*
X161930390Y-128802068D01*
X161917431Y-128804156D01*
X161897243Y-128817020D01*
X161868145Y-128841905D01*
X161828456Y-128880053D01*
X161776496Y-128932710D01*
X161710584Y-129001119D01*
X161629040Y-129086524D01*
X161585604Y-129132112D01*
X161513000Y-129208441D01*
X161444309Y-129280808D01*
X161382223Y-129346366D01*
X161329434Y-129402274D01*
X161288634Y-129445686D01*
X161262515Y-129473758D01*
X161191119Y-129551436D01*
X161102863Y-129463416D01*
X161648690Y-128891287D01*
X161683105Y-128855188D01*
X161805546Y-128726272D01*
X161910651Y-128614754D01*
X161998736Y-128520288D01*
X162070116Y-128442529D01*
X162120588Y-128386174D01*
X162327247Y-128386174D01*
X162328872Y-128399434D01*
X162329156Y-128400819D01*
X162342698Y-128432228D01*
X162369748Y-128446863D01*
X162453129Y-128478063D01*
X162527418Y-128530038D01*
X162585846Y-128598791D01*
X162625890Y-128681315D01*
X162645026Y-128774606D01*
X162651364Y-128853565D01*
X163600838Y-128853565D01*
X163607458Y-128825273D01*
X163608629Y-128818329D01*
X163612268Y-128787281D01*
X163617234Y-128737081D01*
X163623157Y-128671727D01*
X163629669Y-128595219D01*
X163636401Y-128511555D01*
X163658724Y-128226129D01*
X163357826Y-127920565D01*
X163302636Y-127864704D01*
X163235109Y-127796888D01*
X163174529Y-127736643D01*
X163123021Y-127686052D01*
X163082710Y-127647200D01*
X163055722Y-127622170D01*
X163044182Y-127613046D01*
X163036444Y-127617405D01*
X163013395Y-127637241D01*
X162978709Y-127670375D01*
X162935487Y-127713820D01*
X162886832Y-127764587D01*
X162874140Y-127778051D01*
X162817229Y-127838275D01*
X162749414Y-127909864D01*
X162675800Y-127987437D01*
X162601493Y-128065611D01*
X162531599Y-128139005D01*
X162527401Y-128143409D01*
X162462420Y-128211785D01*
X162412836Y-128264732D01*
X162376688Y-128304767D01*
X162352016Y-128334411D01*
X162336858Y-128356181D01*
X162329256Y-128372595D01*
X162327247Y-128386174D01*
X162120588Y-128386174D01*
X162125105Y-128381131D01*
X162164019Y-128335748D01*
X162187173Y-128306035D01*
X162194882Y-128291644D01*
X162194883Y-128291559D01*
X162193825Y-128273624D01*
X162190737Y-128233421D01*
X162185858Y-128173687D01*
X162179432Y-128097158D01*
X162171700Y-128006569D01*
X162162905Y-127904657D01*
X162153287Y-127794159D01*
X162143091Y-127677811D01*
X162132556Y-127558348D01*
X162121926Y-127438507D01*
X162111442Y-127321025D01*
X162101346Y-127208637D01*
X162091881Y-127104081D01*
X162083288Y-127010091D01*
X162075809Y-126929405D01*
X162069687Y-126864759D01*
X162065162Y-126818888D01*
X162062478Y-126794530D01*
X162057067Y-126753732D01*
X162186253Y-126753732D01*
X162187908Y-126784653D01*
X162191549Y-126836653D01*
X162196995Y-126907487D01*
X162204063Y-126994911D01*
X162212570Y-127096681D01*
X162222335Y-127210552D01*
X162233174Y-127334279D01*
X162244907Y-127465618D01*
X162254079Y-127566908D01*
X162265566Y-127692526D01*
X162276322Y-127808762D01*
X162286131Y-127913380D01*
X162294781Y-128004140D01*
X162302057Y-128078804D01*
X162307746Y-128135134D01*
X162311634Y-128170891D01*
X162313506Y-128183837D01*
X162319188Y-128179826D01*
X162340020Y-128160138D01*
X162373872Y-128126322D01*
X162418412Y-128080837D01*
X162471310Y-128026146D01*
X162530236Y-127964710D01*
X162592858Y-127898990D01*
X162656848Y-127831449D01*
X162719874Y-127764547D01*
X162779606Y-127700746D01*
X162833713Y-127642507D01*
X162879865Y-127592292D01*
X162915733Y-127552563D01*
X162938984Y-127525780D01*
X162945778Y-127516477D01*
X163127601Y-127516477D01*
X163403305Y-127791968D01*
X163470726Y-127859224D01*
X163534267Y-127922162D01*
X163583490Y-127970100D01*
X163620196Y-128004594D01*
X163646190Y-128027199D01*
X163663276Y-128039471D01*
X163673256Y-128042966D01*
X163677935Y-128039238D01*
X163679116Y-128029844D01*
X163679873Y-128014749D01*
X163682601Y-127975883D01*
X163687108Y-127916895D01*
X163693179Y-127840473D01*
X163700596Y-127749305D01*
X163709142Y-127646080D01*
X163718602Y-127533483D01*
X163728758Y-127414205D01*
X163737723Y-127309077D01*
X163747066Y-127198351D01*
X163755443Y-127097814D01*
X163762653Y-127009943D01*
X163768496Y-126937215D01*
X163772769Y-126882110D01*
X163775273Y-126847104D01*
X163775805Y-126834674D01*
X163775384Y-126834908D01*
X163763509Y-126846350D01*
X163737130Y-126873198D01*
X163698570Y-126913018D01*
X163650153Y-126963372D01*
X163594203Y-127021828D01*
X163533042Y-127085948D01*
X163468995Y-127153298D01*
X163404385Y-127221443D01*
X163341535Y-127287948D01*
X163282768Y-127350377D01*
X163230409Y-127406295D01*
X163129533Y-127514406D01*
X163127601Y-127516477D01*
X162945778Y-127516477D01*
X162947290Y-127514406D01*
X162939148Y-127503383D01*
X162915478Y-127476999D01*
X162878478Y-127437527D01*
X162830350Y-127387191D01*
X162773296Y-127328217D01*
X162709520Y-127262830D01*
X162641222Y-127193255D01*
X162570605Y-127121716D01*
X162499871Y-127050438D01*
X162431222Y-126981647D01*
X162366861Y-126917566D01*
X162308989Y-126860422D01*
X162259810Y-126812439D01*
X162221524Y-126775841D01*
X162196334Y-126752854D01*
X162186442Y-126745703D01*
X162186253Y-126753732D01*
X162057067Y-126753732D01*
X162055390Y-126741089D01*
X161780297Y-126741089D01*
X161780140Y-126640495D01*
X161880891Y-126640495D01*
X161962624Y-126640495D01*
X161969895Y-126640489D01*
X162010950Y-126639613D01*
X162033277Y-126635867D01*
X162042529Y-126627270D01*
X162044357Y-126611840D01*
X162036306Y-126589159D01*
X162008730Y-126551428D01*
X161962624Y-126502179D01*
X161880891Y-126421172D01*
X161880891Y-126640495D01*
X161780140Y-126640495D01*
X161779968Y-126530471D01*
X161779639Y-126319852D01*
X161327914Y-125860891D01*
X160876189Y-125401931D01*
X160875570Y-125314848D01*
X160874951Y-125227767D01*
X161416769Y-125776952D01*
X161469137Y-125829998D01*
X161577803Y-125939772D01*
X161670709Y-126033114D01*
X161749055Y-126111173D01*
X161814043Y-126175097D01*
X161866872Y-126226035D01*
X161908743Y-126265135D01*
X161940855Y-126293548D01*
X161964410Y-126312420D01*
X161980608Y-126322901D01*
X161990649Y-126326139D01*
X162007579Y-126325158D01*
X162017084Y-126317996D01*
X162018723Y-126298401D01*
X162014782Y-126260124D01*
X162012065Y-126236025D01*
X162008284Y-126195744D01*
X162006760Y-126168961D01*
X162006015Y-126159728D01*
X161998746Y-126149839D01*
X161978668Y-126146562D01*
X161939689Y-126147992D01*
X161929737Y-126148553D01*
X161889898Y-126147921D01*
X161861560Y-126139167D01*
X161841586Y-126124951D01*
X162124852Y-126124951D01*
X162129013Y-126172104D01*
X162130935Y-126193498D01*
X162136924Y-126251909D01*
X162142826Y-126290381D01*
X162149727Y-126312912D01*
X162158712Y-126323498D01*
X162170870Y-126326139D01*
X162181801Y-126327937D01*
X162189050Y-126336530D01*
X162193100Y-126356505D01*
X162194863Y-126392450D01*
X162195248Y-126448952D01*
X162195248Y-126571766D01*
X162235447Y-126611840D01*
X162333565Y-126709654D01*
X162471881Y-126847542D01*
X162471881Y-126741089D01*
X163226337Y-126741089D01*
X163226337Y-126980000D01*
X162607831Y-126980000D01*
X162817592Y-127196906D01*
X162857770Y-127238334D01*
X162913328Y-127295200D01*
X162961570Y-127344082D01*
X162999971Y-127382441D01*
X163026003Y-127407741D01*
X163037140Y-127417442D01*
X163041373Y-127414767D01*
X163061224Y-127396782D01*
X163095451Y-127363481D01*
X163142227Y-127316712D01*
X163199724Y-127258325D01*
X163266112Y-127190169D01*
X163339564Y-127114094D01*
X163418251Y-127031950D01*
X163497341Y-126948943D01*
X163574871Y-126867136D01*
X163637746Y-126800083D01*
X163687502Y-126746007D01*
X163725678Y-126703129D01*
X163753811Y-126669673D01*
X163773440Y-126643861D01*
X163786101Y-126623914D01*
X163793334Y-126608056D01*
X163796675Y-126594509D01*
X163797561Y-126587910D01*
X163801488Y-126551548D01*
X163806459Y-126498018D01*
X163811927Y-126433421D01*
X163817344Y-126363862D01*
X163819181Y-126339635D01*
X163824488Y-126274178D01*
X163829548Y-126217717D01*
X163833863Y-126175618D01*
X163836934Y-126153243D01*
X163842955Y-126124951D01*
X162124852Y-126124951D01*
X161841586Y-126124951D01*
X161833630Y-126119289D01*
X161828820Y-126115104D01*
X161789482Y-126064427D01*
X161773903Y-126011782D01*
X162114698Y-126011782D01*
X163529221Y-126011782D01*
X163741881Y-126011782D01*
X163798908Y-126011782D01*
X163815993Y-126011662D01*
X163841308Y-126009462D01*
X163848616Y-126002334D01*
X163842943Y-125987508D01*
X163841267Y-125984682D01*
X163822448Y-125962944D01*
X163795183Y-125938820D01*
X163767987Y-125919254D01*
X163749371Y-125911188D01*
X163747697Y-125912463D01*
X163743544Y-125929976D01*
X163741881Y-125961485D01*
X163741881Y-126011782D01*
X163529221Y-126011782D01*
X163525526Y-125921095D01*
X163521832Y-125830407D01*
X163446386Y-125815252D01*
X163408551Y-125808379D01*
X163345368Y-125798756D01*
X163286065Y-125791496D01*
X163201188Y-125782893D01*
X163201188Y-125886040D01*
X162622773Y-125886040D01*
X162622773Y-125795122D01*
X162550471Y-125803753D01*
X162439998Y-125822249D01*
X162328816Y-125855691D01*
X162236850Y-125902324D01*
X162162542Y-125962786D01*
X162114698Y-126011782D01*
X161773903Y-126011782D01*
X161772172Y-126005934D01*
X161777474Y-125944575D01*
X161805975Y-125885297D01*
X161808733Y-125881606D01*
X161846822Y-125849851D01*
X161896476Y-125831067D01*
X161950002Y-125826071D01*
X161999707Y-125835678D01*
X162037900Y-125860704D01*
X162050831Y-125873480D01*
X162063428Y-125876576D01*
X162081467Y-125866998D01*
X162111928Y-125843082D01*
X162121274Y-125835731D01*
X162193430Y-125789339D01*
X162278915Y-125748084D01*
X162348830Y-125722575D01*
X162723367Y-125722575D01*
X162723367Y-125785446D01*
X163100594Y-125785446D01*
X163100594Y-125722575D01*
X162723367Y-125722575D01*
X162348830Y-125722575D01*
X162369767Y-125714936D01*
X162458027Y-125692868D01*
X162535736Y-125684852D01*
X162543991Y-125684788D01*
X162589879Y-125680321D01*
X162615079Y-125667795D01*
X162622773Y-125645784D01*
X162623676Y-125638849D01*
X162628615Y-125632885D01*
X162640611Y-125628519D01*
X162662680Y-125625503D01*
X162697836Y-125623590D01*
X162749094Y-125622530D01*
X162819471Y-125622077D01*
X162911980Y-125621980D01*
X162998660Y-125622150D01*
X163072332Y-125622834D01*
X163126265Y-125624215D01*
X163163288Y-125626470D01*
X163186230Y-125629778D01*
X163197920Y-125634320D01*
X163201188Y-125640272D01*
X163211937Y-125654888D01*
X163242055Y-125664215D01*
X163253582Y-125665847D01*
X163292886Y-125671591D01*
X163345188Y-125679378D01*
X163402376Y-125688003D01*
X163433916Y-125692393D01*
X163480074Y-125697148D01*
X163512641Y-125698295D01*
X163526023Y-125695495D01*
X163528308Y-125693671D01*
X163549405Y-125689165D01*
X163587355Y-125686029D01*
X163636048Y-125684852D01*
X163741881Y-125684852D01*
X163741894Y-125722575D01*
X163741894Y-125725718D01*
X163742388Y-125738668D01*
X163748819Y-125760411D01*
X163767123Y-125778851D01*
X163802830Y-125800801D01*
X163834174Y-125820854D01*
X163881893Y-125859356D01*
X163925138Y-125902579D01*
X163958219Y-125944627D01*
X163975442Y-125979604D01*
X163979662Y-125993081D01*
X163987480Y-126002334D01*
X163990116Y-126005454D01*
X164011662Y-126010696D01*
X161252178Y-131267822D02*
X164772971Y-131267822D01*
X164772971Y-131267822D02*
X164772971Y-130400198D01*
X164772971Y-130400198D02*
X161252178Y-130400198D01*
X161252178Y-130400198D02*
X161252178Y-131267822D01*
X161252178Y-131267822D02*
X161252178Y-131267822D01*
G36*
X164772971Y-131267822D02*
G01*
X161252178Y-131267822D01*
X161252178Y-130400198D01*
X164772971Y-130400198D01*
X164772971Y-131267822D01*
G37*
X164772971Y-131267822D02*
X161252178Y-131267822D01*
X161252178Y-130400198D01*
X164772971Y-130400198D01*
X164772971Y-131267822D01*
%TO.C,G\u002A\u002A\u002A*%
G36*
X124209190Y-102835052D02*
G01*
X124282256Y-102835303D01*
X124339337Y-102836010D01*
X124383580Y-102837405D01*
X124418131Y-102839721D01*
X124446136Y-102843189D01*
X124470741Y-102848042D01*
X124495091Y-102854513D01*
X124522334Y-102862833D01*
X124633582Y-102904853D01*
X124764672Y-102974811D01*
X124886598Y-103063866D01*
X124998792Y-103171650D01*
X125004151Y-103177532D01*
X125032767Y-103210439D01*
X125057572Y-103242698D01*
X125079507Y-103276699D01*
X125099509Y-103314832D01*
X125118516Y-103359488D01*
X125137468Y-103413056D01*
X125157302Y-103477927D01*
X125178957Y-103556490D01*
X125203371Y-103651135D01*
X125231484Y-103764252D01*
X125250171Y-103840467D01*
X125269597Y-103920157D01*
X125286790Y-103991172D01*
X125301171Y-104051096D01*
X125312159Y-104097517D01*
X125319177Y-104128020D01*
X125321645Y-104140189D01*
X125319926Y-104141559D01*
X125302271Y-104144638D01*
X125268551Y-104147116D01*
X125222537Y-104148768D01*
X125168002Y-104149369D01*
X125014359Y-104149369D01*
X124925981Y-103794068D01*
X124910507Y-103732426D01*
X124889424Y-103650234D01*
X124869661Y-103575176D01*
X124851961Y-103509976D01*
X124837069Y-103457364D01*
X124825729Y-103420066D01*
X124818684Y-103400809D01*
X124801394Y-103371253D01*
X124757892Y-103315786D01*
X124702049Y-103259802D01*
X124638815Y-103207612D01*
X124573138Y-103163528D01*
X124509971Y-103131863D01*
X124494218Y-103125916D01*
X124474101Y-103119801D01*
X124451198Y-103115138D01*
X124422411Y-103111664D01*
X124384643Y-103109115D01*
X124334796Y-103107230D01*
X124269773Y-103105744D01*
X124186476Y-103104395D01*
X123922195Y-103100526D01*
X123911928Y-103061275D01*
X123901895Y-103022565D01*
X123888894Y-102971483D01*
X123876882Y-102923385D01*
X123866952Y-102882697D01*
X123860194Y-102853846D01*
X123857698Y-102841257D01*
X123857709Y-102841203D01*
X123868567Y-102839564D01*
X123897953Y-102838088D01*
X123943111Y-102836837D01*
X124001286Y-102835869D01*
X124069721Y-102835245D01*
X124145662Y-102835023D01*
X124209190Y-102835052D01*
G37*
G36*
X129497102Y-105974284D02*
G01*
X129577065Y-106006790D01*
X129653628Y-106053390D01*
X129723729Y-106112381D01*
X129784303Y-106182064D01*
X129832286Y-106260735D01*
X129856672Y-106321709D01*
X129873029Y-106402497D01*
X129871565Y-106480723D01*
X129851998Y-106552220D01*
X129846023Y-106564770D01*
X129815645Y-106610853D01*
X129775639Y-106654447D01*
X129731887Y-106689779D01*
X129690268Y-106711072D01*
X129665526Y-106716454D01*
X129625288Y-106721271D01*
X129581734Y-106723541D01*
X129561987Y-106723293D01*
X129475611Y-106709850D01*
X129392460Y-106678161D01*
X129315090Y-106630775D01*
X129246055Y-106570240D01*
X129187913Y-106499104D01*
X129143218Y-106419916D01*
X129114528Y-106335225D01*
X129104396Y-106247578D01*
X129104730Y-106233904D01*
X129117265Y-106162096D01*
X129145938Y-106095545D01*
X129188043Y-106038113D01*
X129240873Y-105993659D01*
X129301723Y-105966045D01*
X129339234Y-105958362D01*
X129416804Y-105957574D01*
X129497102Y-105974284D01*
G37*
G36*
X129084531Y-102835059D02*
G01*
X129156888Y-102835326D01*
X129213435Y-102836055D01*
X129257286Y-102837471D01*
X129291553Y-102839803D01*
X129319349Y-102843277D01*
X129343785Y-102848122D01*
X129367975Y-102854565D01*
X129395031Y-102862833D01*
X129506550Y-102904962D01*
X129637627Y-102974966D01*
X129759595Y-103064151D01*
X129872036Y-103172247D01*
X129878165Y-103179043D01*
X129946801Y-103271831D01*
X130001102Y-103378616D01*
X130039950Y-103496744D01*
X130062225Y-103623564D01*
X130063735Y-103650742D01*
X130056423Y-103727722D01*
X130034214Y-103806871D01*
X129998928Y-103880785D01*
X129976578Y-103914374D01*
X129913177Y-103985944D01*
X129835911Y-104048581D01*
X129749772Y-104098583D01*
X129659751Y-104132250D01*
X129637037Y-104137059D01*
X129602793Y-104141347D01*
X129557099Y-104144531D01*
X129497478Y-104146730D01*
X129421449Y-104148068D01*
X129326537Y-104148666D01*
X129051791Y-104149369D01*
X129041303Y-104109298D01*
X129040117Y-104104761D01*
X129022996Y-104038357D01*
X129008339Y-103979790D01*
X128996916Y-103932261D01*
X128989497Y-103898969D01*
X128986853Y-103883117D01*
X128987352Y-103882050D01*
X129000444Y-103878175D01*
X129031863Y-103875221D01*
X129082365Y-103873153D01*
X129152710Y-103871938D01*
X129243654Y-103871540D01*
X129312808Y-103871445D01*
X129386026Y-103870741D01*
X129443184Y-103868860D01*
X129487283Y-103865234D01*
X129521326Y-103859298D01*
X129548314Y-103850485D01*
X129571248Y-103838230D01*
X129593130Y-103821966D01*
X129616961Y-103801128D01*
X129634745Y-103783794D01*
X129682237Y-103720681D01*
X129714071Y-103649500D01*
X129728604Y-103574848D01*
X129724190Y-103501323D01*
X129711413Y-103454846D01*
X129672447Y-103375080D01*
X129612625Y-103299060D01*
X129531825Y-103226611D01*
X129495408Y-103199029D01*
X129452565Y-103169460D01*
X129412117Y-103146561D01*
X129370669Y-103129493D01*
X129324828Y-103117413D01*
X129271203Y-103109482D01*
X129206400Y-103104857D01*
X129127025Y-103102699D01*
X129029687Y-103102167D01*
X128788496Y-103102167D01*
X128722532Y-102835023D01*
X129014427Y-102835023D01*
X129084531Y-102835059D01*
G37*
G36*
X134552429Y-103633650D02*
G01*
X134545067Y-103736470D01*
X134518766Y-103832811D01*
X134475032Y-103920596D01*
X134415376Y-103997746D01*
X134341303Y-104062185D01*
X134254323Y-104111835D01*
X134155943Y-104144618D01*
X134094384Y-104153670D01*
X134017340Y-104156515D01*
X133935651Y-104152848D01*
X133857256Y-104143039D01*
X133790092Y-104127461D01*
X133723057Y-104103878D01*
X133596567Y-104043026D01*
X133481835Y-103965116D01*
X133380351Y-103871425D01*
X133293602Y-103763226D01*
X133223079Y-103641797D01*
X133219021Y-103633329D01*
X133173265Y-103516128D01*
X133148216Y-103401811D01*
X133146671Y-103361715D01*
X133466545Y-103361715D01*
X133466939Y-103439025D01*
X133483884Y-103518304D01*
X133517065Y-103597000D01*
X133566165Y-103672557D01*
X133630867Y-103742422D01*
X133635041Y-103746178D01*
X133688513Y-103786963D01*
X133749641Y-103823069D01*
X133811186Y-103850690D01*
X133865911Y-103866019D01*
X133871560Y-103866931D01*
X133904396Y-103872190D01*
X133929007Y-103876062D01*
X133971274Y-103876479D01*
X134028966Y-103863214D01*
X134086691Y-103837100D01*
X134137594Y-103800617D01*
X134155318Y-103783389D01*
X134201510Y-103720911D01*
X134228785Y-103651425D01*
X134237320Y-103576838D01*
X134227295Y-103499055D01*
X134198886Y-103419982D01*
X134152272Y-103341525D01*
X134087631Y-103265589D01*
X134083410Y-103261376D01*
X134006033Y-103195069D01*
X133926394Y-103146137D01*
X133846383Y-103114908D01*
X133767887Y-103101713D01*
X133692796Y-103106881D01*
X133622999Y-103130741D01*
X133560383Y-103173623D01*
X133516680Y-103223220D01*
X133483020Y-103288929D01*
X133466545Y-103361715D01*
X133146671Y-103361715D01*
X133143941Y-103290884D01*
X133160511Y-103183852D01*
X133170147Y-103151365D01*
X133210776Y-103062700D01*
X133268414Y-102984835D01*
X133341017Y-102919732D01*
X133426543Y-102869353D01*
X133522949Y-102835661D01*
X133543388Y-102831568D01*
X133600835Y-102825354D01*
X133668714Y-102823100D01*
X133739743Y-102824728D01*
X133806641Y-102830161D01*
X133862124Y-102839318D01*
X133947446Y-102864038D01*
X134064597Y-102914713D01*
X134173575Y-102981380D01*
X134272503Y-103061959D01*
X134359502Y-103154373D01*
X134432694Y-103256545D01*
X134490198Y-103366396D01*
X134530138Y-103481849D01*
X134546502Y-103576838D01*
X134550634Y-103600826D01*
X134552429Y-103633650D01*
G37*
G36*
X130433304Y-103217039D02*
G01*
X130454227Y-103300521D01*
X130476319Y-103386198D01*
X130497239Y-103464905D01*
X130516225Y-103533878D01*
X130532516Y-103590356D01*
X130545351Y-103631575D01*
X130553967Y-103654774D01*
X130562899Y-103671991D01*
X130608177Y-103732494D01*
X130669201Y-103785334D01*
X130742018Y-103828481D01*
X130822675Y-103859906D01*
X130907218Y-103877581D01*
X130991695Y-103879475D01*
X131038781Y-103872931D01*
X131110751Y-103850069D01*
X131169715Y-103813782D01*
X131213544Y-103765548D01*
X131240112Y-103706846D01*
X131241842Y-103699355D01*
X131243349Y-103685712D01*
X131242926Y-103668214D01*
X131240150Y-103644755D01*
X131234596Y-103613230D01*
X131225842Y-103571534D01*
X131213462Y-103517561D01*
X131197033Y-103449206D01*
X131176132Y-103364363D01*
X131150333Y-103260928D01*
X131144967Y-103239470D01*
X131122926Y-103151002D01*
X131102736Y-103069446D01*
X131084959Y-102997105D01*
X131070156Y-102936279D01*
X131058888Y-102889272D01*
X131051716Y-102858385D01*
X131049200Y-102845921D01*
X131059213Y-102841369D01*
X131089128Y-102837913D01*
X131137483Y-102835763D01*
X131202810Y-102835023D01*
X131356420Y-102835023D01*
X131464611Y-103267701D01*
X131477702Y-103320228D01*
X131504993Y-103431232D01*
X131527138Y-103523875D01*
X131544480Y-103599745D01*
X131557364Y-103660431D01*
X131566132Y-103707520D01*
X131571129Y-103742600D01*
X131572697Y-103767259D01*
X131572483Y-103778237D01*
X131559386Y-103855357D01*
X131527120Y-103926700D01*
X131477247Y-103990909D01*
X131411331Y-104046626D01*
X131330936Y-104092493D01*
X131237626Y-104127151D01*
X131132963Y-104149242D01*
X131026316Y-104156356D01*
X130911390Y-104148504D01*
X130796525Y-104126237D01*
X130684677Y-104090880D01*
X130578800Y-104043757D01*
X130481849Y-103986193D01*
X130396778Y-103919513D01*
X130326542Y-103845043D01*
X130274096Y-103764106D01*
X130270847Y-103757064D01*
X130258109Y-103722328D01*
X130241090Y-103667885D01*
X130220036Y-103594606D01*
X130195190Y-103503363D01*
X130166800Y-103395026D01*
X130135109Y-103270467D01*
X130025709Y-102835023D01*
X130338904Y-102835023D01*
X130433304Y-103217039D01*
G37*
G36*
X124647445Y-103377325D02*
G01*
X124656763Y-103413253D01*
X124669242Y-103462266D01*
X124681911Y-103512800D01*
X124693674Y-103560409D01*
X124703433Y-103600647D01*
X124710094Y-103629071D01*
X124712557Y-103641233D01*
X124712521Y-103641333D01*
X124701125Y-103642854D01*
X124671264Y-103644031D01*
X124625682Y-103644830D01*
X124567121Y-103645219D01*
X124498324Y-103645166D01*
X124422036Y-103644640D01*
X124131515Y-103641797D01*
X124096404Y-103502882D01*
X124093523Y-103491439D01*
X124080875Y-103440172D01*
X124070577Y-103396758D01*
X124063624Y-103365477D01*
X124061011Y-103350610D01*
X124063064Y-103347665D01*
X124074648Y-103344117D01*
X124098123Y-103341411D01*
X124135383Y-103339460D01*
X124188324Y-103338175D01*
X124258841Y-103337469D01*
X124348831Y-103337253D01*
X124636934Y-103337253D01*
X124647445Y-103377325D01*
G37*
G36*
X136967808Y-107387148D02*
G01*
X136949215Y-107421899D01*
X136893097Y-107499012D01*
X136824233Y-107563412D01*
X136746017Y-107612264D01*
X136661840Y-107642734D01*
X136661588Y-107642779D01*
X136646798Y-107643395D01*
X136611210Y-107643990D01*
X136555361Y-107644566D01*
X136479787Y-107645121D01*
X136385022Y-107645654D01*
X136271602Y-107646165D01*
X136140063Y-107646652D01*
X135990940Y-107647116D01*
X135824768Y-107647556D01*
X135642083Y-107647970D01*
X135443421Y-107648359D01*
X135229316Y-107648720D01*
X135000305Y-107649054D01*
X134756922Y-107649360D01*
X134499704Y-107649638D01*
X134229186Y-107649885D01*
X133945902Y-107650102D01*
X133650389Y-107650289D01*
X133343183Y-107650443D01*
X133024818Y-107650565D01*
X132695830Y-107650653D01*
X132356754Y-107650708D01*
X132008126Y-107650728D01*
X131650482Y-107650712D01*
X131284357Y-107650660D01*
X130910286Y-107650572D01*
X125198759Y-107648949D01*
X125118616Y-107610257D01*
X125089116Y-107594976D01*
X125010022Y-107540238D01*
X124946306Y-107471782D01*
X124895506Y-107387148D01*
X124856815Y-107307005D01*
X124856815Y-106045058D01*
X125319086Y-106045058D01*
X125319706Y-106075870D01*
X125323193Y-106112847D01*
X125329802Y-106157439D01*
X125339790Y-106211096D01*
X125353412Y-106275269D01*
X125370924Y-106351410D01*
X125392583Y-106440968D01*
X125418644Y-106545394D01*
X125449364Y-106666139D01*
X125484998Y-106804654D01*
X125525803Y-106962390D01*
X125536183Y-107002461D01*
X125690714Y-107002461D01*
X125738033Y-107002228D01*
X125788441Y-107001002D01*
X125821502Y-106998541D01*
X125839566Y-106994643D01*
X125844980Y-106989104D01*
X125843039Y-106977980D01*
X125836562Y-106948820D01*
X125826363Y-106905673D01*
X125813299Y-106852150D01*
X125798226Y-106791867D01*
X125785150Y-106738939D01*
X125772699Y-106685713D01*
X125763456Y-106642899D01*
X125758155Y-106613920D01*
X125757530Y-106602195D01*
X125769132Y-106600672D01*
X125799303Y-106599286D01*
X125845184Y-106598110D01*
X125903932Y-106597199D01*
X125972703Y-106596612D01*
X126048653Y-106596403D01*
X126333984Y-106596403D01*
X126257228Y-106286517D01*
X125965416Y-106286517D01*
X125958033Y-106286518D01*
X125870297Y-106286676D01*
X125801476Y-106286537D01*
X125749289Y-106285302D01*
X125711456Y-106282173D01*
X125685699Y-106276351D01*
X125669736Y-106267036D01*
X125661290Y-106253430D01*
X125658079Y-106234735D01*
X125657824Y-106210151D01*
X125658245Y-106178879D01*
X125662686Y-106126077D01*
X125681466Y-106073270D01*
X125717026Y-106030139D01*
X125771597Y-105993030D01*
X125800433Y-105978644D01*
X125832959Y-105967382D01*
X125870794Y-105960864D01*
X125921960Y-105957177D01*
X125942937Y-105956520D01*
X126043559Y-105964432D01*
X126135165Y-105991375D01*
X126218952Y-106037673D01*
X126235551Y-106049331D01*
X126259718Y-106067221D01*
X126280301Y-106085010D01*
X126298173Y-106104783D01*
X126314212Y-106128622D01*
X126329291Y-106158613D01*
X126344288Y-106196837D01*
X126360076Y-106245380D01*
X126377533Y-106306324D01*
X126397532Y-106381755D01*
X126420950Y-106473754D01*
X126448662Y-106584407D01*
X126553116Y-107002461D01*
X126706754Y-107002461D01*
X126771048Y-107001747D01*
X126819690Y-106999624D01*
X126849967Y-106996198D01*
X126860391Y-106991574D01*
X126859843Y-106987931D01*
X126855084Y-106966126D01*
X126845986Y-106927489D01*
X126833214Y-106874671D01*
X126817437Y-106810325D01*
X126799320Y-106737102D01*
X126779530Y-106657654D01*
X126758735Y-106574633D01*
X126737602Y-106490692D01*
X126716797Y-106408482D01*
X126696987Y-106330654D01*
X126678839Y-106259862D01*
X126663020Y-106198757D01*
X126650197Y-106149991D01*
X126641036Y-106116215D01*
X126636206Y-106100082D01*
X126628282Y-106081495D01*
X126590886Y-106018942D01*
X126538098Y-105954741D01*
X126473685Y-105892649D01*
X126401413Y-105836423D01*
X126325051Y-105789818D01*
X126257540Y-105757604D01*
X126146392Y-105717429D01*
X126042544Y-105693230D01*
X126700105Y-105693230D01*
X126700164Y-105693909D01*
X126703442Y-105709889D01*
X126711423Y-105744505D01*
X126723662Y-105795941D01*
X126739717Y-105862380D01*
X126759144Y-105942005D01*
X126781502Y-106033000D01*
X126806347Y-106133549D01*
X126833236Y-106241834D01*
X126861725Y-106356039D01*
X127020624Y-106991574D01*
X127023346Y-107002461D01*
X127176954Y-107002461D01*
X127234083Y-107002280D01*
X127277285Y-107001443D01*
X127305265Y-106999562D01*
X127321197Y-106996247D01*
X127328253Y-106991109D01*
X127329608Y-106983761D01*
X127329556Y-106983252D01*
X127326266Y-106967607D01*
X127318218Y-106933284D01*
X127305865Y-106882116D01*
X127289657Y-106815934D01*
X127270049Y-106736570D01*
X127247492Y-106645854D01*
X127222438Y-106545619D01*
X127195340Y-106437696D01*
X127166651Y-106323917D01*
X127124170Y-106155795D01*
X127300108Y-106155795D01*
X127301230Y-106206315D01*
X127309615Y-106265591D01*
X127325528Y-106339195D01*
X127355547Y-106438690D01*
X127401997Y-106539084D01*
X127463943Y-106630774D01*
X127543343Y-106716605D01*
X127642156Y-106799426D01*
X127658876Y-106811686D01*
X127728830Y-106857474D01*
X127805713Y-106900686D01*
X127883754Y-106938469D01*
X127957182Y-106967971D01*
X128011385Y-106983761D01*
X128020224Y-106986336D01*
X128056047Y-106992162D01*
X128103654Y-106996999D01*
X128157229Y-107000404D01*
X128212875Y-107002348D01*
X128266696Y-107002799D01*
X128314795Y-107001731D01*
X128353275Y-106999111D01*
X128378240Y-106994912D01*
X128385793Y-106989104D01*
X128381514Y-106974178D01*
X128373398Y-106942965D01*
X128362634Y-106900105D01*
X128350391Y-106850190D01*
X128319934Y-106724632D01*
X128038297Y-106724632D01*
X127949210Y-106680043D01*
X127948053Y-106679462D01*
X127866514Y-106629247D01*
X127789835Y-106564879D01*
X127723499Y-106491623D01*
X127672989Y-106414746D01*
X127660355Y-106389997D01*
X127645171Y-106353002D01*
X127637998Y-106318261D01*
X127636203Y-106275831D01*
X127636511Y-106262092D01*
X127650398Y-106182319D01*
X127683754Y-106107817D01*
X127734963Y-106042404D01*
X127754294Y-106023427D01*
X127779445Y-106001328D01*
X127804109Y-105985094D01*
X127831928Y-105973734D01*
X127866546Y-105966253D01*
X127911606Y-105961658D01*
X127970751Y-105958957D01*
X128047623Y-105957155D01*
X128246425Y-105953307D01*
X128508619Y-107002461D01*
X128662250Y-107002461D01*
X128719407Y-107002280D01*
X128762606Y-107001443D01*
X128790585Y-106999561D01*
X128806515Y-106996246D01*
X128813571Y-106991109D01*
X128814926Y-106983761D01*
X128814873Y-106983252D01*
X128811584Y-106967607D01*
X128803536Y-106933284D01*
X128791182Y-106882116D01*
X128774975Y-106815934D01*
X128755367Y-106736570D01*
X128732810Y-106645854D01*
X128707756Y-106545619D01*
X128680658Y-106437696D01*
X128651968Y-106323917D01*
X128615653Y-106180195D01*
X128783824Y-106180195D01*
X128790434Y-106272769D01*
X128816701Y-106387703D01*
X128861491Y-106499021D01*
X128923216Y-106604757D01*
X129000289Y-106702944D01*
X129091122Y-106791617D01*
X129194129Y-106868810D01*
X129307721Y-106932556D01*
X129430311Y-106980890D01*
X129440410Y-106983761D01*
X129450456Y-106986617D01*
X129517688Y-106999657D01*
X129593673Y-107007562D01*
X129671127Y-107010011D01*
X129742764Y-107006682D01*
X129801302Y-106997255D01*
X129879692Y-106971414D01*
X129969953Y-106923795D01*
X130046117Y-106861973D01*
X130107294Y-106787710D01*
X130152598Y-106702763D01*
X130181142Y-106608894D01*
X130192037Y-106507860D01*
X130184397Y-106401423D01*
X130157334Y-106291341D01*
X130146602Y-106260548D01*
X130109538Y-106173464D01*
X130063935Y-106094688D01*
X130006151Y-106018512D01*
X129947321Y-105955149D01*
X130251673Y-105955149D01*
X130253911Y-106038666D01*
X130274024Y-106132040D01*
X130276327Y-106139309D01*
X130307285Y-106201114D01*
X130356040Y-106259093D01*
X130419395Y-106309348D01*
X130472674Y-106343871D01*
X130436286Y-106381980D01*
X130425383Y-106393852D01*
X130402511Y-106421664D01*
X130387948Y-106443429D01*
X130379983Y-106467682D01*
X130377141Y-106507860D01*
X130376628Y-106515112D01*
X130382806Y-106571638D01*
X130398202Y-106631469D01*
X130400266Y-106637539D01*
X130443372Y-106732136D01*
X130502410Y-106812663D01*
X130577539Y-106879265D01*
X130668920Y-106932085D01*
X130776714Y-106971268D01*
X130796837Y-106976676D01*
X130817637Y-106981479D01*
X130840034Y-106985432D01*
X130866227Y-106988647D01*
X130898412Y-106991234D01*
X130938786Y-106993306D01*
X130989546Y-106994972D01*
X131052889Y-106996345D01*
X131131012Y-106997536D01*
X131226112Y-106998655D01*
X131340387Y-106999815D01*
X131356061Y-106999968D01*
X131466985Y-107001010D01*
X131558609Y-107001741D01*
X131632769Y-107002103D01*
X131691300Y-107002038D01*
X131736039Y-107001489D01*
X131768821Y-107000397D01*
X131791481Y-106998704D01*
X131805855Y-106996354D01*
X131813779Y-106993287D01*
X131817088Y-106989446D01*
X131817618Y-106984774D01*
X131817567Y-106984253D01*
X131814284Y-106968454D01*
X131806240Y-106933980D01*
X131793889Y-106882666D01*
X131777682Y-106816348D01*
X131758073Y-106736860D01*
X131735514Y-106646037D01*
X131710457Y-106545716D01*
X131683355Y-106437731D01*
X131654661Y-106323917D01*
X131572621Y-105999237D01*
X131761150Y-105999237D01*
X131761414Y-106051431D01*
X131761446Y-106053538D01*
X131762200Y-106082849D01*
X131763849Y-106110832D01*
X131766890Y-106139931D01*
X131771821Y-106172593D01*
X131779138Y-106211265D01*
X131789339Y-106258392D01*
X131802922Y-106316420D01*
X131820382Y-106387796D01*
X131842218Y-106474965D01*
X131868926Y-106580375D01*
X131971689Y-106984774D01*
X131974826Y-106997118D01*
X132131786Y-107000076D01*
X132157626Y-107000501D01*
X132209394Y-107000944D01*
X132250991Y-107000738D01*
X132278685Y-106999919D01*
X132288746Y-106998525D01*
X132288043Y-106995156D01*
X132283073Y-106974064D01*
X132273789Y-106935542D01*
X132260719Y-106881760D01*
X132244392Y-106814890D01*
X132225338Y-106737102D01*
X132204087Y-106650565D01*
X132181167Y-106557452D01*
X132151531Y-106436080D01*
X132127100Y-106333493D01*
X132107869Y-106249551D01*
X132093625Y-106183262D01*
X132084156Y-106133635D01*
X132079248Y-106099681D01*
X132078690Y-106080409D01*
X132085724Y-106047023D01*
X132107624Y-106005424D01*
X132143974Y-105976909D01*
X132196221Y-105960510D01*
X132265811Y-105955259D01*
X132277315Y-105955448D01*
X132354245Y-105967707D01*
X132421469Y-105998811D01*
X132478490Y-106048344D01*
X132524810Y-106115890D01*
X132559929Y-106201031D01*
X132565253Y-106219054D01*
X132576838Y-106261018D01*
X132592147Y-106318525D01*
X132610373Y-106388468D01*
X132630708Y-106467736D01*
X132652344Y-106553223D01*
X132674473Y-106641818D01*
X132763938Y-107002461D01*
X132922435Y-107002461D01*
X132931622Y-107002459D01*
X132990288Y-107002221D01*
X133031018Y-107001327D01*
X133056848Y-106999405D01*
X133070815Y-106996084D01*
X133075953Y-106990994D01*
X133075299Y-106983761D01*
X133075209Y-106983455D01*
X133071116Y-106967928D01*
X133062508Y-106934231D01*
X133049993Y-106884785D01*
X133034181Y-106822012D01*
X133015683Y-106748330D01*
X132995107Y-106666161D01*
X132973065Y-106577926D01*
X132968232Y-106558540D01*
X132941475Y-106450122D01*
X132919877Y-106359866D01*
X132903137Y-106285629D01*
X132890955Y-106225269D01*
X132883030Y-106176644D01*
X132879059Y-106137614D01*
X132878743Y-106106035D01*
X132881781Y-106079766D01*
X132887871Y-106056665D01*
X132896712Y-106034591D01*
X132896872Y-106034240D01*
X132922391Y-105995326D01*
X132958480Y-105970363D01*
X133007836Y-105958174D01*
X133073154Y-105957581D01*
X133114160Y-105962134D01*
X133154168Y-105970106D01*
X133181764Y-105979535D01*
X133201757Y-105991733D01*
X133246334Y-106029898D01*
X133287884Y-106078753D01*
X133320280Y-106131574D01*
X133321481Y-106134198D01*
X133330786Y-106159964D01*
X133344318Y-106203385D01*
X133361343Y-106261844D01*
X133381129Y-106332724D01*
X133402943Y-106413410D01*
X133426052Y-106501285D01*
X133449724Y-106593732D01*
X133552964Y-107002461D01*
X133706257Y-107002461D01*
X133770232Y-107001751D01*
X133818856Y-106999629D01*
X133849127Y-106996201D01*
X133859549Y-106991574D01*
X133859002Y-106988283D01*
X133854264Y-106967055D01*
X133845110Y-106928357D01*
X133832085Y-106874417D01*
X133815731Y-106807463D01*
X133796591Y-106729721D01*
X133775207Y-106643420D01*
X133752123Y-106550788D01*
X133728503Y-106456623D01*
X133701356Y-106350194D01*
X133677681Y-106260821D01*
X133656631Y-106186388D01*
X133637356Y-106124783D01*
X133619006Y-106073891D01*
X133606158Y-106044150D01*
X133814595Y-106044150D01*
X133815134Y-106075120D01*
X133818552Y-106112234D01*
X133825104Y-106156943D01*
X133835044Y-106210701D01*
X133848629Y-106274960D01*
X133866114Y-106351173D01*
X133887753Y-106440793D01*
X133913803Y-106545272D01*
X133944518Y-106666062D01*
X133980153Y-106804617D01*
X134020965Y-106962390D01*
X134028525Y-106991574D01*
X134031345Y-107002461D01*
X134185876Y-107002461D01*
X134233195Y-107002228D01*
X134283603Y-107001002D01*
X134316664Y-106998541D01*
X134334728Y-106994643D01*
X134340142Y-106989104D01*
X134338201Y-106977980D01*
X134331724Y-106948820D01*
X134321525Y-106905673D01*
X134308461Y-106852150D01*
X134293388Y-106791867D01*
X134280312Y-106738939D01*
X134267861Y-106685713D01*
X134258618Y-106642899D01*
X134253317Y-106613920D01*
X134252692Y-106602195D01*
X134264294Y-106600672D01*
X134294465Y-106599286D01*
X134340346Y-106598110D01*
X134399094Y-106597199D01*
X134467865Y-106596612D01*
X134543815Y-106596403D01*
X134829146Y-106596403D01*
X134752390Y-106286517D01*
X134460578Y-106286517D01*
X134453195Y-106286518D01*
X134365459Y-106286676D01*
X134296638Y-106286537D01*
X134244451Y-106285302D01*
X134206618Y-106282173D01*
X134180861Y-106276351D01*
X134164898Y-106267036D01*
X134156451Y-106253430D01*
X134153240Y-106234735D01*
X134152986Y-106210151D01*
X134153407Y-106178879D01*
X134157848Y-106126077D01*
X134176627Y-106073270D01*
X134212188Y-106030139D01*
X134266759Y-105993030D01*
X134295595Y-105978644D01*
X134328121Y-105967382D01*
X134365956Y-105960864D01*
X134417122Y-105957177D01*
X134438099Y-105956520D01*
X134538721Y-105964432D01*
X134630327Y-105991375D01*
X134714114Y-106037673D01*
X134730713Y-106049331D01*
X134754880Y-106067221D01*
X134775462Y-106085010D01*
X134793335Y-106104783D01*
X134809374Y-106128622D01*
X134824453Y-106158613D01*
X134839450Y-106196837D01*
X134855238Y-106245380D01*
X134872695Y-106306324D01*
X134892694Y-106381755D01*
X134916112Y-106473754D01*
X134943824Y-106584407D01*
X135048278Y-107002461D01*
X135201916Y-107002461D01*
X135266210Y-107001747D01*
X135314852Y-106999624D01*
X135345129Y-106996198D01*
X135355553Y-106991574D01*
X135355005Y-106987931D01*
X135350246Y-106966126D01*
X135341148Y-106927489D01*
X135328376Y-106874671D01*
X135312599Y-106810325D01*
X135294482Y-106737102D01*
X135274692Y-106657654D01*
X135253897Y-106574633D01*
X135232764Y-106490692D01*
X135211959Y-106408482D01*
X135192149Y-106330654D01*
X135174001Y-106259862D01*
X135158182Y-106198757D01*
X135145359Y-106149991D01*
X135136198Y-106116215D01*
X135131367Y-106100082D01*
X135123444Y-106081495D01*
X135086048Y-106018942D01*
X135033260Y-105954741D01*
X134968847Y-105892649D01*
X134896575Y-105836423D01*
X134820213Y-105789818D01*
X134751750Y-105757207D01*
X134640832Y-105717275D01*
X134568870Y-105700587D01*
X135195137Y-105700587D01*
X135198373Y-105725209D01*
X135206522Y-105763970D01*
X135219993Y-105820097D01*
X135252977Y-105953680D01*
X135788325Y-105960602D01*
X135857630Y-105992578D01*
X135925796Y-106029664D01*
X136002793Y-106085254D01*
X136071636Y-106149594D01*
X136128018Y-106218577D01*
X136167634Y-106288101D01*
X136184533Y-106338793D01*
X136192373Y-106415843D01*
X136180325Y-106493103D01*
X136148937Y-106567793D01*
X136098759Y-106637133D01*
X136080099Y-106657189D01*
X136057414Y-106678379D01*
X136033853Y-106694605D01*
X136006488Y-106706527D01*
X135972393Y-106714802D01*
X135928639Y-106720092D01*
X135872299Y-106723054D01*
X135800446Y-106724347D01*
X135710151Y-106724632D01*
X135684580Y-106724658D01*
X135598726Y-106725259D01*
X135533273Y-106726681D01*
X135487462Y-106728957D01*
X135460532Y-106732121D01*
X135451724Y-106736209D01*
X135451736Y-106736649D01*
X135454716Y-106753739D01*
X135462420Y-106788059D01*
X135474079Y-106836408D01*
X135488920Y-106895585D01*
X135506175Y-106962390D01*
X135513813Y-106991574D01*
X135516663Y-107002461D01*
X135791409Y-107001553D01*
X135837149Y-107001348D01*
X135923921Y-107000421D01*
X135993899Y-106998504D01*
X136050227Y-106995185D01*
X136096053Y-106990052D01*
X136134521Y-106982691D01*
X136168778Y-106972691D01*
X136201970Y-106959639D01*
X136237244Y-106943124D01*
X136262942Y-106928559D01*
X136311462Y-106893799D01*
X136362188Y-106850377D01*
X136409967Y-106803174D01*
X136449646Y-106757069D01*
X136476071Y-106716944D01*
X136492836Y-106678759D01*
X136512379Y-106618701D01*
X136525916Y-106557940D01*
X136530970Y-106506001D01*
X136527198Y-106462802D01*
X136516466Y-106404950D01*
X136500513Y-106340120D01*
X136481082Y-106274710D01*
X136459918Y-106215116D01*
X136438764Y-106167736D01*
X136424176Y-106141788D01*
X136364992Y-106058188D01*
X136289571Y-105976185D01*
X136201676Y-105899185D01*
X136105069Y-105830593D01*
X136003514Y-105773816D01*
X135953931Y-105750270D01*
X135908800Y-105730544D01*
X135867191Y-105715260D01*
X135825546Y-105703770D01*
X135780310Y-105695423D01*
X135727927Y-105689571D01*
X135664841Y-105685564D01*
X135587496Y-105682752D01*
X135492336Y-105680488D01*
X135427831Y-105679307D01*
X135358217Y-105678448D01*
X135297829Y-105678151D01*
X135249700Y-105678415D01*
X135216867Y-105679239D01*
X135202363Y-105680621D01*
X135201780Y-105680863D01*
X135196409Y-105686880D01*
X135195137Y-105700587D01*
X134568870Y-105700587D01*
X134528426Y-105691208D01*
X134416748Y-105678663D01*
X134308012Y-105679298D01*
X134204434Y-105692773D01*
X134108229Y-105718746D01*
X134021612Y-105756874D01*
X133946798Y-105806817D01*
X133886001Y-105868232D01*
X133841438Y-105940778D01*
X133836117Y-105952648D01*
X133827695Y-105973572D01*
X133821131Y-105994829D01*
X133816679Y-106017870D01*
X133814595Y-106044150D01*
X133606158Y-106044150D01*
X133600735Y-106031597D01*
X133581691Y-105995788D01*
X133561028Y-105964350D01*
X133537895Y-105935168D01*
X133511444Y-105906128D01*
X133480826Y-105875116D01*
X133469684Y-105864259D01*
X133381843Y-105791631D01*
X133288636Y-105737767D01*
X133187644Y-105701772D01*
X133076451Y-105682754D01*
X132952641Y-105679818D01*
X132922944Y-105681246D01*
X132838070Y-105690456D01*
X132768834Y-105707495D01*
X132711591Y-105733493D01*
X132662692Y-105769579D01*
X132622691Y-105805718D01*
X132559904Y-105767900D01*
X132528872Y-105750857D01*
X132476554Y-105726439D01*
X132427661Y-105707781D01*
X132390454Y-105698132D01*
X132325068Y-105687439D01*
X132251656Y-105680697D01*
X132177388Y-105678286D01*
X132109437Y-105680588D01*
X132054974Y-105687984D01*
X131970885Y-105714781D01*
X131895114Y-105756856D01*
X131834076Y-105811745D01*
X131789915Y-105877907D01*
X131789809Y-105878123D01*
X131776120Y-105907839D01*
X131767469Y-105933734D01*
X131762824Y-105962103D01*
X131761150Y-105999237D01*
X131572621Y-105999237D01*
X131492658Y-105682773D01*
X131054543Y-105683677D01*
X130963033Y-105683959D01*
X130853510Y-105684715D01*
X130761601Y-105686071D01*
X130685128Y-105688218D01*
X130621912Y-105691351D01*
X130569774Y-105695660D01*
X130526537Y-105701338D01*
X130490020Y-105708578D01*
X130458046Y-105717573D01*
X130428437Y-105728515D01*
X130399013Y-105741596D01*
X130349957Y-105770786D01*
X130299921Y-105820506D01*
X130267084Y-105882195D01*
X130251673Y-105955149D01*
X129947321Y-105955149D01*
X129932541Y-105939230D01*
X129853989Y-105867122D01*
X129752512Y-105793274D01*
X129646618Y-105738142D01*
X129533347Y-105700248D01*
X129409742Y-105678116D01*
X129408594Y-105677986D01*
X129290883Y-105673370D01*
X129182311Y-105686212D01*
X129084136Y-105715504D01*
X128997614Y-105760236D01*
X128924003Y-105819399D01*
X128864561Y-105891986D01*
X128820545Y-105976986D01*
X128793214Y-106073392D01*
X128783824Y-106180195D01*
X128615653Y-106180195D01*
X128489966Y-105682773D01*
X128115965Y-105682811D01*
X128024910Y-105682856D01*
X127942490Y-105683071D01*
X127876670Y-105683593D01*
X127824948Y-105684561D01*
X127784820Y-105686114D01*
X127753783Y-105688391D01*
X127729333Y-105691530D01*
X127708966Y-105695672D01*
X127690181Y-105700953D01*
X127670472Y-105707514D01*
X127659051Y-105711579D01*
X127560784Y-105758015D01*
X127475281Y-105819726D01*
X127404310Y-105894876D01*
X127349644Y-105981628D01*
X127313053Y-106078145D01*
X127305982Y-106108458D01*
X127300108Y-106155795D01*
X127124170Y-106155795D01*
X127004648Y-105682773D01*
X126852377Y-105679808D01*
X126816450Y-105679186D01*
X126766299Y-105678877D01*
X126732689Y-105679853D01*
X126712520Y-105682389D01*
X126702692Y-105686757D01*
X126700105Y-105693230D01*
X126042544Y-105693230D01*
X126033798Y-105691192D01*
X125921963Y-105678553D01*
X125813095Y-105679167D01*
X125709399Y-105692691D01*
X125613082Y-105718784D01*
X125526350Y-105757103D01*
X125451408Y-105807303D01*
X125390465Y-105869044D01*
X125345725Y-105941981D01*
X125340147Y-105954435D01*
X125331863Y-105975098D01*
X125325420Y-105996122D01*
X125321076Y-106018959D01*
X125319086Y-106045058D01*
X124856815Y-106045058D01*
X124856815Y-105340829D01*
X124895506Y-105260686D01*
X124910788Y-105231186D01*
X124965525Y-105152093D01*
X125033981Y-105088376D01*
X125118616Y-105037577D01*
X125198759Y-104998885D01*
X136664556Y-104998885D01*
X136744699Y-105037577D01*
X136774198Y-105052858D01*
X136853292Y-105107596D01*
X136917009Y-105176052D01*
X136967808Y-105260686D01*
X137006499Y-105340829D01*
X137006499Y-107307005D01*
X136967808Y-107387148D01*
G37*
G36*
X131345759Y-106339946D02*
G01*
X131441955Y-106724632D01*
X131200163Y-106724570D01*
X131172911Y-106724531D01*
X131078317Y-106723681D01*
X131001470Y-106721487D01*
X130939500Y-106717637D01*
X130889536Y-106711823D01*
X130848707Y-106703733D01*
X130814140Y-106693057D01*
X130782966Y-106679486D01*
X130775416Y-106675565D01*
X130735211Y-106646412D01*
X130712892Y-106614023D01*
X130708923Y-106581252D01*
X130723770Y-106550949D01*
X130757898Y-106525966D01*
X130768050Y-106521529D01*
X130786642Y-106515850D01*
X130811180Y-106511510D01*
X130844750Y-106508239D01*
X130890437Y-106505768D01*
X130951325Y-106503827D01*
X131030500Y-106502146D01*
X131050257Y-106501765D01*
X131130061Y-106499721D01*
X131189979Y-106497178D01*
X131231233Y-106494051D01*
X131255043Y-106490254D01*
X131262632Y-106485698D01*
X131262486Y-106484200D01*
X131258863Y-106465888D01*
X131251123Y-106432027D01*
X131240256Y-106386853D01*
X131227256Y-106334603D01*
X131192163Y-106195688D01*
X130979096Y-106188036D01*
X130956215Y-106187189D01*
X130861337Y-106182897D01*
X130784992Y-106177660D01*
X130724841Y-106170931D01*
X130678546Y-106162160D01*
X130643769Y-106150801D01*
X130618172Y-106136305D01*
X130599417Y-106118124D01*
X130585165Y-106095710D01*
X130584639Y-106094684D01*
X130574167Y-106062952D01*
X130577978Y-106035860D01*
X130596937Y-106013162D01*
X130631910Y-105994612D01*
X130683760Y-105979961D01*
X130753355Y-105968965D01*
X130841558Y-105961376D01*
X130949236Y-105956947D01*
X131077252Y-105955433D01*
X131249562Y-105955259D01*
X131345759Y-106339946D01*
G37*
G36*
X136006049Y-103481446D02*
G01*
X136010664Y-103499911D01*
X136038904Y-103613080D01*
X136065476Y-103719890D01*
X136089938Y-103818544D01*
X136111848Y-103907247D01*
X136130766Y-103984202D01*
X136146248Y-104047612D01*
X136157854Y-104095683D01*
X136165142Y-104126617D01*
X136167669Y-104138619D01*
X136167661Y-104138757D01*
X136156721Y-104143211D01*
X136126275Y-104146549D01*
X136078117Y-104148643D01*
X136014038Y-104149369D01*
X135860407Y-104149369D01*
X135598701Y-103102167D01*
X135442398Y-103102456D01*
X135344578Y-103104034D01*
X135251586Y-103108352D01*
X135169412Y-103115117D01*
X135101554Y-103124038D01*
X135051511Y-103134826D01*
X135045105Y-103136875D01*
X135006411Y-103156505D01*
X134972326Y-103184638D01*
X134948056Y-103216142D01*
X134938809Y-103245886D01*
X134943322Y-103275810D01*
X134965372Y-103321144D01*
X135003046Y-103362431D01*
X135021339Y-103376358D01*
X135051128Y-103393090D01*
X135087227Y-103406047D01*
X135132645Y-103415822D01*
X135190392Y-103423012D01*
X135263476Y-103428211D01*
X135354908Y-103432014D01*
X135562635Y-103438768D01*
X135597725Y-103577682D01*
X135600631Y-103589226D01*
X135613263Y-103640394D01*
X135623547Y-103683634D01*
X135630490Y-103714690D01*
X135633099Y-103729306D01*
X135633037Y-103729890D01*
X135625094Y-103734675D01*
X135602634Y-103738476D01*
X135563945Y-103741429D01*
X135507313Y-103743670D01*
X135431028Y-103745335D01*
X135228673Y-103748654D01*
X135194988Y-103780711D01*
X135194765Y-103780923D01*
X135159866Y-103820711D01*
X135136325Y-103865419D01*
X135119851Y-103923183D01*
X135116591Y-103942100D01*
X135115136Y-103976067D01*
X135119542Y-104015708D01*
X135130464Y-104065759D01*
X135148556Y-104130959D01*
X135148988Y-104132543D01*
X135148962Y-104139411D01*
X135142845Y-104144066D01*
X135127583Y-104146829D01*
X135100121Y-104148023D01*
X135057405Y-104147969D01*
X134996380Y-104146988D01*
X134838612Y-104144026D01*
X134808843Y-104026483D01*
X134805863Y-104014515D01*
X134786815Y-103919433D01*
X134780270Y-103838349D01*
X134786471Y-103768099D01*
X134805662Y-103705518D01*
X134838088Y-103647443D01*
X134874456Y-103594573D01*
X134829161Y-103563396D01*
X134759915Y-103506497D01*
X134694147Y-103427985D01*
X134645662Y-103338587D01*
X134615679Y-103240626D01*
X134605414Y-103136427D01*
X134608972Y-103087824D01*
X134629321Y-103019457D01*
X134667869Y-102961719D01*
X134724804Y-102914424D01*
X134800311Y-102877390D01*
X134894576Y-102850432D01*
X134913561Y-102847129D01*
X134944533Y-102843671D01*
X134985392Y-102840893D01*
X135038052Y-102838738D01*
X135104427Y-102837150D01*
X135186430Y-102836070D01*
X135285975Y-102835442D01*
X135404976Y-102835209D01*
X135844428Y-102835023D01*
X136006049Y-103481446D01*
G37*
G36*
X126698412Y-103633650D02*
G01*
X126691050Y-103736470D01*
X126664748Y-103832811D01*
X126621015Y-103920596D01*
X126561358Y-103997746D01*
X126487285Y-104062185D01*
X126400305Y-104111835D01*
X126301926Y-104144618D01*
X126240367Y-104153670D01*
X126163322Y-104156515D01*
X126081633Y-104152848D01*
X126003238Y-104143039D01*
X125936075Y-104127461D01*
X125869039Y-104103878D01*
X125742550Y-104043026D01*
X125627818Y-103965116D01*
X125526333Y-103871425D01*
X125439585Y-103763226D01*
X125369061Y-103641797D01*
X125365003Y-103633329D01*
X125319248Y-103516128D01*
X125294198Y-103401811D01*
X125292653Y-103361715D01*
X125612527Y-103361715D01*
X125612921Y-103439025D01*
X125629866Y-103518304D01*
X125663047Y-103597000D01*
X125712147Y-103672557D01*
X125776850Y-103742422D01*
X125781024Y-103746178D01*
X125834495Y-103786963D01*
X125895623Y-103823069D01*
X125957168Y-103850690D01*
X126011894Y-103866019D01*
X126017542Y-103866931D01*
X126050378Y-103872190D01*
X126074989Y-103876062D01*
X126117256Y-103876479D01*
X126174948Y-103863214D01*
X126232673Y-103837100D01*
X126283576Y-103800617D01*
X126301300Y-103783389D01*
X126347492Y-103720911D01*
X126374767Y-103651425D01*
X126383303Y-103576838D01*
X126373277Y-103499055D01*
X126344868Y-103419982D01*
X126298255Y-103341525D01*
X126233613Y-103265589D01*
X126229392Y-103261376D01*
X126152015Y-103195069D01*
X126072376Y-103146137D01*
X125992365Y-103114908D01*
X125913870Y-103101713D01*
X125838779Y-103106881D01*
X125768981Y-103130741D01*
X125706365Y-103173623D01*
X125662662Y-103223220D01*
X125629002Y-103288929D01*
X125612527Y-103361715D01*
X125292653Y-103361715D01*
X125289924Y-103290884D01*
X125306494Y-103183852D01*
X125316129Y-103151365D01*
X125356759Y-103062700D01*
X125414396Y-102984835D01*
X125486999Y-102919732D01*
X125572525Y-102869353D01*
X125668931Y-102835661D01*
X125689371Y-102831568D01*
X125746817Y-102825354D01*
X125814696Y-102823100D01*
X125885726Y-102824728D01*
X125952623Y-102830161D01*
X126008107Y-102839318D01*
X126093429Y-102864038D01*
X126210579Y-102914713D01*
X126319558Y-102981380D01*
X126418486Y-103061959D01*
X126505485Y-103154373D01*
X126578676Y-103256545D01*
X126636181Y-103366396D01*
X126676120Y-103481849D01*
X126692484Y-103576838D01*
X126696616Y-103600826D01*
X126698412Y-103633650D01*
G37*
G36*
X137501901Y-103480843D02*
G01*
X137506643Y-103499813D01*
X137534890Y-103613012D01*
X137561468Y-103719846D01*
X137585934Y-103818518D01*
X137607848Y-103907233D01*
X137626767Y-103984196D01*
X137642251Y-104047611D01*
X137653857Y-104095684D01*
X137661145Y-104126618D01*
X137663672Y-104138619D01*
X137663664Y-104138757D01*
X137652725Y-104143211D01*
X137622279Y-104146549D01*
X137574120Y-104148643D01*
X137510041Y-104149369D01*
X137356410Y-104149369D01*
X137094704Y-103102167D01*
X136938401Y-103102443D01*
X136877047Y-103102962D01*
X136760287Y-103106941D01*
X136663155Y-103115096D01*
X136584682Y-103127751D01*
X136523900Y-103145230D01*
X136479840Y-103167859D01*
X136451532Y-103195961D01*
X136438007Y-103229861D01*
X136438298Y-103269883D01*
X136438881Y-103273235D01*
X136454086Y-103311746D01*
X136486618Y-103349823D01*
X136490255Y-103353192D01*
X136517913Y-103375477D01*
X136548370Y-103392923D01*
X136584718Y-103406230D01*
X136630053Y-103416094D01*
X136687467Y-103423214D01*
X136760055Y-103428288D01*
X136850911Y-103432014D01*
X137058638Y-103438768D01*
X137093728Y-103577682D01*
X137096541Y-103588861D01*
X137109206Y-103640376D01*
X137119520Y-103684227D01*
X137126484Y-103716071D01*
X137129102Y-103731564D01*
X137128826Y-103733494D01*
X137123633Y-103738068D01*
X137109899Y-103741106D01*
X137085065Y-103742711D01*
X137046568Y-103742985D01*
X136991848Y-103742028D01*
X136918342Y-103739944D01*
X136897568Y-103739263D01*
X136802932Y-103734991D01*
X136724494Y-103728913D01*
X136657947Y-103720362D01*
X136598985Y-103708674D01*
X136543299Y-103693181D01*
X136486583Y-103673220D01*
X136449894Y-103658202D01*
X136350612Y-103604873D01*
X136268261Y-103538896D01*
X136201927Y-103459246D01*
X136150697Y-103364899D01*
X136113657Y-103254830D01*
X136103182Y-103212130D01*
X136095855Y-103173262D01*
X136094055Y-103141284D01*
X136097471Y-103108760D01*
X136105787Y-103068253D01*
X136110955Y-103048408D01*
X136123759Y-103017515D01*
X136144603Y-102987798D01*
X136177916Y-102952127D01*
X136199189Y-102931591D01*
X136233358Y-102904056D01*
X136269545Y-102884485D01*
X136317269Y-102867069D01*
X136323732Y-102864993D01*
X136342774Y-102859156D01*
X136361374Y-102854338D01*
X136381712Y-102850421D01*
X136405971Y-102847289D01*
X136436330Y-102844825D01*
X136474972Y-102842912D01*
X136524078Y-102841433D01*
X136585830Y-102840271D01*
X136662408Y-102839309D01*
X136755995Y-102838431D01*
X136868771Y-102837520D01*
X137340130Y-102833817D01*
X137501901Y-103480843D01*
G37*
G36*
X133003356Y-103481446D02*
G01*
X133007972Y-103499911D01*
X133036211Y-103613080D01*
X133062783Y-103719890D01*
X133087245Y-103818544D01*
X133109156Y-103907247D01*
X133128073Y-103984202D01*
X133143556Y-104047612D01*
X133155162Y-104095683D01*
X133162449Y-104126617D01*
X133164976Y-104138619D01*
X133164968Y-104138757D01*
X133154029Y-104143211D01*
X133123583Y-104146549D01*
X133075424Y-104148643D01*
X133011345Y-104149369D01*
X132857714Y-104149369D01*
X132726658Y-103624955D01*
X132595602Y-103100542D01*
X132396760Y-103104026D01*
X132374743Y-103104416D01*
X132310184Y-103105746D01*
X132262361Y-103107382D01*
X132227672Y-103109799D01*
X132202511Y-103113470D01*
X132183277Y-103118869D01*
X132166364Y-103126473D01*
X132148170Y-103136754D01*
X132092945Y-103178978D01*
X132042267Y-103240417D01*
X132004981Y-103313202D01*
X131983943Y-103392882D01*
X131982994Y-103400555D01*
X131986475Y-103463435D01*
X132007646Y-103530699D01*
X132044466Y-103599553D01*
X132094891Y-103667206D01*
X132156879Y-103730864D01*
X132228387Y-103787735D01*
X132307372Y-103835027D01*
X132307808Y-103835248D01*
X132333638Y-103847681D01*
X132356821Y-103856387D01*
X132382159Y-103862149D01*
X132414456Y-103865753D01*
X132458516Y-103867983D01*
X132519144Y-103869624D01*
X132669398Y-103873051D01*
X132699670Y-103997853D01*
X132711625Y-104046600D01*
X132722398Y-104089508D01*
X132730544Y-104120848D01*
X132734888Y-104136012D01*
X132735078Y-104136821D01*
X132726017Y-104143424D01*
X132699881Y-104147931D01*
X132660461Y-104150425D01*
X132611546Y-104150989D01*
X132556929Y-104149705D01*
X132500399Y-104146657D01*
X132445748Y-104141927D01*
X132396765Y-104135599D01*
X132357241Y-104127755D01*
X132346020Y-104124783D01*
X132239800Y-104087613D01*
X132131146Y-104034900D01*
X132025851Y-103970163D01*
X131929708Y-103896921D01*
X131848511Y-103818694D01*
X131803738Y-103765577D01*
X131754998Y-103694516D01*
X131716910Y-103618753D01*
X131686828Y-103532790D01*
X131662110Y-103431128D01*
X131661174Y-103426561D01*
X131652255Y-103377766D01*
X131648637Y-103340072D01*
X131650003Y-103304660D01*
X131656034Y-103262710D01*
X131672686Y-103195596D01*
X131712746Y-103104706D01*
X131769714Y-103022704D01*
X131841229Y-102952237D01*
X131924930Y-102895951D01*
X132018454Y-102856494D01*
X132025780Y-102854278D01*
X132045625Y-102848957D01*
X132066885Y-102844711D01*
X132092054Y-102841421D01*
X132123626Y-102838966D01*
X132164096Y-102837227D01*
X132215960Y-102836083D01*
X132281710Y-102835414D01*
X132363843Y-102835101D01*
X132464852Y-102835023D01*
X132841736Y-102835023D01*
X133003356Y-103481446D01*
G37*
G36*
X128600843Y-102957629D02*
G01*
X128602796Y-102965436D01*
X128615072Y-103014987D01*
X128625057Y-103056080D01*
X128631768Y-103084628D01*
X128634223Y-103096544D01*
X128633116Y-103097102D01*
X128616686Y-103098717D01*
X128583020Y-103100109D01*
X128535240Y-103101200D01*
X128476467Y-103101912D01*
X128409823Y-103102167D01*
X128387525Y-103102194D01*
X128323093Y-103102598D01*
X128267545Y-103103424D01*
X128224002Y-103104598D01*
X128195588Y-103106041D01*
X128185422Y-103107678D01*
X128185490Y-103108125D01*
X128188797Y-103122422D01*
X128196727Y-103155125D01*
X128208786Y-103204232D01*
X128224476Y-103267741D01*
X128243303Y-103343651D01*
X128264772Y-103429960D01*
X128288386Y-103524666D01*
X128313651Y-103625768D01*
X128317811Y-103642401D01*
X128342844Y-103742608D01*
X128366147Y-103836097D01*
X128387223Y-103920866D01*
X128405579Y-103994914D01*
X128420717Y-104056239D01*
X128432144Y-104102839D01*
X128439364Y-104132712D01*
X128441880Y-104143858D01*
X128439641Y-104144783D01*
X128420923Y-104146594D01*
X128386286Y-104148049D01*
X128339452Y-104149018D01*
X128284147Y-104149369D01*
X128126413Y-104149369D01*
X128004551Y-103660497D01*
X127981696Y-103568860D01*
X127957952Y-103473780D01*
X127936036Y-103386139D01*
X127916504Y-103308155D01*
X127899911Y-103242043D01*
X127886814Y-103190020D01*
X127877767Y-103154302D01*
X127873326Y-103137107D01*
X127863962Y-103102589D01*
X127637999Y-103099707D01*
X127412035Y-103096824D01*
X127382260Y-102979281D01*
X127371960Y-102937529D01*
X127361805Y-102893726D01*
X127354853Y-102860556D01*
X127352210Y-102843038D01*
X127352249Y-102841918D01*
X127353835Y-102838102D01*
X127358920Y-102834879D01*
X127369130Y-102832201D01*
X127386090Y-102830017D01*
X127411423Y-102828278D01*
X127446755Y-102826932D01*
X127493710Y-102825931D01*
X127553913Y-102825224D01*
X127628989Y-102824761D01*
X127720562Y-102824493D01*
X127830257Y-102824368D01*
X127959699Y-102824338D01*
X128567463Y-102824338D01*
X128600843Y-102957629D01*
G37*
D14*
%TO.C,R12*%
X117977064Y-106235000D02*
X117522936Y-106235000D01*
X117977064Y-104765000D02*
X117522936Y-104765000D01*
%TO.C,C7*%
X125235000Y-99988748D02*
X125235000Y-100511252D01*
X123765000Y-99988748D02*
X123765000Y-100511252D01*
%TO.C,G\u002A\u002A\u002A*%
G36*
X143172254Y-95185673D02*
G01*
X143178475Y-95202094D01*
X143189151Y-95231417D01*
X143203596Y-95271731D01*
X143221126Y-95321120D01*
X143241059Y-95377674D01*
X143262710Y-95439477D01*
X143274396Y-95472924D01*
X143295403Y-95532988D01*
X143314397Y-95587225D01*
X143330674Y-95633625D01*
X143343528Y-95670180D01*
X143352254Y-95694882D01*
X143356148Y-95705720D01*
X143356405Y-95706493D01*
X143355609Y-95710479D01*
X143349443Y-95713490D01*
X143336002Y-95715657D01*
X143313379Y-95717113D01*
X143279666Y-95717988D01*
X143232958Y-95718417D01*
X143171347Y-95718531D01*
X142981631Y-95718531D01*
X143041049Y-95548329D01*
X143041469Y-95547127D01*
X143061860Y-95488564D01*
X143082864Y-95427988D01*
X143102937Y-95369868D01*
X143120535Y-95318673D01*
X143134114Y-95278872D01*
X143135617Y-95274451D01*
X143148448Y-95237753D01*
X143159360Y-95208315D01*
X143167240Y-95189041D01*
X143170974Y-95182831D01*
X143172254Y-95185673D01*
G37*
G36*
X144984763Y-94806368D02*
G01*
X145040271Y-94814097D01*
X145105756Y-94832669D01*
X145182907Y-94868680D01*
X145250114Y-94917283D01*
X145306128Y-94977533D01*
X145349700Y-95048482D01*
X145362616Y-95075467D01*
X145374043Y-95101271D01*
X145383259Y-95125918D01*
X145390502Y-95151405D01*
X145396009Y-95179727D01*
X145400017Y-95212883D01*
X145402764Y-95252866D01*
X145404488Y-95301675D01*
X145405425Y-95361305D01*
X145405813Y-95433752D01*
X145405890Y-95521012D01*
X145405890Y-95831998D01*
X145380171Y-95903812D01*
X145373545Y-95921658D01*
X145339415Y-95995793D01*
X145298409Y-96056960D01*
X145248425Y-96107859D01*
X145187359Y-96151188D01*
X145132743Y-96179176D01*
X145069858Y-96200252D01*
X144996625Y-96214134D01*
X144976667Y-96216499D01*
X144884107Y-96218126D01*
X144796842Y-96204310D01*
X144715947Y-96175782D01*
X144642495Y-96133274D01*
X144577560Y-96077517D01*
X144522216Y-96009244D01*
X144477538Y-95929185D01*
X144444598Y-95838072D01*
X144427775Y-95777366D01*
X144669114Y-95777366D01*
X144674809Y-95804682D01*
X144675968Y-95809682D01*
X144691445Y-95849231D01*
X144716603Y-95890251D01*
X144747481Y-95926125D01*
X144750892Y-95929322D01*
X144799301Y-95962904D01*
X144855600Y-95984124D01*
X144915972Y-95992423D01*
X144976599Y-95987243D01*
X145033662Y-95968025D01*
X145082431Y-95936143D01*
X145121850Y-95891771D01*
X145152387Y-95833854D01*
X145155720Y-95825319D01*
X145160223Y-95811477D01*
X145163758Y-95795730D01*
X145166478Y-95775951D01*
X145168532Y-95750009D01*
X145170073Y-95715774D01*
X145171252Y-95671119D01*
X145172221Y-95613912D01*
X145173130Y-95542025D01*
X145173732Y-95478598D01*
X145173851Y-95406372D01*
X145172996Y-95347342D01*
X145170972Y-95299441D01*
X145167585Y-95260601D01*
X145162638Y-95228755D01*
X145155935Y-95201837D01*
X145147283Y-95177779D01*
X145136484Y-95154515D01*
X145132193Y-95146551D01*
X145098485Y-95102194D01*
X145054172Y-95065601D01*
X145004384Y-95041173D01*
X145001129Y-95040126D01*
X144951152Y-95030733D01*
X144897208Y-95030795D01*
X144845553Y-95039811D01*
X144802448Y-95057284D01*
X144782972Y-95070134D01*
X144740470Y-95108069D01*
X144704539Y-95153397D01*
X144680056Y-95200416D01*
X144663941Y-95243646D01*
X144545323Y-95245978D01*
X144529202Y-95246258D01*
X144488850Y-95246603D01*
X144456320Y-95246366D01*
X144434607Y-95245587D01*
X144426704Y-95244311D01*
X144427110Y-95242243D01*
X144431180Y-95227550D01*
X144438690Y-95202341D01*
X144448483Y-95170536D01*
X144460358Y-95135694D01*
X144500391Y-95048410D01*
X144551095Y-94973098D01*
X144611866Y-94910428D01*
X144682095Y-94861068D01*
X144761177Y-94825689D01*
X144800297Y-94815569D01*
X144858672Y-94807357D01*
X144922196Y-94804206D01*
X144984763Y-94806368D01*
G37*
G36*
X139390378Y-95795490D02*
G01*
X139399329Y-95795657D01*
X139454448Y-95796941D01*
X139495616Y-95798553D01*
X139525343Y-95800739D01*
X139546138Y-95803746D01*
X139560510Y-95807819D01*
X139570969Y-95813204D01*
X139597167Y-95835761D01*
X139615264Y-95868874D01*
X139620967Y-95911846D01*
X139620903Y-95916888D01*
X139613486Y-95959946D01*
X139593327Y-95992621D01*
X139559828Y-96015558D01*
X139512390Y-96029407D01*
X139490741Y-96031948D01*
X139447291Y-96033204D01*
X139398616Y-96031359D01*
X139351573Y-96026748D01*
X139313017Y-96019703D01*
X139310144Y-96018907D01*
X139281205Y-96005863D01*
X139256283Y-95987456D01*
X139252389Y-95983517D01*
X139242895Y-95972388D01*
X139237009Y-95960224D01*
X139233872Y-95943081D01*
X139232621Y-95917016D01*
X139232396Y-95878085D01*
X139232396Y-95792601D01*
X139390378Y-95795490D01*
G37*
G36*
X146914593Y-96206022D02*
G01*
X146914593Y-95668100D01*
X146737733Y-95668100D01*
X146672025Y-95667622D01*
X146601799Y-95665435D01*
X146543698Y-95661126D01*
X146495138Y-95654308D01*
X146453537Y-95644598D01*
X146416310Y-95631610D01*
X146380874Y-95614960D01*
X146346059Y-95593943D01*
X146288403Y-95545376D01*
X146240517Y-95486381D01*
X146204737Y-95420097D01*
X146183400Y-95349663D01*
X146180491Y-95331414D01*
X146175940Y-95277185D01*
X146175882Y-95261034D01*
X146411666Y-95261034D01*
X146415226Y-95293783D01*
X146431889Y-95348043D01*
X146461281Y-95391752D01*
X146503091Y-95424355D01*
X146514638Y-95430574D01*
X146526998Y-95435940D01*
X146541228Y-95439911D01*
X146559818Y-95442750D01*
X146585259Y-95444721D01*
X146620040Y-95446085D01*
X146666651Y-95447106D01*
X146727581Y-95448046D01*
X146914593Y-95450725D01*
X146914593Y-95037723D01*
X146729412Y-95037723D01*
X146702377Y-95037743D01*
X146641298Y-95038153D01*
X146593745Y-95039476D01*
X146557338Y-95042218D01*
X146529692Y-95046880D01*
X146508425Y-95053966D01*
X146491155Y-95063979D01*
X146475498Y-95077422D01*
X146459072Y-95094797D01*
X146441991Y-95116436D01*
X146422258Y-95155915D01*
X146412499Y-95202888D01*
X146411666Y-95261034D01*
X146175882Y-95261034D01*
X146175731Y-95219021D01*
X146179734Y-95163680D01*
X146187820Y-95117920D01*
X146194331Y-95095418D01*
X146226562Y-95020648D01*
X146271881Y-94955757D01*
X146329145Y-94901883D01*
X146397217Y-94860161D01*
X146474954Y-94831730D01*
X146490923Y-94828369D01*
X146512055Y-94825579D01*
X146539756Y-94823381D01*
X146575731Y-94821715D01*
X146621687Y-94820523D01*
X146679331Y-94819744D01*
X146750370Y-94819320D01*
X146836511Y-94819192D01*
X147149934Y-94819192D01*
X147149934Y-96206022D01*
X146914593Y-96206022D01*
G37*
G36*
X145931204Y-96206022D02*
G01*
X145695864Y-96206022D01*
X145695864Y-94819192D01*
X145931204Y-94819192D01*
X145931204Y-96206022D01*
G37*
G36*
X147696625Y-95831998D02*
G01*
X147736367Y-95762838D01*
X147744924Y-95747807D01*
X147762264Y-95717087D01*
X147786214Y-95674493D01*
X147815901Y-95621581D01*
X147850452Y-95559910D01*
X147888996Y-95491037D01*
X147930659Y-95416519D01*
X147974569Y-95337913D01*
X148019854Y-95256777D01*
X148263600Y-94819877D01*
X148391777Y-94819534D01*
X148519954Y-94819192D01*
X148519954Y-96206022D01*
X148293150Y-96206022D01*
X148290983Y-95705846D01*
X148288815Y-95205670D01*
X148152188Y-95447391D01*
X148147687Y-95455352D01*
X148106296Y-95528511D01*
X148059481Y-95611163D01*
X148009828Y-95698747D01*
X147959926Y-95786699D01*
X147912361Y-95870460D01*
X147869721Y-95945466D01*
X147723882Y-96201820D01*
X147596604Y-96204140D01*
X147469325Y-96206460D01*
X147469325Y-94819192D01*
X147696261Y-94819192D01*
X147696625Y-95831998D01*
G37*
G36*
X137475744Y-96979285D02*
G01*
X137475744Y-96819589D01*
X144082098Y-96819589D01*
X148872965Y-96819589D01*
X148872965Y-94188815D01*
X144082098Y-94188815D01*
X144082098Y-96819589D01*
X137475744Y-96819589D01*
X137475744Y-95624308D01*
X137938829Y-95624308D01*
X137938832Y-95679097D01*
X137939847Y-95747681D01*
X137941213Y-95810052D01*
X137942762Y-95858525D01*
X137944749Y-95895736D01*
X137947434Y-95924461D01*
X137951079Y-95947478D01*
X137955941Y-95967563D01*
X137962281Y-95987492D01*
X137974116Y-96018230D01*
X138009050Y-96083322D01*
X138052658Y-96136466D01*
X138103655Y-96176276D01*
X138160754Y-96201366D01*
X138211347Y-96212927D01*
X138282467Y-96218547D01*
X138348310Y-96211041D01*
X138406115Y-96190532D01*
X138425857Y-96177869D01*
X138453311Y-96155360D01*
X138478990Y-96129886D01*
X138517968Y-96086534D01*
X138517968Y-96206022D01*
X138744904Y-96206022D01*
X139022270Y-96206022D01*
X139232396Y-96206022D01*
X139232396Y-96120231D01*
X139263049Y-96147145D01*
X139294808Y-96170641D01*
X139353615Y-96197948D01*
X139424770Y-96214459D01*
X139439564Y-96216497D01*
X139488325Y-96220974D01*
X139531414Y-96220271D01*
X139577002Y-96214384D01*
X139614412Y-96206794D01*
X139616783Y-96206022D01*
X139980443Y-96206022D01*
X140896592Y-96206022D01*
X142148941Y-96206022D01*
X142384282Y-96206022D01*
X142384282Y-96199719D01*
X142569053Y-96199719D01*
X142570440Y-96200663D01*
X142584407Y-96202776D01*
X142611002Y-96204477D01*
X142647253Y-96205610D01*
X142690191Y-96206022D01*
X142811189Y-96206022D01*
X142844731Y-96111466D01*
X142856943Y-96076696D01*
X142870584Y-96037063D01*
X142881801Y-96003623D01*
X142888961Y-95981188D01*
X142899649Y-95945466D01*
X143169381Y-95945468D01*
X143439113Y-95945469D01*
X143484267Y-96075746D01*
X143529421Y-96206022D01*
X143776864Y-96206022D01*
X143584791Y-95695417D01*
X143549883Y-95602611D01*
X143514169Y-95507650D01*
X143479085Y-95414349D01*
X143445386Y-95324720D01*
X143413828Y-95240772D01*
X143385167Y-95164516D01*
X143360158Y-95097962D01*
X143339557Y-95043120D01*
X143324120Y-95002002D01*
X143255523Y-94819192D01*
X143085306Y-94819192D01*
X142827109Y-95506304D01*
X142794310Y-95593645D01*
X142757222Y-95692538D01*
X142722238Y-95785965D01*
X142689783Y-95872785D01*
X142660281Y-95951858D01*
X142634157Y-96022042D01*
X142611834Y-96082197D01*
X142593738Y-96131183D01*
X142580293Y-96167859D01*
X142571923Y-96191084D01*
X142569053Y-96199719D01*
X142384282Y-96199719D01*
X142384282Y-94819192D01*
X142148941Y-94819192D01*
X142148941Y-96206022D01*
X140896592Y-96206022D01*
X140896592Y-95819391D01*
X141190768Y-95819391D01*
X141854765Y-95819391D01*
X141854765Y-95600860D01*
X141190768Y-95600860D01*
X141190768Y-95819391D01*
X140896592Y-95819391D01*
X140896592Y-94819192D01*
X140661251Y-94819192D01*
X140661251Y-95987492D01*
X139980443Y-95987492D01*
X139980443Y-96206022D01*
X139616783Y-96206022D01*
X139682702Y-96184559D01*
X139737205Y-96153200D01*
X139778623Y-96111903D01*
X139807662Y-96059854D01*
X139825023Y-95996242D01*
X139831411Y-95920251D01*
X139827391Y-95850811D01*
X139811352Y-95785853D01*
X139783013Y-95732135D01*
X139742229Y-95689391D01*
X139688858Y-95657359D01*
X139684434Y-95655406D01*
X139650191Y-95642439D01*
X139613076Y-95632622D01*
X139570313Y-95625600D01*
X139519125Y-95621016D01*
X139456736Y-95618513D01*
X139380370Y-95617734D01*
X139229965Y-95617670D01*
X139235132Y-95562334D01*
X139239189Y-95533609D01*
X139255194Y-95485288D01*
X139282519Y-95448934D01*
X139322199Y-95423403D01*
X139375273Y-95407546D01*
X139399495Y-95404394D01*
X139459333Y-95406094D01*
X139522357Y-95419187D01*
X139583165Y-95442757D01*
X139635622Y-95468581D01*
X139675450Y-95435962D01*
X139691416Y-95422783D01*
X139723070Y-95396264D01*
X139751047Y-95372400D01*
X139786816Y-95341459D01*
X139748090Y-95307371D01*
X139733928Y-95295496D01*
X139670223Y-95254377D01*
X139596872Y-95225334D01*
X139512893Y-95208056D01*
X139417306Y-95202229D01*
X139343295Y-95205469D01*
X139272085Y-95217725D01*
X139210799Y-95240002D01*
X139156941Y-95273236D01*
X139108014Y-95318366D01*
X139094565Y-95333375D01*
X139077744Y-95354263D01*
X139063742Y-95375706D01*
X139052303Y-95399329D01*
X139043169Y-95426757D01*
X139036086Y-95459616D01*
X139030796Y-95499530D01*
X139027043Y-95548126D01*
X139024570Y-95607028D01*
X139023121Y-95677863D01*
X139022440Y-95762255D01*
X139022270Y-95861830D01*
X139022270Y-96206022D01*
X138744904Y-96206022D01*
X138744904Y-94819192D01*
X138517968Y-94819192D01*
X138517968Y-95341659D01*
X138476673Y-95296475D01*
X138464739Y-95284215D01*
X138425979Y-95251636D01*
X138386319Y-95226985D01*
X138383632Y-95225661D01*
X138356608Y-95213654D01*
X138332292Y-95206734D01*
X138304192Y-95203607D01*
X138265817Y-95202980D01*
X138230177Y-95204630D01*
X138159230Y-95218490D01*
X138097618Y-95246230D01*
X138045599Y-95287618D01*
X138003428Y-95342419D01*
X137971362Y-95410400D01*
X137949656Y-95491327D01*
X137946035Y-95512801D01*
X137942316Y-95544151D01*
X137939952Y-95580323D01*
X137938829Y-95624308D01*
X137475744Y-95624308D01*
X137475744Y-94029120D01*
X149032660Y-94029120D01*
X149032660Y-96979285D01*
X137475744Y-96979285D01*
G37*
G36*
X138384923Y-95411353D02*
G01*
X138426813Y-95425839D01*
X138463149Y-95450924D01*
X138491248Y-95486369D01*
X138508428Y-95531932D01*
X138509014Y-95534856D01*
X138512831Y-95565488D01*
X138515551Y-95608189D01*
X138517172Y-95658838D01*
X138517690Y-95713316D01*
X138517102Y-95767502D01*
X138515406Y-95817275D01*
X138512598Y-95858516D01*
X138508677Y-95887104D01*
X138500013Y-95913844D01*
X138475840Y-95953100D01*
X138442393Y-95983993D01*
X138403493Y-96002339D01*
X138398001Y-96003760D01*
X138359796Y-96010707D01*
X138325518Y-96009606D01*
X138285915Y-96000297D01*
X138251797Y-95985891D01*
X138215058Y-95956042D01*
X138184828Y-95911846D01*
X138180582Y-95902934D01*
X138176274Y-95889660D01*
X138173190Y-95872210D01*
X138171132Y-95848058D01*
X138169905Y-95814678D01*
X138169313Y-95769543D01*
X138169159Y-95710126D01*
X138169166Y-95691773D01*
X138169350Y-95637535D01*
X138169966Y-95596748D01*
X138171247Y-95566799D01*
X138173427Y-95545078D01*
X138176740Y-95528972D01*
X138181420Y-95515869D01*
X138187702Y-95503158D01*
X138215463Y-95464221D01*
X138252748Y-95433901D01*
X138295208Y-95415143D01*
X138340160Y-95407707D01*
X138384923Y-95411353D01*
G37*
%TO.C,C6*%
X117985000Y-126561252D02*
X117985000Y-126038748D01*
X116515000Y-126561252D02*
X116515000Y-126038748D01*
%TD*%
G36*
X167942121Y-101770002D02*
G01*
X167988614Y-101823658D01*
X168000000Y-101876000D01*
X168000000Y-107374000D01*
X167979998Y-107442121D01*
X167926342Y-107488614D01*
X167874000Y-107500000D01*
X165126000Y-107500000D01*
X165057879Y-107479998D01*
X165011386Y-107426342D01*
X165000000Y-107374000D01*
X165000000Y-105481885D01*
X166250000Y-105481885D01*
X166254475Y-105497124D01*
X166255865Y-105498329D01*
X166263548Y-105500000D01*
X166731885Y-105500000D01*
X166747124Y-105495525D01*
X166748329Y-105494135D01*
X166750000Y-105486452D01*
X166750000Y-103518115D01*
X166745525Y-103502876D01*
X166744135Y-103501671D01*
X166736452Y-103500000D01*
X166268115Y-103500000D01*
X166252876Y-103504475D01*
X166251671Y-103505865D01*
X166250000Y-103513548D01*
X166250000Y-105481885D01*
X165000000Y-105481885D01*
X165000000Y-101876000D01*
X165020002Y-101807879D01*
X165073658Y-101761386D01*
X165126000Y-101750000D01*
X167874000Y-101750000D01*
X167942121Y-101770002D01*
G37*
M02*
