%TF.GenerationSoftware,KiCad,Pcbnew,(6.0.2)*%
%TF.CreationDate,2022-03-25T17:55:46+07:00*%
%TF.ProjectId,Driver_motor_V02,44726976-6572-45f6-9d6f-746f725f5630,rev?*%
%TF.SameCoordinates,Original*%
%TF.FileFunction,Legend,Top*%
%TF.FilePolarity,Positive*%
%FSLAX46Y46*%
G04 Gerber Fmt 4.6, Leading zero omitted, Abs format (unit mm)*
G04 Created by KiCad (PCBNEW (6.0.2)) date 2022-03-25 17:55:46*
%MOMM*%
%LPD*%
G01*
G04 APERTURE LIST*
%ADD10C,0.150000*%
%ADD11C,0.250000*%
%ADD12C,0.200000*%
%ADD13C,0.120000*%
G04 APERTURE END LIST*
D10*
X156500000Y-122900000D02*
X158500000Y-122900000D01*
X165060719Y-126488010D02*
X165060719Y-127588010D01*
X158525000Y-109500000D02*
X156525000Y-109500000D01*
X156525000Y-109500000D02*
X156525000Y-109250000D01*
X156525000Y-109250000D02*
X158525000Y-109250000D01*
X158525000Y-109250000D02*
X158525000Y-109500000D01*
G36*
X158525000Y-109500000D02*
G01*
X156525000Y-109500000D01*
X156525000Y-109250000D01*
X158525000Y-109250000D01*
X158525000Y-109500000D01*
G37*
X165060719Y-127588010D02*
X165448729Y-127200000D01*
X158500000Y-120650000D02*
X156500000Y-120650000D01*
X159550000Y-131197718D02*
X157450000Y-131197718D01*
X156951271Y-130651271D02*
G75*
G03*
X157500000Y-131200000I548729J0D01*
G01*
X156500000Y-120650000D02*
X156500000Y-113400000D01*
X158500000Y-122900000D02*
X158500000Y-120650000D01*
X159550000Y-131197718D02*
X159250000Y-130897718D01*
X157500000Y-100000000D02*
X157500000Y-103300000D01*
X156500000Y-113400000D02*
X158500000Y-113400000D01*
X156500000Y-120650000D02*
X156500000Y-122900000D01*
X159550000Y-131197718D02*
X159250000Y-131497718D01*
X165060719Y-126488010D02*
G75*
G03*
X164511990Y-125939281I-548729J0D01*
G01*
X165060719Y-127588010D02*
X164700000Y-127227291D01*
X158500000Y-113400000D02*
X158500000Y-120650000D01*
X164511990Y-125939281D02*
X162411990Y-125939281D01*
X156946447Y-129597718D02*
X156946447Y-130697718D01*
D11*
X146923184Y-118202380D02*
X147131517Y-119202380D01*
X147589851Y-118202380D01*
X147863660Y-118678571D02*
X148196994Y-118678571D01*
X148274375Y-119202380D02*
X147798184Y-119202380D01*
X147923184Y-118202380D01*
X148399375Y-118202380D01*
X149274375Y-119202380D02*
X149000565Y-118726190D01*
X148702946Y-119202380D02*
X148827946Y-118202380D01*
X149208898Y-118202380D01*
X149298184Y-118250000D01*
X149339851Y-118297619D01*
X149375565Y-118392857D01*
X149357708Y-118535714D01*
X149298184Y-118630952D01*
X149244613Y-118678571D01*
X149143422Y-118726190D01*
X148762470Y-118726190D01*
X150988660Y-119202380D02*
X150417232Y-119202380D01*
X150702946Y-119202380D02*
X150827946Y-118202380D01*
X150714851Y-118345238D01*
X150607708Y-118440476D01*
X150506517Y-118488095D01*
X151429136Y-119107142D02*
X151470803Y-119154761D01*
X151417232Y-119202380D01*
X151375565Y-119154761D01*
X151429136Y-119107142D01*
X151417232Y-119202380D01*
X152208898Y-118202380D02*
X152304136Y-118202380D01*
X152393422Y-118250000D01*
X152435089Y-118297619D01*
X152470803Y-118392857D01*
X152494613Y-118583333D01*
X152464851Y-118821428D01*
X152393422Y-119011904D01*
X152333898Y-119107142D01*
X152280327Y-119154761D01*
X152179136Y-119202380D01*
X152083898Y-119202380D01*
X151994613Y-119154761D01*
X151952946Y-119107142D01*
X151917232Y-119011904D01*
X151893422Y-118821428D01*
X151923184Y-118583333D01*
X151994613Y-118392857D01*
X152054136Y-118297619D01*
X152107708Y-118250000D01*
X152208898Y-118202380D01*
D12*
X158067857Y-119689285D02*
X156867857Y-119689285D01*
X157725000Y-119289285D01*
X156867857Y-118889285D01*
X158067857Y-118889285D01*
X156867857Y-118089285D02*
X156867857Y-117860714D01*
X156925000Y-117746428D01*
X157039285Y-117632142D01*
X157267857Y-117575000D01*
X157667857Y-117575000D01*
X157896428Y-117632142D01*
X158010714Y-117746428D01*
X158067857Y-117860714D01*
X158067857Y-118089285D01*
X158010714Y-118203571D01*
X157896428Y-118317857D01*
X157667857Y-118375000D01*
X157267857Y-118375000D01*
X157039285Y-118317857D01*
X156925000Y-118203571D01*
X156867857Y-118089285D01*
X156867857Y-117232142D02*
X156867857Y-116546428D01*
X158067857Y-116889285D02*
X156867857Y-116889285D01*
X156867857Y-115917857D02*
X156867857Y-115689285D01*
X156925000Y-115575000D01*
X157039285Y-115460714D01*
X157267857Y-115403571D01*
X157667857Y-115403571D01*
X157896428Y-115460714D01*
X158010714Y-115575000D01*
X158067857Y-115689285D01*
X158067857Y-115917857D01*
X158010714Y-116032142D01*
X157896428Y-116146428D01*
X157667857Y-116203571D01*
X157267857Y-116203571D01*
X157039285Y-116146428D01*
X156925000Y-116032142D01*
X156867857Y-115917857D01*
X158067857Y-114203571D02*
X157496428Y-114603571D01*
X158067857Y-114889285D02*
X156867857Y-114889285D01*
X156867857Y-114432142D01*
X156925000Y-114317857D01*
X156982142Y-114260714D01*
X157096428Y-114203571D01*
X157267857Y-114203571D01*
X157382142Y-114260714D01*
X157439285Y-114317857D01*
X157496428Y-114432142D01*
X157496428Y-114889285D01*
D10*
X126571994Y-93202380D02*
X126696994Y-92202380D01*
X127077946Y-92202380D01*
X127167232Y-92250000D01*
X127208898Y-92297619D01*
X127244613Y-92392857D01*
X127226755Y-92535714D01*
X127167232Y-92630952D01*
X127113660Y-92678571D01*
X127012470Y-92726190D01*
X126631517Y-92726190D01*
X127601755Y-92202380D02*
X127714851Y-93202380D01*
X127994613Y-92488095D01*
X128095803Y-93202380D01*
X128458898Y-92202380D01*
X129286279Y-93202380D02*
X129012470Y-92726190D01*
X128714851Y-93202380D02*
X128839851Y-92202380D01*
X129220803Y-92202380D01*
X129310089Y-92250000D01*
X129351755Y-92297619D01*
X129387470Y-92392857D01*
X129369613Y-92535714D01*
X129310089Y-92630952D01*
X129256517Y-92678571D01*
X129155327Y-92726190D01*
X128774375Y-92726190D01*
X160619047Y-128571428D02*
X161380952Y-128571428D01*
X161000000Y-128952380D02*
X161000000Y-128190476D01*
D11*
X157042857Y-121735714D02*
X157957142Y-121735714D01*
X157500000Y-122192857D02*
X157500000Y-121278571D01*
D10*
X128619047Y-87821428D02*
X129380952Y-87821428D01*
X129000000Y-88202380D02*
X129000000Y-87440476D01*
%TO.C,U1*%
X129488095Y-108202380D02*
X129488095Y-109011904D01*
X129535714Y-109107142D01*
X129583333Y-109154761D01*
X129678571Y-109202380D01*
X129869047Y-109202380D01*
X129964285Y-109154761D01*
X130011904Y-109107142D01*
X130059523Y-109011904D01*
X130059523Y-108202380D01*
X131059523Y-109202380D02*
X130488095Y-109202380D01*
X130773809Y-109202380D02*
X130773809Y-108202380D01*
X130678571Y-108345238D01*
X130583333Y-108440476D01*
X130488095Y-108488095D01*
%TO.C,J2*%
X116702380Y-90333333D02*
X117416666Y-90333333D01*
X117559523Y-90380952D01*
X117654761Y-90476190D01*
X117702380Y-90619047D01*
X117702380Y-90714285D01*
X116797619Y-89904761D02*
X116750000Y-89857142D01*
X116702380Y-89761904D01*
X116702380Y-89523809D01*
X116750000Y-89428571D01*
X116797619Y-89380952D01*
X116892857Y-89333333D01*
X116988095Y-89333333D01*
X117130952Y-89380952D01*
X117702380Y-89952380D01*
X117702380Y-89333333D01*
%TO.C,C1*%
X134583333Y-118857142D02*
X134535714Y-118904761D01*
X134392857Y-118952380D01*
X134297619Y-118952380D01*
X134154761Y-118904761D01*
X134059523Y-118809523D01*
X134011904Y-118714285D01*
X133964285Y-118523809D01*
X133964285Y-118380952D01*
X134011904Y-118190476D01*
X134059523Y-118095238D01*
X134154761Y-118000000D01*
X134297619Y-117952380D01*
X134392857Y-117952380D01*
X134535714Y-118000000D01*
X134583333Y-118047619D01*
X135535714Y-118952380D02*
X134964285Y-118952380D01*
X135250000Y-118952380D02*
X135250000Y-117952380D01*
X135154761Y-118095238D01*
X135059523Y-118190476D01*
X134964285Y-118238095D01*
%TO.C,R7*%
X134083333Y-109452380D02*
X133750000Y-108976190D01*
X133511904Y-109452380D02*
X133511904Y-108452380D01*
X133892857Y-108452380D01*
X133988095Y-108500000D01*
X134035714Y-108547619D01*
X134083333Y-108642857D01*
X134083333Y-108785714D01*
X134035714Y-108880952D01*
X133988095Y-108928571D01*
X133892857Y-108976190D01*
X133511904Y-108976190D01*
X134416666Y-108452380D02*
X135083333Y-108452380D01*
X134654761Y-109452380D01*
%TO.C,C3*%
X134583333Y-98357142D02*
X134535714Y-98404761D01*
X134392857Y-98452380D01*
X134297619Y-98452380D01*
X134154761Y-98404761D01*
X134059523Y-98309523D01*
X134011904Y-98214285D01*
X133964285Y-98023809D01*
X133964285Y-97880952D01*
X134011904Y-97690476D01*
X134059523Y-97595238D01*
X134154761Y-97500000D01*
X134297619Y-97452380D01*
X134392857Y-97452380D01*
X134535714Y-97500000D01*
X134583333Y-97547619D01*
X134916666Y-97452380D02*
X135535714Y-97452380D01*
X135202380Y-97833333D01*
X135345238Y-97833333D01*
X135440476Y-97880952D01*
X135488095Y-97928571D01*
X135535714Y-98023809D01*
X135535714Y-98261904D01*
X135488095Y-98357142D01*
X135440476Y-98404761D01*
X135345238Y-98452380D01*
X135059523Y-98452380D01*
X134964285Y-98404761D01*
X134916666Y-98357142D01*
%TO.C,U3*%
X123738095Y-99452380D02*
X123738095Y-100261904D01*
X123785714Y-100357142D01*
X123833333Y-100404761D01*
X123928571Y-100452380D01*
X124119047Y-100452380D01*
X124214285Y-100404761D01*
X124261904Y-100357142D01*
X124309523Y-100261904D01*
X124309523Y-99452380D01*
X124690476Y-99452380D02*
X125309523Y-99452380D01*
X124976190Y-99833333D01*
X125119047Y-99833333D01*
X125214285Y-99880952D01*
X125261904Y-99928571D01*
X125309523Y-100023809D01*
X125309523Y-100261904D01*
X125261904Y-100357142D01*
X125214285Y-100404761D01*
X125119047Y-100452380D01*
X124833333Y-100452380D01*
X124738095Y-100404761D01*
X124690476Y-100357142D01*
X118202380Y-109464285D02*
X117202380Y-109464285D01*
X117678571Y-109464285D02*
X117678571Y-108892857D01*
X118202380Y-108892857D02*
X117202380Y-108892857D01*
X118107142Y-107845238D02*
X118154761Y-107892857D01*
X118202380Y-108035714D01*
X118202380Y-108130952D01*
X118154761Y-108273809D01*
X118059523Y-108369047D01*
X117964285Y-108416666D01*
X117773809Y-108464285D01*
X117630952Y-108464285D01*
X117440476Y-108416666D01*
X117345238Y-108369047D01*
X117250000Y-108273809D01*
X117202380Y-108130952D01*
X117202380Y-108035714D01*
X117250000Y-107892857D01*
X117297619Y-107845238D01*
X118202380Y-107416666D02*
X117202380Y-107416666D01*
X117202380Y-107035714D01*
X117250000Y-106940476D01*
X117297619Y-106892857D01*
X117392857Y-106845238D01*
X117535714Y-106845238D01*
X117630952Y-106892857D01*
X117678571Y-106940476D01*
X117726190Y-107035714D01*
X117726190Y-107416666D01*
X118202380Y-105940476D02*
X118202380Y-106416666D01*
X117202380Y-106416666D01*
X117821428Y-105607142D02*
X117821428Y-104845238D01*
X117297619Y-104416666D02*
X117250000Y-104369047D01*
X117202380Y-104273809D01*
X117202380Y-104035714D01*
X117250000Y-103940476D01*
X117297619Y-103892857D01*
X117392857Y-103845238D01*
X117488095Y-103845238D01*
X117630952Y-103892857D01*
X118202380Y-104464285D01*
X118202380Y-103845238D01*
X117202380Y-102988095D02*
X117202380Y-103178571D01*
X117250000Y-103273809D01*
X117297619Y-103321428D01*
X117440476Y-103416666D01*
X117630952Y-103464285D01*
X118011904Y-103464285D01*
X118107142Y-103416666D01*
X118154761Y-103369047D01*
X118202380Y-103273809D01*
X118202380Y-103083333D01*
X118154761Y-102988095D01*
X118107142Y-102940476D01*
X118011904Y-102892857D01*
X117773809Y-102892857D01*
X117678571Y-102940476D01*
X117630952Y-102988095D01*
X117583333Y-103083333D01*
X117583333Y-103273809D01*
X117630952Y-103369047D01*
X117678571Y-103416666D01*
X117773809Y-103464285D01*
X117202380Y-102559523D02*
X117202380Y-101940476D01*
X117583333Y-102273809D01*
X117583333Y-102130952D01*
X117630952Y-102035714D01*
X117678571Y-101988095D01*
X117773809Y-101940476D01*
X118011904Y-101940476D01*
X118107142Y-101988095D01*
X118154761Y-102035714D01*
X118202380Y-102130952D01*
X118202380Y-102416666D01*
X118154761Y-102511904D01*
X118107142Y-102559523D01*
X117202380Y-101321428D02*
X117202380Y-101226190D01*
X117250000Y-101130952D01*
X117297619Y-101083333D01*
X117392857Y-101035714D01*
X117583333Y-100988095D01*
X117821428Y-100988095D01*
X118011904Y-101035714D01*
X118107142Y-101083333D01*
X118154761Y-101130952D01*
X118202380Y-101226190D01*
X118202380Y-101321428D01*
X118154761Y-101416666D01*
X118107142Y-101464285D01*
X118011904Y-101511904D01*
X117821428Y-101559523D01*
X117583333Y-101559523D01*
X117392857Y-101511904D01*
X117297619Y-101464285D01*
X117250000Y-101416666D01*
X117202380Y-101321428D01*
%TO.C,R6*%
X134083333Y-111452380D02*
X133750000Y-110976190D01*
X133511904Y-111452380D02*
X133511904Y-110452380D01*
X133892857Y-110452380D01*
X133988095Y-110500000D01*
X134035714Y-110547619D01*
X134083333Y-110642857D01*
X134083333Y-110785714D01*
X134035714Y-110880952D01*
X133988095Y-110928571D01*
X133892857Y-110976190D01*
X133511904Y-110976190D01*
X134940476Y-110452380D02*
X134750000Y-110452380D01*
X134654761Y-110500000D01*
X134607142Y-110547619D01*
X134511904Y-110690476D01*
X134464285Y-110880952D01*
X134464285Y-111261904D01*
X134511904Y-111357142D01*
X134559523Y-111404761D01*
X134654761Y-111452380D01*
X134845238Y-111452380D01*
X134940476Y-111404761D01*
X134988095Y-111357142D01*
X135035714Y-111261904D01*
X135035714Y-111023809D01*
X134988095Y-110928571D01*
X134940476Y-110880952D01*
X134845238Y-110833333D01*
X134654761Y-110833333D01*
X134559523Y-110880952D01*
X134511904Y-110928571D01*
X134464285Y-111023809D01*
%TO.C,R2*%
X137358333Y-121202380D02*
X137025000Y-120726190D01*
X136786904Y-121202380D02*
X136786904Y-120202380D01*
X137167857Y-120202380D01*
X137263095Y-120250000D01*
X137310714Y-120297619D01*
X137358333Y-120392857D01*
X137358333Y-120535714D01*
X137310714Y-120630952D01*
X137263095Y-120678571D01*
X137167857Y-120726190D01*
X136786904Y-120726190D01*
X137739285Y-120297619D02*
X137786904Y-120250000D01*
X137882142Y-120202380D01*
X138120238Y-120202380D01*
X138215476Y-120250000D01*
X138263095Y-120297619D01*
X138310714Y-120392857D01*
X138310714Y-120488095D01*
X138263095Y-120630952D01*
X137691666Y-121202380D01*
X138310714Y-121202380D01*
%TO.C,R5*%
X137333333Y-118202380D02*
X137000000Y-117726190D01*
X136761904Y-118202380D02*
X136761904Y-117202380D01*
X137142857Y-117202380D01*
X137238095Y-117250000D01*
X137285714Y-117297619D01*
X137333333Y-117392857D01*
X137333333Y-117535714D01*
X137285714Y-117630952D01*
X137238095Y-117678571D01*
X137142857Y-117726190D01*
X136761904Y-117726190D01*
X138238095Y-117202380D02*
X137761904Y-117202380D01*
X137714285Y-117678571D01*
X137761904Y-117630952D01*
X137857142Y-117583333D01*
X138095238Y-117583333D01*
X138190476Y-117630952D01*
X138238095Y-117678571D01*
X138285714Y-117773809D01*
X138285714Y-118011904D01*
X138238095Y-118107142D01*
X138190476Y-118154761D01*
X138095238Y-118202380D01*
X137857142Y-118202380D01*
X137761904Y-118154761D01*
X137714285Y-118107142D01*
%TO.C,R4*%
X137333333Y-130202380D02*
X137000000Y-129726190D01*
X136761904Y-130202380D02*
X136761904Y-129202380D01*
X137142857Y-129202380D01*
X137238095Y-129250000D01*
X137285714Y-129297619D01*
X137333333Y-129392857D01*
X137333333Y-129535714D01*
X137285714Y-129630952D01*
X137238095Y-129678571D01*
X137142857Y-129726190D01*
X136761904Y-129726190D01*
X138190476Y-129535714D02*
X138190476Y-130202380D01*
X137952380Y-129154761D02*
X137714285Y-129869047D01*
X138333333Y-129869047D01*
%TO.C,C4*%
X134583333Y-103607142D02*
X134535714Y-103654761D01*
X134392857Y-103702380D01*
X134297619Y-103702380D01*
X134154761Y-103654761D01*
X134059523Y-103559523D01*
X134011904Y-103464285D01*
X133964285Y-103273809D01*
X133964285Y-103130952D01*
X134011904Y-102940476D01*
X134059523Y-102845238D01*
X134154761Y-102750000D01*
X134297619Y-102702380D01*
X134392857Y-102702380D01*
X134535714Y-102750000D01*
X134583333Y-102797619D01*
X135440476Y-103035714D02*
X135440476Y-103702380D01*
X135202380Y-102654761D02*
X134964285Y-103369047D01*
X135583333Y-103369047D01*
%TO.C,R9*%
X137333333Y-116952380D02*
X137000000Y-116476190D01*
X136761904Y-116952380D02*
X136761904Y-115952380D01*
X137142857Y-115952380D01*
X137238095Y-116000000D01*
X137285714Y-116047619D01*
X137333333Y-116142857D01*
X137333333Y-116285714D01*
X137285714Y-116380952D01*
X137238095Y-116428571D01*
X137142857Y-116476190D01*
X136761904Y-116476190D01*
X137809523Y-116952380D02*
X138000000Y-116952380D01*
X138095238Y-116904761D01*
X138142857Y-116857142D01*
X138238095Y-116714285D01*
X138285714Y-116523809D01*
X138285714Y-116142857D01*
X138238095Y-116047619D01*
X138190476Y-116000000D01*
X138095238Y-115952380D01*
X137904761Y-115952380D01*
X137809523Y-116000000D01*
X137761904Y-116047619D01*
X137714285Y-116142857D01*
X137714285Y-116380952D01*
X137761904Y-116476190D01*
X137809523Y-116523809D01*
X137904761Y-116571428D01*
X138095238Y-116571428D01*
X138190476Y-116523809D01*
X138238095Y-116476190D01*
X138285714Y-116380952D01*
%TO.C,C5*%
X133333333Y-131107142D02*
X133285714Y-131154761D01*
X133142857Y-131202380D01*
X133047619Y-131202380D01*
X132904761Y-131154761D01*
X132809523Y-131059523D01*
X132761904Y-130964285D01*
X132714285Y-130773809D01*
X132714285Y-130630952D01*
X132761904Y-130440476D01*
X132809523Y-130345238D01*
X132904761Y-130250000D01*
X133047619Y-130202380D01*
X133142857Y-130202380D01*
X133285714Y-130250000D01*
X133333333Y-130297619D01*
X134238095Y-130202380D02*
X133761904Y-130202380D01*
X133714285Y-130678571D01*
X133761904Y-130630952D01*
X133857142Y-130583333D01*
X134095238Y-130583333D01*
X134190476Y-130630952D01*
X134238095Y-130678571D01*
X134285714Y-130773809D01*
X134285714Y-131011904D01*
X134238095Y-131107142D01*
X134190476Y-131154761D01*
X134095238Y-131202380D01*
X133857142Y-131202380D01*
X133761904Y-131154761D01*
X133714285Y-131107142D01*
%TO.C,R3*%
X137333333Y-119952380D02*
X137000000Y-119476190D01*
X136761904Y-119952380D02*
X136761904Y-118952380D01*
X137142857Y-118952380D01*
X137238095Y-119000000D01*
X137285714Y-119047619D01*
X137333333Y-119142857D01*
X137333333Y-119285714D01*
X137285714Y-119380952D01*
X137238095Y-119428571D01*
X137142857Y-119476190D01*
X136761904Y-119476190D01*
X137666666Y-118952380D02*
X138285714Y-118952380D01*
X137952380Y-119333333D01*
X138095238Y-119333333D01*
X138190476Y-119380952D01*
X138238095Y-119428571D01*
X138285714Y-119523809D01*
X138285714Y-119761904D01*
X138238095Y-119857142D01*
X138190476Y-119904761D01*
X138095238Y-119952380D01*
X137809523Y-119952380D01*
X137714285Y-119904761D01*
X137666666Y-119857142D01*
%TO.C,R11*%
X126202380Y-97392857D02*
X125726190Y-97726190D01*
X126202380Y-97964285D02*
X125202380Y-97964285D01*
X125202380Y-97583333D01*
X125250000Y-97488095D01*
X125297619Y-97440476D01*
X125392857Y-97392857D01*
X125535714Y-97392857D01*
X125630952Y-97440476D01*
X125678571Y-97488095D01*
X125726190Y-97583333D01*
X125726190Y-97964285D01*
X126202380Y-96440476D02*
X126202380Y-97011904D01*
X126202380Y-96726190D02*
X125202380Y-96726190D01*
X125345238Y-96821428D01*
X125440476Y-96916666D01*
X125488095Y-97011904D01*
X126202380Y-95488095D02*
X126202380Y-96059523D01*
X126202380Y-95773809D02*
X125202380Y-95773809D01*
X125345238Y-95869047D01*
X125440476Y-95964285D01*
X125488095Y-96059523D01*
%TO.C,Q2*%
X142154761Y-117797619D02*
X142059523Y-117750000D01*
X141964285Y-117654761D01*
X141821428Y-117511904D01*
X141726190Y-117464285D01*
X141630952Y-117464285D01*
X141678571Y-117702380D02*
X141583333Y-117654761D01*
X141488095Y-117559523D01*
X141440476Y-117369047D01*
X141440476Y-117035714D01*
X141488095Y-116845238D01*
X141583333Y-116750000D01*
X141678571Y-116702380D01*
X141869047Y-116702380D01*
X141964285Y-116750000D01*
X142059523Y-116845238D01*
X142107142Y-117035714D01*
X142107142Y-117369047D01*
X142059523Y-117559523D01*
X141964285Y-117654761D01*
X141869047Y-117702380D01*
X141678571Y-117702380D01*
X142488095Y-116797619D02*
X142535714Y-116750000D01*
X142630952Y-116702380D01*
X142869047Y-116702380D01*
X142964285Y-116750000D01*
X143011904Y-116797619D01*
X143059523Y-116892857D01*
X143059523Y-116988095D01*
X143011904Y-117130952D01*
X142440476Y-117702380D01*
X143059523Y-117702380D01*
%TO.C,R1*%
X137333333Y-131452380D02*
X137000000Y-130976190D01*
X136761904Y-131452380D02*
X136761904Y-130452380D01*
X137142857Y-130452380D01*
X137238095Y-130500000D01*
X137285714Y-130547619D01*
X137333333Y-130642857D01*
X137333333Y-130785714D01*
X137285714Y-130880952D01*
X137238095Y-130928571D01*
X137142857Y-130976190D01*
X136761904Y-130976190D01*
X138285714Y-131452380D02*
X137714285Y-131452380D01*
X138000000Y-131452380D02*
X138000000Y-130452380D01*
X137904761Y-130595238D01*
X137809523Y-130690476D01*
X137714285Y-130738095D01*
%TO.C,F1*%
X130416666Y-88478571D02*
X130083333Y-88478571D01*
X130083333Y-89002380D02*
X130083333Y-88002380D01*
X130559523Y-88002380D01*
X131464285Y-89002380D02*
X130892857Y-89002380D01*
X131178571Y-89002380D02*
X131178571Y-88002380D01*
X131083333Y-88145238D01*
X130988095Y-88240476D01*
X130892857Y-88288095D01*
%TO.C,R8*%
X125952380Y-92666666D02*
X125476190Y-93000000D01*
X125952380Y-93238095D02*
X124952380Y-93238095D01*
X124952380Y-92857142D01*
X125000000Y-92761904D01*
X125047619Y-92714285D01*
X125142857Y-92666666D01*
X125285714Y-92666666D01*
X125380952Y-92714285D01*
X125428571Y-92761904D01*
X125476190Y-92857142D01*
X125476190Y-93238095D01*
X125380952Y-92095238D02*
X125333333Y-92190476D01*
X125285714Y-92238095D01*
X125190476Y-92285714D01*
X125142857Y-92285714D01*
X125047619Y-92238095D01*
X125000000Y-92190476D01*
X124952380Y-92095238D01*
X124952380Y-91904761D01*
X125000000Y-91809523D01*
X125047619Y-91761904D01*
X125142857Y-91714285D01*
X125190476Y-91714285D01*
X125285714Y-91761904D01*
X125333333Y-91809523D01*
X125380952Y-91904761D01*
X125380952Y-92095238D01*
X125428571Y-92190476D01*
X125476190Y-92238095D01*
X125571428Y-92285714D01*
X125761904Y-92285714D01*
X125857142Y-92238095D01*
X125904761Y-92190476D01*
X125952380Y-92095238D01*
X125952380Y-91904761D01*
X125904761Y-91809523D01*
X125857142Y-91761904D01*
X125761904Y-91714285D01*
X125571428Y-91714285D01*
X125476190Y-91761904D01*
X125428571Y-91809523D01*
X125380952Y-91904761D01*
%TO.C,Q1*%
X142154761Y-131047619D02*
X142059523Y-131000000D01*
X141964285Y-130904761D01*
X141821428Y-130761904D01*
X141726190Y-130714285D01*
X141630952Y-130714285D01*
X141678571Y-130952380D02*
X141583333Y-130904761D01*
X141488095Y-130809523D01*
X141440476Y-130619047D01*
X141440476Y-130285714D01*
X141488095Y-130095238D01*
X141583333Y-130000000D01*
X141678571Y-129952380D01*
X141869047Y-129952380D01*
X141964285Y-130000000D01*
X142059523Y-130095238D01*
X142107142Y-130285714D01*
X142107142Y-130619047D01*
X142059523Y-130809523D01*
X141964285Y-130904761D01*
X141869047Y-130952380D01*
X141678571Y-130952380D01*
X143059523Y-130952380D02*
X142488095Y-130952380D01*
X142773809Y-130952380D02*
X142773809Y-129952380D01*
X142678571Y-130095238D01*
X142583333Y-130190476D01*
X142488095Y-130238095D01*
%TO.C,U4*%
X145988095Y-97452380D02*
X145988095Y-98261904D01*
X146035714Y-98357142D01*
X146083333Y-98404761D01*
X146178571Y-98452380D01*
X146369047Y-98452380D01*
X146464285Y-98404761D01*
X146511904Y-98357142D01*
X146559523Y-98261904D01*
X146559523Y-97452380D01*
X147464285Y-97785714D02*
X147464285Y-98452380D01*
X147226190Y-97404761D02*
X146988095Y-98119047D01*
X147607142Y-98119047D01*
%TO.C,R10*%
X124702380Y-97392857D02*
X124226190Y-97726190D01*
X124702380Y-97964285D02*
X123702380Y-97964285D01*
X123702380Y-97583333D01*
X123750000Y-97488095D01*
X123797619Y-97440476D01*
X123892857Y-97392857D01*
X124035714Y-97392857D01*
X124130952Y-97440476D01*
X124178571Y-97488095D01*
X124226190Y-97583333D01*
X124226190Y-97964285D01*
X124702380Y-96440476D02*
X124702380Y-97011904D01*
X124702380Y-96726190D02*
X123702380Y-96726190D01*
X123845238Y-96821428D01*
X123940476Y-96916666D01*
X123988095Y-97011904D01*
X123702380Y-95821428D02*
X123702380Y-95726190D01*
X123750000Y-95630952D01*
X123797619Y-95583333D01*
X123892857Y-95535714D01*
X124083333Y-95488095D01*
X124321428Y-95488095D01*
X124511904Y-95535714D01*
X124607142Y-95583333D01*
X124654761Y-95630952D01*
X124702380Y-95726190D01*
X124702380Y-95821428D01*
X124654761Y-95916666D01*
X124607142Y-95964285D01*
X124511904Y-96011904D01*
X124321428Y-96059523D01*
X124083333Y-96059523D01*
X123892857Y-96011904D01*
X123797619Y-95964285D01*
X123750000Y-95916666D01*
X123702380Y-95821428D01*
%TO.C,C8*%
X130583333Y-96107142D02*
X130535714Y-96154761D01*
X130392857Y-96202380D01*
X130297619Y-96202380D01*
X130154761Y-96154761D01*
X130059523Y-96059523D01*
X130011904Y-95964285D01*
X129964285Y-95773809D01*
X129964285Y-95630952D01*
X130011904Y-95440476D01*
X130059523Y-95345238D01*
X130154761Y-95250000D01*
X130297619Y-95202380D01*
X130392857Y-95202380D01*
X130535714Y-95250000D01*
X130583333Y-95297619D01*
X131154761Y-95630952D02*
X131059523Y-95583333D01*
X131011904Y-95535714D01*
X130964285Y-95440476D01*
X130964285Y-95392857D01*
X131011904Y-95297619D01*
X131059523Y-95250000D01*
X131154761Y-95202380D01*
X131345238Y-95202380D01*
X131440476Y-95250000D01*
X131488095Y-95297619D01*
X131535714Y-95392857D01*
X131535714Y-95440476D01*
X131488095Y-95535714D01*
X131440476Y-95583333D01*
X131345238Y-95630952D01*
X131154761Y-95630952D01*
X131059523Y-95678571D01*
X131011904Y-95726190D01*
X130964285Y-95821428D01*
X130964285Y-96011904D01*
X131011904Y-96107142D01*
X131059523Y-96154761D01*
X131154761Y-96202380D01*
X131345238Y-96202380D01*
X131440476Y-96154761D01*
X131488095Y-96107142D01*
X131535714Y-96011904D01*
X131535714Y-95821428D01*
X131488095Y-95726190D01*
X131440476Y-95678571D01*
X131345238Y-95630952D01*
%TO.C,U2*%
X116738095Y-129952380D02*
X116738095Y-130761904D01*
X116785714Y-130857142D01*
X116833333Y-130904761D01*
X116928571Y-130952380D01*
X117119047Y-130952380D01*
X117214285Y-130904761D01*
X117261904Y-130857142D01*
X117309523Y-130761904D01*
X117309523Y-129952380D01*
X117738095Y-130047619D02*
X117785714Y-130000000D01*
X117880952Y-129952380D01*
X118119047Y-129952380D01*
X118214285Y-130000000D01*
X118261904Y-130047619D01*
X118309523Y-130142857D01*
X118309523Y-130238095D01*
X118261904Y-130380952D01*
X117690476Y-130952380D01*
X118309523Y-130952380D01*
X117202380Y-121285714D02*
X117202380Y-120619047D01*
X118202380Y-121047619D01*
X117535714Y-119809523D02*
X118202380Y-119809523D01*
X117154761Y-120047619D02*
X117869047Y-120285714D01*
X117869047Y-119666666D01*
X118202380Y-119285714D02*
X117202380Y-119285714D01*
X117678571Y-119285714D02*
X117678571Y-118714285D01*
X118202380Y-118714285D02*
X117202380Y-118714285D01*
X118107142Y-117666666D02*
X118154761Y-117714285D01*
X118202380Y-117857142D01*
X118202380Y-117952380D01*
X118154761Y-118095238D01*
X118059523Y-118190476D01*
X117964285Y-118238095D01*
X117773809Y-118285714D01*
X117630952Y-118285714D01*
X117440476Y-118238095D01*
X117345238Y-118190476D01*
X117250000Y-118095238D01*
X117202380Y-117952380D01*
X117202380Y-117857142D01*
X117250000Y-117714285D01*
X117297619Y-117666666D01*
X117202380Y-117047619D02*
X117202380Y-116952380D01*
X117250000Y-116857142D01*
X117297619Y-116809523D01*
X117392857Y-116761904D01*
X117583333Y-116714285D01*
X117821428Y-116714285D01*
X118011904Y-116761904D01*
X118107142Y-116809523D01*
X118154761Y-116857142D01*
X118202380Y-116952380D01*
X118202380Y-117047619D01*
X118154761Y-117142857D01*
X118107142Y-117190476D01*
X118011904Y-117238095D01*
X117821428Y-117285714D01*
X117583333Y-117285714D01*
X117392857Y-117238095D01*
X117297619Y-117190476D01*
X117250000Y-117142857D01*
X117202380Y-117047619D01*
X117297619Y-116333333D02*
X117250000Y-116285714D01*
X117202380Y-116190476D01*
X117202380Y-115952380D01*
X117250000Y-115857142D01*
X117297619Y-115809523D01*
X117392857Y-115761904D01*
X117488095Y-115761904D01*
X117630952Y-115809523D01*
X118202380Y-116380952D01*
X118202380Y-115761904D01*
%TO.C,G\u002A\u002A\u002A*%
G36*
X164406281Y-90480534D02*
G01*
X164449989Y-90483982D01*
X164483348Y-90489899D01*
X164508988Y-90498780D01*
X164529540Y-90511117D01*
X164547635Y-90527407D01*
X164565904Y-90548142D01*
X164568988Y-90551867D01*
X164597755Y-90601770D01*
X164613309Y-90661716D01*
X164615889Y-90726102D01*
X164605732Y-90789320D01*
X164583078Y-90845766D01*
X164554861Y-90883552D01*
X164534637Y-90901569D01*
X164512493Y-90915504D01*
X164485537Y-90925862D01*
X164450880Y-90933150D01*
X164405630Y-90937873D01*
X164346897Y-90940537D01*
X164271791Y-90941648D01*
X164222073Y-90941780D01*
X164006658Y-90941780D01*
X164006658Y-90482430D01*
X164186745Y-90480062D01*
X164277289Y-90479068D01*
X164349591Y-90479061D01*
X164406281Y-90480534D01*
G37*
G36*
X157620119Y-90484259D02*
G01*
X157691932Y-90485830D01*
X157746328Y-90487728D01*
X157786773Y-90490310D01*
X157816728Y-90493930D01*
X157839658Y-90498942D01*
X157859026Y-90505703D01*
X157868064Y-90509668D01*
X157934510Y-90548325D01*
X157984386Y-90596518D01*
X158019452Y-90656749D01*
X158041470Y-90731520D01*
X158046662Y-90763373D01*
X158049982Y-90800473D01*
X158052310Y-90852476D01*
X158053701Y-90915907D01*
X158054209Y-90987294D01*
X158053888Y-91063163D01*
X158052794Y-91140040D01*
X158050981Y-91214453D01*
X158048503Y-91282928D01*
X158045415Y-91341992D01*
X158041772Y-91388171D01*
X158037628Y-91417993D01*
X158036293Y-91423238D01*
X158005887Y-91486847D01*
X157958787Y-91542671D01*
X157898743Y-91587151D01*
X157833674Y-91615492D01*
X157804601Y-91621332D01*
X157760071Y-91626710D01*
X157705079Y-91631381D01*
X157644618Y-91635102D01*
X157583680Y-91637628D01*
X157527260Y-91638715D01*
X157480350Y-91638119D01*
X157447944Y-91635594D01*
X157442643Y-91634622D01*
X157419153Y-91629354D01*
X157419153Y-90480508D01*
X157620119Y-90484259D01*
G37*
G36*
X159384743Y-90480534D02*
G01*
X159428452Y-90483982D01*
X159461811Y-90489899D01*
X159487451Y-90498780D01*
X159508003Y-90511117D01*
X159526098Y-90527407D01*
X159544367Y-90548142D01*
X159547450Y-90551867D01*
X159576218Y-90601770D01*
X159591772Y-90661716D01*
X159594352Y-90726102D01*
X159584195Y-90789320D01*
X159561541Y-90845766D01*
X159533323Y-90883552D01*
X159513100Y-90901569D01*
X159490956Y-90915504D01*
X159464000Y-90925862D01*
X159429343Y-90933150D01*
X159384093Y-90937873D01*
X159325360Y-90940537D01*
X159250254Y-90941648D01*
X159200536Y-90941780D01*
X158985121Y-90941780D01*
X158985121Y-90482430D01*
X159165208Y-90480062D01*
X159255752Y-90479068D01*
X159328054Y-90479061D01*
X159384743Y-90480534D01*
G37*
G36*
X158859844Y-89208776D02*
G01*
X158598849Y-89208776D01*
X158598689Y-88626758D01*
X158598502Y-88513763D01*
X158598020Y-88409619D01*
X158597271Y-88315926D01*
X158596280Y-88234285D01*
X158595073Y-88166296D01*
X158593676Y-88113560D01*
X158592114Y-88077679D01*
X158590415Y-88060253D01*
X158589495Y-88059000D01*
X158584150Y-88071424D01*
X158572359Y-88101462D01*
X158554871Y-88147126D01*
X158532434Y-88206428D01*
X158505798Y-88277380D01*
X158475712Y-88357996D01*
X158442924Y-88446287D01*
X158409569Y-88536512D01*
X158238676Y-88999764D01*
X158127566Y-88999872D01*
X158077308Y-88999503D01*
X158044100Y-88997890D01*
X158024122Y-88994446D01*
X158013553Y-88988584D01*
X158009287Y-88981710D01*
X158004152Y-88968289D01*
X157992437Y-88937472D01*
X157974949Y-88891391D01*
X157952497Y-88832178D01*
X157925888Y-88761964D01*
X157895932Y-88682882D01*
X157863436Y-88597065D01*
X157846024Y-88551069D01*
X157812195Y-88461759D01*
X157780186Y-88377367D01*
X157750857Y-88300150D01*
X157725065Y-88232364D01*
X157703671Y-88176267D01*
X157687533Y-88134114D01*
X157677509Y-88108163D01*
X157675137Y-88102158D01*
X157671919Y-88096080D01*
X157669191Y-88095993D01*
X157666912Y-88103349D01*
X157665040Y-88119601D01*
X157663534Y-88146203D01*
X157662351Y-88184607D01*
X157661451Y-88236265D01*
X157660791Y-88302631D01*
X157660331Y-88385158D01*
X157660027Y-88485298D01*
X157659840Y-88604504D01*
X157659806Y-88637197D01*
X157659268Y-89208776D01*
X157398274Y-89208776D01*
X157398274Y-87517530D01*
X157718314Y-87517530D01*
X157922906Y-88078669D01*
X157960435Y-88181054D01*
X157995946Y-88276879D01*
X158028793Y-88364469D01*
X158058328Y-88442148D01*
X158083904Y-88508241D01*
X158104873Y-88561070D01*
X158120590Y-88598962D01*
X158130405Y-88620239D01*
X158133584Y-88624148D01*
X158138205Y-88611642D01*
X158149290Y-88581348D01*
X158166170Y-88535099D01*
X158188177Y-88474730D01*
X158214644Y-88402076D01*
X158244900Y-88318971D01*
X158278279Y-88227250D01*
X158314112Y-88128747D01*
X158337069Y-88065619D01*
X158534467Y-87522750D01*
X158697155Y-87519875D01*
X158859844Y-87517000D01*
X158859844Y-89208776D01*
G37*
G36*
X161913339Y-88176034D02*
G01*
X161915552Y-88098115D01*
X161918597Y-88029850D01*
X161922473Y-87974291D01*
X161927181Y-87934489D01*
X161930817Y-87918102D01*
X161967035Y-87826030D01*
X162012577Y-87748073D01*
X162070957Y-87678293D01*
X162075298Y-87673880D01*
X162154643Y-87606275D01*
X162241400Y-87556638D01*
X162337487Y-87524225D01*
X162444819Y-87508287D01*
X162505888Y-87506264D01*
X162588624Y-87509033D01*
X162658080Y-87518053D01*
X162721291Y-87534747D01*
X162785292Y-87560535D01*
X162793502Y-87564376D01*
X162880173Y-87616690D01*
X162956431Y-87685387D01*
X163019725Y-87767510D01*
X163067509Y-87860101D01*
X163081446Y-87898582D01*
X163095039Y-87954291D01*
X163105514Y-88027292D01*
X163112940Y-88118425D01*
X163117384Y-88228534D01*
X163118913Y-88358458D01*
X163118915Y-88363153D01*
X163118025Y-88479902D01*
X163115083Y-88578539D01*
X163109679Y-88661766D01*
X163101406Y-88732286D01*
X163089856Y-88792801D01*
X163074618Y-88846013D01*
X163055285Y-88894625D01*
X163031508Y-88941232D01*
X162971457Y-89027633D01*
X162897171Y-89099104D01*
X162809597Y-89155047D01*
X162709684Y-89194865D01*
X162598380Y-89217960D01*
X162591008Y-89218841D01*
X162549235Y-89223432D01*
X162515938Y-89226724D01*
X162496107Y-89228242D01*
X162492889Y-89228215D01*
X162480660Y-89226454D01*
X162453430Y-89223020D01*
X162416938Y-89218637D01*
X162414591Y-89218360D01*
X162306327Y-89195886D01*
X162208420Y-89155566D01*
X162121790Y-89098180D01*
X162047355Y-89024506D01*
X161986034Y-88935324D01*
X161938746Y-88831413D01*
X161930817Y-88808203D01*
X161925550Y-88780725D01*
X161921115Y-88735436D01*
X161917510Y-88675387D01*
X161914737Y-88603629D01*
X161912795Y-88523216D01*
X161911684Y-88437198D01*
X161911405Y-88348628D01*
X161911802Y-88285186D01*
X162191003Y-88285186D01*
X162191858Y-88394830D01*
X162191915Y-88399692D01*
X162193035Y-88489085D01*
X162194164Y-88560206D01*
X162195504Y-88615664D01*
X162197257Y-88658064D01*
X162199625Y-88690016D01*
X162202808Y-88714125D01*
X162207010Y-88732999D01*
X162212431Y-88749245D01*
X162219273Y-88765472D01*
X162220405Y-88768002D01*
X162251945Y-88819885D01*
X162295959Y-88868086D01*
X162346488Y-88907106D01*
X162397472Y-88931414D01*
X162455343Y-88943116D01*
X162519471Y-88946392D01*
X162580665Y-88941232D01*
X162619464Y-88931693D01*
X162690646Y-88897447D01*
X162746301Y-88849761D01*
X162787588Y-88787402D01*
X162810449Y-88728165D01*
X162815426Y-88707772D01*
X162819341Y-88682273D01*
X162822306Y-88649152D01*
X162824435Y-88605893D01*
X162825843Y-88549977D01*
X162826644Y-88478890D01*
X162826950Y-88390113D01*
X162826963Y-88363153D01*
X162826706Y-88263245D01*
X162825715Y-88181642D01*
X162823660Y-88115777D01*
X162820211Y-88063078D01*
X162815038Y-88020976D01*
X162807810Y-87986902D01*
X162798198Y-87958286D01*
X162785871Y-87932559D01*
X162770499Y-87907150D01*
X162767863Y-87903134D01*
X162721884Y-87851600D01*
X162663414Y-87813458D01*
X162596317Y-87789126D01*
X162524459Y-87779019D01*
X162451705Y-87783554D01*
X162381920Y-87803147D01*
X162318970Y-87838216D01*
X162300842Y-87852826D01*
X162272685Y-87879223D01*
X162249587Y-87905655D01*
X162231088Y-87934428D01*
X162216731Y-87967843D01*
X162206056Y-88008206D01*
X162198605Y-88057818D01*
X162193918Y-88118983D01*
X162191537Y-88194004D01*
X162191003Y-88285186D01*
X161911802Y-88285186D01*
X161911956Y-88260556D01*
X161913339Y-88176034D01*
G37*
G36*
X161772544Y-87788965D02*
G01*
X161302754Y-87788965D01*
X161302754Y-89208776D01*
X161031319Y-89208776D01*
X161031319Y-87788965D01*
X160561529Y-87788965D01*
X160561529Y-87517530D01*
X161772544Y-87517530D01*
X161772544Y-87788965D01*
G37*
G36*
X163858597Y-87517530D02*
G01*
X163971939Y-87517758D01*
X164066694Y-87518614D01*
X164145151Y-87520359D01*
X164209600Y-87523251D01*
X164262329Y-87527551D01*
X164305629Y-87533519D01*
X164341789Y-87541414D01*
X164373097Y-87551495D01*
X164401843Y-87564023D01*
X164430317Y-87579258D01*
X164437036Y-87583153D01*
X164503260Y-87633244D01*
X164560745Y-87699034D01*
X164606470Y-87776142D01*
X164637414Y-87860185D01*
X164642289Y-87880827D01*
X164650697Y-87942562D01*
X164653470Y-88014321D01*
X164650604Y-88086024D01*
X164642424Y-88146013D01*
X164614392Y-88233762D01*
X164569578Y-88314443D01*
X164510700Y-88384549D01*
X164440477Y-88440572D01*
X164394749Y-88465633D01*
X164334144Y-88493650D01*
X164530574Y-88847832D01*
X164574090Y-88926386D01*
X164614260Y-88999075D01*
X164649994Y-89063912D01*
X164680199Y-89118909D01*
X164703786Y-89162078D01*
X164719662Y-89191431D01*
X164726736Y-89204981D01*
X164727004Y-89205653D01*
X164717147Y-89206711D01*
X164689903Y-89207295D01*
X164648757Y-89207390D01*
X164597195Y-89206978D01*
X164559335Y-89206424D01*
X164391666Y-89203556D01*
X164206992Y-88856462D01*
X164022318Y-88509369D01*
X163889211Y-88509339D01*
X163756104Y-88509310D01*
X163756104Y-89208776D01*
X163474229Y-89208776D01*
X163474229Y-88248315D01*
X163756104Y-88248315D01*
X163971518Y-88248315D01*
X164060012Y-88247600D01*
X164132178Y-88245500D01*
X164186653Y-88242081D01*
X164222078Y-88237409D01*
X164229155Y-88235665D01*
X164279123Y-88212019D01*
X164317528Y-88173759D01*
X164345274Y-88119523D01*
X164363266Y-88047949D01*
X164366032Y-88029538D01*
X164365155Y-87971965D01*
X164349680Y-87913391D01*
X164322213Y-87863181D01*
X164318433Y-87858402D01*
X164299808Y-87836921D01*
X164281568Y-87819908D01*
X164261124Y-87806889D01*
X164235889Y-87797391D01*
X164203276Y-87790938D01*
X164160699Y-87787056D01*
X164105569Y-87785271D01*
X164035300Y-87785109D01*
X163947305Y-87786095D01*
X163925750Y-87786413D01*
X163756104Y-87788965D01*
X163756104Y-88248315D01*
X163474229Y-88248315D01*
X163474229Y-87517530D01*
X163858597Y-87517530D01*
G37*
G36*
X161294758Y-89635274D02*
G01*
X161548350Y-89635371D01*
X161800053Y-89635527D01*
X162048991Y-89635742D01*
X162294288Y-89636014D01*
X162535068Y-89636346D01*
X162770456Y-89636736D01*
X162999576Y-89637185D01*
X163221552Y-89637692D01*
X163435509Y-89638259D01*
X163640570Y-89638883D01*
X163835860Y-89639566D01*
X164020504Y-89640308D01*
X164193625Y-89641109D01*
X164354348Y-89641968D01*
X164501797Y-89642885D01*
X164635096Y-89643862D01*
X164753370Y-89644897D01*
X164855743Y-89645990D01*
X164941339Y-89647142D01*
X165009283Y-89648353D01*
X165058698Y-89649622D01*
X165088710Y-89650950D01*
X165097616Y-89651894D01*
X165185456Y-89682991D01*
X165265408Y-89731567D01*
X165334711Y-89794861D01*
X165390603Y-89870113D01*
X165430325Y-89954560D01*
X165442702Y-89996979D01*
X165445502Y-90019529D01*
X165448040Y-90061092D01*
X165450316Y-90119807D01*
X165452331Y-90193809D01*
X165454084Y-90281234D01*
X165455576Y-90380220D01*
X165456806Y-90488903D01*
X165457775Y-90605418D01*
X165458482Y-90727904D01*
X165458928Y-90854495D01*
X165459112Y-90983329D01*
X165459034Y-91112542D01*
X165458695Y-91240270D01*
X165458094Y-91364651D01*
X165457232Y-91483820D01*
X165456108Y-91595913D01*
X165454723Y-91699068D01*
X165453076Y-91791421D01*
X165451167Y-91871108D01*
X165448997Y-91936266D01*
X165446566Y-91985031D01*
X165443872Y-92015539D01*
X165442702Y-92022298D01*
X165411605Y-92110138D01*
X165363029Y-92190090D01*
X165299734Y-92259393D01*
X165224483Y-92315285D01*
X165140035Y-92355007D01*
X165097616Y-92367384D01*
X165081594Y-92368707D01*
X165045575Y-92369972D01*
X164990434Y-92371178D01*
X164917043Y-92372327D01*
X164826279Y-92373417D01*
X164719016Y-92374450D01*
X164596127Y-92375424D01*
X164458488Y-92376341D01*
X164306973Y-92377200D01*
X164142456Y-92378001D01*
X163965812Y-92378744D01*
X163777916Y-92379430D01*
X163579642Y-92380059D01*
X163371863Y-92380630D01*
X163155456Y-92381144D01*
X162931294Y-92381600D01*
X162700251Y-92381999D01*
X162463203Y-92382341D01*
X162221023Y-92382626D01*
X161974587Y-92382854D01*
X161724768Y-92383025D01*
X161472441Y-92383140D01*
X161218481Y-92383197D01*
X160963762Y-92383198D01*
X160709158Y-92383142D01*
X160455544Y-92383029D01*
X160203795Y-92382860D01*
X159954784Y-92382635D01*
X159709387Y-92382353D01*
X159468478Y-92382014D01*
X159232931Y-92381620D01*
X159003621Y-92381169D01*
X158781422Y-92380663D01*
X158567209Y-92380100D01*
X158361856Y-92379481D01*
X158166238Y-92378807D01*
X157981229Y-92378077D01*
X157807703Y-92377291D01*
X157646536Y-92376449D01*
X157498601Y-92375551D01*
X157364773Y-92374599D01*
X157245927Y-92373590D01*
X157142936Y-92372526D01*
X157056676Y-92371407D01*
X156988021Y-92370233D01*
X156937846Y-92369004D01*
X156907024Y-92367719D01*
X156897164Y-92366727D01*
X156811535Y-92335476D01*
X156733078Y-92286735D01*
X156664705Y-92223458D01*
X156609328Y-92148595D01*
X156569860Y-92065098D01*
X156557298Y-92022298D01*
X156554498Y-91999749D01*
X156551960Y-91958185D01*
X156549857Y-91903930D01*
X157137279Y-91903930D01*
X157276894Y-91902240D01*
X158703247Y-91902240D01*
X158985121Y-91902240D01*
X160237896Y-91902240D01*
X160519770Y-91902240D01*
X160519770Y-90210995D01*
X160237896Y-90210995D01*
X160237896Y-91902240D01*
X158985121Y-91902240D01*
X158985121Y-91202775D01*
X159118228Y-91202804D01*
X159251336Y-91202833D01*
X159620684Y-91897021D01*
X159788353Y-91899889D01*
X159844859Y-91900644D01*
X159893240Y-91900885D01*
X159930010Y-91900628D01*
X159951682Y-91899889D01*
X159956021Y-91899148D01*
X159951134Y-91889529D01*
X159937199Y-91863645D01*
X159915307Y-91823484D01*
X159886549Y-91771034D01*
X159852015Y-91708283D01*
X159812795Y-91637220D01*
X159769981Y-91559831D01*
X159759729Y-91541327D01*
X159563438Y-91187115D01*
X159623905Y-91159098D01*
X159699566Y-91112958D01*
X159765475Y-91050672D01*
X159818910Y-90975753D01*
X159857150Y-90891715D01*
X159871441Y-90839478D01*
X159879786Y-90777472D01*
X159882487Y-90705624D01*
X159879548Y-90634016D01*
X159871307Y-90574292D01*
X159844346Y-90489239D01*
X159801881Y-90410074D01*
X159746934Y-90341178D01*
X159682524Y-90286934D01*
X159666053Y-90276618D01*
X159637320Y-90260727D01*
X159608838Y-90247602D01*
X159578318Y-90236984D01*
X159543471Y-90228611D01*
X159502008Y-90222226D01*
X159451638Y-90217567D01*
X159390074Y-90214375D01*
X159315026Y-90212391D01*
X159224203Y-90211354D01*
X159115318Y-90211005D01*
X159087615Y-90210995D01*
X158703247Y-90210995D01*
X158703247Y-91902240D01*
X157276894Y-91902240D01*
X157489622Y-91899665D01*
X157589537Y-91898300D01*
X157670964Y-91896783D01*
X157736298Y-91894986D01*
X157787930Y-91892782D01*
X157828253Y-91890043D01*
X157859660Y-91886641D01*
X157884543Y-91882449D01*
X157904603Y-91877538D01*
X158012195Y-91839345D01*
X158102605Y-91790431D01*
X158177287Y-91729494D01*
X158237695Y-91655229D01*
X158285283Y-91566334D01*
X158303309Y-91520054D01*
X158332246Y-91437670D01*
X158335830Y-91099310D01*
X158336714Y-90991601D01*
X158336721Y-90902146D01*
X158335623Y-90828333D01*
X158333193Y-90767545D01*
X158329203Y-90717170D01*
X158323426Y-90674592D01*
X158315634Y-90637198D01*
X158305600Y-90602372D01*
X158293096Y-90567501D01*
X158288543Y-90555922D01*
X158244895Y-90468136D01*
X158189064Y-90394575D01*
X158119352Y-90333795D01*
X158034062Y-90284348D01*
X157931494Y-90244787D01*
X157918578Y-90240826D01*
X157896368Y-90234546D01*
X157874312Y-90229467D01*
X157849838Y-90225425D01*
X157820374Y-90222258D01*
X157783348Y-90219801D01*
X157736188Y-90217892D01*
X157676321Y-90216367D01*
X157601176Y-90215063D01*
X157508180Y-90213816D01*
X157489622Y-90213588D01*
X157230157Y-90210434D01*
X160730600Y-90210434D01*
X160795785Y-90411681D01*
X160810823Y-90457920D01*
X160831619Y-90521582D01*
X160857383Y-90600261D01*
X160887326Y-90691553D01*
X160920657Y-90793053D01*
X160956587Y-90902358D01*
X160994327Y-91017061D01*
X161033087Y-91134760D01*
X161072077Y-91253049D01*
X161073676Y-91257895D01*
X161286381Y-91902864D01*
X161312003Y-91902240D01*
X162304973Y-91902240D01*
X163411591Y-91902240D01*
X163724784Y-91902240D01*
X164006658Y-91902240D01*
X164006658Y-91202775D01*
X164139766Y-91202804D01*
X164272873Y-91202833D01*
X164642221Y-91897021D01*
X164809890Y-91899889D01*
X164866396Y-91900644D01*
X164914778Y-91900885D01*
X164951547Y-91900628D01*
X164973219Y-91899889D01*
X164977559Y-91899148D01*
X164972671Y-91889529D01*
X164958736Y-91863645D01*
X164936844Y-91823484D01*
X164908086Y-91771034D01*
X164873552Y-91708283D01*
X164834333Y-91637220D01*
X164791519Y-91559831D01*
X164781267Y-91541327D01*
X164584975Y-91187115D01*
X164645442Y-91159098D01*
X164721103Y-91112958D01*
X164787012Y-91050672D01*
X164840447Y-90975753D01*
X164878687Y-90891715D01*
X164892978Y-90839478D01*
X164901324Y-90777472D01*
X164904024Y-90705624D01*
X164901085Y-90634016D01*
X164892844Y-90574292D01*
X164865883Y-90489239D01*
X164823419Y-90410074D01*
X164768471Y-90341178D01*
X164704061Y-90286934D01*
X164687591Y-90276618D01*
X164658857Y-90260727D01*
X164630375Y-90247602D01*
X164599855Y-90236984D01*
X164565008Y-90228611D01*
X164523545Y-90222226D01*
X164473176Y-90217567D01*
X164411611Y-90214375D01*
X164336563Y-90212391D01*
X164245741Y-90211354D01*
X164136855Y-90211005D01*
X164109152Y-90210995D01*
X163724784Y-90210995D01*
X163724784Y-91902240D01*
X163411591Y-91902240D01*
X163411591Y-91630806D01*
X162586847Y-91630806D01*
X162586847Y-91192335D01*
X163286313Y-91192335D01*
X163286313Y-90931340D01*
X162586847Y-90931340D01*
X162586847Y-90482430D01*
X163411591Y-90482430D01*
X163411591Y-90210995D01*
X162304973Y-90210995D01*
X162304973Y-91902240D01*
X161312003Y-91902240D01*
X161406362Y-91899942D01*
X161526343Y-91897021D01*
X161804756Y-91054008D01*
X162083168Y-90210995D01*
X161788031Y-90210995D01*
X161606577Y-90793013D01*
X161573309Y-90899630D01*
X161541677Y-91000822D01*
X161512265Y-91094737D01*
X161485656Y-91179522D01*
X161462433Y-91253325D01*
X161443177Y-91314294D01*
X161428472Y-91360575D01*
X161418902Y-91390316D01*
X161415267Y-91401131D01*
X161412381Y-91403986D01*
X161407873Y-91399919D01*
X161401300Y-91387642D01*
X161392217Y-91365869D01*
X161380180Y-91333311D01*
X161364747Y-91288683D01*
X161345473Y-91230695D01*
X161321915Y-91158062D01*
X161293629Y-91069496D01*
X161260171Y-90963710D01*
X161221097Y-90839415D01*
X161215548Y-90821723D01*
X161025684Y-90216215D01*
X160878142Y-90213325D01*
X160730600Y-90210434D01*
X157230157Y-90210434D01*
X157137279Y-90209305D01*
X157137279Y-91903930D01*
X156549857Y-91903930D01*
X156549684Y-91899471D01*
X156547669Y-91825469D01*
X156545915Y-91738043D01*
X156544424Y-91639057D01*
X156543193Y-91530375D01*
X156542225Y-91413859D01*
X156541518Y-91291374D01*
X156541072Y-91164783D01*
X156540888Y-91035949D01*
X156540966Y-90906736D01*
X156541305Y-90779007D01*
X156541906Y-90654627D01*
X156542768Y-90535458D01*
X156543892Y-90423364D01*
X156545277Y-90320209D01*
X156546924Y-90227856D01*
X156547368Y-90209305D01*
X156548833Y-90148169D01*
X156551003Y-90083012D01*
X156553434Y-90034247D01*
X156556128Y-90003738D01*
X156557298Y-89996979D01*
X156588395Y-89909140D01*
X156636971Y-89829188D01*
X156700266Y-89759885D01*
X156775517Y-89703992D01*
X156859965Y-89664271D01*
X156902384Y-89651894D01*
X156918601Y-89650525D01*
X156954821Y-89649216D01*
X157010170Y-89647965D01*
X157083771Y-89646773D01*
X157174748Y-89645639D01*
X157282226Y-89644564D01*
X157405330Y-89643548D01*
X157543183Y-89642590D01*
X157694909Y-89641691D01*
X157859634Y-89640850D01*
X158036480Y-89640068D01*
X158224573Y-89639345D01*
X158423037Y-89638680D01*
X158630996Y-89638074D01*
X158847574Y-89637526D01*
X159071896Y-89637037D01*
X159303086Y-89636607D01*
X159540268Y-89636235D01*
X159782566Y-89635922D01*
X160029105Y-89635668D01*
X160279008Y-89635472D01*
X160531401Y-89635334D01*
X160785407Y-89635256D01*
X161040152Y-89635236D01*
X161294758Y-89635274D01*
G37*
G36*
X159230314Y-88176034D02*
G01*
X159232527Y-88098115D01*
X159235572Y-88029850D01*
X159239448Y-87974291D01*
X159244156Y-87934489D01*
X159247792Y-87918102D01*
X159284010Y-87826030D01*
X159329552Y-87748073D01*
X159387932Y-87678293D01*
X159392273Y-87673880D01*
X159471618Y-87606275D01*
X159558375Y-87556638D01*
X159654461Y-87524225D01*
X159761794Y-87508287D01*
X159822863Y-87506264D01*
X159905598Y-87509033D01*
X159975055Y-87518053D01*
X160038266Y-87534747D01*
X160102266Y-87560535D01*
X160110477Y-87564376D01*
X160197148Y-87616690D01*
X160273405Y-87685387D01*
X160336700Y-87767510D01*
X160384484Y-87860101D01*
X160398421Y-87898582D01*
X160412014Y-87954291D01*
X160422489Y-88027292D01*
X160429915Y-88118425D01*
X160434359Y-88228534D01*
X160435888Y-88358458D01*
X160435890Y-88363153D01*
X160435000Y-88479902D01*
X160432057Y-88578539D01*
X160426654Y-88661766D01*
X160418381Y-88732286D01*
X160406830Y-88792801D01*
X160391593Y-88846013D01*
X160372260Y-88894625D01*
X160348483Y-88941232D01*
X160288432Y-89027633D01*
X160214146Y-89099104D01*
X160126572Y-89155047D01*
X160026659Y-89194865D01*
X159915355Y-89217960D01*
X159907983Y-89218841D01*
X159866210Y-89223432D01*
X159832913Y-89226724D01*
X159813082Y-89228242D01*
X159809864Y-89228215D01*
X159797635Y-89226454D01*
X159770405Y-89223020D01*
X159733913Y-89218637D01*
X159731566Y-89218360D01*
X159623302Y-89195886D01*
X159525395Y-89155566D01*
X159438765Y-89098180D01*
X159364330Y-89024506D01*
X159303009Y-88935324D01*
X159255721Y-88831413D01*
X159247792Y-88808203D01*
X159242525Y-88780725D01*
X159238090Y-88735436D01*
X159234485Y-88675387D01*
X159231712Y-88603629D01*
X159229770Y-88523216D01*
X159228659Y-88437198D01*
X159228380Y-88348628D01*
X159228777Y-88285186D01*
X159507978Y-88285186D01*
X159508833Y-88394830D01*
X159508890Y-88399692D01*
X159510010Y-88489085D01*
X159511139Y-88560206D01*
X159512479Y-88615664D01*
X159514232Y-88658064D01*
X159516600Y-88690016D01*
X159519783Y-88714125D01*
X159523985Y-88732999D01*
X159529406Y-88749245D01*
X159536248Y-88765472D01*
X159537380Y-88768002D01*
X159568920Y-88819885D01*
X159612934Y-88868086D01*
X159663463Y-88907106D01*
X159714447Y-88931414D01*
X159772318Y-88943116D01*
X159836446Y-88946392D01*
X159897640Y-88941232D01*
X159936439Y-88931693D01*
X160007620Y-88897447D01*
X160063276Y-88849761D01*
X160104563Y-88787402D01*
X160127424Y-88728165D01*
X160132401Y-88707772D01*
X160136316Y-88682273D01*
X160139281Y-88649152D01*
X160141410Y-88605893D01*
X160142818Y-88549977D01*
X160143618Y-88478890D01*
X160143925Y-88390113D01*
X160143937Y-88363153D01*
X160143681Y-88263245D01*
X160142690Y-88181642D01*
X160140635Y-88115777D01*
X160137186Y-88063078D01*
X160132013Y-88020976D01*
X160124785Y-87986902D01*
X160115173Y-87958286D01*
X160102846Y-87932559D01*
X160087474Y-87907150D01*
X160084837Y-87903134D01*
X160038859Y-87851600D01*
X159980389Y-87813458D01*
X159913292Y-87789126D01*
X159841434Y-87779019D01*
X159768680Y-87783554D01*
X159698895Y-87803147D01*
X159635945Y-87838216D01*
X159617817Y-87852826D01*
X159589660Y-87879223D01*
X159566562Y-87905655D01*
X159548063Y-87934428D01*
X159533706Y-87967843D01*
X159523031Y-88008206D01*
X159515580Y-88057818D01*
X159510893Y-88118983D01*
X159508512Y-88194004D01*
X159507978Y-88285186D01*
X159228777Y-88285186D01*
X159228931Y-88260556D01*
X159230314Y-88176034D01*
G37*
D13*
%TO.C,U1*%
X133550000Y-100030000D02*
X133280000Y-100030000D01*
X133280000Y-100030000D02*
X133280000Y-97200000D01*
X126920000Y-100030000D02*
X126920000Y-98930000D01*
X126650000Y-100030000D02*
X126920000Y-100030000D01*
X126650000Y-101530000D02*
X126650000Y-100030000D01*
X133550000Y-101530000D02*
X133550000Y-100030000D01*
%TO.C,J2*%
X117975000Y-97550000D02*
X117975000Y-93250000D01*
X112475000Y-98600000D02*
X113725000Y-98600000D01*
X112775000Y-96500000D02*
X112775000Y-98300000D01*
X115025000Y-98300000D02*
X115025000Y-97550000D01*
X113525000Y-95000000D02*
X113525000Y-91500000D01*
X115025000Y-88200000D02*
X115025000Y-88950000D01*
X113525000Y-88200000D02*
X112775000Y-88200000D01*
X112775000Y-95000000D02*
X113525000Y-95000000D01*
X117975000Y-88950000D02*
X117975000Y-93250000D01*
X115025000Y-88950000D02*
X117975000Y-88950000D01*
X113525000Y-90000000D02*
X113525000Y-88200000D01*
X112775000Y-90000000D02*
X113525000Y-90000000D01*
X115025000Y-97550000D02*
X117975000Y-97550000D01*
X118735000Y-88190000D02*
X112765000Y-88190000D01*
X113525000Y-96500000D02*
X112775000Y-96500000D01*
X112765000Y-88190000D02*
X112765000Y-98310000D01*
X112775000Y-91500000D02*
X112775000Y-95000000D01*
X118735000Y-98310000D02*
X118735000Y-88190000D01*
X112475000Y-97350000D02*
X112475000Y-98600000D01*
X113525000Y-98300000D02*
X113525000Y-96500000D01*
X112775000Y-88200000D02*
X112775000Y-90000000D01*
X113525000Y-91500000D02*
X112775000Y-91500000D01*
X112775000Y-98300000D02*
X113525000Y-98300000D01*
X112765000Y-98310000D02*
X118735000Y-98310000D01*
%TO.C,C1*%
X124703000Y-113186677D02*
X128259000Y-113186677D01*
X130741000Y-112186677D02*
X133823000Y-112186677D01*
X130741000Y-111506677D02*
X133324000Y-111506677D01*
X130741000Y-111666677D02*
X133457000Y-111666677D01*
X127291000Y-110266677D02*
X131709000Y-110266677D01*
X126670000Y-110626677D02*
X132330000Y-110626677D01*
X125017000Y-112466677D02*
X128259000Y-112466677D01*
X126555000Y-110706677D02*
X132445000Y-110706677D01*
X124732000Y-113106677D02*
X128259000Y-113106677D01*
X125177000Y-112186677D02*
X128259000Y-112186677D01*
X124861000Y-112786677D02*
X128259000Y-112786677D01*
X127870000Y-110026677D02*
X131130000Y-110026677D01*
X130741000Y-112066677D02*
X133747000Y-112066677D01*
X130741000Y-111906677D02*
X133638000Y-111906677D01*
X124526000Y-113826677D02*
X134474000Y-113826677D01*
X130741000Y-113346677D02*
X134350000Y-113346677D01*
X125939000Y-111226677D02*
X128259000Y-111226677D01*
X130741000Y-112946677D02*
X134207000Y-112946677D01*
X126125000Y-119847323D02*
X127125000Y-119847323D01*
X130741000Y-112346677D02*
X133917000Y-112346677D01*
X125747000Y-111426677D02*
X128259000Y-111426677D01*
X124470000Y-114146677D02*
X134530000Y-114146677D01*
X124638000Y-113386677D02*
X128259000Y-113386677D01*
X130741000Y-111746677D02*
X133520000Y-111746677D01*
X130741000Y-112786677D02*
X134139000Y-112786677D01*
X125860000Y-111306677D02*
X128259000Y-111306677D01*
X124503000Y-113946677D02*
X134497000Y-113946677D01*
X124489000Y-114026677D02*
X134511000Y-114026677D01*
X125202000Y-112146677D02*
X128259000Y-112146677D01*
X125543000Y-111666677D02*
X128259000Y-111666677D01*
X124777000Y-112986677D02*
X128259000Y-112986677D01*
X125038000Y-112426677D02*
X128259000Y-112426677D01*
X125153000Y-112226677D02*
X128259000Y-112226677D01*
X130741000Y-113226677D02*
X134311000Y-113226677D01*
X124442000Y-114387677D02*
X134558000Y-114387677D01*
X130741000Y-112586677D02*
X134045000Y-112586677D01*
X124496000Y-113986677D02*
X134504000Y-113986677D01*
X124615000Y-113466677D02*
X128259000Y-113466677D01*
X126625000Y-120347323D02*
X126625000Y-119347323D01*
X130741000Y-112026677D02*
X133721000Y-112026677D01*
X128270000Y-109906677D02*
X130730000Y-109906677D01*
X126064000Y-111106677D02*
X132936000Y-111106677D01*
X126730000Y-110586677D02*
X132270000Y-110586677D01*
X130741000Y-112986677D02*
X134223000Y-112986677D01*
X130741000Y-113306677D02*
X134337000Y-113306677D01*
X130741000Y-113426677D02*
X134374000Y-113426677D01*
X124996000Y-112506677D02*
X128259000Y-112506677D01*
X125450000Y-111786677D02*
X128259000Y-111786677D01*
X130741000Y-112466677D02*
X133983000Y-112466677D01*
X124553000Y-113706677D02*
X134447000Y-113706677D01*
X130741000Y-112706677D02*
X134103000Y-112706677D01*
X124425000Y-114627677D02*
X134575000Y-114627677D01*
X124450000Y-114307677D02*
X134550000Y-114307677D01*
X124810000Y-112906677D02*
X128259000Y-112906677D01*
X126990000Y-110426677D02*
X132010000Y-110426677D01*
X124955000Y-112586677D02*
X128259000Y-112586677D01*
X124421000Y-114747677D02*
X134579000Y-114747677D01*
X124535000Y-113786677D02*
X134465000Y-113786677D01*
X130741000Y-111386677D02*
X133216000Y-111386677D01*
X124438000Y-114427677D02*
X134562000Y-114427677D01*
X130741000Y-112666677D02*
X134084000Y-112666677D01*
X130741000Y-112146677D02*
X133798000Y-112146677D01*
X130741000Y-111266677D02*
X133101000Y-111266677D01*
X126022000Y-111146677D02*
X128259000Y-111146677D01*
X130741000Y-111466677D02*
X133289000Y-111466677D01*
X130741000Y-111586677D02*
X133392000Y-111586677D01*
X125676000Y-111506677D02*
X128259000Y-111506677D01*
X124430000Y-114547677D02*
X134570000Y-114547677D01*
X125253000Y-112066677D02*
X128259000Y-112066677D01*
X124793000Y-112946677D02*
X128259000Y-112946677D01*
X126199000Y-110986677D02*
X132801000Y-110986677D01*
X126294000Y-110906677D02*
X132706000Y-110906677D01*
X130741000Y-112386677D02*
X133940000Y-112386677D01*
X125279000Y-112026677D02*
X128259000Y-112026677D01*
X126500000Y-110746677D02*
X132500000Y-110746677D01*
X130741000Y-111946677D02*
X133666000Y-111946677D01*
X125784000Y-111386677D02*
X128259000Y-111386677D01*
X130741000Y-111426677D02*
X133253000Y-111426677D01*
X130741000Y-111546677D02*
X133358000Y-111546677D01*
X130741000Y-112746677D02*
X134121000Y-112746677D01*
X124518000Y-113866677D02*
X134482000Y-113866677D01*
X124427000Y-114587677D02*
X134573000Y-114587677D01*
X130741000Y-112626677D02*
X134064000Y-112626677D01*
X130741000Y-113506677D02*
X134397000Y-113506677D01*
X130741000Y-113386677D02*
X134362000Y-113386677D01*
X125129000Y-112266677D02*
X128259000Y-112266677D01*
X130741000Y-112306677D02*
X133895000Y-112306677D01*
X130741000Y-113546677D02*
X134407000Y-113546677D01*
X130741000Y-111626677D02*
X133425000Y-111626677D01*
X125306000Y-111986677D02*
X128259000Y-111986677D01*
X126611000Y-110666677D02*
X132389000Y-110666677D01*
X124746000Y-113066677D02*
X128259000Y-113066677D01*
X130741000Y-113266677D02*
X134324000Y-113266677D01*
X130741000Y-111786677D02*
X133550000Y-111786677D01*
X130741000Y-112266677D02*
X133871000Y-112266677D01*
X130741000Y-113146677D02*
X134283000Y-113146677D01*
X130741000Y-111346677D02*
X133179000Y-111346677D01*
X124510000Y-113906677D02*
X134490000Y-113906677D01*
X124562000Y-113666677D02*
X134438000Y-113666677D01*
X130741000Y-111146677D02*
X132978000Y-111146677D01*
X126446000Y-110786677D02*
X132554000Y-110786677D01*
X126921000Y-110466677D02*
X132079000Y-110466677D01*
X125480000Y-111746677D02*
X128259000Y-111746677D01*
X124897000Y-112706677D02*
X128259000Y-112706677D01*
X125060000Y-112386677D02*
X128259000Y-112386677D01*
X124582000Y-113586677D02*
X128259000Y-113586677D01*
X127061000Y-110386677D02*
X131939000Y-110386677D01*
X124476000Y-114106677D02*
X134524000Y-114106677D01*
X125899000Y-111266677D02*
X128259000Y-111266677D01*
X127375000Y-110226677D02*
X131625000Y-110226677D01*
X124603000Y-113506677D02*
X128259000Y-113506677D01*
X127211000Y-110306677D02*
X131789000Y-110306677D01*
X125821000Y-111346677D02*
X128259000Y-111346677D01*
X124936000Y-112626677D02*
X128259000Y-112626677D01*
X125390000Y-111866677D02*
X128259000Y-111866677D01*
X128638000Y-109826677D02*
X130362000Y-109826677D01*
X125420000Y-111826677D02*
X128259000Y-111826677D01*
X130741000Y-112106677D02*
X133773000Y-112106677D01*
X124460000Y-114227677D02*
X134540000Y-114227677D01*
X128122000Y-109946677D02*
X130878000Y-109946677D01*
X124482000Y-114066677D02*
X134518000Y-114066677D01*
X124420000Y-114827677D02*
X134580000Y-114827677D01*
X125711000Y-111466677D02*
X128259000Y-111466677D01*
X124435000Y-114467677D02*
X134565000Y-114467677D01*
X124422000Y-114707677D02*
X134578000Y-114707677D01*
X130741000Y-111706677D02*
X133489000Y-111706677D01*
X124572000Y-113626677D02*
X134428000Y-113626677D01*
X125511000Y-111706677D02*
X128259000Y-111706677D01*
X124826000Y-112866677D02*
X128259000Y-112866677D01*
X130741000Y-111186677D02*
X133020000Y-111186677D01*
X130741000Y-113186677D02*
X134297000Y-113186677D01*
X127654000Y-110106677D02*
X131346000Y-110106677D01*
X126108000Y-111066677D02*
X132892000Y-111066677D01*
X125105000Y-112306677D02*
X128259000Y-112306677D01*
X128901000Y-109786677D02*
X130099000Y-109786677D01*
X124689000Y-113226677D02*
X128259000Y-113226677D01*
X125980000Y-111186677D02*
X128259000Y-111186677D01*
X125642000Y-111546677D02*
X128259000Y-111546677D01*
X130741000Y-111986677D02*
X133694000Y-111986677D01*
X124420000Y-114787677D02*
X134580000Y-114787677D01*
X130741000Y-112426677D02*
X133962000Y-112426677D01*
X128438000Y-109866677D02*
X130562000Y-109866677D01*
X130741000Y-112866677D02*
X134174000Y-112866677D01*
X130741000Y-111866677D02*
X133610000Y-111866677D01*
X127556000Y-110146677D02*
X131444000Y-110146677D01*
X125083000Y-112346677D02*
X128259000Y-112346677D01*
X126791000Y-110546677D02*
X132209000Y-110546677D01*
X124544000Y-113746677D02*
X134456000Y-113746677D01*
X125362000Y-111906677D02*
X128259000Y-111906677D01*
X124593000Y-113546677D02*
X128259000Y-113546677D01*
X126855000Y-110506677D02*
X132145000Y-110506677D01*
X124432000Y-114507677D02*
X134568000Y-114507677D01*
X124663000Y-113306677D02*
X128259000Y-113306677D01*
X124762000Y-113026677D02*
X128259000Y-113026677D01*
X124879000Y-112746677D02*
X128259000Y-112746677D01*
X130741000Y-113106677D02*
X134268000Y-113106677D01*
X124423000Y-114667677D02*
X134577000Y-114667677D01*
X124717000Y-113146677D02*
X128259000Y-113146677D01*
X130741000Y-112506677D02*
X134004000Y-112506677D01*
X130741000Y-113066677D02*
X134254000Y-113066677D01*
X126246000Y-110946677D02*
X132754000Y-110946677D01*
X126344000Y-110866677D02*
X132656000Y-110866677D01*
X124975000Y-112546677D02*
X128259000Y-112546677D01*
X124446000Y-114347677D02*
X134554000Y-114347677D01*
X125575000Y-111626677D02*
X128259000Y-111626677D01*
X125334000Y-111946677D02*
X128259000Y-111946677D01*
X126153000Y-111026677D02*
X132847000Y-111026677D01*
X127758000Y-110066677D02*
X131242000Y-110066677D01*
X124916000Y-112666677D02*
X128259000Y-112666677D01*
X125608000Y-111586677D02*
X128259000Y-111586677D01*
X130741000Y-113026677D02*
X134238000Y-113026677D01*
X127990000Y-109986677D02*
X131010000Y-109986677D01*
X124420000Y-114867677D02*
X134580000Y-114867677D01*
X130741000Y-112226677D02*
X133847000Y-112226677D01*
X130741000Y-113466677D02*
X134385000Y-113466677D01*
X130741000Y-112826677D02*
X134157000Y-112826677D01*
X130741000Y-111226677D02*
X133061000Y-111226677D01*
X130741000Y-111826677D02*
X133580000Y-111826677D01*
X124843000Y-112826677D02*
X128259000Y-112826677D01*
X127463000Y-110186677D02*
X131537000Y-110186677D01*
X124455000Y-114267677D02*
X134545000Y-114267677D01*
X124676000Y-113266677D02*
X128259000Y-113266677D01*
X124650000Y-113346677D02*
X128259000Y-113346677D01*
X130741000Y-112546677D02*
X134025000Y-112546677D01*
X127135000Y-110346677D02*
X131865000Y-110346677D01*
X130741000Y-112906677D02*
X134190000Y-112906677D01*
X126394000Y-110826677D02*
X132606000Y-110826677D01*
X130741000Y-111306677D02*
X133140000Y-111306677D01*
X130741000Y-113586677D02*
X134418000Y-113586677D01*
X124626000Y-113426677D02*
X128259000Y-113426677D01*
X124465000Y-114187677D02*
X134535000Y-114187677D01*
X125227000Y-112106677D02*
X128259000Y-112106677D01*
X134620000Y-114867677D02*
G75*
G03*
X134620000Y-114867677I-5120000J0D01*
G01*
%TO.C,R7*%
X137297936Y-108265000D02*
X137752064Y-108265000D01*
X137297936Y-109735000D02*
X137752064Y-109735000D01*
%TO.C,C3*%
X137288748Y-97115000D02*
X137811252Y-97115000D01*
X137288748Y-98585000D02*
X137811252Y-98585000D01*
%TO.C,U3*%
X123035000Y-110085000D02*
X123035000Y-99685000D01*
X120035000Y-110025000D02*
X120035000Y-99745000D01*
X123035000Y-99685000D02*
X112535000Y-99685000D01*
X115535000Y-99745000D02*
X115535000Y-110025000D01*
X120035000Y-99745000D02*
X118785000Y-99745000D01*
X112535000Y-110085000D02*
X123035000Y-110085000D01*
X115535000Y-110025000D02*
X120035000Y-110025000D01*
X116785000Y-99745000D02*
X115535000Y-99745000D01*
X112535000Y-99685000D02*
X112535000Y-110085000D01*
X116785000Y-99745000D02*
G75*
G03*
X118785000Y-99745000I1000000J0D01*
G01*
%TO.C,R15*%
X158960436Y-126715000D02*
X159414564Y-126715000D01*
X158960436Y-128185000D02*
X159414564Y-128185000D01*
%TO.C,R6*%
X137297936Y-110265000D02*
X137752064Y-110265000D01*
X137297936Y-111735000D02*
X137752064Y-111735000D01*
%TO.C,R2*%
X137297936Y-123515000D02*
X137752064Y-123515000D01*
X137297936Y-124985000D02*
X137752064Y-124985000D01*
%TO.C,R5*%
X137297936Y-113735000D02*
X137752064Y-113735000D01*
X137297936Y-112265000D02*
X137752064Y-112265000D01*
%TO.C,C2*%
X155555000Y-103128349D02*
X152790000Y-103128349D01*
X155267000Y-103728349D02*
X152790000Y-103728349D01*
X155811000Y-102047349D02*
X147689000Y-102047349D01*
X154534000Y-104648349D02*
X148966000Y-104648349D01*
X153714000Y-105248349D02*
X149786000Y-105248349D01*
X150710000Y-102648349D02*
X147793000Y-102648349D01*
X155571000Y-103088349D02*
X152790000Y-103088349D01*
X155243000Y-103768349D02*
X152790000Y-103768349D01*
X153203000Y-105488349D02*
X150297000Y-105488349D01*
X155585000Y-103048349D02*
X152790000Y-103048349D01*
X150710000Y-104048349D02*
X148441000Y-104048349D01*
X150710000Y-103008349D02*
X147900000Y-103008349D01*
X155824000Y-101887349D02*
X147676000Y-101887349D01*
X150710000Y-103928349D02*
X148358000Y-103928349D01*
X155168000Y-103888349D02*
X152790000Y-103888349D01*
X150710000Y-104088349D02*
X148470000Y-104088349D01*
X155792000Y-102207349D02*
X147708000Y-102207349D01*
X154840000Y-104328349D02*
X152790000Y-104328349D01*
X155416000Y-103448349D02*
X152790000Y-103448349D01*
X154657000Y-104528349D02*
X152790000Y-104528349D01*
X155830000Y-101647349D02*
X147670000Y-101647349D01*
X150710000Y-104128349D02*
X148500000Y-104128349D01*
X150710000Y-102568349D02*
X147774000Y-102568349D01*
X153640000Y-105288349D02*
X149860000Y-105288349D01*
X150710000Y-102888349D02*
X147861000Y-102888349D01*
X150710000Y-103808349D02*
X148281000Y-103808349D01*
X155030000Y-104088349D02*
X152790000Y-104088349D01*
X150710000Y-103208349D02*
X147976000Y-103208349D01*
X154065000Y-97237651D02*
X154065000Y-98037651D01*
X155664000Y-102808349D02*
X152790000Y-102808349D01*
X154306000Y-104848349D02*
X149194000Y-104848349D01*
X155397000Y-103488349D02*
X152790000Y-103488349D01*
X150710000Y-103688349D02*
X148210000Y-103688349D01*
X153096000Y-105528349D02*
X150404000Y-105528349D01*
X150710000Y-104528349D02*
X148843000Y-104528349D01*
X154354000Y-104808349D02*
X149146000Y-104808349D01*
X155829000Y-101767349D02*
X147671000Y-101767349D01*
X150710000Y-104248349D02*
X148594000Y-104248349D01*
X150710000Y-103368349D02*
X148046000Y-103368349D01*
X155744000Y-102488349D02*
X147756000Y-102488349D01*
X150710000Y-103048349D02*
X147915000Y-103048349D01*
X150710000Y-103648349D02*
X148188000Y-103648349D01*
X155826000Y-101847349D02*
X147674000Y-101847349D01*
X150710000Y-104488349D02*
X148805000Y-104488349D01*
X154037000Y-105048349D02*
X149463000Y-105048349D01*
X153302000Y-105448349D02*
X150198000Y-105448349D01*
X155767000Y-102368349D02*
X147733000Y-102368349D01*
X150710000Y-103528349D02*
X148123000Y-103528349D01*
X150710000Y-103128349D02*
X147945000Y-103128349D01*
X154617000Y-104568349D02*
X152790000Y-104568349D01*
X150710000Y-104328349D02*
X148660000Y-104328349D01*
X155219000Y-103808349D02*
X152790000Y-103808349D01*
X150710000Y-102848349D02*
X147848000Y-102848349D01*
X152283000Y-105728349D02*
X151217000Y-105728349D01*
X154255000Y-104888349D02*
X149245000Y-104888349D01*
X154805000Y-104368349D02*
X152790000Y-104368349D01*
X155059000Y-104048349D02*
X152790000Y-104048349D01*
X150710000Y-102528349D02*
X147765000Y-102528349D01*
X150710000Y-104288349D02*
X148626000Y-104288349D01*
X155675000Y-102768349D02*
X152790000Y-102768349D01*
X154970000Y-104168349D02*
X152790000Y-104168349D01*
X155639000Y-102888349D02*
X152790000Y-102888349D01*
X150710000Y-103288349D02*
X148010000Y-103288349D01*
X154095000Y-105008349D02*
X149405000Y-105008349D01*
X155735000Y-102528349D02*
X152790000Y-102528349D01*
X150710000Y-104168349D02*
X148530000Y-104168349D01*
X155707000Y-102648349D02*
X152790000Y-102648349D01*
X155000000Y-104128349D02*
X152790000Y-104128349D01*
X153784000Y-105208349D02*
X149716000Y-105208349D01*
X153916000Y-105128349D02*
X149584000Y-105128349D01*
X155774000Y-102327349D02*
X147726000Y-102327349D01*
X155830000Y-101727349D02*
X147670000Y-101727349D01*
X150710000Y-103248349D02*
X147993000Y-103248349D01*
X153481000Y-105368349D02*
X150019000Y-105368349D01*
X155194000Y-103848349D02*
X152790000Y-103848349D01*
X150710000Y-103408349D02*
X148064000Y-103408349D01*
X154491000Y-104688349D02*
X149009000Y-104688349D01*
X155752000Y-102448349D02*
X147748000Y-102448349D01*
X155726000Y-102568349D02*
X152790000Y-102568349D01*
X155377000Y-103528349D02*
X152790000Y-103528349D01*
X155334000Y-103608349D02*
X152790000Y-103608349D01*
X152698000Y-105648349D02*
X150802000Y-105648349D01*
X155115000Y-103968349D02*
X152790000Y-103968349D01*
X150710000Y-102928349D02*
X147873000Y-102928349D01*
X152518000Y-105688349D02*
X150982000Y-105688349D01*
X155524000Y-103208349D02*
X152790000Y-103208349D01*
X150710000Y-104368349D02*
X148695000Y-104368349D01*
X155312000Y-103648349D02*
X152790000Y-103648349D01*
X155652000Y-102848349D02*
X152790000Y-102848349D01*
X155802000Y-102127349D02*
X147698000Y-102127349D01*
X155600000Y-103008349D02*
X152790000Y-103008349D01*
X155613000Y-102968349D02*
X152790000Y-102968349D01*
X155686000Y-102728349D02*
X152790000Y-102728349D01*
X154576000Y-104608349D02*
X148924000Y-104608349D01*
X150710000Y-102728349D02*
X147814000Y-102728349D01*
X155760000Y-102408349D02*
X147740000Y-102408349D01*
X150710000Y-103968349D02*
X148385000Y-103968349D01*
X155472000Y-103328349D02*
X152790000Y-103328349D01*
X154874000Y-104288349D02*
X152790000Y-104288349D01*
X150710000Y-104568349D02*
X148883000Y-104568349D01*
X150710000Y-102608349D02*
X147783000Y-102608349D01*
X155142000Y-103928349D02*
X152790000Y-103928349D01*
X150710000Y-103728349D02*
X148233000Y-103728349D01*
X152979000Y-105568349D02*
X150521000Y-105568349D01*
X150710000Y-103768349D02*
X148257000Y-103768349D01*
X150710000Y-103168349D02*
X147960000Y-103168349D01*
X150710000Y-103328349D02*
X148028000Y-103328349D01*
X153395000Y-105408349D02*
X150105000Y-105408349D01*
X150710000Y-103448349D02*
X148084000Y-103448349D01*
X155807000Y-102087349D02*
X147693000Y-102087349D01*
X153978000Y-105088349D02*
X149522000Y-105088349D01*
X152848000Y-105608349D02*
X150652000Y-105608349D01*
X154150000Y-104968349D02*
X149350000Y-104968349D01*
X154906000Y-104248349D02*
X152790000Y-104248349D01*
X155540000Y-103168349D02*
X152790000Y-103168349D01*
X155290000Y-103688349D02*
X152790000Y-103688349D01*
X150710000Y-103608349D02*
X148166000Y-103608349D01*
X150710000Y-104448349D02*
X148767000Y-104448349D01*
X150710000Y-103848349D02*
X148306000Y-103848349D01*
X155627000Y-102928349D02*
X152790000Y-102928349D01*
X154204000Y-104928349D02*
X149296000Y-104928349D01*
X154733000Y-104448349D02*
X152790000Y-104448349D01*
X154465000Y-97637651D02*
X153665000Y-97637651D01*
X155356000Y-103568349D02*
X152790000Y-103568349D01*
X155815000Y-102007349D02*
X147685000Y-102007349D01*
X155827000Y-101807349D02*
X147673000Y-101807349D01*
X150710000Y-104008349D02*
X148412000Y-104008349D01*
X155798000Y-102167349D02*
X147702000Y-102167349D01*
X150710000Y-102808349D02*
X147836000Y-102808349D01*
X150710000Y-102968349D02*
X147887000Y-102968349D01*
X153563000Y-105328349D02*
X149937000Y-105328349D01*
X155787000Y-102247349D02*
X147713000Y-102247349D01*
X150710000Y-104408349D02*
X148731000Y-104408349D01*
X155436000Y-103408349D02*
X152790000Y-103408349D01*
X155088000Y-104008349D02*
X152790000Y-104008349D01*
X154695000Y-104488349D02*
X152790000Y-104488349D01*
X150710000Y-102768349D02*
X147825000Y-102768349D01*
X155454000Y-103368349D02*
X152790000Y-103368349D01*
X155780000Y-102287349D02*
X147720000Y-102287349D01*
X155697000Y-102688349D02*
X152790000Y-102688349D01*
X154447000Y-104728349D02*
X149053000Y-104728349D01*
X150710000Y-102688349D02*
X147803000Y-102688349D01*
X155507000Y-103248349D02*
X152790000Y-103248349D01*
X153852000Y-105168349D02*
X149648000Y-105168349D01*
X155717000Y-102608349D02*
X152790000Y-102608349D01*
X150710000Y-103568349D02*
X148144000Y-103568349D01*
X154939000Y-104208349D02*
X152790000Y-104208349D01*
X150710000Y-103488349D02*
X148103000Y-103488349D01*
X150710000Y-104208349D02*
X148561000Y-104208349D01*
X155490000Y-103288349D02*
X152790000Y-103288349D01*
X155821000Y-101927349D02*
X147679000Y-101927349D01*
X150710000Y-103888349D02*
X148332000Y-103888349D01*
X154401000Y-104768349D02*
X149099000Y-104768349D01*
X155830000Y-101687349D02*
X147670000Y-101687349D01*
X150710000Y-103088349D02*
X147929000Y-103088349D01*
X154769000Y-104408349D02*
X152790000Y-104408349D01*
X155818000Y-101967349D02*
X147682000Y-101967349D01*
X155870000Y-101647349D02*
G75*
G03*
X155870000Y-101647349I-4120000J0D01*
G01*
%TO.C,R4*%
X137297936Y-125515000D02*
X137752064Y-125515000D01*
X137297936Y-126985000D02*
X137752064Y-126985000D01*
%TO.C,C4*%
X134015000Y-105488748D02*
X134015000Y-106011252D01*
X135485000Y-105488748D02*
X135485000Y-106011252D01*
%TO.C,R9*%
X137297936Y-114265000D02*
X137752064Y-114265000D01*
X137297936Y-115735000D02*
X137752064Y-115735000D01*
%TO.C,J1*%
X158875000Y-125120000D02*
X158875000Y-93380000D01*
X171125000Y-125120000D02*
X158875000Y-125120000D01*
X158875000Y-93380000D02*
X171125000Y-93380000D01*
X171125000Y-93380000D02*
X171125000Y-125120000D01*
%TO.C,C5*%
X130741000Y-123109000D02*
X133847000Y-123109000D01*
X126394000Y-121709000D02*
X132606000Y-121709000D01*
X125676000Y-122389000D02*
X128259000Y-122389000D01*
X130741000Y-123069000D02*
X133823000Y-123069000D01*
X124482000Y-124949000D02*
X134518000Y-124949000D01*
X124420000Y-125670000D02*
X134580000Y-125670000D01*
X130741000Y-122869000D02*
X133694000Y-122869000D01*
X130741000Y-123949000D02*
X134254000Y-123949000D01*
X128122000Y-120829000D02*
X130878000Y-120829000D01*
X124465000Y-125070000D02*
X134535000Y-125070000D01*
X130741000Y-122949000D02*
X133747000Y-122949000D01*
X130741000Y-122269000D02*
X133216000Y-122269000D01*
X130741000Y-123469000D02*
X134045000Y-123469000D01*
X124996000Y-123389000D02*
X128259000Y-123389000D01*
X124603000Y-124389000D02*
X128259000Y-124389000D01*
X124626000Y-124309000D02*
X128259000Y-124309000D01*
X124582000Y-124469000D02*
X128259000Y-124469000D01*
X130741000Y-124069000D02*
X134297000Y-124069000D01*
X125980000Y-122069000D02*
X128259000Y-122069000D01*
X124553000Y-124589000D02*
X134447000Y-124589000D01*
X125575000Y-122509000D02*
X128259000Y-122509000D01*
X127291000Y-121149000D02*
X131709000Y-121149000D01*
X125253000Y-122949000D02*
X128259000Y-122949000D01*
X130741000Y-122549000D02*
X133457000Y-122549000D01*
X124435000Y-125350000D02*
X134565000Y-125350000D01*
X125784000Y-122269000D02*
X128259000Y-122269000D01*
X124650000Y-124229000D02*
X128259000Y-124229000D01*
X124422000Y-125590000D02*
X134578000Y-125590000D01*
X130741000Y-122509000D02*
X133425000Y-122509000D01*
X124421000Y-125630000D02*
X134579000Y-125630000D01*
X124455000Y-125150000D02*
X134545000Y-125150000D01*
X126064000Y-121989000D02*
X132936000Y-121989000D01*
X130741000Y-122189000D02*
X133140000Y-122189000D01*
X124689000Y-124109000D02*
X128259000Y-124109000D01*
X125860000Y-122189000D02*
X128259000Y-122189000D01*
X130741000Y-124309000D02*
X134374000Y-124309000D01*
X124460000Y-125110000D02*
X134540000Y-125110000D01*
X126344000Y-121749000D02*
X132656000Y-121749000D01*
X124638000Y-124269000D02*
X128259000Y-124269000D01*
X124446000Y-125230000D02*
X134554000Y-125230000D01*
X130741000Y-122389000D02*
X133324000Y-122389000D01*
X130741000Y-122429000D02*
X133358000Y-122429000D01*
X125306000Y-122869000D02*
X128259000Y-122869000D01*
X124955000Y-123469000D02*
X128259000Y-123469000D01*
X124438000Y-125310000D02*
X134562000Y-125310000D01*
X124535000Y-124669000D02*
X134465000Y-124669000D01*
X125227000Y-122989000D02*
X128259000Y-122989000D01*
X130741000Y-124109000D02*
X134311000Y-124109000D01*
X126246000Y-121829000D02*
X132754000Y-121829000D01*
X125480000Y-122629000D02*
X128259000Y-122629000D01*
X124826000Y-123749000D02*
X128259000Y-123749000D01*
X130741000Y-122709000D02*
X133580000Y-122709000D01*
X124615000Y-124349000D02*
X128259000Y-124349000D01*
X124879000Y-123629000D02*
X128259000Y-123629000D01*
X130741000Y-122109000D02*
X133061000Y-122109000D01*
X124489000Y-124909000D02*
X134511000Y-124909000D01*
X130741000Y-122989000D02*
X133773000Y-122989000D01*
X128270000Y-120789000D02*
X130730000Y-120789000D01*
X124510000Y-124789000D02*
X134490000Y-124789000D01*
X125279000Y-122909000D02*
X128259000Y-122909000D01*
X125177000Y-123069000D02*
X128259000Y-123069000D01*
X127654000Y-120989000D02*
X131346000Y-120989000D01*
X124916000Y-123549000D02*
X128259000Y-123549000D01*
X130741000Y-124189000D02*
X134337000Y-124189000D01*
X124503000Y-124829000D02*
X134497000Y-124829000D01*
X130741000Y-123709000D02*
X134157000Y-123709000D01*
X125390000Y-122749000D02*
X128259000Y-122749000D01*
X124593000Y-124429000D02*
X128259000Y-124429000D01*
X124427000Y-125470000D02*
X134573000Y-125470000D01*
X126294000Y-121789000D02*
X132706000Y-121789000D01*
X127758000Y-120949000D02*
X131242000Y-120949000D01*
X125642000Y-122429000D02*
X128259000Y-122429000D01*
X124420000Y-125710000D02*
X134580000Y-125710000D01*
X130741000Y-123909000D02*
X134238000Y-123909000D01*
X124793000Y-123829000D02*
X128259000Y-123829000D01*
X130741000Y-123189000D02*
X133895000Y-123189000D01*
X126555000Y-121589000D02*
X132445000Y-121589000D01*
X126500000Y-121629000D02*
X132500000Y-121629000D01*
X127463000Y-121069000D02*
X131537000Y-121069000D01*
X130741000Y-123629000D02*
X134121000Y-123629000D01*
X125038000Y-123309000D02*
X128259000Y-123309000D01*
X124442000Y-125270000D02*
X134558000Y-125270000D01*
X130741000Y-123509000D02*
X134064000Y-123509000D01*
X127556000Y-121029000D02*
X131444000Y-121029000D01*
X130741000Y-123869000D02*
X134223000Y-123869000D01*
X125899000Y-122149000D02*
X128259000Y-122149000D01*
X128901000Y-120669000D02*
X130099000Y-120669000D01*
X127990000Y-120869000D02*
X131010000Y-120869000D01*
X130741000Y-122309000D02*
X133253000Y-122309000D01*
X124423000Y-125550000D02*
X134577000Y-125550000D01*
X125083000Y-123229000D02*
X128259000Y-123229000D01*
X125362000Y-122789000D02*
X128259000Y-122789000D01*
X124975000Y-123429000D02*
X128259000Y-123429000D01*
X125420000Y-122709000D02*
X128259000Y-122709000D01*
X130741000Y-123269000D02*
X133940000Y-123269000D01*
X124526000Y-124709000D02*
X134474000Y-124709000D01*
X125711000Y-122349000D02*
X128259000Y-122349000D01*
X130741000Y-124269000D02*
X134362000Y-124269000D01*
X126108000Y-121949000D02*
X132892000Y-121949000D01*
X130741000Y-123429000D02*
X134025000Y-123429000D01*
X130741000Y-122469000D02*
X133392000Y-122469000D01*
X130741000Y-124229000D02*
X134350000Y-124229000D01*
X126446000Y-121669000D02*
X132554000Y-121669000D01*
X124572000Y-124509000D02*
X134428000Y-124509000D01*
X124703000Y-124069000D02*
X128259000Y-124069000D01*
X124732000Y-123989000D02*
X128259000Y-123989000D01*
X130741000Y-123989000D02*
X134268000Y-123989000D01*
X124897000Y-123589000D02*
X128259000Y-123589000D01*
X130741000Y-123549000D02*
X134084000Y-123549000D01*
X124544000Y-124629000D02*
X134456000Y-124629000D01*
X126730000Y-121469000D02*
X132270000Y-121469000D01*
X126791000Y-121429000D02*
X132209000Y-121429000D01*
X130741000Y-122629000D02*
X133520000Y-122629000D01*
X124843000Y-123709000D02*
X128259000Y-123709000D01*
X124663000Y-124189000D02*
X128259000Y-124189000D01*
X125747000Y-122309000D02*
X128259000Y-122309000D01*
X130741000Y-123349000D02*
X133983000Y-123349000D01*
X125821000Y-122229000D02*
X128259000Y-122229000D01*
X126022000Y-122029000D02*
X128259000Y-122029000D01*
X124476000Y-124989000D02*
X134524000Y-124989000D01*
X125608000Y-122469000D02*
X128259000Y-122469000D01*
X124432000Y-125390000D02*
X134568000Y-125390000D01*
X125060000Y-123269000D02*
X128259000Y-123269000D01*
X127211000Y-121189000D02*
X131789000Y-121189000D01*
X124746000Y-123949000D02*
X128259000Y-123949000D01*
X125129000Y-123149000D02*
X128259000Y-123149000D01*
X130741000Y-123749000D02*
X134174000Y-123749000D01*
X124861000Y-123669000D02*
X128259000Y-123669000D01*
X127061000Y-121269000D02*
X131939000Y-121269000D01*
X124810000Y-123789000D02*
X128259000Y-123789000D01*
X126990000Y-121309000D02*
X132010000Y-121309000D01*
X130741000Y-122029000D02*
X132978000Y-122029000D01*
X125334000Y-122829000D02*
X128259000Y-122829000D01*
X130741000Y-124469000D02*
X134418000Y-124469000D01*
X127870000Y-120909000D02*
X131130000Y-120909000D01*
X128438000Y-120749000D02*
X130562000Y-120749000D01*
X130741000Y-123589000D02*
X134103000Y-123589000D01*
X130741000Y-122749000D02*
X133610000Y-122749000D01*
X124470000Y-125029000D02*
X134530000Y-125029000D01*
X124420000Y-125750000D02*
X134580000Y-125750000D01*
X126625000Y-131229646D02*
X126625000Y-130229646D01*
X130741000Y-124429000D02*
X134407000Y-124429000D01*
X130741000Y-122229000D02*
X133179000Y-122229000D01*
X128638000Y-120709000D02*
X130362000Y-120709000D01*
X124562000Y-124549000D02*
X134438000Y-124549000D01*
X124936000Y-123509000D02*
X128259000Y-123509000D01*
X125105000Y-123189000D02*
X128259000Y-123189000D01*
X125202000Y-123029000D02*
X128259000Y-123029000D01*
X130741000Y-122829000D02*
X133666000Y-122829000D01*
X130741000Y-122349000D02*
X133289000Y-122349000D01*
X124676000Y-124149000D02*
X128259000Y-124149000D01*
X127135000Y-121229000D02*
X131865000Y-121229000D01*
X130741000Y-122589000D02*
X133489000Y-122589000D01*
X126153000Y-121909000D02*
X132847000Y-121909000D01*
X126125000Y-130729646D02*
X127125000Y-130729646D01*
X130741000Y-124349000D02*
X134385000Y-124349000D01*
X130741000Y-123669000D02*
X134139000Y-123669000D01*
X130741000Y-122909000D02*
X133721000Y-122909000D01*
X130741000Y-122669000D02*
X133550000Y-122669000D01*
X124762000Y-123909000D02*
X128259000Y-123909000D01*
X126611000Y-121549000D02*
X132389000Y-121549000D01*
X126670000Y-121509000D02*
X132330000Y-121509000D01*
X124518000Y-124749000D02*
X134482000Y-124749000D01*
X130741000Y-123149000D02*
X133871000Y-123149000D01*
X124430000Y-125430000D02*
X134570000Y-125430000D01*
X125511000Y-122589000D02*
X128259000Y-122589000D01*
X127375000Y-121109000D02*
X131625000Y-121109000D01*
X124496000Y-124869000D02*
X134504000Y-124869000D01*
X130741000Y-123789000D02*
X134190000Y-123789000D01*
X124425000Y-125510000D02*
X134575000Y-125510000D01*
X130741000Y-123829000D02*
X134207000Y-123829000D01*
X130741000Y-124029000D02*
X134283000Y-124029000D01*
X124450000Y-125190000D02*
X134550000Y-125190000D01*
X125543000Y-122549000D02*
X128259000Y-122549000D01*
X125939000Y-122109000D02*
X128259000Y-122109000D01*
X126855000Y-121389000D02*
X132145000Y-121389000D01*
X130741000Y-124389000D02*
X134397000Y-124389000D01*
X124777000Y-123869000D02*
X128259000Y-123869000D01*
X125153000Y-123109000D02*
X128259000Y-123109000D01*
X125450000Y-122669000D02*
X128259000Y-122669000D01*
X126921000Y-121349000D02*
X132079000Y-121349000D01*
X125017000Y-123349000D02*
X128259000Y-123349000D01*
X126199000Y-121869000D02*
X132801000Y-121869000D01*
X124717000Y-124029000D02*
X128259000Y-124029000D01*
X130741000Y-123389000D02*
X134004000Y-123389000D01*
X130741000Y-123229000D02*
X133917000Y-123229000D01*
X130741000Y-123029000D02*
X133798000Y-123029000D01*
X130741000Y-122069000D02*
X133020000Y-122069000D01*
X130741000Y-122149000D02*
X133101000Y-122149000D01*
X130741000Y-123309000D02*
X133962000Y-123309000D01*
X130741000Y-122789000D02*
X133638000Y-122789000D01*
X130741000Y-124149000D02*
X134324000Y-124149000D01*
X134620000Y-125750000D02*
G75*
G03*
X134620000Y-125750000I-5120000J0D01*
G01*
%TO.C,R3*%
X137297936Y-122985000D02*
X137752064Y-122985000D01*
X137297936Y-121515000D02*
X137752064Y-121515000D01*
%TO.C,R11*%
X121640000Y-96522936D02*
X121640000Y-96977064D01*
X123110000Y-96522936D02*
X123110000Y-96977064D01*
%TO.C,D3*%
X161850000Y-128410000D02*
X164535000Y-128410000D01*
X164535000Y-128410000D02*
X164535000Y-126490000D01*
X164535000Y-126490000D02*
X161850000Y-126490000D01*
%TO.C,Q2*%
X145075000Y-107550000D02*
X139950000Y-107550000D01*
X145075000Y-117260000D02*
X145075000Y-116570000D01*
X146575000Y-106860000D02*
X145075000Y-106860000D01*
X145075000Y-116570000D02*
X143975000Y-116570000D01*
X146575000Y-117260000D02*
X145075000Y-117260000D01*
X145075000Y-106860000D02*
X145075000Y-107550000D01*
%TO.C,R14*%
X162622936Y-129015000D02*
X163077064Y-129015000D01*
X162622936Y-130485000D02*
X163077064Y-130485000D01*
%TO.C,R1*%
X137297936Y-128985000D02*
X137752064Y-128985000D01*
X137297936Y-127515000D02*
X137752064Y-127515000D01*
%TO.C,F1*%
X131890000Y-93500000D02*
X131890000Y-96660000D01*
X154610000Y-96660000D02*
X131890000Y-96660000D01*
X154610000Y-93500000D02*
X154610000Y-96660000D01*
X154610000Y-86840000D02*
X131890000Y-86840000D01*
X154610000Y-86840000D02*
X154610000Y-90000000D01*
X131890000Y-86840000D02*
X131890000Y-90000000D01*
%TO.C,R8*%
X124765000Y-89977064D02*
X124765000Y-89522936D01*
X126235000Y-89977064D02*
X126235000Y-89522936D01*
%TO.C,G\u002A\u002A\u002A*%
G36*
X120574129Y-90824716D02*
G01*
X120604447Y-90825056D01*
X120630251Y-90825416D01*
X120652069Y-90825843D01*
X120670429Y-90826382D01*
X120685860Y-90827077D01*
X120698890Y-90827974D01*
X120710047Y-90829120D01*
X120719858Y-90830558D01*
X120728853Y-90832335D01*
X120737559Y-90834496D01*
X120746504Y-90837087D01*
X120756217Y-90840151D01*
X120757107Y-90840439D01*
X120771561Y-90845564D01*
X120785078Y-90851172D01*
X120796498Y-90856725D01*
X120804662Y-90861691D01*
X120806699Y-90863339D01*
X120810512Y-90866480D01*
X120817085Y-90871549D01*
X120825086Y-90877523D01*
X120826203Y-90878343D01*
X120848093Y-90897472D01*
X120866727Y-90920302D01*
X120881973Y-90946569D01*
X120893693Y-90976013D01*
X120901752Y-91008372D01*
X120904945Y-91030665D01*
X120905435Y-91038022D01*
X120905872Y-91049912D01*
X120906257Y-91065823D01*
X120906589Y-91085247D01*
X120906868Y-91107673D01*
X120907096Y-91132592D01*
X120907271Y-91159493D01*
X120907393Y-91187866D01*
X120907464Y-91217202D01*
X120907482Y-91246992D01*
X120907448Y-91276724D01*
X120907361Y-91305889D01*
X120907223Y-91333977D01*
X120907032Y-91360478D01*
X120906789Y-91384883D01*
X120906494Y-91406681D01*
X120906147Y-91425362D01*
X120905748Y-91440417D01*
X120905297Y-91451336D01*
X120904922Y-91456525D01*
X120899386Y-91490548D01*
X120890032Y-91521408D01*
X120876754Y-91549349D01*
X120859449Y-91574621D01*
X120849988Y-91585544D01*
X120825976Y-91607749D01*
X120799031Y-91625877D01*
X120769299Y-91639843D01*
X120741151Y-91648573D01*
X120733355Y-91650709D01*
X120727779Y-91652678D01*
X120726009Y-91653706D01*
X120722338Y-91655335D01*
X120714077Y-91656837D01*
X120701677Y-91658194D01*
X120685588Y-91659392D01*
X120666261Y-91660414D01*
X120644147Y-91661245D01*
X120619697Y-91661869D01*
X120593362Y-91662270D01*
X120565592Y-91662433D01*
X120536838Y-91662341D01*
X120507552Y-91661979D01*
X120495975Y-91661759D01*
X120451225Y-91660821D01*
X120451225Y-90823424D01*
X120574129Y-90824716D01*
G37*
G36*
X122202754Y-90824502D02*
G01*
X122235738Y-90824658D01*
X122264072Y-90824808D01*
X122288145Y-90824965D01*
X122308348Y-90825141D01*
X122325073Y-90825351D01*
X122338709Y-90825608D01*
X122349649Y-90825925D01*
X122358283Y-90826317D01*
X122365002Y-90826796D01*
X122370196Y-90827376D01*
X122374256Y-90828071D01*
X122377574Y-90828894D01*
X122380541Y-90829859D01*
X122382890Y-90830729D01*
X122393242Y-90835093D01*
X122403817Y-90840217D01*
X122408821Y-90842958D01*
X122417511Y-90849413D01*
X122427592Y-90859023D01*
X122437957Y-90870565D01*
X122447497Y-90882814D01*
X122454426Y-90893368D01*
X122464542Y-90914895D01*
X122471825Y-90939598D01*
X122476075Y-90966352D01*
X122477094Y-90994032D01*
X122475750Y-91013589D01*
X122470316Y-91044036D01*
X122461456Y-91071463D01*
X122449339Y-91095628D01*
X122434130Y-91116287D01*
X122415997Y-91133200D01*
X122395108Y-91146123D01*
X122380119Y-91152273D01*
X122376689Y-91153398D01*
X122373304Y-91154363D01*
X122369565Y-91155184D01*
X122365073Y-91155874D01*
X122359427Y-91156448D01*
X122352230Y-91156920D01*
X122343080Y-91157304D01*
X122331580Y-91157614D01*
X122317329Y-91157865D01*
X122299928Y-91158071D01*
X122278977Y-91158246D01*
X122254078Y-91158404D01*
X122224831Y-91158560D01*
X122200233Y-91158682D01*
X122036992Y-91159479D01*
X122036992Y-90823731D01*
X122202754Y-90824502D01*
G37*
G36*
X123275938Y-90518223D02*
G01*
X123301253Y-90530307D01*
X123323593Y-90546165D01*
X123342564Y-90565401D01*
X123357774Y-90587618D01*
X123368541Y-90611587D01*
X123374431Y-90628551D01*
X123375199Y-91239915D01*
X123375281Y-91310920D01*
X123375343Y-91377004D01*
X123375383Y-91438289D01*
X123375403Y-91494898D01*
X123375401Y-91546951D01*
X123375376Y-91594572D01*
X123375329Y-91637881D01*
X123375259Y-91677000D01*
X123375166Y-91712051D01*
X123375049Y-91743157D01*
X123374908Y-91770438D01*
X123374742Y-91794016D01*
X123374551Y-91814014D01*
X123374335Y-91830553D01*
X123374093Y-91843755D01*
X123373825Y-91853741D01*
X123373531Y-91860634D01*
X123373209Y-91864555D01*
X123373112Y-91865146D01*
X123370703Y-91873606D01*
X123366630Y-91884702D01*
X123361587Y-91896617D01*
X123358913Y-91902326D01*
X123345028Y-91925633D01*
X123327778Y-91945266D01*
X123306996Y-91961376D01*
X123282515Y-91974112D01*
X123275938Y-91976734D01*
X123260982Y-91982377D01*
X121498739Y-91982785D01*
X121382111Y-91982811D01*
X121270428Y-91982832D01*
X121163594Y-91982849D01*
X121061512Y-91982861D01*
X120964084Y-91982869D01*
X120871215Y-91982872D01*
X120782808Y-91982869D01*
X120698765Y-91982862D01*
X120618990Y-91982849D01*
X120543387Y-91982830D01*
X120471858Y-91982807D01*
X120404306Y-91982777D01*
X120340636Y-91982741D01*
X120280749Y-91982699D01*
X120224550Y-91982651D01*
X120171941Y-91982597D01*
X120122826Y-91982536D01*
X120077108Y-91982468D01*
X120034690Y-91982393D01*
X119995475Y-91982312D01*
X119959367Y-91982223D01*
X119926269Y-91982127D01*
X119896084Y-91982023D01*
X119868716Y-91981912D01*
X119844067Y-91981793D01*
X119822040Y-91981666D01*
X119802540Y-91981531D01*
X119785469Y-91981388D01*
X119770730Y-91981237D01*
X119758227Y-91981076D01*
X119747862Y-91980908D01*
X119739540Y-91980730D01*
X119733163Y-91980543D01*
X119728635Y-91980348D01*
X119725858Y-91980143D01*
X119724898Y-91979991D01*
X119704523Y-91972558D01*
X119684587Y-91961968D01*
X119666444Y-91949106D01*
X119651450Y-91934854D01*
X119646682Y-91929023D01*
X119638470Y-91916462D01*
X119630436Y-91901398D01*
X119623442Y-91885676D01*
X119618350Y-91871141D01*
X119616839Y-91865146D01*
X119616507Y-91862146D01*
X119616203Y-91856373D01*
X119616089Y-91852830D01*
X120252059Y-91852830D01*
X120320459Y-91852541D01*
X121361339Y-91852541D01*
X121563027Y-91852541D01*
X121837826Y-91852541D01*
X122036992Y-91852541D01*
X122036992Y-91348263D01*
X122232204Y-91349583D01*
X122248239Y-91381097D01*
X122252744Y-91389850D01*
X122259299Y-91402444D01*
X122267583Y-91418272D01*
X122277276Y-91436722D01*
X122288058Y-91457188D01*
X122299609Y-91479059D01*
X122311607Y-91501727D01*
X122321840Y-91521017D01*
X122333968Y-91543884D01*
X122345920Y-91566468D01*
X122357375Y-91588160D01*
X122368012Y-91608350D01*
X122377511Y-91626431D01*
X122385552Y-91641792D01*
X122391814Y-91653825D01*
X122395475Y-91660938D01*
X122400575Y-91670839D01*
X122407632Y-91684396D01*
X122416228Y-91700814D01*
X122425946Y-91719299D01*
X122436369Y-91739058D01*
X122447081Y-91759297D01*
X122454087Y-91772496D01*
X122496628Y-91852541D01*
X122735512Y-91852541D01*
X122732509Y-91846868D01*
X122730672Y-91843494D01*
X122726665Y-91836201D01*
X122720761Y-91825483D01*
X122713232Y-91811834D01*
X122704350Y-91795747D01*
X122694388Y-91777714D01*
X122683617Y-91758230D01*
X122678217Y-91748466D01*
X122667284Y-91728669D01*
X122657147Y-91710259D01*
X122648059Y-91693699D01*
X122640273Y-91679451D01*
X122634043Y-91667980D01*
X122629620Y-91659748D01*
X122627258Y-91655219D01*
X122626928Y-91654480D01*
X122625740Y-91652108D01*
X122622322Y-91645716D01*
X122616884Y-91635693D01*
X122609642Y-91622430D01*
X122600809Y-91606316D01*
X122590598Y-91587740D01*
X122579223Y-91567092D01*
X122566897Y-91544763D01*
X122555076Y-91523384D01*
X122542072Y-91499862D01*
X122529825Y-91477665D01*
X122518549Y-91457184D01*
X122508457Y-91438808D01*
X122499763Y-91422928D01*
X122492680Y-91409933D01*
X122487422Y-91400215D01*
X122484203Y-91394161D01*
X122483225Y-91392169D01*
X122482066Y-91389566D01*
X122478901Y-91383456D01*
X122474199Y-91374721D01*
X122468430Y-91364246D01*
X122467807Y-91363127D01*
X122462045Y-91352606D01*
X122457412Y-91343800D01*
X122454346Y-91337567D01*
X122453285Y-91334762D01*
X122453311Y-91334698D01*
X122455944Y-91333521D01*
X122462114Y-91331074D01*
X122470627Y-91327828D01*
X122473141Y-91326887D01*
X122510188Y-91310525D01*
X122544021Y-91290291D01*
X122574551Y-91266270D01*
X122601689Y-91238548D01*
X122625345Y-91207208D01*
X122645430Y-91172338D01*
X122653661Y-91154636D01*
X122661665Y-91133255D01*
X122668928Y-91108300D01*
X122675117Y-91081223D01*
X122679898Y-91053477D01*
X122682837Y-91027757D01*
X122684337Y-90986336D01*
X122682148Y-90945079D01*
X122676419Y-90904768D01*
X122667298Y-90866187D01*
X122654932Y-90830120D01*
X122639470Y-90797350D01*
X122639228Y-90796910D01*
X122618026Y-90763535D01*
X122593274Y-90733698D01*
X122565103Y-90707489D01*
X122533643Y-90685001D01*
X122499023Y-90666323D01*
X122461375Y-90651548D01*
X122420828Y-90640765D01*
X122413895Y-90639382D01*
X122409398Y-90638549D01*
X122404935Y-90637807D01*
X122400196Y-90637149D01*
X122394874Y-90636568D01*
X122388660Y-90636058D01*
X122381245Y-90635613D01*
X122372321Y-90635226D01*
X122361580Y-90634890D01*
X122348713Y-90634600D01*
X122333412Y-90634348D01*
X122315368Y-90634128D01*
X122294272Y-90633934D01*
X122269818Y-90633759D01*
X122241695Y-90633597D01*
X122209595Y-90633441D01*
X122173211Y-90633285D01*
X122132233Y-90633123D01*
X122111995Y-90633045D01*
X121837826Y-90631993D01*
X121837826Y-91852541D01*
X121563027Y-91852541D01*
X121563027Y-90634853D01*
X121361339Y-90634853D01*
X121361339Y-91852541D01*
X120320459Y-91852541D01*
X120482109Y-91851858D01*
X120522609Y-91851676D01*
X120558397Y-91851489D01*
X120589804Y-91851292D01*
X120617159Y-91851076D01*
X120640794Y-91850837D01*
X120661038Y-91850567D01*
X120678222Y-91850261D01*
X120692677Y-91849911D01*
X120704732Y-91849511D01*
X120714718Y-91849054D01*
X120722965Y-91848536D01*
X120729804Y-91847947D01*
X120735565Y-91847284D01*
X120738630Y-91846848D01*
X120785620Y-91838196D01*
X120828598Y-91827095D01*
X120868071Y-91813327D01*
X120904545Y-91796680D01*
X120938528Y-91776939D01*
X120970527Y-91753887D01*
X120983634Y-91743049D01*
X121008911Y-91718258D01*
X121032106Y-91689300D01*
X121052871Y-91656743D01*
X121070859Y-91621154D01*
X121085720Y-91583100D01*
X121089969Y-91569798D01*
X121093537Y-91557701D01*
X121096704Y-91546175D01*
X121099493Y-91534858D01*
X121101925Y-91523390D01*
X121104022Y-91511408D01*
X121105806Y-91498550D01*
X121107297Y-91484457D01*
X121108519Y-91468766D01*
X121109492Y-91451115D01*
X121110239Y-91431144D01*
X121110781Y-91408490D01*
X121111139Y-91382793D01*
X121111336Y-91353691D01*
X121111393Y-91320823D01*
X121111332Y-91283826D01*
X121111174Y-91242340D01*
X121111059Y-91218486D01*
X121109987Y-91006714D01*
X121103514Y-90972680D01*
X121097559Y-90944330D01*
X121091068Y-90918852D01*
X121084250Y-90897002D01*
X121078234Y-90881571D01*
X121074638Y-90872971D01*
X121071770Y-90865302D01*
X121070666Y-90861752D01*
X121068760Y-90856939D01*
X121064913Y-90849053D01*
X121059760Y-90839353D01*
X121056059Y-90832759D01*
X121032983Y-90797516D01*
X121006040Y-90765386D01*
X120975440Y-90736515D01*
X120941395Y-90711052D01*
X120904115Y-90689145D01*
X120863812Y-90670940D01*
X120820698Y-90656587D01*
X120795354Y-90650275D01*
X120785036Y-90648002D01*
X120775718Y-90645991D01*
X120767035Y-90644227D01*
X120758619Y-90642692D01*
X120750106Y-90641368D01*
X120741128Y-90640237D01*
X120731320Y-90639283D01*
X120720316Y-90638487D01*
X120707750Y-90637833D01*
X120693255Y-90637302D01*
X120676466Y-90636878D01*
X120657016Y-90636543D01*
X120634539Y-90636279D01*
X120608670Y-90636069D01*
X120579042Y-90635895D01*
X120545289Y-90635740D01*
X120507045Y-90635587D01*
X120485890Y-90635504D01*
X120252059Y-90634590D01*
X120252059Y-91852830D01*
X119616089Y-91852830D01*
X119615925Y-91847699D01*
X119615673Y-91835994D01*
X119615447Y-91821129D01*
X119615247Y-91802975D01*
X119615072Y-91781404D01*
X119614921Y-91756286D01*
X119614794Y-91727491D01*
X119614691Y-91694891D01*
X119614611Y-91658357D01*
X119614554Y-91617760D01*
X119614520Y-91572971D01*
X119614507Y-91523859D01*
X119614515Y-91470297D01*
X119614545Y-91412156D01*
X119614595Y-91349306D01*
X119614666Y-91281617D01*
X119614716Y-91239915D01*
X119615475Y-90634590D01*
X119615478Y-90631993D01*
X119615483Y-90628551D01*
X119621374Y-90611587D01*
X119632567Y-90586863D01*
X119647903Y-90564735D01*
X119666989Y-90545601D01*
X119689431Y-90529858D01*
X119713977Y-90518223D01*
X119728933Y-90512580D01*
X123260982Y-90512580D01*
X123275938Y-90518223D01*
G37*
%TO.C,Q1*%
X145075000Y-120780000D02*
X139950000Y-120780000D01*
X145075000Y-130490000D02*
X145075000Y-129800000D01*
X145075000Y-120090000D02*
X145075000Y-120780000D01*
X146575000Y-120090000D02*
X145075000Y-120090000D01*
X145075000Y-129800000D02*
X143975000Y-129800000D01*
X146575000Y-130490000D02*
X145075000Y-130490000D01*
%TO.C,D1*%
X126927500Y-91435000D02*
X128847500Y-91435000D01*
X126927500Y-88750000D02*
X126927500Y-91435000D01*
X128847500Y-91435000D02*
X128847500Y-88750000D01*
%TO.C,U4*%
X138930000Y-98950000D02*
X138930000Y-99220000D01*
X140430000Y-98950000D02*
X138930000Y-98950000D01*
X140430000Y-105850000D02*
X138930000Y-105850000D01*
X138930000Y-105580000D02*
X137830000Y-105580000D01*
X138930000Y-99220000D02*
X136100000Y-99220000D01*
X138930000Y-105850000D02*
X138930000Y-105580000D01*
%TO.C,R10*%
X120860000Y-96522936D02*
X120860000Y-96977064D01*
X119390000Y-96522936D02*
X119390000Y-96977064D01*
%TO.C,G\u002A\u002A\u002A*%
G36*
X157797421Y-103813808D02*
G01*
X157812718Y-103818642D01*
X157830329Y-103825245D01*
X157847561Y-103832568D01*
X157856330Y-103836737D01*
X157870014Y-103843871D01*
X157880939Y-103850440D01*
X157890739Y-103857647D01*
X157901047Y-103866699D01*
X157913498Y-103878801D01*
X157913911Y-103879213D01*
X157935897Y-103903252D01*
X157953527Y-103927537D01*
X157967620Y-103953515D01*
X157978997Y-103982628D01*
X157985803Y-104005714D01*
X157988940Y-104018336D01*
X157991592Y-104030894D01*
X157993798Y-104043987D01*
X157995597Y-104058217D01*
X157997026Y-104074182D01*
X157998125Y-104092482D01*
X157998931Y-104113718D01*
X157999484Y-104138489D01*
X157999822Y-104167396D01*
X157999983Y-104201038D01*
X158000011Y-104227130D01*
X158000011Y-104362044D01*
X156985021Y-104362044D01*
X156986430Y-104216207D01*
X156986796Y-104181002D01*
X156987188Y-104150952D01*
X156987645Y-104125464D01*
X156988205Y-104103947D01*
X156988907Y-104085808D01*
X156989791Y-104070456D01*
X156990895Y-104057297D01*
X156992258Y-104045739D01*
X156993920Y-104035191D01*
X156995919Y-104025060D01*
X156998294Y-104014754D01*
X157000194Y-104007151D01*
X157011210Y-103971800D01*
X157025435Y-103940444D01*
X157043512Y-103911931D01*
X157066085Y-103885112D01*
X157071830Y-103879213D01*
X157084292Y-103867027D01*
X157094563Y-103857929D01*
X157104273Y-103850716D01*
X157115050Y-103844183D01*
X157128524Y-103837127D01*
X157129302Y-103836737D01*
X157145076Y-103829478D01*
X157162795Y-103822332D01*
X157179764Y-103816347D01*
X157188211Y-103813817D01*
X157216948Y-103806014D01*
X157492816Y-103806005D01*
X157768684Y-103805997D01*
X157797421Y-103813808D01*
G37*
G36*
X156654675Y-107789945D02*
G01*
X156625231Y-107777825D01*
X156599568Y-107762580D01*
X156576151Y-107743264D01*
X156571574Y-107738801D01*
X156551324Y-107715650D01*
X156535336Y-107690562D01*
X156522663Y-107662003D01*
X156520430Y-107655700D01*
X156512909Y-107633669D01*
X156512909Y-106935702D01*
X156739397Y-106935702D01*
X156739498Y-106938251D01*
X156744394Y-106996353D01*
X156754091Y-107051422D01*
X156768545Y-107103386D01*
X156787713Y-107152173D01*
X156811552Y-107197711D01*
X156840020Y-107239927D01*
X156873072Y-107278751D01*
X156910667Y-107314108D01*
X156952761Y-107345929D01*
X156999311Y-107374139D01*
X156999989Y-107374505D01*
X157038796Y-107392942D01*
X157081752Y-107408824D01*
X157127708Y-107421815D01*
X157175509Y-107431580D01*
X157213242Y-107436730D01*
X157221187Y-107437254D01*
X157234350Y-107437728D01*
X157252216Y-107438152D01*
X157274270Y-107438526D01*
X157299995Y-107438850D01*
X157328876Y-107439123D01*
X157360398Y-107439347D01*
X157394045Y-107439522D01*
X157429302Y-107439646D01*
X157465653Y-107439721D01*
X157502583Y-107439746D01*
X157539576Y-107439722D01*
X157576116Y-107439649D01*
X157611689Y-107439526D01*
X157645778Y-107439354D01*
X157677868Y-107439133D01*
X157707444Y-107438863D01*
X157733989Y-107438544D01*
X157756989Y-107438177D01*
X157775928Y-107437760D01*
X157790291Y-107437295D01*
X157799561Y-107436781D01*
X157801126Y-107436634D01*
X157855241Y-107428013D01*
X157906918Y-107414390D01*
X157955923Y-107395909D01*
X158002022Y-107372716D01*
X158044982Y-107344956D01*
X158084567Y-107312776D01*
X158120544Y-107276319D01*
X158152680Y-107235732D01*
X158172056Y-107206117D01*
X158183136Y-107186132D01*
X158194614Y-107162587D01*
X158205597Y-107137521D01*
X158215193Y-107112974D01*
X158222510Y-107090986D01*
X158222752Y-107090156D01*
X158228135Y-107069537D01*
X158233471Y-107045477D01*
X158238309Y-107020265D01*
X158242197Y-106996195D01*
X158243938Y-106982793D01*
X158245217Y-106967252D01*
X158246099Y-106947537D01*
X158246584Y-106925208D01*
X158246669Y-106901824D01*
X158246353Y-106878946D01*
X158245633Y-106858133D01*
X158244508Y-106840945D01*
X158244104Y-106836843D01*
X158235509Y-106781878D01*
X158222045Y-106729482D01*
X158203833Y-106679878D01*
X158180994Y-106633287D01*
X158153652Y-106589932D01*
X158121927Y-106550035D01*
X158085941Y-106513819D01*
X158051514Y-106485663D01*
X158010265Y-106458459D01*
X157964851Y-106434817D01*
X157915766Y-106414934D01*
X157863505Y-106399006D01*
X157808562Y-106387231D01*
X157801731Y-106386093D01*
X157794509Y-106385048D01*
X157786407Y-106384144D01*
X157776935Y-106383369D01*
X157765604Y-106382708D01*
X157751924Y-106382146D01*
X157735405Y-106381669D01*
X157715558Y-106381263D01*
X157691893Y-106380914D01*
X157663920Y-106380607D01*
X157631150Y-106380329D01*
X157595548Y-106380079D01*
X157419539Y-106378938D01*
X157419539Y-106890836D01*
X157655176Y-106890836D01*
X157655176Y-106628481D01*
X157707620Y-106630247D01*
X157745921Y-106632561D01*
X157779754Y-106636944D01*
X157810112Y-106643683D01*
X157837992Y-106653066D01*
X157864388Y-106665381D01*
X157890296Y-106680916D01*
X157895906Y-106684710D01*
X157923530Y-106707167D01*
X157947242Y-106733587D01*
X157966881Y-106763580D01*
X157982285Y-106796754D01*
X157993291Y-106832717D01*
X157999738Y-106871077D01*
X158001464Y-106911445D01*
X158000128Y-106936910D01*
X157995057Y-106974976D01*
X157986701Y-107009131D01*
X157974726Y-107040398D01*
X157958795Y-107069799D01*
X157953971Y-107077253D01*
X157930940Y-107106630D01*
X157903944Y-107131871D01*
X157873061Y-107152923D01*
X157838371Y-107169732D01*
X157799953Y-107182245D01*
X157796654Y-107183075D01*
X157792748Y-107183917D01*
X157788028Y-107184661D01*
X157782119Y-107185315D01*
X157774647Y-107185888D01*
X157765235Y-107186387D01*
X157753509Y-107186821D01*
X157739093Y-107187197D01*
X157721613Y-107187525D01*
X157700692Y-107187811D01*
X157675955Y-107188064D01*
X157647028Y-107188292D01*
X157613535Y-107188503D01*
X157575100Y-107188705D01*
X157531348Y-107188907D01*
X157524426Y-107188937D01*
X157477432Y-107189130D01*
X157435784Y-107189266D01*
X157399079Y-107189331D01*
X157366915Y-107189311D01*
X157338891Y-107189190D01*
X157314605Y-107188954D01*
X157293655Y-107188588D01*
X157275638Y-107188077D01*
X157260154Y-107187407D01*
X157246800Y-107186563D01*
X157235174Y-107185529D01*
X157224875Y-107184292D01*
X157215500Y-107182836D01*
X157206648Y-107181146D01*
X157197917Y-107179209D01*
X157188905Y-107177009D01*
X157187048Y-107176539D01*
X157162887Y-107168887D01*
X157137126Y-107158114D01*
X157111949Y-107145267D01*
X157089538Y-107131395D01*
X157082567Y-107126352D01*
X157055855Y-107102554D01*
X157033150Y-107075111D01*
X157014574Y-107044616D01*
X157000248Y-107011658D01*
X156990293Y-106976829D01*
X156984831Y-106940718D01*
X156983983Y-106903917D01*
X156987871Y-106867016D01*
X156996616Y-106830606D01*
X157010340Y-106795278D01*
X157013275Y-106789226D01*
X157033114Y-106755687D01*
X157057065Y-106726163D01*
X157085120Y-106700661D01*
X157117272Y-106679188D01*
X157139136Y-106667960D01*
X157150450Y-106663006D01*
X157160853Y-106658924D01*
X157168420Y-106656460D01*
X157169475Y-106656216D01*
X157178154Y-106654481D01*
X157178154Y-106390716D01*
X157170251Y-106392471D01*
X157113423Y-106407740D01*
X157059957Y-106427447D01*
X157010016Y-106451388D01*
X156963760Y-106479359D01*
X156921351Y-106511154D01*
X156882950Y-106546570D01*
X156848718Y-106585402D01*
X156818817Y-106627446D01*
X156793409Y-106672496D01*
X156772654Y-106720350D01*
X156756714Y-106770801D01*
X156752799Y-106789671D01*
X156745750Y-106823647D01*
X156739924Y-106878682D01*
X156739397Y-106935702D01*
X156512909Y-106935702D01*
X156512909Y-106063232D01*
X156752799Y-106063232D01*
X158232775Y-106063232D01*
X158232775Y-105827594D01*
X157788081Y-105827204D01*
X157736234Y-105827147D01*
X157684888Y-105827070D01*
X157634444Y-105826972D01*
X157585300Y-105826857D01*
X157537857Y-105826726D01*
X157492515Y-105826579D01*
X157449673Y-105826420D01*
X157409731Y-105826249D01*
X157373090Y-105826069D01*
X157340149Y-105825880D01*
X157311307Y-105825684D01*
X157286965Y-105825484D01*
X157267523Y-105825280D01*
X157253380Y-105825074D01*
X157252057Y-105825049D01*
X157160727Y-105823284D01*
X157469016Y-105648749D01*
X157513556Y-105623531D01*
X157560486Y-105596956D01*
X157609122Y-105569412D01*
X157658779Y-105541286D01*
X157708773Y-105512967D01*
X157758418Y-105484842D01*
X157807031Y-105457299D01*
X157853926Y-105430726D01*
X157898420Y-105405511D01*
X157939827Y-105382041D01*
X157977463Y-105360706D01*
X158004322Y-105345476D01*
X158231339Y-105216737D01*
X158232085Y-105082500D01*
X158232832Y-104948264D01*
X156752857Y-104948264D01*
X156752857Y-105186760D01*
X157842747Y-105188212D01*
X157466628Y-105398717D01*
X157420124Y-105424745D01*
X157372833Y-105451215D01*
X157325219Y-105477868D01*
X157277746Y-105504444D01*
X157230878Y-105530683D01*
X157185078Y-105556325D01*
X157140812Y-105581111D01*
X157098542Y-105604780D01*
X157058733Y-105627072D01*
X157021850Y-105647729D01*
X156988355Y-105666489D01*
X156958714Y-105683094D01*
X156933390Y-105697283D01*
X156922401Y-105703442D01*
X156754294Y-105797660D01*
X156753546Y-105930446D01*
X156752799Y-106063232D01*
X156512909Y-106063232D01*
X156512909Y-104606302D01*
X156752857Y-104606302D01*
X158232775Y-104606302D01*
X158232775Y-104349530D01*
X158232741Y-104306035D01*
X158232639Y-104264650D01*
X158232475Y-104225770D01*
X158232252Y-104189791D01*
X158231974Y-104157109D01*
X158231645Y-104128121D01*
X158231270Y-104103221D01*
X158230852Y-104082805D01*
X158230395Y-104067271D01*
X158229903Y-104057013D01*
X158229806Y-104055701D01*
X158222837Y-103994688D01*
X158212005Y-103937829D01*
X158197244Y-103884966D01*
X158178488Y-103835939D01*
X158155674Y-103790589D01*
X158128735Y-103748757D01*
X158097605Y-103710284D01*
X158080615Y-103692423D01*
X158046070Y-103661226D01*
X158009081Y-103634283D01*
X157969198Y-103611375D01*
X157925972Y-103592286D01*
X157878956Y-103576800D01*
X157827700Y-103564700D01*
X157808915Y-103561266D01*
X157803418Y-103560416D01*
X157797243Y-103559664D01*
X157790011Y-103559000D01*
X157781341Y-103558416D01*
X157770853Y-103557906D01*
X157758168Y-103557461D01*
X157742904Y-103557074D01*
X157724682Y-103556736D01*
X157703123Y-103556440D01*
X157677845Y-103556178D01*
X157648469Y-103555943D01*
X157614615Y-103555725D01*
X157575902Y-103555519D01*
X157531951Y-103555315D01*
X157515805Y-103555245D01*
X157462433Y-103555050D01*
X157414646Y-103554947D01*
X157372283Y-103554936D01*
X157335183Y-103555018D01*
X157303184Y-103555195D01*
X157276126Y-103555467D01*
X157253848Y-103555837D01*
X157236187Y-103556304D01*
X157222984Y-103556870D01*
X157215511Y-103557397D01*
X157158908Y-103564976D01*
X157105741Y-103577092D01*
X157055853Y-103593796D01*
X157009083Y-103615143D01*
X156967164Y-103639924D01*
X156944714Y-103656489D01*
X156921132Y-103676841D01*
X156897795Y-103699600D01*
X156876078Y-103723381D01*
X156857361Y-103746803D01*
X156849458Y-103758095D01*
X156824257Y-103800554D01*
X156803056Y-103845801D01*
X156785747Y-103894191D01*
X156772222Y-103946081D01*
X156762372Y-104001827D01*
X156756090Y-104061786D01*
X156755752Y-104066568D01*
X156755324Y-104075750D01*
X156754914Y-104090171D01*
X156754528Y-104109322D01*
X156754171Y-104132692D01*
X156753848Y-104159774D01*
X156753564Y-104190057D01*
X156753323Y-104223034D01*
X156753132Y-104258195D01*
X156752995Y-104295031D01*
X156752916Y-104333034D01*
X156752899Y-104357015D01*
X156752857Y-104606302D01*
X156512909Y-104606302D01*
X156512909Y-103351963D01*
X156520430Y-103329932D01*
X156532550Y-103300488D01*
X156547795Y-103274826D01*
X156567111Y-103251408D01*
X156571574Y-103246832D01*
X156594725Y-103226582D01*
X156619813Y-103210593D01*
X156648372Y-103197921D01*
X156654675Y-103195688D01*
X156676706Y-103188166D01*
X158314674Y-103188166D01*
X158336705Y-103195688D01*
X158366149Y-103207807D01*
X158391811Y-103223053D01*
X158415229Y-103242369D01*
X158419805Y-103246832D01*
X158440055Y-103269983D01*
X158456044Y-103295070D01*
X158468716Y-103323630D01*
X158470949Y-103329932D01*
X158478471Y-103351963D01*
X158478966Y-105485632D01*
X158478997Y-105621378D01*
X158479023Y-105751490D01*
X158479044Y-105876080D01*
X158479062Y-105995262D01*
X158479074Y-106109148D01*
X158479082Y-106217852D01*
X158479085Y-106321486D01*
X158479082Y-106420164D01*
X158479074Y-106513998D01*
X158479061Y-106603101D01*
X158479042Y-106687587D01*
X158479017Y-106767567D01*
X158478986Y-106843156D01*
X158478948Y-106914466D01*
X158478904Y-106981610D01*
X158478854Y-107044701D01*
X158478797Y-107103852D01*
X158478733Y-107159176D01*
X158478661Y-107210786D01*
X158478583Y-107258795D01*
X158478496Y-107303315D01*
X158478403Y-107344460D01*
X158478301Y-107382342D01*
X158478191Y-107417076D01*
X158478074Y-107448772D01*
X158477947Y-107477546D01*
X158477813Y-107503508D01*
X158477669Y-107526773D01*
X158477517Y-107547454D01*
X158477355Y-107565663D01*
X158477184Y-107581513D01*
X158477004Y-107595117D01*
X158476814Y-107606588D01*
X158476615Y-107616040D01*
X158476405Y-107623584D01*
X158476185Y-107629335D01*
X158475955Y-107633404D01*
X158475715Y-107635906D01*
X158475605Y-107636543D01*
X158466449Y-107667826D01*
X158453541Y-107695463D01*
X158436230Y-107720647D01*
X158419805Y-107738801D01*
X158396654Y-107759051D01*
X158371567Y-107775039D01*
X158343007Y-107787712D01*
X158336705Y-107789945D01*
X158314674Y-107797466D01*
X156676706Y-107797466D01*
X156654675Y-107789945D01*
G37*
G36*
X120221296Y-93323864D02*
G01*
X120241977Y-93330827D01*
X120268031Y-93342199D01*
X120291079Y-93357665D01*
X120310868Y-93377007D01*
X120327148Y-93400005D01*
X120332627Y-93410190D01*
X120343122Y-93436661D01*
X120349872Y-93465390D01*
X120352905Y-93495409D01*
X120352248Y-93525747D01*
X120347928Y-93555437D01*
X120339974Y-93583508D01*
X120328412Y-93608991D01*
X120326925Y-93611588D01*
X120317295Y-93625403D01*
X120304794Y-93639547D01*
X120290774Y-93652727D01*
X120276586Y-93663648D01*
X120266008Y-93669897D01*
X120259156Y-93673255D01*
X120253021Y-93676141D01*
X120247172Y-93678594D01*
X120241175Y-93680651D01*
X120234598Y-93682351D01*
X120227008Y-93683731D01*
X120217974Y-93684830D01*
X120207061Y-93685686D01*
X120193838Y-93686337D01*
X120177872Y-93686820D01*
X120158731Y-93687173D01*
X120135982Y-93687435D01*
X120109193Y-93687644D01*
X120077930Y-93687838D01*
X120060658Y-93687940D01*
X119902580Y-93688878D01*
X119902580Y-93322202D01*
X120221296Y-93323864D01*
G37*
G36*
X123311004Y-93014619D02*
G01*
X123337098Y-93027095D01*
X123360023Y-93043518D01*
X123379502Y-93063613D01*
X123395262Y-93087106D01*
X123405286Y-93108902D01*
X123411016Y-93124088D01*
X123411016Y-94370792D01*
X123405286Y-94385978D01*
X123392811Y-94412073D01*
X123376388Y-94434998D01*
X123356292Y-94454477D01*
X123332799Y-94470236D01*
X123311004Y-94480261D01*
X123295818Y-94485991D01*
X121506400Y-94486406D01*
X121387974Y-94486432D01*
X121274569Y-94486453D01*
X121166087Y-94486470D01*
X121062431Y-94486483D01*
X120963501Y-94486490D01*
X120869200Y-94486493D01*
X120779429Y-94486491D01*
X120694091Y-94486483D01*
X120613086Y-94486470D01*
X120536316Y-94486451D01*
X120463684Y-94486427D01*
X120395091Y-94486397D01*
X120330438Y-94486360D01*
X120269628Y-94486318D01*
X120212563Y-94486269D01*
X120159142Y-94486214D01*
X120109270Y-94486152D01*
X120062847Y-94486083D01*
X120019775Y-94486007D01*
X119979956Y-94485924D01*
X119943291Y-94485834D01*
X119909683Y-94485737D01*
X119879032Y-94485632D01*
X119851242Y-94485519D01*
X119826212Y-94485398D01*
X119803846Y-94485269D01*
X119784045Y-94485132D01*
X119766711Y-94484987D01*
X119751745Y-94484833D01*
X119739049Y-94484670D01*
X119728525Y-94484499D01*
X119720074Y-94484318D01*
X119713599Y-94484129D01*
X119709000Y-94483930D01*
X119706181Y-94483722D01*
X119705206Y-94483569D01*
X119680072Y-94474130D01*
X119657064Y-94460559D01*
X119636725Y-94443419D01*
X119619599Y-94423277D01*
X119606230Y-94400698D01*
X119597159Y-94376246D01*
X119595543Y-94369512D01*
X119595200Y-94366602D01*
X119594886Y-94361128D01*
X119594731Y-94356712D01*
X119700343Y-94356712D01*
X119902580Y-94356712D01*
X122239831Y-94356712D01*
X122429253Y-94356712D01*
X122429901Y-93938234D01*
X122430549Y-93519755D01*
X122469772Y-93623998D01*
X122476532Y-93641950D01*
X122484900Y-93664151D01*
X122494672Y-93690059D01*
X122505644Y-93719135D01*
X122517613Y-93750839D01*
X122530373Y-93784629D01*
X122543721Y-93819966D01*
X122557453Y-93856309D01*
X122571365Y-93893118D01*
X122585253Y-93929853D01*
X122598800Y-93965677D01*
X122688606Y-94203114D01*
X122850968Y-94203114D01*
X122855058Y-94192234D01*
X122856485Y-94188394D01*
X122859561Y-94180077D01*
X122864168Y-94167609D01*
X122870183Y-94151317D01*
X122877487Y-94131528D01*
X122885958Y-94108568D01*
X122895478Y-94082765D01*
X122905924Y-94054444D01*
X122917177Y-94023933D01*
X122929115Y-93991557D01*
X122941619Y-93957645D01*
X122954568Y-93922522D01*
X122954938Y-93921518D01*
X122968531Y-93884646D01*
X122982115Y-93847805D01*
X122995523Y-93811440D01*
X123008591Y-93776001D01*
X123021154Y-93741933D01*
X123033047Y-93709685D01*
X123044105Y-93679703D01*
X123054163Y-93652436D01*
X123063056Y-93628331D01*
X123070618Y-93607835D01*
X123076686Y-93591396D01*
X123079834Y-93582871D01*
X123108940Y-93504062D01*
X123109588Y-93930387D01*
X123110235Y-94356712D01*
X123299658Y-94356712D01*
X123299658Y-93130436D01*
X123182869Y-93131102D01*
X123066081Y-93131768D01*
X122918553Y-93538124D01*
X122902631Y-93581959D01*
X122887173Y-93624478D01*
X122872269Y-93665431D01*
X122858012Y-93704571D01*
X122844491Y-93741649D01*
X122831797Y-93776418D01*
X122820021Y-93808630D01*
X122809254Y-93838036D01*
X122799587Y-93864389D01*
X122791110Y-93887441D01*
X122783915Y-93906943D01*
X122778092Y-93922647D01*
X122773731Y-93934306D01*
X122770925Y-93941672D01*
X122769763Y-93944495D01*
X122769742Y-93944519D01*
X122768437Y-93942273D01*
X122765861Y-93936142D01*
X122762395Y-93927088D01*
X122758765Y-93917038D01*
X122756802Y-93911539D01*
X122753192Y-93901511D01*
X122748037Y-93887235D01*
X122741440Y-93868993D01*
X122733504Y-93847068D01*
X122724329Y-93821742D01*
X122714020Y-93793296D01*
X122702677Y-93762014D01*
X122690404Y-93728177D01*
X122677303Y-93692067D01*
X122663475Y-93653966D01*
X122649023Y-93614157D01*
X122634050Y-93572922D01*
X122618657Y-93530543D01*
X122611428Y-93510643D01*
X122473785Y-93131768D01*
X122239831Y-93130436D01*
X122239831Y-94356712D01*
X119902580Y-94356712D01*
X119902580Y-93880558D01*
X120057559Y-93880558D01*
X120089698Y-93880511D01*
X120119869Y-93880375D01*
X120147642Y-93880155D01*
X120172585Y-93879859D01*
X120194268Y-93879492D01*
X120212261Y-93879061D01*
X120226133Y-93878574D01*
X120235453Y-93878035D01*
X120237397Y-93877854D01*
X120281038Y-93870795D01*
X120322399Y-93859459D01*
X120361241Y-93844019D01*
X120397326Y-93824648D01*
X120430415Y-93801518D01*
X120460269Y-93774803D01*
X120486650Y-93744675D01*
X120509318Y-93711308D01*
X120528036Y-93674872D01*
X120532486Y-93664270D01*
X120540502Y-93641374D01*
X120547684Y-93615338D01*
X120553558Y-93588128D01*
X120557650Y-93561712D01*
X120558040Y-93558314D01*
X120559675Y-93536094D01*
X120560185Y-93511057D01*
X120559629Y-93484843D01*
X120558068Y-93459093D01*
X120555562Y-93435449D01*
X120552934Y-93419231D01*
X120542174Y-93376607D01*
X120527270Y-93336764D01*
X120508381Y-93299881D01*
X120485666Y-93266142D01*
X120459284Y-93235728D01*
X120429394Y-93208821D01*
X120396156Y-93185601D01*
X120359729Y-93166252D01*
X120320272Y-93150954D01*
X120316781Y-93149845D01*
X120308129Y-93147124D01*
X120300371Y-93144697D01*
X120293178Y-93142546D01*
X120286221Y-93140655D01*
X120279172Y-93139004D01*
X120271704Y-93137577D01*
X120263488Y-93136355D01*
X120254195Y-93135321D01*
X120243498Y-93134457D01*
X120231069Y-93133745D01*
X120216578Y-93133168D01*
X120208633Y-93132951D01*
X120650091Y-93132951D01*
X120650678Y-93135682D01*
X120652419Y-93143263D01*
X120655283Y-93155565D01*
X120659239Y-93172457D01*
X120664257Y-93193809D01*
X120670305Y-93219491D01*
X120677352Y-93249373D01*
X120685369Y-93283325D01*
X120694323Y-93321216D01*
X120704185Y-93362916D01*
X120714923Y-93408295D01*
X120726506Y-93457223D01*
X120738904Y-93509570D01*
X120752086Y-93565204D01*
X120766021Y-93623997D01*
X120780679Y-93685818D01*
X120796027Y-93750537D01*
X120812037Y-93818023D01*
X120828676Y-93888147D01*
X120845914Y-93960778D01*
X120863720Y-94035786D01*
X120882063Y-94113040D01*
X120900912Y-94192411D01*
X120908793Y-94225591D01*
X120914689Y-94250435D01*
X120920211Y-94273747D01*
X120925248Y-94295059D01*
X120929690Y-94313900D01*
X120933426Y-94329800D01*
X120936347Y-94342291D01*
X120938341Y-94350902D01*
X120939298Y-94355164D01*
X120939367Y-94355540D01*
X120941835Y-94355797D01*
X120948872Y-94356001D01*
X120959925Y-94356151D01*
X120974444Y-94356242D01*
X120991877Y-94356272D01*
X121011673Y-94356237D01*
X121033281Y-94356135D01*
X121038274Y-94356102D01*
X121137181Y-94355432D01*
X121161069Y-94267114D01*
X121181371Y-94192066D01*
X121200383Y-94121823D01*
X121218142Y-94056244D01*
X121234686Y-93995189D01*
X121250055Y-93938518D01*
X121264287Y-93886092D01*
X121277421Y-93837770D01*
X121289495Y-93793412D01*
X121300547Y-93752878D01*
X121310616Y-93716029D01*
X121319742Y-93682723D01*
X121327961Y-93652822D01*
X121335313Y-93626185D01*
X121341837Y-93602672D01*
X121347570Y-93582143D01*
X121352552Y-93564459D01*
X121356820Y-93549478D01*
X121360415Y-93537062D01*
X121363373Y-93527070D01*
X121365734Y-93519362D01*
X121367536Y-93513798D01*
X121368818Y-93510238D01*
X121369618Y-93508542D01*
X121369940Y-93508440D01*
X121370752Y-93511310D01*
X121372762Y-93518812D01*
X121375888Y-93530636D01*
X121380050Y-93546470D01*
X121385167Y-93566004D01*
X121391159Y-93588926D01*
X121397944Y-93614925D01*
X121405443Y-93643691D01*
X121413574Y-93674911D01*
X121422257Y-93708276D01*
X121431411Y-93743474D01*
X121440956Y-93780194D01*
X121450810Y-93818125D01*
X121460893Y-93856956D01*
X121471125Y-93896376D01*
X121481424Y-93936074D01*
X121491710Y-93975738D01*
X121501903Y-94015059D01*
X121511921Y-94053724D01*
X121521684Y-94091423D01*
X121531112Y-94127844D01*
X121540123Y-94162678D01*
X121548636Y-94195611D01*
X121556573Y-94226335D01*
X121563850Y-94254537D01*
X121570389Y-94279906D01*
X121576107Y-94302132D01*
X121580925Y-94320903D01*
X121584762Y-94335908D01*
X121587537Y-94346837D01*
X121589170Y-94353377D01*
X121589599Y-94355250D01*
X121592067Y-94355570D01*
X121599104Y-94355834D01*
X121610158Y-94356037D01*
X121624678Y-94356173D01*
X121642114Y-94356238D01*
X121661915Y-94356227D01*
X121683528Y-94356135D01*
X121688604Y-94356102D01*
X121787610Y-94355432D01*
X121811328Y-94255594D01*
X121814318Y-94243002D01*
X121818420Y-94225728D01*
X121823562Y-94204069D01*
X121829674Y-94178325D01*
X121836684Y-94148794D01*
X121844521Y-94115775D01*
X121853116Y-94079567D01*
X121862396Y-94040467D01*
X121872292Y-93998776D01*
X121882731Y-93954791D01*
X121893643Y-93908811D01*
X121904958Y-93861135D01*
X121916605Y-93812062D01*
X121928511Y-93761890D01*
X121940608Y-93710919D01*
X121952823Y-93659445D01*
X121955633Y-93647601D01*
X121967500Y-93597601D01*
X121979061Y-93548902D01*
X121990259Y-93501740D01*
X122001038Y-93456352D01*
X122011343Y-93412975D01*
X122021116Y-93371844D01*
X122030303Y-93333195D01*
X122038846Y-93297266D01*
X122046689Y-93264291D01*
X122053777Y-93234508D01*
X122060053Y-93208152D01*
X122065460Y-93185460D01*
X122069944Y-93166668D01*
X122073447Y-93152012D01*
X122075913Y-93141729D01*
X122077286Y-93136054D01*
X122077560Y-93134968D01*
X122077643Y-93133858D01*
X122076866Y-93132948D01*
X122074774Y-93132218D01*
X122070916Y-93131648D01*
X122064837Y-93131218D01*
X122056085Y-93130909D01*
X122044206Y-93130702D01*
X122028749Y-93130575D01*
X122009259Y-93130511D01*
X121985283Y-93130489D01*
X121974316Y-93130488D01*
X121869734Y-93130488D01*
X121794567Y-93486963D01*
X121785371Y-93530576D01*
X121776234Y-93573913D01*
X121767235Y-93616596D01*
X121758455Y-93658245D01*
X121749973Y-93698482D01*
X121741870Y-93736925D01*
X121734225Y-93773198D01*
X121727118Y-93806919D01*
X121720629Y-93837711D01*
X121714838Y-93865193D01*
X121709826Y-93888986D01*
X121705671Y-93908712D01*
X121702454Y-93923990D01*
X121701260Y-93929665D01*
X121696990Y-93949852D01*
X121693038Y-93968321D01*
X121689528Y-93984506D01*
X121686586Y-93997840D01*
X121684336Y-94007759D01*
X121682903Y-94013697D01*
X121682425Y-94015197D01*
X121681702Y-94012713D01*
X121679705Y-94005568D01*
X121676509Y-93994037D01*
X121672190Y-93978397D01*
X121666824Y-93958924D01*
X121660486Y-93935894D01*
X121653253Y-93909585D01*
X121645200Y-93880272D01*
X121636402Y-93848233D01*
X121626936Y-93813743D01*
X121616878Y-93777079D01*
X121606303Y-93738517D01*
X121595287Y-93698334D01*
X121583906Y-93656807D01*
X121572235Y-93614212D01*
X121560351Y-93570825D01*
X121548328Y-93526923D01*
X121536244Y-93482782D01*
X121524174Y-93438679D01*
X121512192Y-93394890D01*
X121500377Y-93351692D01*
X121488802Y-93309361D01*
X121477544Y-93268173D01*
X121466678Y-93228406D01*
X121456281Y-93190335D01*
X121446759Y-93155448D01*
X121439948Y-93130488D01*
X121287666Y-93130488D01*
X121283837Y-93143928D01*
X121282809Y-93147632D01*
X121280518Y-93155961D01*
X121277050Y-93168599D01*
X121272490Y-93185233D01*
X121266924Y-93205546D01*
X121260439Y-93229225D01*
X121253121Y-93255955D01*
X121245055Y-93285421D01*
X121236328Y-93317309D01*
X121227026Y-93351303D01*
X121217235Y-93387090D01*
X121207040Y-93424355D01*
X121196529Y-93462782D01*
X121185786Y-93502058D01*
X121174899Y-93541868D01*
X121163952Y-93581896D01*
X121153033Y-93621829D01*
X121142227Y-93661352D01*
X121131620Y-93700149D01*
X121121298Y-93737907D01*
X121111347Y-93774311D01*
X121101854Y-93809046D01*
X121092904Y-93841797D01*
X121084584Y-93872250D01*
X121076979Y-93900091D01*
X121070176Y-93925003D01*
X121064260Y-93946674D01*
X121059319Y-93964787D01*
X121055436Y-93979029D01*
X121052700Y-93989085D01*
X121051315Y-93994193D01*
X121048445Y-94004111D01*
X121046338Y-94009488D01*
X121044759Y-94010804D01*
X121043837Y-94009553D01*
X121043000Y-94006333D01*
X121041202Y-93998494D01*
X121038526Y-93986427D01*
X121035057Y-93970524D01*
X121030880Y-93951178D01*
X121026077Y-93928780D01*
X121020735Y-93903723D01*
X121014936Y-93876399D01*
X121008766Y-93847200D01*
X121002308Y-93816518D01*
X121000704Y-93808879D01*
X120989819Y-93757028D01*
X120979022Y-93705622D01*
X120968364Y-93654905D01*
X120957896Y-93605121D01*
X120947671Y-93556516D01*
X120937739Y-93509333D01*
X120928153Y-93463817D01*
X120918964Y-93420212D01*
X120910223Y-93378763D01*
X120901983Y-93339714D01*
X120894294Y-93303310D01*
X120887208Y-93269794D01*
X120880778Y-93239412D01*
X120875054Y-93212407D01*
X120870088Y-93189025D01*
X120865932Y-93169509D01*
X120862638Y-93154103D01*
X120860256Y-93143054D01*
X120858838Y-93136603D01*
X120858451Y-93134968D01*
X120857833Y-93133851D01*
X120856403Y-93132936D01*
X120853695Y-93132203D01*
X120849241Y-93131632D01*
X120842573Y-93131203D01*
X120833225Y-93130896D01*
X120820729Y-93130691D01*
X120804617Y-93130568D01*
X120784422Y-93130507D01*
X120759678Y-93130488D01*
X120753597Y-93130488D01*
X120726631Y-93130548D01*
X120703304Y-93130723D01*
X120683872Y-93131009D01*
X120668592Y-93131397D01*
X120657724Y-93131883D01*
X120651523Y-93132461D01*
X120650091Y-93132951D01*
X120208633Y-93132951D01*
X120199699Y-93132707D01*
X120180102Y-93132346D01*
X120157459Y-93132066D01*
X120131443Y-93131849D01*
X120101725Y-93131678D01*
X120067976Y-93131535D01*
X120029869Y-93131402D01*
X119987076Y-93131262D01*
X119972340Y-93131213D01*
X119700343Y-93130291D01*
X119700343Y-94356712D01*
X119594731Y-94356712D01*
X119594599Y-94352946D01*
X119594339Y-94341916D01*
X119594105Y-94327894D01*
X119593897Y-94310738D01*
X119593715Y-94290307D01*
X119593557Y-94266459D01*
X119593424Y-94239050D01*
X119593315Y-94207940D01*
X119593230Y-94172985D01*
X119593167Y-94134044D01*
X119593126Y-94090975D01*
X119593108Y-94043635D01*
X119593111Y-93991882D01*
X119593135Y-93935575D01*
X119593179Y-93874570D01*
X119593244Y-93808726D01*
X119593325Y-93739760D01*
X119594096Y-93130291D01*
X119594104Y-93124088D01*
X119599834Y-93108902D01*
X119612310Y-93082807D01*
X119628733Y-93059883D01*
X119648828Y-93040403D01*
X119672321Y-93024644D01*
X119694117Y-93014619D01*
X119709303Y-93008889D01*
X123295818Y-93008889D01*
X123311004Y-93014619D01*
G37*
%TO.C,C8*%
X128038748Y-95065000D02*
X128561252Y-95065000D01*
X128038748Y-96535000D02*
X128561252Y-96535000D01*
%TO.C,U2*%
X119990000Y-129160000D02*
X119990000Y-111260000D01*
X112490000Y-129220000D02*
X122990000Y-129220000D01*
X122990000Y-111200000D02*
X112490000Y-111200000D01*
X115490000Y-111260000D02*
X115490000Y-129160000D01*
X118740000Y-129160000D02*
X119990000Y-129160000D01*
X119990000Y-111260000D02*
X115490000Y-111260000D01*
X115490000Y-129160000D02*
X116740000Y-129160000D01*
X112490000Y-111200000D02*
X112490000Y-129220000D01*
X122990000Y-129220000D02*
X122990000Y-111200000D01*
X118740000Y-129160000D02*
G75*
G03*
X116740000Y-129160000I-1000000J0D01*
G01*
%TO.C,G\u002A\u002A\u002A*%
G36*
X119601210Y-88624817D02*
G01*
X119601218Y-88568305D01*
X119601232Y-88516448D01*
X119601254Y-88469036D01*
X119601285Y-88425861D01*
X119601328Y-88386713D01*
X119601384Y-88351384D01*
X119601455Y-88319664D01*
X119601543Y-88291345D01*
X119601649Y-88266217D01*
X119601775Y-88244072D01*
X119601923Y-88224699D01*
X119602095Y-88207891D01*
X119602292Y-88193438D01*
X119602517Y-88181131D01*
X119602770Y-88170762D01*
X119603054Y-88162120D01*
X119603371Y-88154997D01*
X119603721Y-88149185D01*
X119604108Y-88144473D01*
X119604533Y-88140653D01*
X119604997Y-88137516D01*
X119605502Y-88134853D01*
X119606050Y-88132455D01*
X119606423Y-88130967D01*
X119615226Y-88105162D01*
X119627837Y-88082516D01*
X119644831Y-88062013D01*
X119646101Y-88060730D01*
X119666500Y-88043431D01*
X119688976Y-88030553D01*
X119714544Y-88021520D01*
X119716338Y-88021052D01*
X119717719Y-88020710D01*
X119719207Y-88020383D01*
X119720922Y-88020071D01*
X119722982Y-88019774D01*
X119725507Y-88019491D01*
X119728616Y-88019222D01*
X119732430Y-88018967D01*
X119737067Y-88018724D01*
X119742646Y-88018495D01*
X119749287Y-88018278D01*
X119757110Y-88018073D01*
X119766234Y-88017880D01*
X119776777Y-88017698D01*
X119788861Y-88017527D01*
X119802603Y-88017368D01*
X119818123Y-88017218D01*
X119835541Y-88017079D01*
X119854977Y-88016949D01*
X119876548Y-88016829D01*
X119900376Y-88016717D01*
X119926578Y-88016615D01*
X119955276Y-88016520D01*
X119986587Y-88016434D01*
X120020632Y-88016355D01*
X120057529Y-88016283D01*
X120097399Y-88016218D01*
X120140360Y-88016160D01*
X120186532Y-88016108D01*
X120236034Y-88016062D01*
X120288986Y-88016021D01*
X120345507Y-88015986D01*
X120405717Y-88015955D01*
X120469734Y-88015929D01*
X120537679Y-88015907D01*
X120609670Y-88015889D01*
X120685827Y-88015874D01*
X120766270Y-88015862D01*
X120851117Y-88015853D01*
X120940488Y-88015846D01*
X121034503Y-88015841D01*
X121133281Y-88015838D01*
X121236941Y-88015836D01*
X121345602Y-88015835D01*
X121615584Y-88015835D01*
X121726005Y-88015836D01*
X121831384Y-88015837D01*
X121931838Y-88015840D01*
X122027489Y-88015844D01*
X122118455Y-88015850D01*
X122204855Y-88015858D01*
X122286809Y-88015869D01*
X122364437Y-88015883D01*
X122437857Y-88015900D01*
X122507189Y-88015921D01*
X122572553Y-88015946D01*
X122634067Y-88015975D01*
X122691852Y-88016009D01*
X122746026Y-88016047D01*
X122796710Y-88016092D01*
X122844022Y-88016142D01*
X122888081Y-88016198D01*
X122929008Y-88016260D01*
X122966921Y-88016329D01*
X123001940Y-88016405D01*
X123034184Y-88016489D01*
X123063773Y-88016581D01*
X123090826Y-88016681D01*
X123115463Y-88016789D01*
X123137802Y-88016906D01*
X123157963Y-88017033D01*
X123176066Y-88017169D01*
X123192230Y-88017315D01*
X123206575Y-88017471D01*
X123219219Y-88017638D01*
X123230282Y-88017815D01*
X123239884Y-88018005D01*
X123248144Y-88018205D01*
X123255181Y-88018418D01*
X123261114Y-88018643D01*
X123266064Y-88018881D01*
X123270149Y-88019132D01*
X123273489Y-88019396D01*
X123276203Y-88019675D01*
X123278410Y-88019967D01*
X123280231Y-88020273D01*
X123281784Y-88020595D01*
X123283189Y-88020932D01*
X123283662Y-88021052D01*
X123309467Y-88029855D01*
X123332113Y-88042466D01*
X123352616Y-88059459D01*
X123353899Y-88060730D01*
X123371197Y-88081129D01*
X123384076Y-88103604D01*
X123393109Y-88129173D01*
X123393577Y-88130967D01*
X123394154Y-88133305D01*
X123394686Y-88135775D01*
X123395176Y-88138586D01*
X123395626Y-88141946D01*
X123396036Y-88146064D01*
X123396410Y-88151150D01*
X123396748Y-88157413D01*
X123397053Y-88165061D01*
X123397325Y-88174304D01*
X123397568Y-88185351D01*
X123397782Y-88198410D01*
X123397970Y-88213691D01*
X123398133Y-88231403D01*
X123398273Y-88251755D01*
X123398392Y-88274956D01*
X123398491Y-88301215D01*
X123398573Y-88330741D01*
X123398638Y-88363743D01*
X123398689Y-88400430D01*
X123398728Y-88441011D01*
X123398755Y-88485695D01*
X123398774Y-88534692D01*
X123398786Y-88588210D01*
X123398792Y-88646458D01*
X123398794Y-88709645D01*
X123398794Y-88752641D01*
X123398793Y-88819089D01*
X123398790Y-88880465D01*
X123398782Y-88936977D01*
X123398768Y-88988834D01*
X123398746Y-89036246D01*
X123398715Y-89079421D01*
X123398672Y-89118568D01*
X123398616Y-89153897D01*
X123398545Y-89185617D01*
X123398458Y-89213936D01*
X123398352Y-89239064D01*
X123398225Y-89261210D01*
X123398077Y-89280582D01*
X123397905Y-89297391D01*
X123397708Y-89311844D01*
X123397484Y-89324150D01*
X123397230Y-89334520D01*
X123396946Y-89343162D01*
X123396629Y-89350284D01*
X123396279Y-89356097D01*
X123395892Y-89360809D01*
X123395467Y-89364628D01*
X123395003Y-89367765D01*
X123394498Y-89370428D01*
X123393950Y-89372827D01*
X123393577Y-89374315D01*
X123384774Y-89400120D01*
X123372163Y-89422765D01*
X123355169Y-89443269D01*
X123353899Y-89444552D01*
X123333500Y-89461850D01*
X123311025Y-89474729D01*
X123285456Y-89483762D01*
X123283662Y-89484230D01*
X123282282Y-89484572D01*
X123280795Y-89484898D01*
X123279083Y-89485210D01*
X123277026Y-89485507D01*
X123274505Y-89485790D01*
X123271401Y-89486059D01*
X123267593Y-89486314D01*
X123262964Y-89486556D01*
X123257392Y-89486785D01*
X123250760Y-89487001D01*
X123242947Y-89487206D01*
X123233835Y-89487398D01*
X123223304Y-89487579D01*
X123211235Y-89487749D01*
X123197507Y-89487907D01*
X123182003Y-89488056D01*
X123164603Y-89488194D01*
X123145187Y-89488322D01*
X123123635Y-89488440D01*
X123099830Y-89488550D01*
X123073650Y-89488650D01*
X123044978Y-89488743D01*
X123013693Y-89488827D01*
X122979676Y-89488903D01*
X122942808Y-89488971D01*
X122902970Y-89489033D01*
X122860042Y-89489088D01*
X122813905Y-89489136D01*
X122764439Y-89489178D01*
X122711525Y-89489214D01*
X122655044Y-89489245D01*
X122594877Y-89489271D01*
X122530904Y-89489292D01*
X122463005Y-89489308D01*
X122391062Y-89489321D01*
X122314955Y-89489330D01*
X122234565Y-89489335D01*
X122149772Y-89489337D01*
X122060457Y-89489337D01*
X121966500Y-89489334D01*
X121867784Y-89489329D01*
X121764187Y-89489322D01*
X121655590Y-89489314D01*
X121541875Y-89489305D01*
X121498917Y-89489301D01*
X121383270Y-89489292D01*
X121272784Y-89489282D01*
X121167342Y-89489271D01*
X121066824Y-89489260D01*
X120971111Y-89489247D01*
X120880084Y-89489232D01*
X120793623Y-89489216D01*
X120711609Y-89489197D01*
X120633923Y-89489176D01*
X120560446Y-89489152D01*
X120491058Y-89489124D01*
X120425640Y-89489093D01*
X120364074Y-89489057D01*
X120306239Y-89489017D01*
X120252017Y-89488973D01*
X120201288Y-89488923D01*
X120153933Y-89488868D01*
X120109833Y-89488807D01*
X120068869Y-89488740D01*
X120030921Y-89488667D01*
X119995871Y-89488586D01*
X119963598Y-89488499D01*
X119933984Y-89488404D01*
X119906909Y-89488301D01*
X119882255Y-89488190D01*
X119859902Y-89488070D01*
X119839730Y-89487941D01*
X119821621Y-89487803D01*
X119805456Y-89487656D01*
X119791115Y-89487498D01*
X119778478Y-89487331D01*
X119767427Y-89487152D01*
X119757843Y-89486963D01*
X119749606Y-89486762D01*
X119742596Y-89486550D01*
X119736696Y-89486325D01*
X119731785Y-89486088D01*
X119727744Y-89485839D01*
X119724455Y-89485576D01*
X119721797Y-89485300D01*
X119719652Y-89485010D01*
X119717900Y-89484706D01*
X119716422Y-89484388D01*
X119715297Y-89484106D01*
X119689129Y-89474855D01*
X119665942Y-89461439D01*
X119646101Y-89444552D01*
X119628803Y-89424153D01*
X119615924Y-89401677D01*
X119606891Y-89376109D01*
X119606423Y-89374315D01*
X119605847Y-89371976D01*
X119605314Y-89369506D01*
X119604824Y-89366696D01*
X119604375Y-89363336D01*
X119603964Y-89359217D01*
X119603590Y-89354131D01*
X119603252Y-89347869D01*
X119602948Y-89340220D01*
X119602675Y-89330977D01*
X119602432Y-89319931D01*
X119602218Y-89306871D01*
X119602030Y-89291590D01*
X119601867Y-89273878D01*
X119601727Y-89253526D01*
X119601608Y-89230325D01*
X119601509Y-89204066D01*
X119601427Y-89174541D01*
X119601362Y-89141539D01*
X119601311Y-89104852D01*
X119601273Y-89064271D01*
X119601245Y-89019586D01*
X119601226Y-88970590D01*
X119601215Y-88917072D01*
X119601209Y-88858824D01*
X119601206Y-88795637D01*
X119601206Y-88751320D01*
X119864001Y-88751320D01*
X119864005Y-88792101D01*
X119864040Y-88828015D01*
X119864122Y-88859480D01*
X119864270Y-88886910D01*
X119864499Y-88910723D01*
X119864828Y-88931333D01*
X119865274Y-88949158D01*
X119865853Y-88964612D01*
X119866583Y-88978112D01*
X119867481Y-88990073D01*
X119868565Y-89000912D01*
X119869851Y-89011044D01*
X119871357Y-89020886D01*
X119873100Y-89030853D01*
X119875096Y-89041362D01*
X119876225Y-89047099D01*
X119887499Y-89091764D01*
X119903079Y-89134263D01*
X119922719Y-89174239D01*
X119946173Y-89211334D01*
X119973195Y-89245190D01*
X120003539Y-89275449D01*
X120036960Y-89301754D01*
X120062346Y-89317792D01*
X120101320Y-89337211D01*
X120143364Y-89352808D01*
X120187761Y-89364439D01*
X120233792Y-89371959D01*
X120280738Y-89375224D01*
X120327881Y-89374090D01*
X120338821Y-89373178D01*
X120385735Y-89366200D01*
X120430520Y-89354442D01*
X120472988Y-89338039D01*
X120512946Y-89317123D01*
X120550206Y-89291830D01*
X120584576Y-89262292D01*
X120615866Y-89228644D01*
X120643886Y-89191020D01*
X120668445Y-89149553D01*
X120674863Y-89136889D01*
X120681505Y-89122790D01*
X120688222Y-89107671D01*
X120694098Y-89093635D01*
X120697290Y-89085392D01*
X120700828Y-89075012D01*
X120704866Y-89062001D01*
X120709116Y-89047424D01*
X120713294Y-89032347D01*
X120717112Y-89017835D01*
X120720284Y-89004951D01*
X120722525Y-88994761D01*
X120723548Y-88988331D01*
X120723581Y-88987566D01*
X120723431Y-88986258D01*
X120722658Y-88985192D01*
X120720771Y-88984343D01*
X120717282Y-88983686D01*
X120711703Y-88983196D01*
X120703545Y-88982849D01*
X120692320Y-88982621D01*
X120677539Y-88982486D01*
X120658713Y-88982420D01*
X120635354Y-88982399D01*
X120620908Y-88982397D01*
X120518234Y-88982397D01*
X120513795Y-89000223D01*
X120508302Y-89017452D01*
X120500104Y-89036977D01*
X120490017Y-89057157D01*
X120478857Y-89076353D01*
X120468063Y-89092107D01*
X120446540Y-89116269D01*
X120421349Y-89136981D01*
X120393168Y-89153797D01*
X120362673Y-89166272D01*
X120349896Y-89169968D01*
X120332609Y-89173145D01*
X120312006Y-89174971D01*
X120289883Y-89175419D01*
X120268036Y-89174464D01*
X120248264Y-89172078D01*
X120245129Y-89171507D01*
X120213126Y-89162801D01*
X120183919Y-89149667D01*
X120157664Y-89132251D01*
X120134516Y-89110697D01*
X120114629Y-89085153D01*
X120098158Y-89055762D01*
X120085259Y-89022672D01*
X120084638Y-89020690D01*
X120082273Y-89012823D01*
X120080205Y-89005257D01*
X120078414Y-88997593D01*
X120076880Y-88989434D01*
X120075584Y-88980380D01*
X120074506Y-88970033D01*
X120073627Y-88957994D01*
X120072925Y-88943866D01*
X120072382Y-88927248D01*
X120071978Y-88907743D01*
X120071694Y-88884953D01*
X120071508Y-88858478D01*
X120071403Y-88827920D01*
X120071357Y-88792880D01*
X120071351Y-88752960D01*
X120071351Y-88752641D01*
X120071354Y-88750000D01*
X120925623Y-88750000D01*
X120925631Y-88791282D01*
X120925673Y-88827686D01*
X120925766Y-88859614D01*
X120925925Y-88887469D01*
X120926167Y-88911654D01*
X120926509Y-88932573D01*
X120926967Y-88950627D01*
X120927558Y-88966220D01*
X120928298Y-88979755D01*
X120929203Y-88991635D01*
X120930291Y-89002262D01*
X120931578Y-89012041D01*
X120933080Y-89021373D01*
X120934814Y-89030662D01*
X120936795Y-89040310D01*
X120937682Y-89044458D01*
X120950228Y-89091078D01*
X120967009Y-89134694D01*
X120987821Y-89175162D01*
X121012459Y-89212339D01*
X121040720Y-89246080D01*
X121072397Y-89276242D01*
X121107286Y-89302679D01*
X121145182Y-89325249D01*
X121185880Y-89343806D01*
X121229176Y-89358208D01*
X121274865Y-89368309D01*
X121322742Y-89373966D01*
X121372602Y-89375035D01*
X121405107Y-89373273D01*
X121454579Y-89366845D01*
X121472584Y-89362684D01*
X122059867Y-89362684D01*
X122247353Y-89362684D01*
X122248022Y-88946521D01*
X122248690Y-88530358D01*
X122325741Y-88734590D01*
X122339207Y-88770283D01*
X122353345Y-88807757D01*
X122367865Y-88846247D01*
X122382479Y-88884983D01*
X122396895Y-88923198D01*
X122410825Y-88960123D01*
X122423978Y-88994990D01*
X122436065Y-89027032D01*
X122446797Y-89055480D01*
X122453824Y-89074109D01*
X122504856Y-89209396D01*
X122585832Y-89209454D01*
X122666808Y-89209513D01*
X122673546Y-89191687D01*
X122675408Y-89186700D01*
X122678961Y-89177124D01*
X122684069Y-89163327D01*
X122690596Y-89145677D01*
X122698407Y-89124540D01*
X122707366Y-89100284D01*
X122717337Y-89073277D01*
X122728184Y-89043886D01*
X122739772Y-89012478D01*
X122751966Y-88979421D01*
X122764629Y-88945082D01*
X122770344Y-88929580D01*
X122783833Y-88892995D01*
X122797373Y-88856271D01*
X122810779Y-88819914D01*
X122823864Y-88784429D01*
X122836442Y-88750320D01*
X122848328Y-88718092D01*
X122859334Y-88688250D01*
X122869275Y-88661299D01*
X122877964Y-88637744D01*
X122885216Y-88618090D01*
X122890843Y-88602842D01*
X122891260Y-88601714D01*
X122922115Y-88518129D01*
X122922783Y-88940407D01*
X122923451Y-89362684D01*
X123113590Y-89362684D01*
X123112258Y-88143918D01*
X122997097Y-88143230D01*
X122881935Y-88142542D01*
X122876686Y-88156434D01*
X122875206Y-88160448D01*
X122872025Y-88169148D01*
X122867244Y-88182260D01*
X122860964Y-88199504D01*
X122853284Y-88220604D01*
X122844307Y-88245283D01*
X122834133Y-88273262D01*
X122822863Y-88304266D01*
X122810597Y-88338016D01*
X122797437Y-88374236D01*
X122783483Y-88412648D01*
X122768836Y-88452974D01*
X122753597Y-88494938D01*
X122737866Y-88538263D01*
X122729282Y-88561907D01*
X122713420Y-88605559D01*
X122698033Y-88647819D01*
X122683218Y-88688424D01*
X122669072Y-88727113D01*
X122655693Y-88763621D01*
X122643178Y-88797686D01*
X122631623Y-88829045D01*
X122621127Y-88857434D01*
X122611785Y-88882592D01*
X122603696Y-88904255D01*
X122596956Y-88922159D01*
X122591663Y-88936043D01*
X122587914Y-88945643D01*
X122585805Y-88950697D01*
X122585368Y-88951437D01*
X122584288Y-88948768D01*
X122581506Y-88941397D01*
X122577118Y-88929588D01*
X122571220Y-88913606D01*
X122563911Y-88893714D01*
X122555285Y-88870176D01*
X122545439Y-88843257D01*
X122534470Y-88813221D01*
X122522475Y-88780331D01*
X122509549Y-88744853D01*
X122495789Y-88707049D01*
X122481292Y-88667185D01*
X122466155Y-88625525D01*
X122450472Y-88582332D01*
X122438964Y-88550613D01*
X122422937Y-88506439D01*
X122407377Y-88463580D01*
X122392382Y-88422302D01*
X122378049Y-88382873D01*
X122364476Y-88345557D01*
X122351760Y-88310622D01*
X122339997Y-88278334D01*
X122329284Y-88248959D01*
X122319720Y-88222764D01*
X122311400Y-88200014D01*
X122304423Y-88180978D01*
X122298884Y-88165920D01*
X122294882Y-88155107D01*
X122292514Y-88148806D01*
X122291878Y-88147219D01*
X122290994Y-88146103D01*
X122289314Y-88145182D01*
X122286371Y-88144438D01*
X122281695Y-88143850D01*
X122274818Y-88143402D01*
X122265269Y-88143075D01*
X122252581Y-88142849D01*
X122236285Y-88142707D01*
X122215910Y-88142631D01*
X122190989Y-88142601D01*
X122174652Y-88142597D01*
X122059867Y-88142597D01*
X122059867Y-89362684D01*
X121472584Y-89362684D01*
X121501441Y-89356015D01*
X121545556Y-89340847D01*
X121586787Y-89321407D01*
X121624997Y-89297760D01*
X121660048Y-89269970D01*
X121691805Y-89238103D01*
X121693474Y-89236210D01*
X121719677Y-89202398D01*
X121742449Y-89164874D01*
X121761604Y-89124094D01*
X121776957Y-89080515D01*
X121788322Y-89034591D01*
X121795514Y-88986779D01*
X121795653Y-88985419D01*
X121796172Y-88977481D01*
X121796638Y-88964810D01*
X121797050Y-88947928D01*
X121797408Y-88927356D01*
X121797713Y-88903616D01*
X121797963Y-88877230D01*
X121798160Y-88848718D01*
X121798303Y-88818602D01*
X121798392Y-88787404D01*
X121798427Y-88755645D01*
X121798408Y-88723847D01*
X121798335Y-88692531D01*
X121798208Y-88662219D01*
X121798027Y-88633432D01*
X121797791Y-88606692D01*
X121797502Y-88582520D01*
X121797158Y-88561438D01*
X121796759Y-88543968D01*
X121796307Y-88530630D01*
X121795800Y-88521946D01*
X121795691Y-88520799D01*
X121787994Y-88470374D01*
X121776027Y-88422865D01*
X121759926Y-88378412D01*
X121739826Y-88337156D01*
X121715864Y-88299236D01*
X121688175Y-88264794D01*
X121656894Y-88233969D01*
X121622158Y-88206901D01*
X121584102Y-88183730D01*
X121542862Y-88164598D01*
X121498574Y-88149643D01*
X121451373Y-88139007D01*
X121421987Y-88134787D01*
X121402639Y-88133198D01*
X121379930Y-88132335D01*
X121355731Y-88132198D01*
X121331913Y-88132784D01*
X121310347Y-88134094D01*
X121302490Y-88134851D01*
X121254369Y-88142549D01*
X121208746Y-88154760D01*
X121165765Y-88171418D01*
X121125572Y-88192455D01*
X121088313Y-88217803D01*
X121054132Y-88247396D01*
X121049571Y-88251904D01*
X121020448Y-88284306D01*
X120995421Y-88319014D01*
X120974321Y-88356385D01*
X120956979Y-88396778D01*
X120943225Y-88440549D01*
X120932891Y-88488057D01*
X120930360Y-88503560D01*
X120929498Y-88509662D01*
X120928745Y-88516061D01*
X120928096Y-88523146D01*
X120927543Y-88531306D01*
X120927077Y-88540928D01*
X120926693Y-88552403D01*
X120926381Y-88566119D01*
X120926135Y-88582464D01*
X120925948Y-88601827D01*
X120925811Y-88624597D01*
X120925718Y-88651163D01*
X120925660Y-88681913D01*
X120925631Y-88717237D01*
X120925623Y-88750000D01*
X120071354Y-88750000D01*
X120071393Y-88716113D01*
X120071503Y-88681895D01*
X120071677Y-88650339D01*
X120071910Y-88621798D01*
X120072198Y-88596625D01*
X120072536Y-88575174D01*
X120072921Y-88557797D01*
X120073348Y-88544849D01*
X120073812Y-88536681D01*
X120074016Y-88534768D01*
X120081146Y-88499143D01*
X120091947Y-88465916D01*
X120106164Y-88435615D01*
X120123544Y-88408772D01*
X120143832Y-88385917D01*
X120146628Y-88383304D01*
X120171710Y-88363822D01*
X120199486Y-88348792D01*
X120230036Y-88338187D01*
X120263439Y-88331977D01*
X120297078Y-88330122D01*
X120330113Y-88332663D01*
X120361568Y-88340103D01*
X120391171Y-88352222D01*
X120418652Y-88368803D01*
X120443740Y-88389627D01*
X120466164Y-88414476D01*
X120485651Y-88443130D01*
X120501932Y-88475371D01*
X120512509Y-88503738D01*
X120518632Y-88522884D01*
X120621106Y-88522884D01*
X120647337Y-88522864D01*
X120668757Y-88522791D01*
X120685836Y-88522646D01*
X120699046Y-88522413D01*
X120708858Y-88522071D01*
X120715741Y-88521604D01*
X120720166Y-88520992D01*
X120722606Y-88520218D01*
X120723529Y-88519263D01*
X120723581Y-88518901D01*
X120722867Y-88513299D01*
X120720918Y-88503777D01*
X120718025Y-88491472D01*
X120714478Y-88477522D01*
X120710568Y-88463064D01*
X120706585Y-88449234D01*
X120702819Y-88437170D01*
X120702342Y-88435735D01*
X120684151Y-88388691D01*
X120662342Y-88345026D01*
X120637068Y-88304927D01*
X120608483Y-88268581D01*
X120576742Y-88236178D01*
X120541999Y-88207905D01*
X120504407Y-88183951D01*
X120489622Y-88176127D01*
X120451912Y-88159403D01*
X120413622Y-88146920D01*
X120373735Y-88138428D01*
X120331235Y-88133678D01*
X120312655Y-88132748D01*
X120260809Y-88133163D01*
X120211799Y-88138001D01*
X120165559Y-88147277D01*
X120122017Y-88161005D01*
X120084358Y-88177539D01*
X120059970Y-88190570D01*
X120039037Y-88203596D01*
X120019876Y-88217829D01*
X120000801Y-88234480D01*
X119987915Y-88246912D01*
X119959565Y-88278138D01*
X119935130Y-88311704D01*
X119914443Y-88347974D01*
X119897334Y-88387311D01*
X119883636Y-88430080D01*
X119873180Y-88476643D01*
X119868694Y-88504398D01*
X119867837Y-88510906D01*
X119867089Y-88517744D01*
X119866445Y-88525304D01*
X119865895Y-88533979D01*
X119865434Y-88544163D01*
X119865053Y-88556249D01*
X119864745Y-88570629D01*
X119864502Y-88587697D01*
X119864317Y-88607846D01*
X119864183Y-88631469D01*
X119864091Y-88658958D01*
X119864035Y-88690708D01*
X119864007Y-88727111D01*
X119864001Y-88751320D01*
X119601206Y-88751320D01*
X119601207Y-88686192D01*
X119601210Y-88624817D01*
G37*
G36*
X121377921Y-88331641D02*
G01*
X121399178Y-88333017D01*
X121417844Y-88335536D01*
X121427376Y-88337656D01*
X121459462Y-88348922D01*
X121488790Y-88364464D01*
X121515004Y-88383995D01*
X121537748Y-88407231D01*
X121556667Y-88433886D01*
X121564192Y-88447624D01*
X121575056Y-88472254D01*
X121582909Y-88497266D01*
X121588455Y-88524928D01*
X121588708Y-88526575D01*
X121589442Y-88532141D01*
X121590075Y-88538690D01*
X121590613Y-88546590D01*
X121591059Y-88556211D01*
X121591419Y-88567920D01*
X121591698Y-88582085D01*
X121591900Y-88599073D01*
X121592030Y-88619254D01*
X121592092Y-88642995D01*
X121592092Y-88670665D01*
X121592035Y-88702630D01*
X121591924Y-88739260D01*
X121591822Y-88766896D01*
X121590982Y-88981077D01*
X121583854Y-89007147D01*
X121573196Y-89038559D01*
X121559220Y-89067555D01*
X121542360Y-89093440D01*
X121523050Y-89115524D01*
X121507625Y-89128871D01*
X121492183Y-89139173D01*
X121473606Y-89149418D01*
X121453898Y-89158630D01*
X121435066Y-89165834D01*
X121426055Y-89168523D01*
X121411302Y-89171320D01*
X121392907Y-89173229D01*
X121372440Y-89174227D01*
X121351470Y-89174292D01*
X121331566Y-89173402D01*
X121314297Y-89171535D01*
X121307122Y-89170223D01*
X121274019Y-89160455D01*
X121243865Y-89146362D01*
X121216865Y-89128131D01*
X121193225Y-89105948D01*
X121173150Y-89080003D01*
X121156843Y-89050481D01*
X121146235Y-89023142D01*
X121143891Y-89015703D01*
X121141832Y-89008617D01*
X121140043Y-89001507D01*
X121138505Y-88993994D01*
X121137202Y-88985700D01*
X121136118Y-88976246D01*
X121135234Y-88965253D01*
X121134534Y-88952344D01*
X121134001Y-88937140D01*
X121133619Y-88919263D01*
X121133369Y-88898333D01*
X121133236Y-88873973D01*
X121133201Y-88845805D01*
X121133249Y-88813448D01*
X121133362Y-88776527D01*
X121133503Y-88739436D01*
X121134366Y-88524205D01*
X121141274Y-88499116D01*
X121148310Y-88476233D01*
X121156138Y-88456613D01*
X121165638Y-88438239D01*
X121173412Y-88425570D01*
X121193151Y-88399802D01*
X121216557Y-88377816D01*
X121243565Y-88359659D01*
X121274104Y-88345379D01*
X121297973Y-88337599D01*
X121314099Y-88334390D01*
X121333832Y-88332327D01*
X121355623Y-88331411D01*
X121377921Y-88331641D01*
G37*
%TO.C,D2*%
X157502500Y-128790000D02*
X157502500Y-130710000D01*
X160187500Y-128790000D02*
X157502500Y-128790000D01*
X157502500Y-130710000D02*
X160187500Y-130710000D01*
%TO.C,G\u002A\u002A\u002A*%
G36*
X158194660Y-97895833D02*
G01*
X157701362Y-97895076D01*
X157208063Y-97894318D01*
X157207279Y-97781286D01*
X157206494Y-97668255D01*
X158194660Y-97668255D01*
X158194660Y-97895833D01*
G37*
G36*
X156816225Y-98049441D02*
G01*
X156824551Y-98052136D01*
X156837960Y-98056506D01*
X156856149Y-98062452D01*
X156878818Y-98069874D01*
X156905662Y-98078672D01*
X156936380Y-98088748D01*
X156970670Y-98100002D01*
X157008228Y-98112333D01*
X157048754Y-98125644D01*
X157091944Y-98139834D01*
X157137496Y-98154805D01*
X157185109Y-98170455D01*
X157234478Y-98186687D01*
X157285304Y-98203401D01*
X157337282Y-98220496D01*
X157390110Y-98237875D01*
X157443487Y-98255436D01*
X157497110Y-98273082D01*
X157550677Y-98290712D01*
X157603885Y-98308226D01*
X157656432Y-98325527D01*
X157708016Y-98342513D01*
X157758335Y-98359085D01*
X157807085Y-98375145D01*
X157853966Y-98390593D01*
X157898673Y-98405328D01*
X157940906Y-98419252D01*
X157980362Y-98432266D01*
X158016739Y-98444269D01*
X158049733Y-98455163D01*
X158079044Y-98464848D01*
X158104368Y-98473224D01*
X158118307Y-98477840D01*
X158193163Y-98502643D01*
X158194741Y-98697759D01*
X158180478Y-98702348D01*
X158176088Y-98703782D01*
X158166330Y-98706984D01*
X158151524Y-98711849D01*
X158131988Y-98718273D01*
X158108043Y-98726149D01*
X158080009Y-98735373D01*
X158048204Y-98745839D01*
X158012949Y-98757441D01*
X157974563Y-98770076D01*
X157933366Y-98783637D01*
X157889677Y-98798019D01*
X157843816Y-98813118D01*
X157796102Y-98828827D01*
X157746856Y-98845041D01*
X157696396Y-98861656D01*
X157645043Y-98878566D01*
X157593116Y-98895665D01*
X157540935Y-98912849D01*
X157488819Y-98930013D01*
X157437087Y-98947050D01*
X157386060Y-98963856D01*
X157336058Y-98980326D01*
X157287399Y-98996354D01*
X157240403Y-99011835D01*
X157195390Y-99026664D01*
X157152679Y-99040736D01*
X157112591Y-99053944D01*
X157075444Y-99066185D01*
X157041559Y-99077353D01*
X157011255Y-99087342D01*
X156984851Y-99096048D01*
X156965531Y-99102420D01*
X156812826Y-99152794D01*
X156812042Y-99034256D01*
X156811926Y-99008175D01*
X156811926Y-98983977D01*
X156812035Y-98962313D01*
X156812243Y-98943837D01*
X156812544Y-98929199D01*
X156812929Y-98919052D01*
X156813390Y-98914048D01*
X156813540Y-98913648D01*
X156816595Y-98912551D01*
X156825077Y-98909765D01*
X156838693Y-98905383D01*
X156857151Y-98899496D01*
X156880160Y-98892196D01*
X156907428Y-98883576D01*
X156938662Y-98873726D01*
X156973572Y-98862739D01*
X157011865Y-98850706D01*
X157053250Y-98837719D01*
X157097434Y-98823871D01*
X157144127Y-98809252D01*
X157193035Y-98793956D01*
X157243868Y-98778072D01*
X157296334Y-98761694D01*
X157313730Y-98756267D01*
X157376613Y-98736647D01*
X157434016Y-98718725D01*
X157486180Y-98702423D01*
X157533344Y-98687663D01*
X157575748Y-98674367D01*
X157613632Y-98662458D01*
X157647235Y-98651858D01*
X157676798Y-98642489D01*
X157702560Y-98634273D01*
X157724762Y-98627133D01*
X157743642Y-98620991D01*
X157759441Y-98615769D01*
X157772399Y-98611389D01*
X157782755Y-98607775D01*
X157790750Y-98604847D01*
X157796622Y-98602529D01*
X157800613Y-98600741D01*
X157802961Y-98599408D01*
X157803907Y-98598451D01*
X157803690Y-98597792D01*
X157803286Y-98597576D01*
X157799571Y-98596333D01*
X157790438Y-98593401D01*
X157776185Y-98588873D01*
X157757110Y-98582843D01*
X157733512Y-98575403D01*
X157705689Y-98566649D01*
X157673939Y-98556674D01*
X157638562Y-98545570D01*
X157599855Y-98533433D01*
X157558117Y-98520355D01*
X157513646Y-98506430D01*
X157466740Y-98491752D01*
X157417698Y-98476415D01*
X157366819Y-98460512D01*
X157314400Y-98444136D01*
X157303130Y-98440616D01*
X156811329Y-98287036D01*
X156811329Y-98167778D01*
X156811376Y-98141715D01*
X156811511Y-98117617D01*
X156811724Y-98096120D01*
X156812003Y-98077860D01*
X156812339Y-98063471D01*
X156812721Y-98053589D01*
X156813139Y-98048849D01*
X156813284Y-98048521D01*
X156816225Y-98049441D01*
G37*
G36*
X157038890Y-97895888D02*
G01*
X156812826Y-97894318D01*
X156812041Y-97781286D01*
X156811257Y-97668255D01*
X157038890Y-97668255D01*
X157038890Y-97895888D01*
G37*
G36*
X158194660Y-96811907D02*
G01*
X157889466Y-96811907D01*
X157830235Y-96811941D01*
X157776778Y-96812043D01*
X157729119Y-96812214D01*
X157687284Y-96812453D01*
X157651295Y-96812759D01*
X157621178Y-96813133D01*
X157596957Y-96813573D01*
X157578657Y-96814081D01*
X157566301Y-96814656D01*
X157560850Y-96815144D01*
X157527617Y-96822253D01*
X157498322Y-96833801D01*
X157473064Y-96849702D01*
X157451946Y-96869868D01*
X157435066Y-96894212D01*
X157422527Y-96922648D01*
X157417850Y-96938639D01*
X157414757Y-96956435D01*
X157413048Y-96977916D01*
X157412725Y-97000942D01*
X157413790Y-97023370D01*
X157416244Y-97043061D01*
X157417756Y-97050270D01*
X157427818Y-97079956D01*
X157442363Y-97105686D01*
X157461291Y-97127363D01*
X157484503Y-97144885D01*
X157511899Y-97158154D01*
X157531997Y-97164475D01*
X157535549Y-97165308D01*
X157539576Y-97166044D01*
X157544433Y-97166690D01*
X157550474Y-97167249D01*
X157558055Y-97167726D01*
X157567529Y-97168124D01*
X157579250Y-97168449D01*
X157593572Y-97168705D01*
X157610852Y-97168896D01*
X157631441Y-97169026D01*
X157655695Y-97169101D01*
X157683969Y-97169123D01*
X157716616Y-97169098D01*
X157753991Y-97169030D01*
X157796448Y-97168924D01*
X157844342Y-97168783D01*
X157873530Y-97168692D01*
X158194660Y-97167667D01*
X158194660Y-97395780D01*
X157206494Y-97395780D01*
X157207279Y-97282748D01*
X157208063Y-97169716D01*
X157273344Y-97168219D01*
X157338624Y-97166722D01*
X157316252Y-97150728D01*
X157288843Y-97128481D01*
X157263585Y-97102806D01*
X157241580Y-97075009D01*
X157223933Y-97046394D01*
X157218341Y-97035009D01*
X157206584Y-97002654D01*
X157198797Y-96966829D01*
X157195035Y-96928598D01*
X157195356Y-96889022D01*
X157199813Y-96849164D01*
X157206854Y-96816020D01*
X157219842Y-96777902D01*
X157237970Y-96742638D01*
X157261001Y-96710444D01*
X157288698Y-96681538D01*
X157320823Y-96656139D01*
X157357140Y-96634465D01*
X157397410Y-96616733D01*
X157437617Y-96604122D01*
X157447902Y-96601462D01*
X157457350Y-96599082D01*
X157466338Y-96596965D01*
X157475240Y-96595094D01*
X157484434Y-96593453D01*
X157494294Y-96592024D01*
X157505197Y-96590792D01*
X157517519Y-96589738D01*
X157531635Y-96588847D01*
X157547921Y-96588102D01*
X157566754Y-96587486D01*
X157588509Y-96586982D01*
X157613561Y-96586574D01*
X157642287Y-96586244D01*
X157675063Y-96585976D01*
X157712265Y-96585754D01*
X157754267Y-96585560D01*
X157801447Y-96585377D01*
X157854180Y-96585190D01*
X157863050Y-96585159D01*
X158194660Y-96583991D01*
X158194660Y-96811907D01*
G37*
G36*
X158256218Y-100007267D02*
G01*
X158240194Y-100007556D01*
X158219124Y-100007827D01*
X158193320Y-100008081D01*
X158163097Y-100008317D01*
X158128769Y-100008536D01*
X158090649Y-100008738D01*
X158049052Y-100008922D01*
X158004290Y-100009088D01*
X157956678Y-100009238D01*
X157906530Y-100009370D01*
X157854159Y-100009484D01*
X157799880Y-100009581D01*
X157744006Y-100009661D01*
X157686850Y-100009723D01*
X157628728Y-100009768D01*
X157569952Y-100009796D01*
X157510837Y-100009806D01*
X157451696Y-100009799D01*
X157392843Y-100009774D01*
X157334592Y-100009732D01*
X157277257Y-100009673D01*
X157221152Y-100009596D01*
X157166589Y-100009501D01*
X157113884Y-100009390D01*
X157063351Y-100009261D01*
X157015302Y-100009114D01*
X156970052Y-100008950D01*
X156927914Y-100008769D01*
X156889203Y-100008570D01*
X156854232Y-100008354D01*
X156823315Y-100008121D01*
X156796766Y-100007870D01*
X156774898Y-100007602D01*
X156758026Y-100007316D01*
X156746464Y-100007013D01*
X156740524Y-100006692D01*
X156740109Y-100006638D01*
X156702138Y-99997613D01*
X156667003Y-99983316D01*
X156634675Y-99963730D01*
X156605122Y-99938839D01*
X156602934Y-99936676D01*
X156577629Y-99907337D01*
X156557630Y-99875226D01*
X156542921Y-99840312D01*
X156533486Y-99802563D01*
X156532971Y-99799500D01*
X156532771Y-99795284D01*
X156532662Y-99789662D01*
X156660120Y-99789662D01*
X156667332Y-99807627D01*
X156676560Y-99824517D01*
X156689988Y-99841273D01*
X156706014Y-99856289D01*
X156723031Y-99867963D01*
X156731982Y-99872277D01*
X156749947Y-99879489D01*
X158262030Y-99879489D01*
X158279237Y-99872540D01*
X158293642Y-99864869D01*
X158308900Y-99853730D01*
X158322993Y-99840820D01*
X158333899Y-99827836D01*
X158335658Y-99825157D01*
X158340332Y-99816139D01*
X158345171Y-99804582D01*
X158347613Y-99797638D01*
X158347970Y-99796376D01*
X158348311Y-99794783D01*
X158348637Y-99792724D01*
X158348947Y-99790063D01*
X158349241Y-99786667D01*
X158349521Y-99782398D01*
X158349786Y-99777124D01*
X158350038Y-99770707D01*
X158350275Y-99763014D01*
X158350499Y-99753909D01*
X158350710Y-99743257D01*
X158350907Y-99730922D01*
X158351093Y-99716771D01*
X158351266Y-99700667D01*
X158351427Y-99682476D01*
X158351577Y-99662062D01*
X158351715Y-99639291D01*
X158351843Y-99614027D01*
X158351960Y-99586135D01*
X158352067Y-99555480D01*
X158352163Y-99521927D01*
X158352251Y-99485341D01*
X158352329Y-99445586D01*
X158352398Y-99402528D01*
X158352458Y-99356032D01*
X158352510Y-99305962D01*
X158352554Y-99252184D01*
X158352591Y-99194561D01*
X158352620Y-99132960D01*
X158352642Y-99067245D01*
X158352658Y-98997281D01*
X158352667Y-98922932D01*
X158352670Y-98844064D01*
X158352668Y-98760542D01*
X158352660Y-98672230D01*
X158352647Y-98578993D01*
X158352630Y-98480697D01*
X158352608Y-98377206D01*
X158352582Y-98268385D01*
X158352552Y-98154099D01*
X158352519Y-98034213D01*
X158352483Y-97908591D01*
X158352449Y-97794012D01*
X158351857Y-95807344D01*
X158344645Y-95789379D01*
X158335418Y-95772489D01*
X158321989Y-95755734D01*
X158305964Y-95740717D01*
X158288946Y-95729044D01*
X158279996Y-95724729D01*
X158262030Y-95717518D01*
X156749947Y-95717518D01*
X156731982Y-95724729D01*
X156715092Y-95733957D01*
X156698337Y-95747386D01*
X156683320Y-95763411D01*
X156671646Y-95780428D01*
X156667332Y-95789379D01*
X156660120Y-95807344D01*
X156660120Y-99789662D01*
X156532662Y-99789662D01*
X156532577Y-99785271D01*
X156532390Y-99769651D01*
X156532209Y-99748616D01*
X156532035Y-99722356D01*
X156531867Y-99691063D01*
X156531706Y-99654928D01*
X156531551Y-99614142D01*
X156531403Y-99568895D01*
X156531261Y-99519379D01*
X156531126Y-99465785D01*
X156530997Y-99408304D01*
X156530875Y-99347127D01*
X156530759Y-99282444D01*
X156530650Y-99214448D01*
X156530547Y-99143328D01*
X156530450Y-99069277D01*
X156530361Y-98992485D01*
X156530277Y-98913142D01*
X156530200Y-98831441D01*
X156530130Y-98747571D01*
X156530066Y-98661725D01*
X156530009Y-98574093D01*
X156529958Y-98484866D01*
X156529913Y-98394236D01*
X156529875Y-98302392D01*
X156529844Y-98209527D01*
X156529819Y-98115831D01*
X156529800Y-98021496D01*
X156529788Y-97926712D01*
X156529783Y-97831670D01*
X156529784Y-97736561D01*
X156529791Y-97641577D01*
X156529805Y-97546909D01*
X156529826Y-97452746D01*
X156529853Y-97359282D01*
X156529886Y-97266706D01*
X156529926Y-97175209D01*
X156529972Y-97084983D01*
X156530025Y-96996219D01*
X156530085Y-96909107D01*
X156530150Y-96823839D01*
X156530223Y-96740605D01*
X156530302Y-96659598D01*
X156530387Y-96581007D01*
X156530479Y-96505023D01*
X156530577Y-96431839D01*
X156530682Y-96361644D01*
X156530793Y-96294631D01*
X156530911Y-96230989D01*
X156531035Y-96170910D01*
X156531166Y-96114585D01*
X156531303Y-96062205D01*
X156531447Y-96013961D01*
X156531597Y-95970043D01*
X156531754Y-95930644D01*
X156531917Y-95895954D01*
X156532087Y-95866164D01*
X156532263Y-95841466D01*
X156532446Y-95822049D01*
X156532635Y-95808105D01*
X156532831Y-95799826D01*
X156532971Y-95797506D01*
X156541996Y-95759535D01*
X156556293Y-95724401D01*
X156575879Y-95692073D01*
X156600770Y-95662519D01*
X156602934Y-95660331D01*
X156632272Y-95635026D01*
X156664383Y-95615027D01*
X156699297Y-95600318D01*
X156737046Y-95590883D01*
X156740109Y-95590368D01*
X156745097Y-95590045D01*
X156755760Y-95589739D01*
X156771783Y-95589451D01*
X156792854Y-95589179D01*
X156818657Y-95588926D01*
X156848880Y-95588689D01*
X156883208Y-95588470D01*
X156921328Y-95588269D01*
X156962926Y-95588085D01*
X157007688Y-95587918D01*
X157055299Y-95587769D01*
X157105448Y-95587637D01*
X157157818Y-95587522D01*
X157212097Y-95587425D01*
X157267972Y-95587345D01*
X157325127Y-95587283D01*
X157383249Y-95587238D01*
X157442025Y-95587211D01*
X157501140Y-95587200D01*
X157560281Y-95587208D01*
X157619134Y-95587232D01*
X157677385Y-95587274D01*
X157734720Y-95587334D01*
X157790826Y-95587411D01*
X157845388Y-95587505D01*
X157898093Y-95587617D01*
X157948627Y-95587746D01*
X157996676Y-95587892D01*
X158041926Y-95588056D01*
X158084063Y-95588238D01*
X158122775Y-95588436D01*
X158157746Y-95588652D01*
X158188663Y-95588886D01*
X158215212Y-95589137D01*
X158237079Y-95589405D01*
X158253951Y-95589691D01*
X158265514Y-95589994D01*
X158271453Y-95590314D01*
X158271868Y-95590368D01*
X158309840Y-95599393D01*
X158344974Y-95613691D01*
X158377302Y-95633277D01*
X158406856Y-95658167D01*
X158409044Y-95660331D01*
X158434349Y-95689670D01*
X158454347Y-95721780D01*
X158469057Y-95756695D01*
X158478492Y-95794444D01*
X158479006Y-95797506D01*
X158479185Y-95801586D01*
X158479357Y-95811463D01*
X158479524Y-95826946D01*
X158479684Y-95847844D01*
X158479838Y-95873967D01*
X158479987Y-95905123D01*
X158480129Y-95941123D01*
X158480266Y-95981774D01*
X158480396Y-96026888D01*
X158480521Y-96076273D01*
X158480640Y-96129737D01*
X158480753Y-96187092D01*
X158480859Y-96248145D01*
X158480960Y-96312706D01*
X158481055Y-96380585D01*
X158481144Y-96451591D01*
X158481228Y-96525532D01*
X158481305Y-96602219D01*
X158481376Y-96681460D01*
X158481442Y-96763065D01*
X158481501Y-96846844D01*
X158481555Y-96932604D01*
X158481603Y-97020157D01*
X158481645Y-97109310D01*
X158481682Y-97199874D01*
X158481712Y-97291657D01*
X158481737Y-97384469D01*
X158481756Y-97478119D01*
X158481769Y-97572417D01*
X158481776Y-97667171D01*
X158481777Y-97762191D01*
X158481773Y-97857287D01*
X158481763Y-97952267D01*
X158481747Y-98046941D01*
X158481725Y-98141118D01*
X158481698Y-98234608D01*
X158481665Y-98327219D01*
X158481626Y-98418761D01*
X158481581Y-98509044D01*
X158481531Y-98597876D01*
X158481475Y-98685067D01*
X158481413Y-98770426D01*
X158481345Y-98853763D01*
X158481272Y-98934886D01*
X158481193Y-99013605D01*
X158481109Y-99089730D01*
X158481019Y-99163069D01*
X158480923Y-99233432D01*
X158480821Y-99300628D01*
X158480714Y-99364467D01*
X158480601Y-99424757D01*
X158480483Y-99481309D01*
X158480359Y-99533930D01*
X158480229Y-99582432D01*
X158480094Y-99626622D01*
X158479953Y-99666310D01*
X158479806Y-99701306D01*
X158479654Y-99731418D01*
X158479496Y-99756457D01*
X158479333Y-99776231D01*
X158479164Y-99790549D01*
X158478990Y-99799221D01*
X158478847Y-99801960D01*
X158469668Y-99838939D01*
X158454960Y-99873898D01*
X158434991Y-99906319D01*
X158410029Y-99935685D01*
X158409044Y-99936676D01*
X158379705Y-99961980D01*
X158347594Y-99981979D01*
X158312680Y-99996688D01*
X158274931Y-100006124D01*
X158271868Y-100006638D01*
X158266880Y-100006961D01*
X158262030Y-100007100D01*
X158256218Y-100007267D01*
G37*
%TD*%
G36*
X158575707Y-110899293D02*
G01*
X158576000Y-110900000D01*
X158576000Y-113400000D01*
X158575707Y-113400707D01*
X158575000Y-113401000D01*
X156425000Y-113401000D01*
X156424293Y-113400707D01*
X156424000Y-113400000D01*
X156424000Y-112649000D01*
X157351000Y-112649000D01*
X157649000Y-112649000D01*
X157649000Y-111651000D01*
X157351000Y-111651000D01*
X157351000Y-112649000D01*
X156424000Y-112649000D01*
X156424000Y-110900000D01*
X156424293Y-110899293D01*
X156425000Y-110899000D01*
X158575000Y-110899000D01*
X158575707Y-110899293D01*
G37*
M02*
