M48
; DRILL file {KiCad (6.0.2)} date Tue Mar 29 10:22:21 2022
; FORMAT={-:-/ absolute / inch / decimal}
; #@! TF.CreationDate,2022-03-29T10:22:21+07:00
; #@! TF.GenerationSoftware,Kicad,Pcbnew,(6.0.2)
; #@! TF.FileFunction,Plated,1,2,PTH
FMAT,2
INCH
; #@! TA.AperFunction,Plated,PTH,ViaDrill
T1C0.0157
; #@! TA.AperFunction,Plated,PTH,ViaDrill
T2C0.0200
; #@! TA.AperFunction,Plated,PTH,ComponentDrill
T3C0.0315
; #@! TA.AperFunction,Plated,PTH,ComponentDrill
T4C0.0374
; #@! TA.AperFunction,Plated,PTH,ComponentDrill
T5C0.0394
; #@! TA.AperFunction,Plated,PTH,ComponentDrill
T6C0.0512
; #@! TA.AperFunction,Plated,PTH,ComponentDrill
T7C0.0630
; #@! TA.AperFunction,Plated,PTH,ComponentDrill
T8C0.1181
%
G90
G05
T1
X4.5827Y-4.8425
X4.5827Y-4.8917
X4.6299Y-4.8425
X4.6299Y-4.8917
X4.69Y-4.4291
X4.8868Y-3.5699
X5.1132Y-3.9173
X5.1135Y-3.8681
X5.1142Y-3.8189
X5.3346Y-4.2913
X5.3346Y-4.3701
X5.3346Y-4.4488
X5.3346Y-4.5276
X5.3346Y-4.813
X5.3346Y-4.8917
X5.502Y-4.2126
X5.5217Y-4.7402
X5.5315Y-3.8583
X5.5463Y-4.6949
X5.561Y-4.2126
X5.5709Y-4.7402
X5.5787Y-3.9606
X5.5787Y-4.0295
X5.5787Y-4.0984
X5.5906Y-3.8583
X5.5955Y-4.6949
X5.6201Y-4.2126
X5.6201Y-4.7402
X5.6417Y-4.0354
X5.6447Y-4.6949
X5.6476Y-3.9606
X5.6476Y-4.0984
X5.6496Y-3.8583
X5.6693Y-4.7402
X5.6791Y-4.2126
X5.7087Y-3.8583
X5.7165Y-3.9606
X5.7165Y-4.0295
X5.7165Y-4.0984
T2
X5.0295Y-3.937
X5.8464Y-4.8524
X5.8464Y-4.9311
X5.8464Y-5.0098
X5.8464Y-5.0886
X5.8465Y-4.2618
X5.8465Y-4.3406
X5.8465Y-4.4193
X5.8465Y-4.498
X5.9252Y-4.8524
X5.9252Y-4.9311
X5.9252Y-5.0098
X5.9252Y-5.0886
X5.9252Y-4.2618
X5.9252Y-4.3406
X5.9252Y-4.4193
X5.9252Y-4.498
X6.0039Y-4.8524
X6.0039Y-4.9311
X6.0039Y-5.0098
X6.0039Y-5.0886
X6.0039Y-4.2618
X6.0039Y-4.3406
X6.0039Y-4.4193
X6.0039Y-4.498
X6.0827Y-4.8524
X6.0827Y-4.9311
X6.0827Y-5.0098
X6.0827Y-5.0886
X6.0827Y-4.2618
X6.0827Y-4.3406
X6.0827Y-4.4193
X6.0827Y-4.498
T3
X4.4854Y-4.4327
X4.4854Y-4.5327
X4.4854Y-4.6327
X4.4854Y-4.7327
X4.4854Y-4.8327
X4.4854Y-4.9327
X4.4854Y-5.0327
X4.4872Y-3.9793
X4.4872Y-4.0793
X4.4872Y-4.1793
X4.4872Y-4.2793
X4.7854Y-4.4327
X4.7854Y-4.5327
X4.7854Y-4.6327
X4.7854Y-4.7327
X4.7854Y-4.8327
X4.7854Y-4.9327
X4.7854Y-5.0327
X4.7872Y-3.9793
X4.7872Y-4.0793
X4.7872Y-4.1793
X4.7872Y-4.2793
X5.9744Y-3.9271
X5.9744Y-4.0767
T4
X4.5364Y-3.5728
X4.5364Y-3.6713
X4.5364Y-3.7697
T5
X5.0984Y-4.4239
X5.0984Y-4.6208
X5.0984Y-4.8524
X5.0984Y-5.0492
T6
X5.1969Y-3.6122
X6.0827Y-3.6122
T7
X6.3435Y-3.8512
X6.3435Y-4.1512
X6.3435Y-4.4512
X6.3435Y-4.7512
T8
X4.2717Y-3.5335
X4.2717Y-5.0689
X6.6339Y-3.5335
X6.6339Y-5.0689
T0
M30
